<?xml version="1.0" encoding="UTF-8" standalone="no"?>
<!DOCTYPE svg PUBLIC "-//W3C//DTD SVG 1.1//EN" "http://www.w3.org/Graphics/SVG/1.1/DTD/svg11.dtd">
<svg xmlns="http://www.w3.org/2000/svg" xmlns:xl="http://www.w3.org/1999/xlink" xmlns:dc="http://purl.org/dc/elements/1.1/" version="1.1" viewBox=".75 .75 205.375 30.5" width="205.375" height="30.5">
  <defs>
    <clipPath id="inner_stroke_clip_path">
      <path d="M 6.686666 16 L 9.092078 16 C 9.096253 14.241815 9.769071 12.484924 11.110532 11.14347 C 12.460362 9.793632 14.230836 9.120815 16 9.125016 L 16 6.719604 C 13.615238 6.715406 11.22917 7.623069 9.409655 9.442593 C 7.5985075 11.253731 6.6908445 13.626218 6.686666 16 Z"/>
    </clipPath>
  </defs>
  <metadata> Produced by OmniGraffle 7.18.1\n2021-01-01 21:43:42 +0000</metadata>
  <g id="horizontal-right" stroke-opacity="1" stroke-dasharray="none" fill-opacity="1" stroke="none" fill="none">
    <title>horizontal-right</title>
    <g id="horizontal-right_Layer_1">
      <title>Layer 1</title>
      <g id="Group_2">
        <title>Earphone L</title>
        <g id="Group_17">
          <title>Earphone cable</title>
          <g id="Graphic_19">
            <title>cable</title>
            <rect x="68.5" y="14.75" width="137.5" height="3.75" fill="#fcf7f7"/>
            <rect x="68.5" y="14.75" width="137.5" height="3.75" stroke="black" stroke-linecap="square" stroke-linejoin="miter" stroke-width=".25"/>
          </g>
          <g id="Graphic_18">
            <title>reflection-cable</title>
            <rect x="68.5" y="15.375" width="137.5" height=".55" fill="white"/>
            <rect x="68.5" y="15.375" width="137.5" height=".55" stroke="black" stroke-linecap="square" stroke-linejoin="miter" stroke-width=".125"/>
          </g>
        </g>
        <g id="Group_3">
          <title>Earbud</title>
          <g id="Group_11">
            <title>Earbud stem</title>
            <g id="Graphic_16">
              <title>upper</title>
              <rect x="23.5" y="12.25" width="40" height="8.75" fill="#fcf7f7"/>
              <rect x="23.5" y="12.25" width="40" height="8.75" stroke="black" stroke-linecap="square" stroke-linejoin="miter" stroke-width=".5"/>
            </g>
            <g id="Graphic_15">
              <title>lower</title>
              <rect x="63.5" y="13.5" width="5" height="6.25" fill="#fcf7f7"/>
              <rect x="63.5" y="13.5" width="5" height="6.25" stroke="black" stroke-linecap="square" stroke-linejoin="miter" stroke-width=".5"/>
            </g>
            <g id="Graphic_14">
              <title>reflection-lower</title>
              <rect x="63.6875" y="14.75" width="3.5625" height=".75" fill="white"/>
              <rect x="63.6875" y="14.75" width="3.5625" height=".75" stroke="black" stroke-linecap="square" stroke-linejoin="miter" stroke-width=".125"/>
            </g>
            <g id="Graphic_13">
              <title>reflection-upper</title>
              <rect x="24.125" y="13.5" width="38.125" height="1.25" fill="white"/>
              <rect x="24.125" y="13.5" width="38.125" height="1.25" stroke="black" stroke-linecap="square" stroke-linejoin="miter" stroke-width=".125"/>
            </g>
            <g id="Graphic_20">
              <title>R</title>
              <path d="M 60.77983 17.515697 L 60.010306 17.515697 L 60.010306 16.857198 C 60.010306 16.719371 60.040296 16.616003 60.100275 16.54709 C 60.160255 16.478177 60.256605 16.443721 60.389326 16.443721 C 60.52715 16.443721 60.62669 16.478177 60.68795 16.54709 C 60.749204 16.616003 60.77983 16.719371 60.77983 16.857198 Z M 59.54323 18.116769 L 62.27677 18.116769 L 62.27677 17.515697 L 61.20862 17.515697 L 61.20862 16.914625 C 61.20862 16.764037 61.2418 16.655564 61.30816 16.589204 C 61.37452 16.522843 61.47917 16.479454 61.6221 16.459035 C 61.73185 16.443721 61.8467 16.432236 61.96666 16.424579 C 62.08662 16.416922 62.18999 16.396503 62.27677 16.363323 L 62.27677 15.762251 C 62.23848 15.790327 62.191904 15.811383 62.13703 15.825421 C 62.082154 15.839459 62.02409 15.849668 61.96283 15.856049 C 61.90158 15.86243 61.8416 15.866896 61.782894 15.869449 C 61.72419 15.872001 61.673145 15.874553 61.629755 15.877106 C 61.56084 15.88221 61.49193 15.891781 61.42302 15.90582 C 61.3541 15.919857 61.290934 15.94219 61.23351 15.972818 C 61.17608 16.003446 61.12631 16.043006 61.084196 16.0915 C 61.04208 16.139995 61.01082 16.20125 60.9904 16.275268 L 60.98274 16.275268 C 60.921485 16.122128 60.832155 16.011741 60.71475 15.944104 C 60.59734 15.876467 60.45824 15.84265 60.29744 15.84265 C 60.1928 15.84265 60.09517 15.861153 60.00456 15.898162 C 59.913955 15.935171 59.834196 15.98877 59.76528 16.058959 C 59.69637 16.129148 59.642134 16.213374 59.60257 16.311639 C 59.56301 16.409904 59.54323 16.52029 59.54323 16.642802 Z" fill="black"/>
            </g>
          </g>
          <g id="Group_4">
            <title>Earbud tip</title>
            <g id="Graphic_10">
              <title>outter-circle</title>
              <circle cx="16" cy="16" r="15.0000239685284" fill="#fcf7f7"/>
              <circle cx="16" cy="16" r="15.0000239685284" stroke="black" stroke-linecap="round" stroke-linejoin="round" stroke-width=".5"/>
            </g>
            <g id="Graphic_9">
              <title>inner-circle</title>
              <circle cx="15.98353" cy="15.98353" r="11.8585497052958" fill="white"/>
              <circle cx="15.98353" cy="15.98353" r="11.8585497052958" stroke="black" stroke-linecap="round" stroke-linejoin="round" stroke-width="1"/>
            </g>
            <g id="Graphic_8">
              <title>grill-2</title>
              <path d="M 26.692615 21.14481 C 27.479114 19.523408 27.873242 17.75956 27.875 15.995391 L 27.875 15.97167 C 27.873242 14.207502 27.479114 12.443652 26.692615 10.82225 Z M 24.327844 7.539608 L 24.327844 24.427452 C 24.355955 24.399887 24.383962 24.372153 24.411864 24.34425 C 24.8128 23.943318 25.17892 23.520756 25.51023 23.08032 L 25.51023 8.88674 C 25.17892 8.446305 24.8128 8.023743 24.411864 7.62281 C 24.383962 7.594908 24.355955 7.567174 24.327844 7.539608 Z M 23.145458 6.522583 C 22.76392 6.235735 22.368978 5.975003 21.963073 5.740388 L 21.963073 26.226673 C 22.368978 25.992058 22.76392 25.731326 23.145458 25.444478 Z M 20.780687 5.143332 C 20.393147 4.974371 19.9984 4.8271766 19.598301 4.7017484 L 19.598301 27.265312 C 19.9984 27.139884 20.393147 26.99269 20.780687 26.82373 Z M 18.415916 4.3972385 C 18.024491 4.317725 17.62982 4.258171 17.23353 4.2185765 L 17.23353 27.748484 C 17.62982 27.70889 18.024491 27.649336 18.415916 27.569822 Z M 16.051144 4.1596677 C 16.04719 4.1596677 16.043237 4.1596696 16.039283 4.1596736 C 15.648578 4.160063 15.257889 4.1796974 14.868758 4.2185765 L 14.868758 27.748484 C 15.257889 27.787363 15.648578 27.806998 16.039283 27.807387 L 16.051144 27.807387 Z M 13.686373 4.3972385 C 13.288313 4.4781 12.893613 4.579603 12.503987 4.7017484 L 12.503987 27.265312 C 12.893613 27.387458 13.288313 27.48896 13.686373 27.569822 Z M 11.321601 5.143332 C 10.919 5.3188597 10.524178 5.517878 10.139216 5.740388 L 10.139216 26.226673 C 10.524178 26.449183 10.919 26.6482 11.321601 26.82373 Z M 8.95683 6.522583 C 8.546158 6.831334 8.151015 7.170343 7.774444 7.539608 L 7.774444 24.427452 C 8.151015 24.796718 8.546158 25.135727 8.95683 25.444478 Z M 6.592059 8.88674 C 6.1303086 9.500582 5.73618 10.149141 5.409673 10.82225 L 5.409673 21.14481 C 5.73618 21.81792 6.1303086 22.46648 6.592059 23.08032 Z" stroke="black" stroke-linecap="round" stroke-linejoin="round" stroke-width=".25"/>
            </g>
            <g id="Graphic_7">
              <title>grill-1</title>
              <path d="M 10.822251 26.692615 C 12.443653 27.479113 14.207502 27.87324 15.97167 27.875 L 15.99539 27.875 C 17.759558 27.87324 19.523407 27.479113 21.14481 26.692615 Z M 7.539609 24.327844 C 7.567175 24.355954 7.594909 24.383961 7.622811 24.411864 C 8.023744 24.812798 8.446306 25.17892 8.886741 25.51023 L 23.080319 25.51023 C 23.520754 25.17892 23.943316 24.812798 24.34425 24.411864 C 24.37215 24.383961 24.399885 24.355954 24.42745 24.327844 Z M 5.7403895 21.963073 C 5.9750044 22.368978 6.235736 22.76392 6.522584 23.145458 L 25.444476 23.145458 C 25.731324 22.76392 25.992055 22.368978 26.22667 21.963073 Z M 4.70175 19.598302 C 4.827178 19.9984 4.974373 20.393147 5.143334 20.780687 L 26.823726 20.780687 C 26.992687 20.393147 27.139882 19.9984 27.26531 19.598302 Z M 4.218578 17.23353 C 4.2581727 17.62982 4.3177266 18.024492 4.39724 18.415916 L 27.56982 18.415916 C 27.649333 18.024492 27.708887 17.62982 27.748482 17.23353 Z M 4.218578 14.86876 C 4.179699 15.25789 4.1600647 15.64858 4.159675 16.039284 L 4.159675 16.051145 L 27.807385 16.051145 C 27.80739 16.047192 27.80739 16.043238 27.807385 16.039284 C 27.806995 15.64858 27.78736 15.25789 27.748482 14.86876 Z M 4.70175 12.503989 C 4.579605 12.893615 4.4781015 13.288315 4.39724 13.686374 L 27.56982 13.686374 C 27.48896 13.288315 27.387455 12.893615 27.26531 12.503989 Z M 5.7403895 10.139218 C 5.51788 10.52418 5.318861 10.919002 5.143334 11.321603 L 26.823726 11.321603 C 26.6482 10.919002 26.44918 10.52418 26.22667 10.139218 Z M 7.539609 7.774447 C 7.170344 8.151018 6.831335 8.546161 6.522584 8.956832 L 25.444476 8.956832 C 25.135725 8.546161 24.796716 8.151018 24.42745 7.774447 Z M 23.080319 6.5920615 C 22.466477 6.1303115 21.817918 5.736183 21.14481 5.409676 L 10.822251 5.409676 C 10.149142 5.736183 9.500582 6.1303115 8.886741 6.5920615 Z" stroke="black" stroke-linecap="round" stroke-linejoin="round" stroke-width=".25"/>
            </g>
            <g id="Graphic_6">
              <title>reflection-tip</title>
              <path d="M 15.497595 2.2591246 C 12.147968 2.380839 8.834352 3.72023 6.277297 6.277297 C 3.5756105 8.97897 2.2332308 12.525202 2.250158 16.066143 L 2.8751656 16.066143 C 2.8582333 12.685155 4.139591 9.298873 6.719238 6.719238 C 9.154252 4.2842126 12.308003 3.0059863 15.497595 2.8845594 Z" fill="white"/>
              <path d="M 15.497595 2.2591246 C 12.147968 2.380839 8.834352 3.72023 6.277297 6.277297 C 3.5756105 8.97897 2.2332308 12.525202 2.250158 16.066143 L 2.8751656 16.066143 C 2.8582333 12.685155 4.139591 9.298873 6.719238 6.719238 C 9.154252 4.2842126 12.308003 3.0059863 15.497595 2.8845594 Z" stroke="black" stroke-linecap="round" stroke-linejoin="round" stroke-width=".125"/>
            </g>
            <g id="Graphic_5">
              <title>shadow-grill</title>
              <path d="M 6.686666 16 L 9.092078 16 C 9.096253 14.241815 9.769071 12.484924 11.110532 11.14347 C 12.460362 9.793632 14.230836 9.120815 16 9.125016 L 16 6.719604 C 13.615238 6.715406 11.22917 7.623069 9.409655 9.442593 C 7.5985075 11.253731 6.6908445 13.626218 6.686666 16 Z" fill="#333"/>
              <path d="M 6.686666 16 L 9.092078 16 C 9.096253 14.241815 9.769071 12.484924 11.110532 11.14347 C 12.460362 9.793632 14.230836 9.120815 16 9.125016 L 16 6.719604 C 13.615238 6.715406 11.22917 7.623069 9.409655 9.442593 C 7.5985075 11.253731 6.6908445 13.626218 6.686666 16 Z" stroke="#fafafa" stroke-linecap="round" stroke-linejoin="round" stroke-width="1" clip-path="url(#inner_stroke_clip_path)"/>
            </g>
          </g>
        </g>
      </g>
    </g>
  </g>
</svg>
