<?xml version="1.0" encoding="UTF-8" standalone="no"?>
<!DOCTYPE svg PUBLIC "-//W3C//DTD SVG 1.1//EN" "http://www.w3.org/Graphics/SVG/1.1/DTD/svg11.dtd">
<svg xmlns="http://www.w3.org/2000/svg" xmlns:xl="http://www.w3.org/1999/xlink" xmlns:dc="http://purl.org/dc/elements/1.1/" version="1.1" viewBox="-5.125 .75 205.375 30.5" width="205.375" height="30.5">
  <defs>
    <clipPath id="inner_stroke_clip_path">
      <path d="M 175.68667 16 L 178.09208 16 C 178.09625 14.241815 178.76907 12.484924 180.11053 11.14347 C 181.46036 9.793632 183.23084 9.120815 185 9.125016 L 185 6.719604 C 182.61524 6.715406 180.22917 7.623069 178.40965 9.442593 C 176.5985 11.253731 175.69084 13.626218 175.68667 16 Z"/>
    </clipPath>
  </defs>
  <metadata> Produced by OmniGraffle 7.18.1\n2021-01-01 21:43:42 +0000</metadata>
  <g id="horizontal-left" stroke-opacity="1" stroke-dasharray="none" fill-opacity="1" stroke="none" fill="none">
    <title>horizontal-left</title>
    <g id="horizontal-left_Layer_1">
      <title>Layer 1</title>
      <g id="Group_2">
        <title>Earphone L</title>
        <g id="Group_17">
          <title>Earphone cable</title>
          <g id="Graphic_19">
            <title>cable</title>
            <rect x="-5" y="14.75" width="137.5" height="3.75" fill="#fcf7f7"/>
            <rect x="-5" y="14.75" width="137.5" height="3.75" stroke="black" stroke-linecap="square" stroke-linejoin="miter" stroke-width=".25"/>
          </g>
          <g id="Graphic_18">
            <title>reflection-cable</title>
            <rect x="-5" y="15.375" width="137.5" height=".55" fill="white"/>
            <rect x="-5" y="15.375" width="137.5" height=".55" stroke="black" stroke-linecap="square" stroke-linejoin="miter" stroke-width=".125"/>
          </g>
        </g>
        <g id="Group_3">
          <title>Earbud</title>
          <g id="Group_11">
            <title>Earbud stem</title>
            <g id="Graphic_16">
              <title>upper</title>
              <rect x="137.5" y="12.25" width="40" height="8.75" fill="#fcf7f7"/>
              <rect x="137.5" y="12.25" width="40" height="8.75" stroke="black" stroke-linecap="square" stroke-linejoin="miter" stroke-width=".5"/>
            </g>
            <g id="Graphic_15">
              <title>lower</title>
              <rect x="132.5" y="13.5" width="5" height="6.25" fill="#fcf7f7"/>
              <rect x="132.5" y="13.5" width="5" height="6.25" stroke="black" stroke-linecap="square" stroke-linejoin="miter" stroke-width=".5"/>
            </g>
            <g id="Graphic_14">
              <title>reflection-lower</title>
              <rect x="133.75" y="14.75" width="3.5625" height=".75" fill="white"/>
              <rect x="133.75" y="14.75" width="3.5625" height=".75" stroke="black" stroke-linecap="square" stroke-linejoin="miter" stroke-width=".125"/>
            </g>
            <g id="Graphic_13">
              <title>reflection-upper</title>
              <rect x="138.75" y="13.5" width="38.125" height="1.25" fill="white"/>
              <rect x="138.75" y="13.5" width="38.125" height="1.25" stroke="black" stroke-linecap="square" stroke-linejoin="miter" stroke-width=".125"/>
            </g>
            <g id="Graphic_12">
              <title>L</title>
              <path d="M 141.606 15.615 L 138.75 15.615 L 138.75 17.635 L 139.278 17.635 L 139.278 16.243 L 141.606 16.243 Z" fill="black"/>
            </g>
          </g>
          <g id="Group_4">
            <title>Earbud tip</title>
            <g id="Graphic_10">
              <title>outter-circle</title>
              <circle cx="185" cy="16" r="15.0000239685284" fill="#fcf7f7"/>
              <circle cx="185" cy="16" r="15.0000239685284" stroke="black" stroke-linecap="round" stroke-linejoin="round" stroke-width=".5"/>
            </g>
            <g id="Graphic_9">
              <title>inner-circle</title>
              <circle cx="184.98353" cy="15.98353" r="11.8585497052958" fill="white"/>
              <circle cx="184.98353" cy="15.98353" r="11.8585497052958" stroke="black" stroke-linecap="round" stroke-linejoin="round" stroke-width="1"/>
            </g>
            <g id="Graphic_8">
              <title>grill-2</title>
              <path d="M 195.69262 21.14481 C 196.47911 19.523408 196.87324 17.75956 196.875 15.995391 L 196.875 15.97167 C 196.87324 14.207502 196.47911 12.443652 195.69262 10.82225 Z M 193.32784 7.539608 L 193.32784 24.427452 C 193.35595 24.399887 193.38396 24.372153 193.41186 24.34425 C 193.8128 23.943318 194.17892 23.520756 194.51023 23.08032 L 194.51023 8.88674 C 194.17892 8.446305 193.8128 8.023743 193.41186 7.62281 C 193.38396 7.594908 193.35595 7.567174 193.32784 7.539608 Z M 192.14546 6.522583 C 191.76392 6.235735 191.36898 5.975003 190.96307 5.740388 L 190.96307 26.226673 C 191.36898 25.992058 191.76392 25.731326 192.14546 25.444478 Z M 189.78069 5.143332 C 189.39315 4.974371 188.9984 4.8271766 188.5983 4.7017484 L 188.5983 27.265312 C 188.9984 27.139884 189.39315 26.99269 189.78069 26.82373 Z M 187.41592 4.3972385 C 187.0245 4.317725 186.62982 4.258171 186.23353 4.2185765 L 186.23353 27.748484 C 186.62982 27.70889 187.0245 27.649336 187.41592 27.569822 Z M 185.05114 4.1596677 C 185.0472 4.1596677 185.04324 4.1596696 185.03928 4.1596736 C 184.64858 4.160063 184.25789 4.1796974 183.86876 4.2185765 L 183.86876 27.748484 C 184.25789 27.787363 184.64858 27.806998 185.03928 27.807387 L 185.05114 27.807387 Z M 182.68637 4.3972385 C 182.28831 4.4781 181.89361 4.579603 181.50399 4.7017484 L 181.50399 27.265312 C 181.89361 27.387458 182.28831 27.48896 182.68637 27.569822 Z M 180.3216 5.143332 C 179.919 5.3188597 179.52418 5.517878 179.13922 5.740388 L 179.13922 26.226673 C 179.52418 26.449183 179.919 26.6482 180.3216 26.82373 Z M 177.95683 6.522583 C 177.54616 6.831334 177.15102 7.170343 176.77444 7.539608 L 176.77444 24.427452 C 177.15102 24.796718 177.54616 25.135727 177.95683 25.444478 Z M 175.59206 8.88674 C 175.1303 9.500582 174.73618 10.149141 174.40967 10.82225 L 174.40967 21.14481 C 174.73618 21.81792 175.1303 22.46648 175.59206 23.08032 Z" stroke="black" stroke-linecap="round" stroke-linejoin="round" stroke-width=".25"/>
            </g>
            <g id="Graphic_7">
              <title>grill-1</title>
              <path d="M 179.82225 26.692615 C 181.44365 27.479113 183.2075 27.87324 184.97167 27.875 L 184.9954 27.875 C 186.75956 27.87324 188.5234 27.479113 190.1448 26.692615 Z M 176.5396 24.327844 C 176.56717 24.355954 176.5949 24.383961 176.62281 24.411864 C 177.02374 24.812798 177.4463 25.17892 177.88674 25.51023 L 192.08032 25.51023 C 192.52075 25.17892 192.94332 24.812798 193.34425 24.411864 C 193.37215 24.383961 193.39989 24.355954 193.42745 24.327844 Z M 174.74039 21.963073 C 174.975 22.368978 175.23574 22.76392 175.52258 23.145458 L 194.44448 23.145458 C 194.73132 22.76392 194.99206 22.368978 195.22667 21.963073 Z M 173.70175 19.598302 C 173.82718 19.9984 173.97437 20.393147 174.14333 20.780687 L 195.82373 20.780687 C 195.99269 20.393147 196.13988 19.9984 196.2653 19.598302 Z M 173.21858 17.23353 C 173.25817 17.62982 173.31773 18.024492 173.39724 18.415916 L 196.56982 18.415916 C 196.64933 18.024492 196.70889 17.62982 196.74848 17.23353 Z M 173.21858 14.86876 C 173.1797 15.25789 173.16006 15.64858 173.15968 16.039284 L 173.15968 16.051145 L 196.80738 16.051145 C 196.8074 16.047192 196.8074 16.043238 196.80738 16.039284 C 196.807 15.64858 196.78736 15.25789 196.74848 14.86876 Z M 173.70175 12.503989 C 173.5796 12.893615 173.4781 13.288315 173.39724 13.686374 L 196.56982 13.686374 C 196.48896 13.288315 196.38746 12.893615 196.2653 12.503989 Z M 174.74039 10.139218 C 174.51788 10.52418 174.31886 10.919002 174.14333 11.321603 L 195.82373 11.321603 C 195.6482 10.919002 195.44918 10.52418 195.22667 10.139218 Z M 176.5396 7.774447 C 176.17034 8.151018 175.83134 8.546161 175.52258 8.956832 L 194.44448 8.956832 C 194.13572 8.546161 193.79672 8.151018 193.42745 7.774447 Z M 192.08032 6.5920615 C 191.46648 6.1303115 190.81792 5.736183 190.1448 5.409676 L 179.82225 5.409676 C 179.14914 5.736183 178.50058 6.1303115 177.88674 6.5920615 Z" stroke="black" stroke-linecap="round" stroke-linejoin="round" stroke-width=".25"/>
            </g>
            <g id="Graphic_6">
              <title>reflection-tip</title>
              <path d="M 184.4976 2.2591246 C 181.14797 2.380839 177.83435 3.72023 175.2773 6.277297 C 172.57561 8.97897 171.23323 12.525202 171.25016 16.066143 L 171.87517 16.066143 C 171.85823 12.685155 173.1396 9.298873 175.71924 6.719238 C 178.15425 4.2842126 181.308 3.0059863 184.4976 2.8845594 Z" fill="white"/>
              <path d="M 184.4976 2.2591246 C 181.14797 2.380839 177.83435 3.72023 175.2773 6.277297 C 172.57561 8.97897 171.23323 12.525202 171.25016 16.066143 L 171.87517 16.066143 C 171.85823 12.685155 173.1396 9.298873 175.71924 6.719238 C 178.15425 4.2842126 181.308 3.0059863 184.4976 2.8845594 Z" stroke="black" stroke-linecap="round" stroke-linejoin="round" stroke-width=".125"/>
            </g>
            <g id="Graphic_5">
              <title>shadow-grill</title>
              <path d="M 175.68667 16 L 178.09208 16 C 178.09625 14.241815 178.76907 12.484924 180.11053 11.14347 C 181.46036 9.793632 183.23084 9.120815 185 9.125016 L 185 6.719604 C 182.61524 6.715406 180.22917 7.623069 178.40965 9.442593 C 176.5985 11.253731 175.69084 13.626218 175.68667 16 Z" fill="#333"/>
              <path d="M 175.68667 16 L 178.09208 16 C 178.09625 14.241815 178.76907 12.484924 180.11053 11.14347 C 181.46036 9.793632 183.23084 9.120815 185 9.125016 L 185 6.719604 C 182.61524 6.715406 180.22917 7.623069 178.40965 9.442593 C 176.5985 11.253731 175.69084 13.626218 175.68667 16 Z" stroke="#fafafa" stroke-linecap="round" stroke-linejoin="round" stroke-width="1" clip-path="url(#inner_stroke_clip_path)"/>
            </g>
          </g>
        </g>
      </g>
    </g>
  </g>
</svg>
