<?xml version="1.0" encoding="UTF-8" standalone="no"?>
<!DOCTYPE svg PUBLIC "-//W3C//DTD SVG 1.1//EN" "http://www.w3.org/Graphics/SVG/1.1/DTD/svg11.dtd">
<svg xmlns="http://www.w3.org/2000/svg" xmlns:xl="http://www.w3.org/1999/xlink" xmlns:dc="http://purl.org/dc/elements/1.1/" version="1.1" viewBox="0 0 133 161" width="133" height="161">
  <defs>
    <clipPath id="inner_stroke_clip_path">
      <path d="M 104.43667 145 L 106.84208 145 C 106.84625 143.24182 107.51907 141.48492 108.86053 140.14347 C 110.21036 138.79363 111.98084 138.12081 113.75 138.12502 L 113.75 135.7196 C 111.36524 135.7154 108.97917 136.62307 107.15965 138.4426 C 105.34851 140.25373 104.44084 142.62622 104.43667 145 Z"/>
    </clipPath>
  </defs>
  <metadata> Produced by OmniGraffle 7.18.1\n2021-01-01 23:33:45 +0000</metadata>
  <g id="sidebar-left-even" stroke-opacity="1" stroke-dasharray="none" fill-opacity="1" stroke="none" fill="none">
    <title>sidebar-left-even</title>
    <g id="sidebar-left-even_Layer_1">
      <title>Layer 1</title>
      <g id="Group_23">
        <title>Cable</title>
        <g id="Graphic_19">
          <title>cable</title>
          <path d="M 111.25 5 L 111.25 142.5 L 115 142.5 C 115 142.5 115 8.75 115 5 C 115 1.25 112.5 1.25 111.25 1.25 C 110 1.25 100 1.25 100 1.25 C 100 1.25 96.25 1.25 96.25 5 C 96.25 8.75 96.25 121.25 96.25 121.25 L 77.5 121.25 C 77.5 121.25 77.5 53.75 77.5 50 C 77.5 46.25 73.75 46.25 73.75 46.25 C 73.75 46.25 63.75 46.25 62.5 46.25 C 61.25 46.25 58.75 46.25 58.75 50 C 58.75 53.75 58.75 87.5 58.75 87.5 L -1.25 87.5 L -1.25 91.25 C -1.25 91.25 57.5 91.25 58.75 91.25 C 60 91.25 62.5 91.25 62.5 87.5 C 62.5 83.75 62.5 50 62.5 50 L 73.75 50 C 73.75 50 73.75 117.5 73.75 121.25 C 73.75 125 77.5 125 77.5 125 L 96.25 125 C 96.25 125 100 125 100 121.25 C 100 117.5 100 5 100 5 Z" fill="#fcf7f7"/>
          <path d="M 111.25 5 L 111.25 142.5 L 115 142.5 C 115 142.5 115 8.75 115 5 C 115 1.25 112.5 1.25 111.25 1.25 C 110 1.25 100 1.25 100 1.25 C 100 1.25 96.25 1.25 96.25 5 C 96.25 8.75 96.25 121.25 96.25 121.25 L 77.5 121.25 C 77.5 121.25 77.5 53.75 77.5 50 C 77.5 46.25 73.75 46.25 73.75 46.25 C 73.75 46.25 63.75 46.25 62.5 46.25 C 61.25 46.25 58.75 46.25 58.75 50 C 58.75 53.75 58.75 87.5 58.75 87.5 L -1.25 87.5 L -1.25 91.25 C -1.25 91.25 57.5 91.25 58.75 91.25 C 60 91.25 62.5 91.25 62.5 87.5 C 62.5 83.75 62.5 50 62.5 50 L 73.75 50 C 73.75 50 73.75 117.5 73.75 121.25 C 73.75 125 77.5 125 77.5 125 L 96.25 125 C 96.25 125 100 125 100 121.25 C 100 117.5 100 5 100 5 Z" stroke="black" stroke-linecap="square" stroke-linejoin="miter" stroke-width=".25"/>
        </g>
        <g id="Graphic_18">
          <title>reflection-cable</title>
          <rect x="111.875" y="5" width=".55" height="137.5" fill="white"/>
          <rect x="111.875" y="5" width=".55" height="137.5" stroke="black" stroke-linecap="square" stroke-linejoin="miter" stroke-width=".125"/>
        </g>
        <g id="Graphic_20">
          <title>reflection-cable</title>
          <rect x="96.95" y="5" width=".55" height="116.25" fill="white"/>
          <rect x="96.95" y="5" width=".55" height="116.25" stroke="black" stroke-linecap="square" stroke-linejoin="miter" stroke-width=".125"/>
        </g>
        <g id="Graphic_21">
          <title>reflection-cable</title>
          <rect x="74.45" y="50" width=".55" height="71.25" fill="white"/>
          <rect x="74.45" y="50" width=".55" height="71.25" stroke="black" stroke-linecap="square" stroke-linejoin="miter" stroke-width=".125"/>
        </g>
        <g id="Graphic_22">
          <title>reflection-cable</title>
          <rect x="59.45" y="50" width=".55" height="37.5" fill="white"/>
          <rect x="59.45" y="50" width=".55" height="37.5" stroke="black" stroke-linecap="square" stroke-linejoin="miter" stroke-width=".125"/>
        </g>
      </g>
      <g id="Group_3">
        <title>Earbud</title>
        <g id="Group_11">
          <title>Earbud stem</title>
          <g id="Graphic_16">
            <title>upper</title>
            <rect x="108.75" y="97.5" width="8.75" height="40" fill="#fcf7f7"/>
            <rect x="108.75" y="97.5" width="8.75" height="40" stroke="black" stroke-linecap="square" stroke-linejoin="miter" stroke-width=".5"/>
          </g>
          <g id="Graphic_15">
            <title>lower</title>
            <rect x="110" y="92.5" width="6.25" height="5" fill="#fcf7f7"/>
            <rect x="110" y="92.5" width="6.25" height="5" stroke="black" stroke-linecap="square" stroke-linejoin="miter" stroke-width=".5"/>
          </g>
          <g id="Graphic_14">
            <title>reflection-lower</title>
            <rect x="111.25" y="93.75" width=".75" height="3.5625" fill="white"/>
            <rect x="111.25" y="93.75" width=".75" height="3.5625" stroke="black" stroke-linecap="square" stroke-linejoin="miter" stroke-width=".125"/>
          </g>
          <g id="Graphic_13">
            <title>reflection-upper</title>
            <rect x="110" y="98.75" width="1.25" height="38.125" fill="white"/>
            <rect x="110" y="98.75" width="1.25" height="38.125" stroke="black" stroke-linecap="square" stroke-linejoin="miter" stroke-width=".125"/>
          </g>
          <g id="Graphic_12">
            <title>L</title>
            <path d="M 114.135 101.606 L 114.135 98.75 L 112.115 98.75 L 112.115 99.278 L 113.507 99.278 L 113.507 101.606 Z" fill="black"/>
          </g>
        </g>
        <g id="Group_4">
          <title>Earbud tip</title>
          <g id="Graphic_10">
            <title>outter-circle</title>
            <circle cx="113.75" cy="145" r="15.0000239685284" fill="#fcf7f7"/>
            <circle cx="113.75" cy="145" r="15.0000239685284" stroke="black" stroke-linecap="round" stroke-linejoin="round" stroke-width=".5"/>
          </g>
          <g id="Graphic_9">
            <title>inner-circle</title>
            <circle cx="113.73353" cy="144.98353" r="11.8585497052958" fill="white"/>
            <circle cx="113.73353" cy="144.98353" r="11.8585497052958" stroke="black" stroke-linecap="round" stroke-linejoin="round" stroke-width="1"/>
          </g>
          <g id="Graphic_8">
            <title>grill-2</title>
            <path d="M 124.44262 150.14481 C 125.22911 148.5234 125.62324 146.75956 125.625 144.99539 L 125.625 144.97167 C 125.62324 143.2075 125.22911 141.44365 124.44262 139.82225 Z M 122.07784 136.53961 L 122.07784 153.42745 C 122.10595 153.39989 122.13396 153.37215 122.16186 153.34425 C 122.5628 152.94332 122.92892 152.52076 123.26023 152.08032 L 123.26023 137.88674 C 122.92892 137.4463 122.5628 137.02374 122.16186 136.62281 C 122.13396 136.5949 122.10595 136.56717 122.07784 136.53961 Z M 120.89546 135.52258 C 120.51392 135.23573 120.11898 134.975 119.71307 134.74039 L 119.71307 155.22667 C 120.11898 154.99206 120.51392 154.73133 120.89546 154.44448 Z M 118.53069 134.14333 C 118.14315 133.97437 117.7484 133.82718 117.3483 133.70175 L 117.3483 156.26531 C 117.7484 156.13988 118.14315 155.99269 118.53069 155.82373 Z M 116.16592 133.39724 C 115.77449 133.31773 115.37982 133.25817 114.98353 133.21858 L 114.98353 156.74848 C 115.37982 156.70889 115.77449 156.64934 116.16592 156.56982 Z M 113.80114 133.15967 C 113.79719 133.15967 113.79324 133.15967 113.78928 133.15967 C 113.39858 133.16006 113.00789 133.1797 112.61876 133.21858 L 112.61876 156.74848 C 113.00789 156.78736 113.39858 156.807 113.78928 156.80739 L 113.80114 156.80739 Z M 111.43637 133.39724 C 111.03831 133.4781 110.64361 133.5796 110.25399 133.70175 L 110.25399 156.26531 C 110.64361 156.38746 111.03831 156.48896 111.43637 156.56982 Z M 109.0716 134.14333 C 108.669 134.31886 108.27418 134.51788 107.88922 134.74039 L 107.88922 155.22667 C 108.27418 155.44918 108.669 155.6482 109.0716 155.82373 Z M 106.70683 135.52258 C 106.29616 135.83133 105.90102 136.17034 105.52444 136.53961 L 105.52444 153.42745 C 105.90102 153.79672 106.29616 154.13573 106.70683 154.44448 Z M 104.34206 137.88674 C 103.88031 138.50058 103.48618 139.14914 103.15967 139.82225 L 103.15967 150.14481 C 103.48618 150.81792 103.88031 151.46648 104.34206 152.08032 Z" stroke="black" stroke-linecap="round" stroke-linejoin="round" stroke-width=".25"/>
          </g>
          <g id="Graphic_7">
            <title>grill-1</title>
            <path d="M 108.57225 155.69261 C 110.19365 156.47911 111.9575 156.87324 113.72167 156.875 L 113.74539 156.875 C 115.50956 156.87324 117.27341 156.47911 118.89481 155.69261 Z M 105.28961 153.32784 C 105.31717 153.35595 105.34491 153.38396 105.37281 153.41186 C 105.77374 153.8128 106.1963 154.17892 106.63674 154.51023 L 120.83032 154.51023 C 121.27075 154.17892 121.69332 153.8128 122.09425 153.41186 C 122.12215 153.38396 122.14989 153.35595 122.17745 153.32784 Z M 103.49039 150.96307 C 103.725 151.36898 103.98574 151.76392 104.27258 152.14546 L 123.19448 152.14546 C 123.48132 151.76392 123.74206 151.36898 123.97667 150.96307 Z M 102.45175 148.5983 C 102.57718 148.9984 102.72437 149.39315 102.89333 149.78069 L 124.57373 149.78069 C 124.74269 149.39315 124.88988 148.9984 125.01531 148.5983 Z M 101.96858 146.23353 C 102.00817 146.62982 102.06773 147.0245 102.14724 147.41592 L 125.31982 147.41592 C 125.39933 147.0245 125.45889 146.62982 125.49848 146.23353 Z M 101.96858 143.86876 C 101.9297 144.25789 101.91006 144.64858 101.90968 145.03928 L 101.90968 145.05115 L 125.55738 145.05115 C 125.55739 145.0472 125.55739 145.04324 125.55738 145.03928 C 125.557 144.64858 125.53736 144.25789 125.49848 143.86876 Z M 102.45175 141.50399 C 102.3296 141.89361 102.2281 142.28832 102.14724 142.68637 L 125.31982 142.68637 C 125.23896 142.28832 125.13746 141.89361 125.01531 141.50399 Z M 103.49039 139.13922 C 103.26788 139.52418 103.06886 139.919 102.89333 140.3216 L 124.57373 140.3216 C 124.3982 139.919 124.19918 139.52418 123.97667 139.13922 Z M 105.28961 136.77445 C 104.92034 137.15102 104.58134 137.54616 104.27258 137.95683 L 123.19448 137.95683 C 122.88572 137.54616 122.54672 137.15102 122.17745 136.77445 Z M 120.83032 135.59206 C 120.21648 135.13031 119.56792 134.73618 118.89481 134.40968 L 108.57225 134.40968 C 107.89914 134.73618 107.25058 135.13031 106.63674 135.59206 Z" stroke="black" stroke-linecap="round" stroke-linejoin="round" stroke-width=".25"/>
          </g>
          <g id="Graphic_6">
            <title>reflection-tip</title>
            <path d="M 113.2476 131.25912 C 109.89797 131.38084 106.58435 132.72023 104.0273 135.2773 C 101.32561 137.97897 99.98323 141.5252 100.00016 145.06614 L 100.62517 145.06614 C 100.60823 141.68516 101.88959 138.29887 104.46924 135.71924 C 106.90425 133.28421 110.058 132.00599 113.2476 131.88456 Z" fill="white"/>
            <path d="M 113.2476 131.25912 C 109.89797 131.38084 106.58435 132.72023 104.0273 135.2773 C 101.32561 137.97897 99.98323 141.5252 100.00016 145.06614 L 100.62517 145.06614 C 100.60823 141.68516 101.88959 138.29887 104.46924 135.71924 C 106.90425 133.28421 110.058 132.00599 113.2476 131.88456 Z" stroke="black" stroke-linecap="round" stroke-linejoin="round" stroke-width=".125"/>
          </g>
          <g id="Graphic_5">
            <title>shadow-grill</title>
            <path d="M 104.43667 145 L 106.84208 145 C 106.84625 143.24182 107.51907 141.48492 108.86053 140.14347 C 110.21036 138.79363 111.98084 138.12081 113.75 138.12502 L 113.75 135.7196 C 111.36524 135.7154 108.97917 136.62307 107.15965 138.4426 C 105.34851 140.25373 104.44084 142.62622 104.43667 145 Z" fill="#333"/>
            <path d="M 104.43667 145 L 106.84208 145 C 106.84625 143.24182 107.51907 141.48492 108.86053 140.14347 C 110.21036 138.79363 111.98084 138.12081 113.75 138.12502 L 113.75 135.7196 C 111.36524 135.7154 108.97917 136.62307 107.15965 138.4426 C 105.34851 140.25373 104.44084 142.62622 104.43667 145 Z" stroke="#fafafa" stroke-linecap="round" stroke-linejoin="round" stroke-width="1" clip-path="url(#inner_stroke_clip_path)"/>
          </g>
        </g>
      </g>
    </g>
  </g>
</svg>
