<?xml version="1.0" encoding="UTF-8" standalone="no"?>
<!DOCTYPE svg PUBLIC "-//W3C//DTD SVG 1.1//EN" "http://www.w3.org/Graphics/SVG/1.1/DTD/svg11.dtd">
<svg xmlns="http://www.w3.org/2000/svg" xmlns:xl="http://www.w3.org/1999/xlink" xmlns:dc="http://purl.org/dc/elements/1.1/" version="1.1" viewBox="0 0 133 104" width="133" height="104">
  <defs>
    <clipPath id="inner_stroke_clip_path">
      <path d="M 106.93667 17.5 L 109.34208 17.5 C 109.34625 15.741815 110.01907 13.984924 111.36053 12.64347 C 112.71036 11.293632 114.48084 10.620815 116.25 10.625016 L 116.25 8.219604 C 113.86524 8.215406 111.47917 9.123069 109.65965 10.942593 C 107.84851 12.753731 106.94084 15.126218 106.93667 17.5 Z"/>
    </clipPath>
  </defs>
  <metadata> Produced by OmniGraffle 7.18.1\n2021-01-01 22:46:27 +0000</metadata>
  <g id="sidebar-left-3-odd" stroke-opacity="1" stroke-dasharray="none" fill-opacity="1" stroke="none" fill="none">
    <title>sidebar-left-3-odd</title>
    <g id="sidebar-left-3-odd_Layer_1">
      <title>Layer 1</title>
      <g id="Group_37">
        <title>Cable</title>
        <g id="Graphic_35">
          <title>cable</title>
          <path d="M 105 82.5 C 105 82.5 45 82.5 48.75 82.5 C 48.75 82.5 45 82.5 45 78.75 C 45 78.75 45 15 45 18.75 C 45 18.75 45 15 48.75 15 L 63.75 15 L 63.75 18.75 L 48.75 18.75 L 48.75 78.75 C 48.75 78.75 108.75 78.75 105 78.75 C 105 78.75 108.75 78.75 108.75 82.5 C 108.75 82.5 108.75 101.25 108.75 97.5 C 108.75 97.5 108.75 101.25 105 101.25 L -3.75 101.25 L -3.75 97.5 L 105 97.5 Z" fill="#fcf7f7"/>
          <path d="M 105 82.5 C 105 82.5 45 82.5 48.75 82.5 C 48.75 82.5 45 82.5 45 78.75 C 45 78.75 45 15 45 18.75 C 45 18.75 45 15 48.75 15 L 63.75 15 L 63.75 18.75 L 48.75 18.75 L 48.75 78.75 C 48.75 78.75 108.75 78.75 105 78.75 C 105 78.75 108.75 78.75 108.75 82.5 C 108.75 82.5 108.75 101.25 108.75 97.5 C 108.75 97.5 108.75 101.25 105 101.25 L -3.75 101.25 L -3.75 97.5 L 105 97.5 Z" stroke="black" stroke-linecap="square" stroke-linejoin="miter" stroke-width=".25"/>
        </g>
        <g id="Graphic_34">
          <title>reflection-cable</title>
          <rect x="105.7" y="82.5" width=".55" height="15" fill="white"/>
          <rect x="105.7" y="82.5" width=".55" height="15" stroke="black" stroke-linecap="square" stroke-linejoin="miter" stroke-width=".125"/>
        </g>
        <g id="Graphic_36">
          <title>reflection-cable</title>
          <rect x="45.7" y="18.75" width=".55" height="60" fill="white"/>
          <rect x="45.7" y="18.75" width=".55" height="60" stroke="black" stroke-linecap="square" stroke-linejoin="miter" stroke-width=".125"/>
        </g>
      </g>
      <g id="Group_3">
        <title>Earbud</title>
        <g id="Group_11">
          <title>Earbud stem</title>
          <g id="Graphic_16">
            <title>upper</title>
            <rect x="68.75" y="12.5" width="40" height="8.75" fill="#fcf7f7"/>
            <rect x="68.75" y="12.5" width="40" height="8.75" stroke="black" stroke-linecap="square" stroke-linejoin="miter" stroke-width=".5"/>
          </g>
          <g id="Graphic_15">
            <title>lower</title>
            <rect x="63.75" y="13.75" width="5" height="6.25" fill="#fcf7f7"/>
            <rect x="63.75" y="13.75" width="5" height="6.25" stroke="black" stroke-linecap="square" stroke-linejoin="miter" stroke-width=".5"/>
          </g>
          <g id="Graphic_14">
            <title>reflection-lower</title>
            <rect x="65" y="15" width="3.5625" height=".75" fill="white"/>
            <rect x="65" y="15" width="3.5625" height=".75" stroke="black" stroke-linecap="square" stroke-linejoin="miter" stroke-width=".125"/>
          </g>
          <g id="Graphic_13">
            <title>reflection-upper</title>
            <rect x="70" y="13.75" width="38.125" height="1.25" fill="white"/>
            <rect x="70" y="13.75" width="38.125" height="1.25" stroke="black" stroke-linecap="square" stroke-linejoin="miter" stroke-width=".125"/>
          </g>
          <g id="Graphic_32">
            <title>L</title>
            <path d="M 72.856 16.25 L 70 16.25 L 70 18.27 L 70.528 18.27 L 70.528 16.878 L 72.856 16.878 Z" fill="black"/>
          </g>
        </g>
        <g id="Group_4">
          <title>Earbud tip</title>
          <g id="Graphic_10">
            <title>outter-circle</title>
            <circle cx="116.25" cy="17.5" r="15.0000239685284" fill="#fcf7f7"/>
            <circle cx="116.25" cy="17.5" r="15.0000239685284" stroke="black" stroke-linecap="round" stroke-linejoin="round" stroke-width=".5"/>
          </g>
          <g id="Graphic_9">
            <title>inner-circle</title>
            <circle cx="116.23353" cy="17.48353" r="11.8585497052958" fill="white"/>
            <circle cx="116.23353" cy="17.48353" r="11.8585497052958" stroke="black" stroke-linecap="round" stroke-linejoin="round" stroke-width="1"/>
          </g>
          <g id="Graphic_8">
            <title>grill-2</title>
            <path d="M 126.94262 22.64481 C 127.72911 21.023408 128.12324 19.25956 128.125 17.495391 L 128.125 17.47167 C 128.12324 15.707502 127.72911 13.943652 126.94262 12.32225 Z M 124.57784 9.039608 L 124.57784 25.927452 C 124.60595 25.899887 124.63396 25.872153 124.66186 25.84425 C 125.0628 25.443318 125.42892 25.020756 125.76023 24.58032 L 125.76023 10.38674 C 125.42892 9.946305 125.0628 9.523743 124.66186 9.12281 C 124.63396 9.094908 124.60595 9.067174 124.57784 9.039608 Z M 123.39546 8.022583 C 123.01392 7.735735 122.61898 7.475003 122.21307 7.240388 L 122.21307 27.726673 C 122.61898 27.492058 123.01392 27.231326 123.39546 26.944478 Z M 121.03069 6.643332 C 120.64315 6.474371 120.2484 6.3271766 119.8483 6.2017484 L 119.8483 28.765312 C 120.2484 28.639884 120.64315 28.49269 121.03069 28.32373 Z M 118.66592 5.8972385 C 118.27449 5.817725 117.87982 5.758171 117.48353 5.7185765 L 117.48353 29.248484 C 117.87982 29.20889 118.27449 29.149336 118.66592 29.069822 Z M 116.30114 5.6596677 C 116.29719 5.6596677 116.29324 5.6596696 116.28928 5.6596736 C 115.89858 5.660063 115.50789 5.6796974 115.11876 5.7185765 L 115.11876 29.248484 C 115.50789 29.287363 115.89858 29.306998 116.28928 29.307387 L 116.30114 29.307387 Z M 113.93637 5.8972385 C 113.53831 5.9781 113.14361 6.079603 112.75399 6.2017484 L 112.75399 28.765312 C 113.14361 28.887458 113.53831 28.98896 113.93637 29.069822 Z M 111.5716 6.643332 C 111.169 6.81886 110.77418 7.017878 110.38922 7.240388 L 110.38922 27.726673 C 110.77418 27.949183 111.169 28.1482 111.5716 28.32373 Z M 109.20683 8.022583 C 108.79616 8.331334 108.40102 8.670343 108.02444 9.039608 L 108.02444 25.927452 C 108.40102 26.296718 108.79616 26.635727 109.20683 26.944478 Z M 106.84206 10.38674 C 106.38031 11.000582 105.98618 11.649141 105.65967 12.32225 L 105.65967 22.64481 C 105.98618 23.31792 106.38031 23.96648 106.84206 24.58032 Z" stroke="black" stroke-linecap="round" stroke-linejoin="round" stroke-width=".25"/>
          </g>
          <g id="Graphic_7">
            <title>grill-1</title>
            <path d="M 111.07225 28.192615 C 112.69365 28.979113 114.4575 29.37324 116.22167 29.375 L 116.24539 29.375 C 118.00956 29.37324 119.77341 28.979113 121.39481 28.192615 Z M 107.78961 25.827844 C 107.81717 25.855954 107.84491 25.88396 107.87281 25.911864 C 108.27374 26.312798 108.6963 26.67892 109.13674 27.01023 L 123.33032 27.01023 C 123.77075 26.67892 124.19332 26.312798 124.59425 25.911864 C 124.62215 25.88396 124.64989 25.855954 124.67745 25.827844 Z M 105.99039 23.463073 C 106.225 23.868978 106.48574 24.26392 106.77258 24.645458 L 125.69448 24.645458 C 125.98132 24.26392 126.24206 23.868978 126.47667 23.463073 Z M 104.95175 21.098302 C 105.07718 21.4984 105.22437 21.893147 105.39333 22.280687 L 127.07373 22.280687 C 127.24269 21.893147 127.38988 21.4984 127.51531 21.098302 Z M 104.46858 18.73353 C 104.50817 19.12982 104.56773 19.524492 104.64724 19.915916 L 127.81982 19.915916 C 127.89933 19.524492 127.95889 19.12982 127.99848 18.73353 Z M 104.46858 16.36876 C 104.4297 16.75789 104.41006 17.14858 104.40968 17.539284 L 104.40968 17.551145 L 128.05738 17.551145 C 128.05739 17.547192 128.05739 17.543238 128.05738 17.539284 C 128.057 17.14858 128.03736 16.75789 127.99848 16.36876 Z M 104.95175 14.003989 C 104.8296 14.393615 104.7281 14.788315 104.64724 15.186374 L 127.81982 15.186374 C 127.73896 14.788315 127.63746 14.393615 127.51531 14.003989 Z M 105.99039 11.639218 C 105.76788 12.02418 105.56886 12.419002 105.39333 12.821603 L 127.07373 12.821603 C 126.8982 12.419002 126.69918 12.02418 126.47667 11.639218 Z M 107.78961 9.274447 C 107.42034 9.651018 107.08134 10.046161 106.77258 10.456832 L 125.69448 10.456832 C 125.38572 10.046161 125.04672 9.651018 124.67745 9.274447 Z M 123.33032 8.0920615 C 122.71648 7.6303115 122.06792 7.236183 121.39481 6.909676 L 111.07225 6.909676 C 110.39914 7.236183 109.75058 7.6303115 109.13674 8.0920615 Z" stroke="black" stroke-linecap="round" stroke-linejoin="round" stroke-width=".25"/>
          </g>
          <g id="Graphic_6">
            <title>reflection-tip</title>
            <path d="M 115.7476 3.7591246 C 112.39797 3.880839 109.08435 5.22023 106.5273 7.777297 C 103.82561 10.47897 102.48323 14.025202 102.50016 17.566143 L 103.12517 17.566143 C 103.10823 14.185155 104.38959 10.798873 106.96924 8.219238 C 109.40425 5.7842126 112.558 4.5059863 115.7476 4.3845594 Z" fill="white"/>
            <path d="M 115.7476 3.7591246 C 112.39797 3.880839 109.08435 5.22023 106.5273 7.777297 C 103.82561 10.47897 102.48323 14.025202 102.50016 17.566143 L 103.12517 17.566143 C 103.10823 14.185155 104.38959 10.798873 106.96924 8.219238 C 109.40425 5.7842126 112.558 4.5059863 115.7476 4.3845594 Z" stroke="black" stroke-linecap="round" stroke-linejoin="round" stroke-width=".125"/>
          </g>
          <g id="Graphic_5">
            <title>shadow-grill</title>
            <path d="M 106.93667 17.5 L 109.34208 17.5 C 109.34625 15.741815 110.01907 13.984924 111.36053 12.64347 C 112.71036 11.293632 114.48084 10.620815 116.25 10.625016 L 116.25 8.219604 C 113.86524 8.215406 111.47917 9.123069 109.65965 10.942593 C 107.84851 12.753731 106.94084 15.126218 106.93667 17.5 Z" fill="#333"/>
            <path d="M 106.93667 17.5 L 109.34208 17.5 C 109.34625 15.741815 110.01907 13.984924 111.36053 12.64347 C 112.71036 11.293632 114.48084 10.620815 116.25 10.625016 L 116.25 8.219604 C 113.86524 8.215406 111.47917 9.123069 109.65965 10.942593 C 107.84851 12.753731 106.94084 15.126218 106.93667 17.5 Z" stroke="#fafafa" stroke-linecap="round" stroke-linejoin="round" stroke-width="1" clip-path="url(#inner_stroke_clip_path)"/>
          </g>
        </g>
      </g>
    </g>
  </g>
</svg>
