<?xml version="1.0" encoding="UTF-8" standalone="no"?>
<!DOCTYPE svg PUBLIC "-//W3C//DTD SVG 1.1//EN" "http://www.w3.org/Graphics/SVG/1.1/DTD/svg11.dtd">
<svg xmlns="http://www.w3.org/2000/svg" xmlns:xl="http://www.w3.org/1999/xlink" xmlns:dc="http://purl.org/dc/elements/1.1/" version="1.1" viewBox="0 0 133 104" width="133" height="104">
  <defs>
    <clipPath id="inner_stroke_clip_path">
      <path d="M 106.93667 86.25 L 109.34208 86.25 C 109.34625 84.49182 110.01907 82.73492 111.36053 81.39347 C 112.71036 80.04363 114.48084 79.37081 116.25 79.37502 L 116.25 76.9696 C 113.86524 76.96541 111.47917 77.87307 109.65965 79.69259 C 107.84851 81.50373 106.94084 83.87622 106.93667 86.25 Z"/>
    </clipPath>
  </defs>
  <metadata> Produced by OmniGraffle 7.18.1\n2021-01-01 22:46:27 +0000</metadata>
  <g id="sidebar-left-3-even" stroke-opacity="1" stroke-dasharray="none" fill-opacity="1" stroke="none" fill="none">
    <title>sidebar-left-3-even</title>
    <g id="sidebar-left-3-even_Layer_1">
      <title>Layer 1</title>
      <g id="Group_37">
        <title>Cable</title>
        <g id="Graphic_35">
          <title>cable</title>
          <path d="M 105 20 C 105 20 45 20 48.75 20 C 48.75 20 45 20 45 23.75 C 45 23.75 45 87.5 45 83.75 C 45 83.75 45 87.5 48.75 87.5 L 63.75 87.5 L 63.75 83.75 L 48.75 83.75 L 48.75 23.75 C 48.75 23.75 108.75 23.75 105 23.75 C 105 23.75 108.75 23.75 108.75 20 C 108.75 20 108.75 1.25 108.75 5 C 108.75 5 108.75 1.25 105 1.25 L -3.75 1.25 L -3.75 5 L 105 5 Z" fill="#fcf7f7"/>
          <path d="M 105 20 C 105 20 45 20 48.75 20 C 48.75 20 45 20 45 23.75 C 45 23.75 45 87.5 45 83.75 C 45 83.75 45 87.5 48.75 87.5 L 63.75 87.5 L 63.75 83.75 L 48.75 83.75 L 48.75 23.75 C 48.75 23.75 108.75 23.75 105 23.75 C 105 23.75 108.75 23.75 108.75 20 C 108.75 20 108.75 1.25 108.75 5 C 108.75 5 108.75 1.25 105 1.25 L -3.75 1.25 L -3.75 5 L 105 5 Z" stroke="black" stroke-linecap="square" stroke-linejoin="miter" stroke-width=".25"/>
        </g>
        <g id="Graphic_34">
          <title>reflection-cable</title>
          <rect x="105.7" y="5" width=".55" height="15" fill="white"/>
          <rect x="105.7" y="5" width=".55" height="15" stroke="black" stroke-linecap="square" stroke-linejoin="miter" stroke-width=".125"/>
        </g>
        <g id="Graphic_36">
          <title>reflection-cable</title>
          <rect x="45.7" y="23.75" width=".55" height="60" fill="white"/>
          <rect x="45.7" y="23.75" width=".55" height="60" stroke="black" stroke-linecap="square" stroke-linejoin="miter" stroke-width=".125"/>
        </g>
      </g>
      <g id="Group_3">
        <title>Earbud</title>
        <g id="Group_11">
          <title>Earbud stem</title>
          <g id="Graphic_16">
            <title>upper</title>
            <rect x="68.75" y="81.25" width="40" height="8.75" fill="#fcf7f7"/>
            <rect x="68.75" y="81.25" width="40" height="8.75" stroke="black" stroke-linecap="square" stroke-linejoin="miter" stroke-width=".5"/>
          </g>
          <g id="Graphic_15">
            <title>lower</title>
            <rect x="63.75" y="82.5" width="5" height="6.25" fill="#fcf7f7"/>
            <rect x="63.75" y="82.5" width="5" height="6.25" stroke="black" stroke-linecap="square" stroke-linejoin="miter" stroke-width=".5"/>
          </g>
          <g id="Graphic_14">
            <title>reflection-lower</title>
            <rect x="65" y="83.75" width="3.5625" height=".75" fill="white"/>
            <rect x="65" y="83.75" width="3.5625" height=".75" stroke="black" stroke-linecap="square" stroke-linejoin="miter" stroke-width=".125"/>
          </g>
          <g id="Graphic_13">
            <title>reflection-upper</title>
            <rect x="70" y="82.5" width="38.125" height="1.25" fill="white"/>
            <rect x="70" y="82.5" width="38.125" height="1.25" stroke="black" stroke-linecap="square" stroke-linejoin="miter" stroke-width=".125"/>
          </g>
          <g id="Graphic_32">
            <title>L</title>
            <path d="M 72.856 85 L 70 85 L 70 87.02 L 70.528 87.02 L 70.528 85.628 L 72.856 85.628 Z" fill="black"/>
          </g>
        </g>
        <g id="Group_4">
          <title>Earbud tip</title>
          <g id="Graphic_10">
            <title>outter-circle</title>
            <circle cx="116.25" cy="86.25" r="15.0000239685284" fill="#fcf7f7"/>
            <circle cx="116.25" cy="86.25" r="15.0000239685284" stroke="black" stroke-linecap="round" stroke-linejoin="round" stroke-width=".5"/>
          </g>
          <g id="Graphic_9">
            <title>inner-circle</title>
            <circle cx="116.23353" cy="86.23353" r="11.8585497052958" fill="white"/>
            <circle cx="116.23353" cy="86.23353" r="11.8585497052958" stroke="black" stroke-linecap="round" stroke-linejoin="round" stroke-width="1"/>
          </g>
          <g id="Graphic_8">
            <title>grill-2</title>
            <path d="M 126.94262 91.39481 C 127.72911 89.77341 128.12324 88.00956 128.125 86.24539 L 128.125 86.22167 C 128.12324 84.4575 127.72911 82.69365 126.94262 81.07225 Z M 124.57784 77.78961 L 124.57784 94.67745 C 124.60595 94.64989 124.63396 94.62215 124.66186 94.59425 C 125.0628 94.19332 125.42892 93.77076 125.76023 93.33032 L 125.76023 79.13674 C 125.42892 78.696305 125.0628 78.27374 124.66186 77.87281 C 124.63396 77.84491 124.60595 77.81717 124.57784 77.78961 Z M 123.39546 76.77258 C 123.01392 76.485735 122.61898 76.225 122.21307 75.99039 L 122.21307 96.47667 C 122.61898 96.24206 123.01392 95.98133 123.39546 95.69448 Z M 121.03069 75.39333 C 120.64315 75.22437 120.2484 75.07718 119.8483 74.95175 L 119.8483 97.51531 C 120.2484 97.38988 120.64315 97.24269 121.03069 97.07373 Z M 118.66592 74.64724 C 118.27449 74.567725 117.87982 74.50817 117.48353 74.46858 L 117.48353 97.99848 C 117.87982 97.95889 118.27449 97.89934 118.66592 97.81982 Z M 116.30114 74.40967 C 116.29719 74.40967 116.29324 74.40967 116.28928 74.40967 C 115.89858 74.41006 115.50789 74.4297 115.11876 74.46858 L 115.11876 97.99848 C 115.50789 98.03736 115.89858 98.057 116.28928 98.05739 L 116.30114 98.05739 Z M 113.93637 74.64724 C 113.53831 74.7281 113.14361 74.8296 112.75399 74.95175 L 112.75399 97.51531 C 113.14361 97.63746 113.53831 97.73896 113.93637 97.81982 Z M 111.5716 75.39333 C 111.169 75.56886 110.77418 75.76788 110.38922 75.99039 L 110.38922 96.47667 C 110.77418 96.69918 111.169 96.8982 111.5716 97.07373 Z M 109.20683 76.77258 C 108.79616 77.08133 108.40102 77.42034 108.02444 77.78961 L 108.02444 94.67745 C 108.40102 95.04672 108.79616 95.38573 109.20683 95.69448 Z M 106.84206 79.13674 C 106.38031 79.75058 105.98618 80.39914 105.65967 81.07225 L 105.65967 91.39481 C 105.98618 92.06792 106.38031 92.71648 106.84206 93.33032 Z" stroke="black" stroke-linecap="round" stroke-linejoin="round" stroke-width=".25"/>
          </g>
          <g id="Graphic_7">
            <title>grill-1</title>
            <path d="M 111.07225 96.94261 C 112.69365 97.72911 114.4575 98.12324 116.22167 98.125 L 116.24539 98.125 C 118.00956 98.12324 119.77341 97.72911 121.39481 96.94261 Z M 107.78961 94.57784 C 107.81717 94.60595 107.84491 94.63396 107.87281 94.66186 C 108.27374 95.0628 108.6963 95.42892 109.13674 95.76023 L 123.33032 95.76023 C 123.77075 95.42892 124.19332 95.0628 124.59425 94.66186 C 124.62215 94.63396 124.64989 94.60595 124.67745 94.57784 Z M 105.99039 92.21307 C 106.225 92.61898 106.48574 93.01392 106.77258 93.39546 L 125.69448 93.39546 C 125.98132 93.01392 126.24206 92.61898 126.47667 92.21307 Z M 104.95175 89.8483 C 105.07718 90.2484 105.22437 90.64315 105.39333 91.03069 L 127.07373 91.03069 C 127.24269 90.64315 127.38988 90.2484 127.51531 89.8483 Z M 104.46858 87.48353 C 104.50817 87.87982 104.56773 88.27449 104.64724 88.66592 L 127.81982 88.66592 C 127.89933 88.27449 127.95889 87.87982 127.99848 87.48353 Z M 104.46858 85.11876 C 104.4297 85.50789 104.41006 85.89858 104.40968 86.28928 L 104.40968 86.30115 L 128.05738 86.30115 C 128.05739 86.29719 128.05739 86.29324 128.05738 86.28928 C 128.057 85.89858 128.03736 85.50789 127.99848 85.11876 Z M 104.95175 82.75399 C 104.8296 83.14361 104.7281 83.53832 104.64724 83.93637 L 127.81982 83.93637 C 127.73896 83.53832 127.63746 83.14361 127.51531 82.75399 Z M 105.99039 80.38922 C 105.76788 80.77418 105.56886 81.169 105.39333 81.5716 L 127.07373 81.5716 C 126.8982 81.169 126.69918 80.77418 126.47667 80.38922 Z M 107.78961 78.02445 C 107.42034 78.40102 107.08134 78.79616 106.77258 79.20683 L 125.69448 79.20683 C 125.38572 78.79616 125.04672 78.40102 124.67745 78.02445 Z M 123.33032 76.84206 C 122.71648 76.38031 122.06792 75.98618 121.39481 75.65968 L 111.07225 75.65968 C 110.39914 75.98618 109.75058 76.38031 109.13674 76.84206 Z" stroke="black" stroke-linecap="round" stroke-linejoin="round" stroke-width=".25"/>
          </g>
          <g id="Graphic_6">
            <title>reflection-tip</title>
            <path d="M 115.7476 72.509125 C 112.39797 72.63084 109.08435 73.97023 106.5273 76.5273 C 103.82561 79.22897 102.48323 82.7752 102.50016 86.31614 L 103.12517 86.31614 C 103.10823 82.93516 104.38959 79.54887 106.96924 76.96924 C 109.40425 74.53421 112.558 73.25599 115.7476 73.13456 Z" fill="white"/>
            <path d="M 115.7476 72.509125 C 112.39797 72.63084 109.08435 73.97023 106.5273 76.5273 C 103.82561 79.22897 102.48323 82.7752 102.50016 86.31614 L 103.12517 86.31614 C 103.10823 82.93516 104.38959 79.54887 106.96924 76.96924 C 109.40425 74.53421 112.558 73.25599 115.7476 73.13456 Z" stroke="black" stroke-linecap="round" stroke-linejoin="round" stroke-width=".125"/>
          </g>
          <g id="Graphic_5">
            <title>shadow-grill</title>
            <path d="M 106.93667 86.25 L 109.34208 86.25 C 109.34625 84.49182 110.01907 82.73492 111.36053 81.39347 C 112.71036 80.04363 114.48084 79.37081 116.25 79.37502 L 116.25 76.9696 C 113.86524 76.96541 111.47917 77.87307 109.65965 79.69259 C 107.84851 81.50373 106.94084 83.87622 106.93667 86.25 Z" fill="#333"/>
            <path d="M 106.93667 86.25 L 109.34208 86.25 C 109.34625 84.49182 110.01907 82.73492 111.36053 81.39347 C 112.71036 80.04363 114.48084 79.37081 116.25 79.37502 L 116.25 76.9696 C 113.86524 76.96541 111.47917 77.87307 109.65965 79.69259 C 107.84851 81.50373 106.94084 83.87622 106.93667 86.25 Z" stroke="#fafafa" stroke-linecap="round" stroke-linejoin="round" stroke-width="1" clip-path="url(#inner_stroke_clip_path)"/>
          </g>
        </g>
      </g>
    </g>
  </g>
</svg>
