<?xml version="1.0" encoding="UTF-8" standalone="no"?>
<!DOCTYPE svg PUBLIC "-//W3C//DTD SVG 1.1//EN" "http://www.w3.org/Graphics/SVG/1.1/DTD/svg11.dtd">
<svg xmlns="http://www.w3.org/2000/svg" xmlns:xl="http://www.w3.org/1999/xlink" xmlns:dc="http://purl.org/dc/elements/1.1/" version="1.1" viewBox="0 0 133 104" width="133" height="104">
  <defs>
    <clipPath id="inner_stroke_clip_path">
      <path d="M 78.18667 35 L 80.59208 35 C 80.59625 33.241815 81.26907 31.484924 82.61053 30.14347 C 83.96036 28.793632 85.73084 28.120815 87.5 28.125016 L 87.5 25.719604 C 85.11524 25.715406 82.72917 26.62307 80.90965 28.442593 C 79.09851 30.25373 78.19084 32.626218 78.18667 35 Z"/>
    </clipPath>
  </defs>
  <metadata> Produced by OmniGraffle 7.18.1\n2021-01-01 22:46:27 +0000</metadata>
  <g id="sidebar-left-2-odd" stroke-opacity="1" stroke-dasharray="none" fill-opacity="1" stroke="none" fill="none">
    <title>sidebar-left-2-odd</title>
    <g id="sidebar-left-2-odd_Layer_1">
      <title>Layer 1</title>
      <g id="Group_31">
        <g id="Graphic_28">
          <title>cable</title>
          <path d="M 111.25 5 C 111.25 5 111.25 102.5 111.25 98.75 C 111.25 98.75 111.25 102.5 107.5 102.5 C 107.5 102.5 85 102.5 88.75 102.5 C 88.75 102.5 85 102.5 85 98.75 L 85 83.75 L 88.75 83.75 L 88.75 98.75 L 107.5 98.75 L 107.5 5 L 66.25 5 C 66.25 5 66.25 102.5 66.25 98.75 C 66.25 98.75 66.25 102.5 62.5 102.5 L -1.25 102.5 L -1.25 98.75 L 62.5 98.75 C 62.5 98.75 62.5 1.25 62.5 5 C 62.5 5 62.5 1.25 66.25 1.25 C 66.25 1.25 111.25 1.25 107.5 1.25 C 107.5 1.25 111.25 1.25 111.25 5 Z" fill="#fcf7f7"/>
          <path d="M 111.25 5 C 111.25 5 111.25 102.5 111.25 98.75 C 111.25 98.75 111.25 102.5 107.5 102.5 C 107.5 102.5 85 102.5 88.75 102.5 C 88.75 102.5 85 102.5 85 98.75 L 85 83.75 L 88.75 83.75 L 88.75 98.75 L 107.5 98.75 L 107.5 5 L 66.25 5 C 66.25 5 66.25 102.5 66.25 98.75 C 66.25 98.75 66.25 102.5 62.5 102.5 L -1.25 102.5 L -1.25 98.75 L 62.5 98.75 C 62.5 98.75 62.5 1.25 62.5 5 C 62.5 5 62.5 1.25 66.25 1.25 C 66.25 1.25 111.25 1.25 107.5 1.25 C 107.5 1.25 111.25 1.25 111.25 5 Z" stroke="black" stroke-linecap="square" stroke-linejoin="miter" stroke-width=".25"/>
        </g>
        <g id="Graphic_27">
          <title>reflection-cable</title>
          <rect x="108.2" y="5" width=".55" height="93.75" fill="white"/>
          <rect x="108.2" y="5" width=".55" height="93.75" stroke="black" stroke-linecap="square" stroke-linejoin="miter" stroke-width=".125"/>
        </g>
        <g id="Graphic_29">
          <title>reflection-cable</title>
          <rect x="63.2" y="5" width=".55" height="93.75" fill="white"/>
          <rect x="63.2" y="5" width=".55" height="93.75" stroke="black" stroke-linecap="square" stroke-linejoin="miter" stroke-width=".125"/>
        </g>
        <g id="Graphic_30">
          <title>reflection-cable</title>
          <rect x="85.7" y="85" width=".55" height="13.75" fill="white"/>
          <rect x="85.7" y="85" width=".55" height="13.75" stroke="black" stroke-linecap="square" stroke-linejoin="miter" stroke-width=".125"/>
        </g>
      </g>
      <g id="Group_3">
        <title>Earbud</title>
        <g id="Group_11">
          <title>Earbud stem</title>
          <g id="Graphic_16">
            <title>upper</title>
            <rect x="82.5" y="42.5" width="8.75" height="40" fill="#fcf7f7"/>
            <rect x="82.5" y="42.5" width="8.75" height="40" stroke="black" stroke-linecap="square" stroke-linejoin="miter" stroke-width=".5"/>
          </g>
          <g id="Graphic_15">
            <title>lower</title>
            <rect x="83.75" y="82.5" width="6.25" height="5" fill="#fcf7f7"/>
            <rect x="83.75" y="82.5" width="6.25" height="5" stroke="black" stroke-linecap="square" stroke-linejoin="miter" stroke-width=".5"/>
          </g>
          <g id="Graphic_14">
            <title>reflection-lower</title>
            <rect x="85" y="82.6875" width=".75" height="3.5625" fill="white"/>
            <rect x="85" y="82.6875" width=".75" height="3.5625" stroke="black" stroke-linecap="square" stroke-linejoin="miter" stroke-width=".125"/>
          </g>
          <g id="Graphic_13">
            <title>reflection-upper</title>
            <rect x="83.75" y="43.125" width="1.25" height="38.125" fill="white"/>
            <rect x="83.75" y="43.125" width="1.25" height="38.125" stroke="black" stroke-linecap="square" stroke-linejoin="miter" stroke-width=".125"/>
          </g>
          <g id="Graphic_32">
            <title>L</title>
            <path d="M 86.25 78.394 L 86.25 81.25 L 88.27 81.25 L 88.27 80.722 L 86.878 80.722 L 86.878 78.394 Z" fill="black"/>
          </g>
        </g>
        <g id="Group_4">
          <title>Earbud tip</title>
          <g id="Graphic_10">
            <title>outter-circle</title>
            <circle cx="87.5" cy="35" r="15.0000239685284" fill="#fcf7f7"/>
            <circle cx="87.5" cy="35" r="15.0000239685284" stroke="black" stroke-linecap="round" stroke-linejoin="round" stroke-width=".5"/>
          </g>
          <g id="Graphic_9">
            <title>inner-circle</title>
            <circle cx="87.48353" cy="34.98353" r="11.8585497052958" fill="white"/>
            <circle cx="87.48353" cy="34.98353" r="11.8585497052958" stroke="black" stroke-linecap="round" stroke-linejoin="round" stroke-width="1"/>
          </g>
          <g id="Graphic_8">
            <title>grill-2</title>
            <path d="M 98.19262 40.14481 C 98.97911 38.52341 99.37324 36.75956 99.375 34.99539 L 99.375 34.97167 C 99.37324 33.2075 98.97911 31.443652 98.19262 29.82225 Z M 95.82784 26.539608 L 95.82784 43.42745 C 95.85595 43.399887 95.88396 43.372153 95.91186 43.34425 C 96.3128 42.94332 96.67892 42.520756 97.01023 42.08032 L 97.01023 27.88674 C 96.67892 27.446305 96.3128 27.023743 95.91186 26.62281 C 95.88396 26.594908 95.85595 26.567174 95.82784 26.539608 Z M 94.64546 25.522583 C 94.26392 25.235735 93.86898 24.975003 93.46307 24.740388 L 93.46307 45.226673 C 93.86898 44.99206 94.26392 44.731326 94.64546 44.44448 Z M 92.28069 24.143332 C 91.89315 23.97437 91.4984 23.827177 91.0983 23.701748 L 91.0983 46.26531 C 91.4984 46.139884 91.89315 45.99269 92.28069 45.82373 Z M 89.91592 23.397238 C 89.52449 23.317725 89.12982 23.25817 88.73353 23.218577 L 88.73353 46.748484 C 89.12982 46.70889 89.52449 46.649336 89.91592 46.56982 Z M 87.55114 23.159668 C 87.54719 23.159668 87.54324 23.15967 87.53928 23.159674 C 87.14858 23.160063 86.75789 23.179697 86.36876 23.218577 L 86.36876 46.748484 C 86.75789 46.787363 87.14858 46.807 87.53928 46.80739 L 87.55114 46.80739 Z M 85.18637 23.397238 C 84.78831 23.4781 84.39361 23.579603 84.00399 23.701748 L 84.00399 46.26531 C 84.39361 46.38746 84.78831 46.48896 85.18637 46.56982 Z M 82.8216 24.143332 C 82.419 24.31886 82.02418 24.517878 81.63922 24.740388 L 81.63922 45.226673 C 82.02418 45.44918 82.419 45.6482 82.8216 45.82373 Z M 80.45683 25.522583 C 80.04616 25.831334 79.65102 26.170343 79.27444 26.539608 L 79.27444 43.42745 C 79.65102 43.79672 80.04616 44.135727 80.45683 44.44448 Z M 78.09206 27.88674 C 77.63031 28.500582 77.23618 29.14914 76.90967 29.82225 L 76.90967 40.14481 C 77.23618 40.81792 77.63031 41.46648 78.09206 42.08032 Z" stroke="black" stroke-linecap="round" stroke-linejoin="round" stroke-width=".25"/>
          </g>
          <g id="Graphic_7">
            <title>grill-1</title>
            <path d="M 82.32225 45.692615 C 83.94365 46.479113 85.7075 46.87324 87.47167 46.875 L 87.49539 46.875 C 89.25956 46.87324 91.02341 46.479113 92.64481 45.692615 Z M 79.03961 43.327844 C 79.067175 43.355954 79.09491 43.38396 79.12281 43.411864 C 79.52374 43.8128 79.94631 44.17892 80.38674 44.51023 L 94.58032 44.51023 C 95.02075 44.17892 95.44332 43.8128 95.84425 43.411864 C 95.87215 43.38396 95.89989 43.355954 95.92745 43.327844 Z M 77.24039 40.963073 C 77.475 41.368978 77.73574 41.76392 78.02258 42.14546 L 96.94448 42.14546 C 97.23132 41.76392 97.49206 41.368978 97.72667 40.963073 Z M 76.20175 38.5983 C 76.32718 38.9984 76.47437 39.393147 76.64333 39.780687 L 98.32373 39.780687 C 98.49269 39.393147 98.63988 38.9984 98.76531 38.5983 Z M 75.71858 36.23353 C 75.75817 36.62982 75.81773 37.024492 75.89724 37.415916 L 99.06982 37.415916 C 99.14933 37.024492 99.20889 36.62982 99.24848 36.23353 Z M 75.71858 33.86876 C 75.6797 34.25789 75.660065 34.64858 75.659675 35.039284 L 75.659675 35.051145 L 99.30738 35.051145 C 99.30739 35.04719 99.30739 35.04324 99.30738 35.039284 C 99.307 34.64858 99.28736 34.25789 99.24848 33.86876 Z M 76.20175 31.50399 C 76.079605 31.893615 75.9781 32.288315 75.89724 32.686374 L 99.06982 32.686374 C 98.98896 32.288315 98.88746 31.893615 98.76531 31.50399 Z M 77.24039 29.139218 C 77.01788 29.52418 76.81886 29.919002 76.64333 30.321603 L 98.32373 30.321603 C 98.1482 29.919002 97.94918 29.52418 97.72667 29.139218 Z M 79.03961 26.774447 C 78.67034 27.151018 78.33134 27.54616 78.02258 27.956832 L 96.94448 27.956832 C 96.63572 27.54616 96.29672 27.151018 95.92745 26.774447 Z M 94.58032 25.59206 C 93.96648 25.130312 93.31792 24.736183 92.64481 24.409676 L 82.32225 24.409676 C 81.64914 24.736183 81.00058 25.130312 80.38674 25.59206 Z" stroke="black" stroke-linecap="round" stroke-linejoin="round" stroke-width=".25"/>
          </g>
          <g id="Graphic_6">
            <title>reflection-tip</title>
            <path d="M 86.9976 21.259125 C 83.64797 21.38084 80.33435 22.72023 77.7773 25.277297 C 75.07561 27.97897 73.73323 31.525202 73.75016 35.066143 L 74.37517 35.066143 C 74.35823 31.685155 75.63959 28.298873 78.21924 25.719238 C 80.65425 23.284213 83.808 22.005986 86.9976 21.88456 Z" fill="white"/>
            <path d="M 86.9976 21.259125 C 83.64797 21.38084 80.33435 22.72023 77.7773 25.277297 C 75.07561 27.97897 73.73323 31.525202 73.75016 35.066143 L 74.37517 35.066143 C 74.35823 31.685155 75.63959 28.298873 78.21924 25.719238 C 80.65425 23.284213 83.808 22.005986 86.9976 21.88456 Z" stroke="black" stroke-linecap="round" stroke-linejoin="round" stroke-width=".125"/>
          </g>
          <g id="Graphic_5">
            <title>shadow-grill</title>
            <path d="M 78.18667 35 L 80.59208 35 C 80.59625 33.241815 81.26907 31.484924 82.61053 30.14347 C 83.96036 28.793632 85.73084 28.120815 87.5 28.125016 L 87.5 25.719604 C 85.11524 25.715406 82.72917 26.62307 80.90965 28.442593 C 79.09851 30.25373 78.19084 32.626218 78.18667 35 Z" fill="#333"/>
            <path d="M 78.18667 35 L 80.59208 35 C 80.59625 33.241815 81.26907 31.484924 82.61053 30.14347 C 83.96036 28.793632 85.73084 28.120815 87.5 28.125016 L 87.5 25.719604 C 85.11524 25.715406 82.72917 26.62307 80.90965 28.442593 C 79.09851 30.25373 78.19084 32.626218 78.18667 35 Z" stroke="#fafafa" stroke-linecap="round" stroke-linejoin="round" stroke-width="1" clip-path="url(#inner_stroke_clip_path)"/>
          </g>
        </g>
      </g>
    </g>
  </g>
</svg>
