<?xml version="1.0" encoding="UTF-8" standalone="no"?>
<!DOCTYPE svg PUBLIC "-//W3C//DTD SVG 1.1//EN" "http://www.w3.org/Graphics/SVG/1.1/DTD/svg11.dtd">
<svg xmlns="http://www.w3.org/2000/svg" xmlns:xl="http://www.w3.org/1999/xlink" xmlns:dc="http://purl.org/dc/elements/1.1/" version="1.1" viewBox="0 0 132 159" width="132" height="159">
  <defs>
    <clipPath id="inner_stroke_clip_path">
      <path d="M 103.18667 16.25 L 105.59208 16.25 C 105.59625 14.491815 106.26907 12.734924 107.61053 11.39347 C 108.96036 10.043632 110.73084 9.370815 112.5 9.375016 L 112.5 6.969604 C 110.11524 6.965406 107.72917 7.873069 105.90965 9.692593 C 104.09851 11.503731 103.19084 13.876218 103.18667 16.25 Z"/>
    </clipPath>
  </defs>
  <metadata> Produced by OmniGraffle 7.18.1\n2021-01-01 23:33:45 +0000</metadata>
  <g id="sidebar-left-odd" stroke-opacity="1" stroke-dasharray="none" fill-opacity="1" stroke="none" fill="none">
    <title>sidebar-left-odd</title>
    <g id="sidebar-left-odd_Layer_1">
      <title>Layer 1</title>
      <g id="Group_23">
        <title>Cable</title>
        <g id="Graphic_19">
          <title>cable</title>
          <path d="M 111.25 153.75 L 111.25 16.25 L 115 16.25 C 115 16.25 115 150 115 153.75 C 115 157.5 112.5 157.5 111.25 157.5 C 110 157.5 100 157.5 100 157.5 C 100 157.5 96.25 157.5 96.25 153.75 C 96.25 150 96.25 37.5 96.25 37.5 L 77.5 37.5 C 77.5 37.5 77.5 105 77.5 108.75 C 77.5 112.5 73.75 112.5 73.75 112.5 C 73.75 112.5 63.75 112.5 62.5 112.5 C 61.25 112.5 58.75 112.5 58.75 108.75 C 58.75 105 58.75 71.25 58.75 71.25 L -1.25 71.25 L -1.25 67.5 C -1.25 67.5 57.5 67.5 58.75 67.5 C 60 67.5 62.5 67.5 62.5 71.25 C 62.5 75 62.5 108.75 62.5 108.75 L 73.75 108.75 C 73.75 108.75 73.75 41.25 73.75 37.5 C 73.75 33.75 77.5 33.75 77.5 33.75 L 96.25 33.75 C 96.25 33.75 100 33.75 100 37.5 C 100 41.25 100 153.75 100 153.75 Z" fill="#fcf7f7"/>
          <path d="M 111.25 153.75 L 111.25 16.25 L 115 16.25 C 115 16.25 115 150 115 153.75 C 115 157.5 112.5 157.5 111.25 157.5 C 110 157.5 100 157.5 100 157.5 C 100 157.5 96.25 157.5 96.25 153.75 C 96.25 150 96.25 37.5 96.25 37.5 L 77.5 37.5 C 77.5 37.5 77.5 105 77.5 108.75 C 77.5 112.5 73.75 112.5 73.75 112.5 C 73.75 112.5 63.75 112.5 62.5 112.5 C 61.25 112.5 58.75 112.5 58.75 108.75 C 58.75 105 58.75 71.25 58.75 71.25 L -1.25 71.25 L -1.25 67.5 C -1.25 67.5 57.5 67.5 58.75 67.5 C 60 67.5 62.5 67.5 62.5 71.25 C 62.5 75 62.5 108.75 62.5 108.75 L 73.75 108.75 C 73.75 108.75 73.75 41.25 73.75 37.5 C 73.75 33.75 77.5 33.75 77.5 33.75 L 96.25 33.75 C 96.25 33.75 100 33.75 100 37.5 C 100 41.25 100 153.75 100 153.75 Z" stroke="black" stroke-linecap="square" stroke-linejoin="miter" stroke-width=".25"/>
        </g>
        <g id="Graphic_18">
          <title>reflection-cable</title>
          <rect x="111.875" y="16.25" width=".55" height="137.5" fill="white"/>
          <rect x="111.875" y="16.25" width=".55" height="137.5" stroke="black" stroke-linecap="square" stroke-linejoin="miter" stroke-width=".125"/>
        </g>
        <g id="Graphic_20">
          <title>reflection-cable</title>
          <rect x="96.95" y="37.5" width=".55" height="116.25" fill="white"/>
          <rect x="96.95" y="37.5" width=".55" height="116.25" stroke="black" stroke-linecap="square" stroke-linejoin="miter" stroke-width=".125"/>
        </g>
        <g id="Graphic_21">
          <title>reflection-cable</title>
          <rect x="74.45" y="37.5" width=".55" height="71.25" fill="white"/>
          <rect x="74.45" y="37.5" width=".55" height="71.25" stroke="black" stroke-linecap="square" stroke-linejoin="miter" stroke-width=".125"/>
        </g>
        <g id="Graphic_22">
          <title>reflection-cable</title>
          <rect x="59.45" y="71.25" width=".55" height="37.5" fill="white"/>
          <rect x="59.45" y="71.25" width=".55" height="37.5" stroke="black" stroke-linecap="square" stroke-linejoin="miter" stroke-width=".125"/>
        </g>
      </g>
      <g id="Group_3">
        <title>Earbud</title>
        <g id="Group_11">
          <title>Earbud stem</title>
          <g id="Graphic_16">
            <title>upper</title>
            <rect x="108.75" y="23.75" width="8.75" height="40" fill="#fcf7f7"/>
            <rect x="108.75" y="23.75" width="8.75" height="40" stroke="black" stroke-linecap="square" stroke-linejoin="miter" stroke-width=".5"/>
          </g>
          <g id="Graphic_15">
            <title>lower</title>
            <rect x="110" y="63.75" width="6.25" height="5" fill="#fcf7f7"/>
            <rect x="110" y="63.75" width="6.25" height="5" stroke="black" stroke-linecap="square" stroke-linejoin="miter" stroke-width=".5"/>
          </g>
          <g id="Graphic_14">
            <title>reflection-lower</title>
            <rect x="111.25" y="63.9375" width=".75" height="3.5625" fill="white"/>
            <rect x="111.25" y="63.9375" width=".75" height="3.5625" stroke="black" stroke-linecap="square" stroke-linejoin="miter" stroke-width=".125"/>
          </g>
          <g id="Graphic_13">
            <title>reflection-upper</title>
            <rect x="110" y="24.375" width="1.25" height="38.125" fill="white"/>
            <rect x="110" y="24.375" width="1.25" height="38.125" stroke="black" stroke-linecap="square" stroke-linejoin="miter" stroke-width=".125"/>
          </g>
          <g id="Graphic_12">
            <title>L</title>
            <path d="M 112.115 59.644 L 112.115 62.5 L 114.135 62.5 L 114.135 61.972 L 112.743 61.972 L 112.743 59.644 Z" fill="black"/>
          </g>
        </g>
        <g id="Group_4">
          <title>Earbud tip</title>
          <g id="Graphic_10">
            <title>outter-circle</title>
            <circle cx="112.5" cy="16.25" r="15.0000239685284" fill="#fcf7f7"/>
            <circle cx="112.5" cy="16.25" r="15.0000239685284" stroke="black" stroke-linecap="round" stroke-linejoin="round" stroke-width=".5"/>
          </g>
          <g id="Graphic_9">
            <title>inner-circle</title>
            <circle cx="112.48353" cy="16.23353" r="11.8585497052958" fill="white"/>
            <circle cx="112.48353" cy="16.23353" r="11.8585497052958" stroke="black" stroke-linecap="round" stroke-linejoin="round" stroke-width="1"/>
          </g>
          <g id="Graphic_8">
            <title>grill-2</title>
            <path d="M 123.19262 21.39481 C 123.97911 19.773408 124.37324 18.00956 124.375 16.245391 L 124.375 16.22167 C 124.37324 14.457502 123.97911 12.693652 123.19262 11.07225 Z M 120.82784 7.789608 L 120.82784 24.677452 C 120.85595 24.649887 120.88396 24.622153 120.91186 24.59425 C 121.3128 24.193318 121.67892 23.770756 122.01023 23.33032 L 122.01023 9.13674 C 121.67892 8.696305 121.3128 8.273743 120.91186 7.87281 C 120.88396 7.844908 120.85595 7.817174 120.82784 7.789608 Z M 119.64546 6.772583 C 119.26392 6.485735 118.86898 6.225003 118.46307 5.990388 L 118.46307 26.476673 C 118.86898 26.242058 119.26392 25.981326 119.64546 25.694478 Z M 117.28069 5.393332 C 116.89315 5.224371 116.4984 5.0771766 116.0983 4.9517484 L 116.0983 27.515312 C 116.4984 27.389884 116.89315 27.24269 117.28069 27.07373 Z M 114.91592 4.6472385 C 114.52449 4.567725 114.12982 4.508171 113.73353 4.4685765 L 113.73353 27.998484 C 114.12982 27.95889 114.52449 27.899336 114.91592 27.819822 Z M 112.55114 4.4096677 C 112.54719 4.4096677 112.54324 4.4096696 112.53928 4.4096736 C 112.14858 4.410063 111.75789 4.4296974 111.36876 4.4685765 L 111.36876 27.998484 C 111.75789 28.037363 112.14858 28.056998 112.53928 28.057387 L 112.55114 28.057387 Z M 110.18637 4.6472385 C 109.78831 4.7281 109.39361 4.829603 109.00399 4.9517484 L 109.00399 27.515312 C 109.39361 27.637458 109.78831 27.73896 110.18637 27.819822 Z M 107.8216 5.393332 C 107.419 5.5688597 107.02418 5.767878 106.63922 5.990388 L 106.63922 26.476673 C 107.02418 26.699183 107.419 26.8982 107.8216 27.07373 Z M 105.45683 6.772583 C 105.04616 7.081334 104.65102 7.420343 104.27444 7.789608 L 104.27444 24.677452 C 104.65102 25.046718 105.04616 25.385727 105.45683 25.694478 Z M 103.09206 9.13674 C 102.63031 9.750582 102.23618 10.399141 101.90967 11.07225 L 101.90967 21.39481 C 102.23618 22.06792 102.63031 22.71648 103.09206 23.33032 Z" stroke="black" stroke-linecap="round" stroke-linejoin="round" stroke-width=".25"/>
          </g>
          <g id="Graphic_7">
            <title>grill-1</title>
            <path d="M 107.32225 26.942615 C 108.94365 27.729113 110.7075 28.12324 112.47167 28.125 L 112.49539 28.125 C 114.25956 28.12324 116.02341 27.729113 117.64481 26.942615 Z M 104.03961 24.577844 C 104.06717 24.605954 104.09491 24.63396 104.12281 24.661864 C 104.52374 25.062798 104.9463 25.42892 105.38674 25.76023 L 119.58032 25.76023 C 120.02075 25.42892 120.44332 25.062798 120.84425 24.661864 C 120.87215 24.63396 120.89989 24.605954 120.92745 24.577844 Z M 102.24039 22.213073 C 102.475 22.618978 102.73574 23.01392 103.02258 23.395458 L 121.94448 23.395458 C 122.23132 23.01392 122.49206 22.618978 122.72667 22.213073 Z M 101.20175 19.848302 C 101.32718 20.2484 101.47437 20.643147 101.64333 21.030687 L 123.32373 21.030687 C 123.49269 20.643147 123.63988 20.2484 123.76531 19.848302 Z M 100.71858 17.48353 C 100.75817 17.87982 100.81773 18.274492 100.89724 18.665916 L 124.06982 18.665916 C 124.14933 18.274492 124.20889 17.87982 124.24848 17.48353 Z M 100.71858 15.11876 C 100.6797 15.50789 100.66006 15.89858 100.65968 16.289284 L 100.65968 16.301145 L 124.30738 16.301145 C 124.30739 16.297192 124.30739 16.293238 124.30738 16.289284 C 124.307 15.89858 124.28736 15.50789 124.24848 15.11876 Z M 101.20175 12.753989 C 101.0796 13.143615 100.9781 13.538315 100.89724 13.936374 L 124.06982 13.936374 C 123.98896 13.538315 123.88746 13.143615 123.76531 12.753989 Z M 102.24039 10.389218 C 102.01788 10.77418 101.81886 11.169002 101.64333 11.571603 L 123.32373 11.571603 C 123.1482 11.169002 122.94918 10.77418 122.72667 10.389218 Z M 104.03961 8.024447 C 103.67034 8.401018 103.33134 8.796161 103.02258 9.206832 L 121.94448 9.206832 C 121.63572 8.796161 121.29672 8.401018 120.92745 8.024447 Z M 119.58032 6.8420615 C 118.96648 6.3803115 118.31792 5.986183 117.64481 5.659676 L 107.32225 5.659676 C 106.64914 5.986183 106.00058 6.3803115 105.38674 6.8420615 Z" stroke="black" stroke-linecap="round" stroke-linejoin="round" stroke-width=".25"/>
          </g>
          <g id="Graphic_6">
            <title>reflection-tip</title>
            <path d="M 111.9976 2.5091246 C 108.64797 2.630839 105.33435 3.97023 102.7773 6.527297 C 100.07561 9.22897 98.73323 12.775202 98.75016 16.316143 L 99.37517 16.316143 C 99.35823 12.935155 100.63959 9.548873 103.21924 6.969238 C 105.65425 4.5342126 108.808 3.2559863 111.9976 3.1345594 Z" fill="white"/>
            <path d="M 111.9976 2.5091246 C 108.64797 2.630839 105.33435 3.97023 102.7773 6.527297 C 100.07561 9.22897 98.73323 12.775202 98.75016 16.316143 L 99.37517 16.316143 C 99.35823 12.935155 100.63959 9.548873 103.21924 6.969238 C 105.65425 4.5342126 108.808 3.2559863 111.9976 3.1345594 Z" stroke="black" stroke-linecap="round" stroke-linejoin="round" stroke-width=".125"/>
          </g>
          <g id="Graphic_5">
            <title>shadow-grill</title>
            <path d="M 103.18667 16.25 L 105.59208 16.25 C 105.59625 14.491815 106.26907 12.734924 107.61053 11.39347 C 108.96036 10.043632 110.73084 9.370815 112.5 9.375016 L 112.5 6.969604 C 110.11524 6.965406 107.72917 7.873069 105.90965 9.692593 C 104.09851 11.503731 103.19084 13.876218 103.18667 16.25 Z" fill="#333"/>
            <path d="M 103.18667 16.25 L 105.59208 16.25 C 105.59625 14.491815 106.26907 12.734924 107.61053 11.39347 C 108.96036 10.043632 110.73084 9.370815 112.5 9.375016 L 112.5 6.969604 C 110.11524 6.965406 107.72917 7.873069 105.90965 9.692593 C 104.09851 11.503731 103.19084 13.876218 103.18667 16.25 Z" stroke="#fafafa" stroke-linecap="round" stroke-linejoin="round" stroke-width="1" clip-path="url(#inner_stroke_clip_path)"/>
          </g>
        </g>
      </g>
    </g>
  </g>
</svg>
