<?xml version="1.0" encoding="UTF-8" standalone="no"?>
<!DOCTYPE svg PUBLIC "-//W3C//DTD SVG 1.1//EN" "http://www.w3.org/Graphics/SVG/1.1/DTD/svg11.dtd">
<svg xmlns="http://www.w3.org/2000/svg" xmlns:xl="http://www.w3.org/1999/xlink" xmlns:dc="http://purl.org/dc/elements/1.1/" version="1.1" viewBox="0 0 133 104" width="133" height="104">
  <defs>
    <clipPath id="inner_stroke_clip_path">
      <path d="M 100.68667 35 L 103.09208 35 C 103.09625 33.241815 103.76907 31.484924 105.11053 30.14347 C 106.46036 28.793632 108.23084 28.120815 110 28.125016 L 110 25.719604 C 107.61524 25.715406 105.22917 26.62307 103.40965 28.442593 C 101.59851 30.25373 100.69084 32.626218 100.68667 35 Z"/>
    </clipPath>
  </defs>
  <metadata> Produced by OmniGraffle 7.18.1\n2021-01-01 22:46:27 +0000</metadata>
  <g id="sidebar-left-2-even" stroke-opacity="1" stroke-dasharray="none" fill-opacity="1" stroke="none" fill="none">
    <title>sidebar-left-2-even</title>
    <g id="sidebar-left-2-even_Layer_1">
      <title>Layer 1</title>
      <g id="Group_33">
        <title>Cable</title>
        <g id="Graphic_35">
          <title>cable</title>
          <path d="M 107.5 83.75 L 111.25 83.75 C 111.25 83.75 111.25 102.5 111.25 98.75 C 111.25 98.75 111.25 102.5 107.5 102.5 L -1.25 102.5 L -1.25 98.75 L 107.5 98.75 Z" fill="#fcf7f7"/>
          <path d="M 107.5 83.75 L 111.25 83.75 C 111.25 83.75 111.25 102.5 111.25 98.75 C 111.25 98.75 111.25 102.5 107.5 102.5 L -1.25 102.5 L -1.25 98.75 L 107.5 98.75 Z" stroke="black" stroke-linecap="square" stroke-linejoin="miter" stroke-width=".25"/>
        </g>
        <g id="Graphic_34">
          <title>reflection-cable</title>
          <rect x="108.2" y="85" width=".55" height="13.75" fill="white"/>
          <rect x="108.2" y="85" width=".55" height="13.75" stroke="black" stroke-linecap="square" stroke-linejoin="miter" stroke-width=".125"/>
        </g>
      </g>
      <g id="Group_3">
        <title>Earbud</title>
        <g id="Group_11">
          <title>Earbud stem</title>
          <g id="Graphic_16">
            <title>upper</title>
            <rect x="105" y="42.5" width="8.75" height="40" fill="#fcf7f7"/>
            <rect x="105" y="42.5" width="8.75" height="40" stroke="black" stroke-linecap="square" stroke-linejoin="miter" stroke-width=".5"/>
          </g>
          <g id="Graphic_15">
            <title>lower</title>
            <rect x="106.25" y="82.5" width="6.25" height="5" fill="#fcf7f7"/>
            <rect x="106.25" y="82.5" width="6.25" height="5" stroke="black" stroke-linecap="square" stroke-linejoin="miter" stroke-width=".5"/>
          </g>
          <g id="Graphic_14">
            <title>reflection-lower</title>
            <rect x="107.5" y="82.6875" width=".75" height="3.5625" fill="white"/>
            <rect x="107.5" y="82.6875" width=".75" height="3.5625" stroke="black" stroke-linecap="square" stroke-linejoin="miter" stroke-width=".125"/>
          </g>
          <g id="Graphic_13">
            <title>reflection-upper</title>
            <rect x="106.25" y="43.125" width="1.25" height="38.125" fill="white"/>
            <rect x="106.25" y="43.125" width="1.25" height="38.125" stroke="black" stroke-linecap="square" stroke-linejoin="miter" stroke-width=".125"/>
          </g>
          <g id="Graphic_32">
            <title>L</title>
            <path d="M 108.75 78.394 L 108.75 81.25 L 110.77 81.25 L 110.77 80.722 L 109.378 80.722 L 109.378 78.394 Z" fill="black"/>
          </g>
        </g>
        <g id="Group_4">
          <title>Earbud tip</title>
          <g id="Graphic_10">
            <title>outter-circle</title>
            <circle cx="110" cy="35" r="15.0000239685284" fill="#fcf7f7"/>
            <circle cx="110" cy="35" r="15.0000239685284" stroke="black" stroke-linecap="round" stroke-linejoin="round" stroke-width=".5"/>
          </g>
          <g id="Graphic_9">
            <title>inner-circle</title>
            <circle cx="109.98353" cy="34.98353" r="11.8585497052958" fill="white"/>
            <circle cx="109.98353" cy="34.98353" r="11.8585497052958" stroke="black" stroke-linecap="round" stroke-linejoin="round" stroke-width="1"/>
          </g>
          <g id="Graphic_8">
            <title>grill-2</title>
            <path d="M 120.69262 40.14481 C 121.47911 38.52341 121.87324 36.75956 121.875 34.99539 L 121.875 34.97167 C 121.87324 33.2075 121.47911 31.443652 120.69262 29.82225 Z M 118.32784 26.539608 L 118.32784 43.42745 C 118.35595 43.399887 118.38396 43.372153 118.41186 43.34425 C 118.8128 42.94332 119.17892 42.520756 119.51023 42.08032 L 119.51023 27.88674 C 119.17892 27.446305 118.8128 27.023743 118.41186 26.62281 C 118.38396 26.594908 118.35595 26.567174 118.32784 26.539608 Z M 117.14546 25.522583 C 116.76392 25.235735 116.36898 24.975003 115.96307 24.740388 L 115.96307 45.226673 C 116.36898 44.99206 116.76392 44.731326 117.14546 44.44448 Z M 114.78069 24.143332 C 114.39315 23.97437 113.9984 23.827177 113.5983 23.701748 L 113.5983 46.26531 C 113.9984 46.139884 114.39315 45.99269 114.78069 45.82373 Z M 112.41592 23.397238 C 112.02449 23.317725 111.62982 23.25817 111.23353 23.218577 L 111.23353 46.748484 C 111.62982 46.70889 112.02449 46.649336 112.41592 46.56982 Z M 110.05114 23.159668 C 110.04719 23.159668 110.04324 23.15967 110.03928 23.159674 C 109.64858 23.160063 109.25789 23.179697 108.86876 23.218577 L 108.86876 46.748484 C 109.25789 46.787363 109.64858 46.807 110.03928 46.80739 L 110.05114 46.80739 Z M 107.68637 23.397238 C 107.28831 23.4781 106.89361 23.579603 106.50399 23.701748 L 106.50399 46.26531 C 106.89361 46.38746 107.28831 46.48896 107.68637 46.56982 Z M 105.3216 24.143332 C 104.919 24.31886 104.52418 24.517878 104.13922 24.740388 L 104.13922 45.226673 C 104.52418 45.44918 104.919 45.6482 105.3216 45.82373 Z M 102.95683 25.522583 C 102.54616 25.831334 102.15102 26.170343 101.77444 26.539608 L 101.77444 43.42745 C 102.15102 43.79672 102.54616 44.135727 102.95683 44.44448 Z M 100.59206 27.88674 C 100.13031 28.500582 99.73618 29.14914 99.40967 29.82225 L 99.40967 40.14481 C 99.73618 40.81792 100.13031 41.46648 100.59206 42.08032 Z" stroke="black" stroke-linecap="round" stroke-linejoin="round" stroke-width=".25"/>
          </g>
          <g id="Graphic_7">
            <title>grill-1</title>
            <path d="M 104.82225 45.692615 C 106.44365 46.479113 108.2075 46.87324 109.97167 46.875 L 109.99539 46.875 C 111.75956 46.87324 113.52341 46.479113 115.14481 45.692615 Z M 101.53961 43.327844 C 101.56717 43.355954 101.59491 43.38396 101.62281 43.411864 C 102.02374 43.8128 102.4463 44.17892 102.88674 44.51023 L 117.08032 44.51023 C 117.52075 44.17892 117.94332 43.8128 118.34425 43.411864 C 118.37215 43.38396 118.39989 43.355954 118.42745 43.327844 Z M 99.74039 40.963073 C 99.975 41.368978 100.23574 41.76392 100.52258 42.14546 L 119.44448 42.14546 C 119.73132 41.76392 119.99206 41.368978 120.22667 40.963073 Z M 98.70175 38.5983 C 98.82718 38.9984 98.97437 39.393147 99.14333 39.780687 L 120.82373 39.780687 C 120.99269 39.393147 121.13988 38.9984 121.26531 38.5983 Z M 98.21858 36.23353 C 98.25817 36.62982 98.31773 37.024492 98.39724 37.415916 L 121.56982 37.415916 C 121.64933 37.024492 121.70889 36.62982 121.74848 36.23353 Z M 98.21858 33.86876 C 98.1797 34.25789 98.16006 34.64858 98.15968 35.039284 L 98.15968 35.051145 L 121.80738 35.051145 C 121.80739 35.04719 121.80739 35.04324 121.80738 35.039284 C 121.807 34.64858 121.78736 34.25789 121.74848 33.86876 Z M 98.70175 31.50399 C 98.5796 31.893615 98.4781 32.288315 98.39724 32.686374 L 121.56982 32.686374 C 121.48896 32.288315 121.38746 31.893615 121.26531 31.50399 Z M 99.74039 29.139218 C 99.51788 29.52418 99.31886 29.919002 99.14333 30.321603 L 120.82373 30.321603 C 120.6482 29.919002 120.44918 29.52418 120.22667 29.139218 Z M 101.53961 26.774447 C 101.17034 27.151018 100.83134 27.54616 100.52258 27.956832 L 119.44448 27.956832 C 119.13572 27.54616 118.79672 27.151018 118.42745 26.774447 Z M 117.08032 25.59206 C 116.46648 25.130312 115.81792 24.736183 115.14481 24.409676 L 104.82225 24.409676 C 104.14914 24.736183 103.50058 25.130312 102.88674 25.59206 Z" stroke="black" stroke-linecap="round" stroke-linejoin="round" stroke-width=".25"/>
          </g>
          <g id="Graphic_6">
            <title>reflection-tip</title>
            <path d="M 109.4976 21.259125 C 106.14797 21.38084 102.83435 22.72023 100.2773 25.277297 C 97.57561 27.97897 96.23323 31.525202 96.25016 35.066143 L 96.87517 35.066143 C 96.85823 31.685155 98.13959 28.298873 100.71924 25.719238 C 103.15425 23.284213 106.308 22.005986 109.4976 21.88456 Z" fill="white"/>
            <path d="M 109.4976 21.259125 C 106.14797 21.38084 102.83435 22.72023 100.2773 25.277297 C 97.57561 27.97897 96.23323 31.525202 96.25016 35.066143 L 96.87517 35.066143 C 96.85823 31.685155 98.13959 28.298873 100.71924 25.719238 C 103.15425 23.284213 106.308 22.005986 109.4976 21.88456 Z" stroke="black" stroke-linecap="round" stroke-linejoin="round" stroke-width=".125"/>
          </g>
          <g id="Graphic_5">
            <title>shadow-grill</title>
            <path d="M 100.68667 35 L 103.09208 35 C 103.09625 33.241815 103.76907 31.484924 105.11053 30.14347 C 106.46036 28.793632 108.23084 28.120815 110 28.125016 L 110 25.719604 C 107.61524 25.715406 105.22917 26.62307 103.40965 28.442593 C 101.59851 30.25373 100.69084 32.626218 100.68667 35 Z" fill="#333"/>
            <path d="M 100.68667 35 L 103.09208 35 C 103.09625 33.241815 103.76907 31.484924 105.11053 30.14347 C 106.46036 28.793632 108.23084 28.120815 110 28.125016 L 110 25.719604 C 107.61524 25.715406 105.22917 26.62307 103.40965 28.442593 C 101.59851 30.25373 100.69084 32.626218 100.68667 35 Z" stroke="#fafafa" stroke-linecap="round" stroke-linejoin="round" stroke-width="1" clip-path="url(#inner_stroke_clip_path)"/>
          </g>
        </g>
      </g>
    </g>
  </g>
</svg>
