<?xml version="1.0" encoding="UTF-8" standalone="no"?>
<!DOCTYPE svg PUBLIC "-//W3C//DTD SVG 1.1//EN" "http://www.w3.org/Graphics/SVG/1.1/DTD/svg11.dtd">
<svg xmlns="http://www.w3.org/2000/svg" xmlns:xl="http://www.w3.org/1999/xlink" xmlns:dc="http://purl.org/dc/elements/1.1/" version="1.1" viewBox="0 0 133 181" width="133" height="181">
  <defs>
    <clipPath id="inner_stroke_clip_path">
      <path d="M 6.936666 163.75 L 9.342078 163.75 C 9.346253 161.99182 10.019071 160.23492 11.360532 158.89347 C 12.710362 157.54363 14.480836 156.87081 16.25 156.87502 L 16.25 154.4696 C 13.865238 154.4654 11.47917 155.37307 9.659655 157.1926 C 7.8485075 159.00373 6.9408445 161.37622 6.936666 163.75 Z"/>
    </clipPath>
  </defs>
  <metadata> Produced by OmniGraffle 7.18.1\n2021-01-01 23:22:20 +0000</metadata>
  <g id="sidebar-right-even" stroke-opacity="1" stroke-dasharray="none" fill-opacity="1" stroke="none" fill="none">
    <title>sidebar-right-even</title>
    <g id="sidebar-right-even_Layer_1">
      <title>Layer 1</title>
      <g id="Group_26">
        <title>Cable</title>
        <g id="Graphic_31">
          <title>cable</title>
          <path d="M 105 166.25 L 67.5 166.25 L 67.5 162.5 L 105 162.5 L 105 136.25 C 105 136.25 56.25 136.25 60 136.25 C 60 136.25 56.25 136.25 56.25 132.5 C 56.25 132.5 56.25 68.75 56.25 72.5 C 56.25 72.5 56.25 68.75 60 68.75 C 60 68.75 75 68.75 71.25 68.75 C 71.25 68.75 75 68.75 75 72.5 L 75 113.75 L 90 113.75 C 90 113.75 90 1.25 90 5 C 90 5 90 1.25 93.75 1.25 L 135 1.25 L 135 5 L 93.75 5 C 93.75 5 93.75 117.5 93.75 113.75 C 93.75 113.75 93.75 117.5 90 117.5 C 90 117.5 71.25 117.5 75 117.5 C 75 117.5 71.25 117.5 71.25 113.75 L 71.25 72.5 L 60 72.5 L 60 132.5 L 105 132.5 C 105 132.5 108.75 132.5 108.75 136.25 C 108.75 136.25 108.75 166.25 108.75 162.5 C 108.75 162.5 108.75 166.25 105 166.25 Z" fill="#fcf7f7"/>
          <path d="M 105 166.25 L 67.5 166.25 L 67.5 162.5 L 105 162.5 L 105 136.25 C 105 136.25 56.25 136.25 60 136.25 C 60 136.25 56.25 136.25 56.25 132.5 C 56.25 132.5 56.25 68.75 56.25 72.5 C 56.25 72.5 56.25 68.75 60 68.75 C 60 68.75 75 68.75 71.25 68.75 C 71.25 68.75 75 68.75 75 72.5 L 75 113.75 L 90 113.75 C 90 113.75 90 1.25 90 5 C 90 5 90 1.25 93.75 1.25 L 135 1.25 L 135 5 L 93.75 5 C 93.75 5 93.75 117.5 93.75 113.75 C 93.75 113.75 93.75 117.5 90 117.5 C 90 117.5 71.25 117.5 75 117.5 C 75 117.5 71.25 117.5 71.25 113.75 L 71.25 72.5 L 60 72.5 L 60 132.5 L 105 132.5 C 105 132.5 108.75 132.5 108.75 136.25 C 108.75 136.25 108.75 166.25 108.75 162.5 C 108.75 162.5 108.75 166.25 105 166.25 Z" stroke="black" stroke-linecap="square" stroke-linejoin="miter" stroke-width=".25"/>
        </g>
        <g id="Graphic_30">
          <title>reflection-cable</title>
          <rect x="105.7" y="136.25" width=".55" height="26.25" fill="white"/>
          <rect x="105.7" y="136.25" width=".55" height="26.25" stroke="black" stroke-linecap="square" stroke-linejoin="miter" stroke-width=".125"/>
        </g>
        <g id="Graphic_29">
          <title>reflection-cable</title>
          <rect x="71.95" y="72.5" width=".55" height="41.25" fill="white"/>
          <rect x="71.95" y="72.5" width=".55" height="41.25" stroke="black" stroke-linecap="square" stroke-linejoin="miter" stroke-width=".125"/>
        </g>
        <g id="Graphic_28">
          <title>reflection-cable</title>
          <rect x="56.95" y="72.5" width=".55" height="60" fill="white"/>
          <rect x="56.95" y="72.5" width=".55" height="60" stroke="black" stroke-linecap="square" stroke-linejoin="miter" stroke-width=".125"/>
        </g>
        <g id="Graphic_27">
          <title>reflection-cable</title>
          <rect x="90.7" y="5" width=".55" height="108.75" fill="white"/>
          <rect x="90.7" y="5" width=".55" height="108.75" stroke="black" stroke-linecap="square" stroke-linejoin="miter" stroke-width=".125"/>
        </g>
      </g>
      <g id="Group_3">
        <title>Earbud</title>
        <g id="Group_11">
          <title>Earbud stem</title>
          <g id="Graphic_16">
            <title>upper</title>
            <rect x="23.75" y="160" width="40" height="8.75" fill="#fcf7f7"/>
            <rect x="23.75" y="160" width="40" height="8.75" stroke="black" stroke-linecap="square" stroke-linejoin="miter" stroke-width=".5"/>
          </g>
          <g id="Graphic_15">
            <title>lower</title>
            <rect x="63.75" y="161.25" width="5" height="6.25" fill="#fcf7f7"/>
            <rect x="63.75" y="161.25" width="5" height="6.25" stroke="black" stroke-linecap="square" stroke-linejoin="miter" stroke-width=".5"/>
          </g>
          <g id="Graphic_14">
            <title>reflection-lower</title>
            <rect x="63.9375" y="162.5" width="3.5625" height=".75" fill="white"/>
            <rect x="63.9375" y="162.5" width="3.5625" height=".75" stroke="black" stroke-linecap="square" stroke-linejoin="miter" stroke-width=".125"/>
          </g>
          <g id="Graphic_13">
            <title>reflection-upper</title>
            <rect x="24.375" y="161.25" width="38.125" height="1.25" fill="white"/>
            <rect x="24.375" y="161.25" width="38.125" height="1.25" stroke="black" stroke-linecap="square" stroke-linejoin="miter" stroke-width=".125"/>
          </g>
          <g id="Graphic_20">
            <title>R</title>
            <path d="M 61.02983 165.2657 L 60.260306 165.2657 L 60.260306 164.6072 C 60.260306 164.46937 60.290296 164.366 60.350275 164.2971 C 60.410255 164.22818 60.506605 164.19372 60.639326 164.19372 C 60.77715 164.19372 60.87669 164.22818 60.93795 164.2971 C 60.999204 164.366 61.02983 164.46937 61.02983 164.6072 Z M 59.79323 165.86677 L 62.52677 165.86677 L 62.52677 165.2657 L 61.45862 165.2657 L 61.45862 164.66462 C 61.45862 164.51404 61.4918 164.40556 61.55816 164.3392 C 61.62452 164.27284 61.72917 164.22945 61.8721 164.20904 C 61.98185 164.19372 62.0967 164.18224 62.21666 164.17458 C 62.33662 164.16692 62.43999 164.1465 62.52677 164.11332 L 62.52677 163.51225 C 62.48848 163.54033 62.441904 163.56138 62.38703 163.57542 C 62.332154 163.58946 62.27409 163.59967 62.21283 163.60605 C 62.15158 163.61243 62.0916 163.6169 62.032894 163.61945 C 61.97419 163.622 61.923145 163.62455 61.879755 163.6271 C 61.81084 163.63221 61.74193 163.64178 61.67302 163.65582 C 61.6041 163.66986 61.540934 163.69219 61.48351 163.72282 C 61.42608 163.75345 61.37631 163.793 61.334196 163.8415 C 61.29208 163.89 61.26082 163.95125 61.2404 164.02527 L 61.23274 164.02527 C 61.171485 163.87213 61.082155 163.76174 60.96475 163.6941 C 60.84734 163.62647 60.70824 163.59265 60.54744 163.59265 C 60.4428 163.59265 60.34517 163.61115 60.25456 163.64816 C 60.163955 163.68517 60.084196 163.73877 60.01528 163.80896 C 59.94637 163.87915 59.892134 163.96337 59.85257 164.06164 C 59.81301 164.1599 59.79323 164.2703 59.79323 164.3928 Z" fill="black"/>
          </g>
        </g>
        <g id="Group_4">
          <title>Earbud tip</title>
          <g id="Graphic_10">
            <title>outter-circle</title>
            <circle cx="16.25" cy="163.75" r="15.0000239685284" fill="#fcf7f7"/>
            <circle cx="16.25" cy="163.75" r="15.0000239685284" stroke="black" stroke-linecap="round" stroke-linejoin="round" stroke-width=".5"/>
          </g>
          <g id="Graphic_9">
            <title>inner-circle</title>
            <circle cx="16.23353" cy="163.73353" r="11.8585497052958" fill="white"/>
            <circle cx="16.23353" cy="163.73353" r="11.8585497052958" stroke="black" stroke-linecap="round" stroke-linejoin="round" stroke-width="1"/>
          </g>
          <g id="Graphic_8">
            <title>grill-2</title>
            <path d="M 26.942615 168.89481 C 27.729114 167.2734 28.123242 165.50956 28.125 163.7454 L 28.125 163.72167 C 28.123242 161.9575 27.729114 160.19365 26.942615 158.57225 Z M 24.577844 155.2896 L 24.577844 172.17745 C 24.605955 172.14989 24.633962 172.12215 24.661864 172.09425 C 25.0628 171.69332 25.42892 171.27076 25.76023 170.83032 L 25.76023 156.63674 C 25.42892 156.1963 25.0628 155.77374 24.661864 155.37281 C 24.633962 155.3449 24.605955 155.31717 24.577844 155.2896 Z M 23.395458 154.27258 C 23.01392 153.98573 22.618978 153.725 22.213073 153.49039 L 22.213073 173.97667 C 22.618978 173.74206 23.01392 173.48133 23.395458 173.19448 Z M 21.030687 152.89333 C 20.643147 152.72437 20.2484 152.57718 19.848301 152.45175 L 19.848301 175.01531 C 20.2484 174.88988 20.643147 174.7427 21.030687 174.57373 Z M 18.665916 152.14724 C 18.274491 152.06773 17.87982 152.00817 17.48353 151.96858 L 17.48353 175.49848 C 17.87982 175.4589 18.274491 175.39934 18.665916 175.31982 Z M 16.301144 151.90967 C 16.29719 151.90967 16.293237 151.90967 16.289283 151.90967 C 15.898578 151.91006 15.507889 151.9297 15.118758 151.96858 L 15.118758 175.49848 C 15.507889 175.53736 15.898578 175.557 16.289283 175.55739 L 16.301144 175.55739 Z M 13.936373 152.14724 C 13.538313 152.2281 13.143613 152.3296 12.753987 152.45175 L 12.753987 175.01531 C 13.143613 175.13746 13.538313 175.23896 13.936373 175.31982 Z M 11.571601 152.89333 C 11.169 153.06886 10.774178 153.26788 10.389216 153.49039 L 10.389216 173.97667 C 10.774178 174.19918 11.169 174.3982 11.571601 174.57373 Z M 9.20683 154.27258 C 8.796158 154.58133 8.401015 154.92034 8.024444 155.2896 L 8.024444 172.17745 C 8.401015 172.54672 8.796158 172.88573 9.20683 173.19448 Z M 6.842059 156.63674 C 6.3803086 157.25058 5.98618 157.89914 5.659673 158.57225 L 5.659673 168.89481 C 5.98618 169.56792 6.3803086 170.21648 6.842059 170.83032 Z" stroke="black" stroke-linecap="round" stroke-linejoin="round" stroke-width=".25"/>
          </g>
          <g id="Graphic_7">
            <title>grill-1</title>
            <path d="M 11.072251 174.44261 C 12.693653 175.22911 14.457502 175.62324 16.22167 175.625 L 16.24539 175.625 C 18.009558 175.62324 19.773407 175.22911 21.39481 174.44261 Z M 7.789609 172.07784 C 7.817175 172.10595 7.844909 172.13396 7.872811 172.16186 C 8.273744 172.5628 8.696306 172.92892 9.136741 173.26023 L 23.330319 173.26023 C 23.770754 172.92892 24.193316 172.5628 24.59425 172.16186 C 24.62215 172.13396 24.649885 172.10595 24.67745 172.07784 Z M 5.9903895 169.71307 C 6.2250044 170.11898 6.485736 170.51392 6.772584 170.89546 L 25.694476 170.89546 C 25.981324 170.51392 26.242055 170.11898 26.47667 169.71307 Z M 4.95175 167.3483 C 5.077178 167.7484 5.224373 168.14315 5.393334 168.53069 L 27.073726 168.53069 C 27.242687 168.14315 27.389882 167.7484 27.51531 167.3483 Z M 4.468578 164.98353 C 4.5081727 165.37982 4.5677266 165.7745 4.64724 166.16592 L 27.81982 166.16592 C 27.899333 165.7745 27.958887 165.37982 27.998482 164.98353 Z M 4.468578 162.61876 C 4.429699 163.00789 4.4100647 163.39858 4.409675 163.78928 L 4.409675 163.80115 L 28.057385 163.80115 C 28.05739 163.7972 28.05739 163.79324 28.057385 163.78928 C 28.056995 163.39858 28.03736 163.00789 27.998482 162.61876 Z M 4.95175 160.25399 C 4.829605 160.64361 4.7281015 161.03832 4.64724 161.43637 L 27.81982 161.43637 C 27.73896 161.03832 27.637455 160.64361 27.51531 160.25399 Z M 5.9903895 157.88922 C 5.76788 158.27418 5.568861 158.669 5.393334 159.0716 L 27.073726 159.0716 C 26.8982 158.669 26.69918 158.27418 26.47667 157.88922 Z M 7.789609 155.52445 C 7.420344 155.90102 7.081335 156.29616 6.772584 156.70683 L 25.694476 156.70683 C 25.385725 156.29616 25.046716 155.90102 24.67745 155.52445 Z M 23.330319 154.34206 C 22.716477 153.88031 22.067918 153.48618 21.39481 153.15968 L 11.072251 153.15968 C 10.399142 153.48618 9.750582 153.88031 9.136741 154.34206 Z" stroke="black" stroke-linecap="round" stroke-linejoin="round" stroke-width=".25"/>
          </g>
          <g id="Graphic_6">
            <title>reflection-tip</title>
            <path d="M 15.747595 150.00912 C 12.397968 150.13084 9.084352 151.47023 6.527297 154.0273 C 3.8256105 156.72897 2.4832308 160.2752 2.500158 163.81614 L 3.1251656 163.81614 C 3.1082333 160.43516 4.389591 157.04887 6.969238 154.46924 C 9.404252 152.03421 12.558003 150.75599 15.747595 150.63456 Z" fill="white"/>
            <path d="M 15.747595 150.00912 C 12.397968 150.13084 9.084352 151.47023 6.527297 154.0273 C 3.8256105 156.72897 2.4832308 160.2752 2.500158 163.81614 L 3.1251656 163.81614 C 3.1082333 160.43516 4.389591 157.04887 6.969238 154.46924 C 9.404252 152.03421 12.558003 150.75599 15.747595 150.63456 Z" stroke="black" stroke-linecap="round" stroke-linejoin="round" stroke-width=".125"/>
          </g>
          <g id="Graphic_5">
            <title>shadow-grill</title>
            <path d="M 6.936666 163.75 L 9.342078 163.75 C 9.346253 161.99182 10.019071 160.23492 11.360532 158.89347 C 12.710362 157.54363 14.480836 156.87081 16.25 156.87502 L 16.25 154.4696 C 13.865238 154.4654 11.47917 155.37307 9.659655 157.1926 C 7.8485075 159.00373 6.9408445 161.37622 6.936666 163.75 Z" fill="#333"/>
            <path d="M 6.936666 163.75 L 9.342078 163.75 C 9.346253 161.99182 10.019071 160.23492 11.360532 158.89347 C 12.710362 157.54363 14.480836 156.87081 16.25 156.87502 L 16.25 154.4696 C 13.865238 154.4654 11.47917 155.37307 9.659655 157.1926 C 7.8485075 159.00373 6.9408445 161.37622 6.936666 163.75 Z" stroke="#fafafa" stroke-linecap="round" stroke-linejoin="round" stroke-width="1" clip-path="url(#inner_stroke_clip_path)"/>
          </g>
        </g>
      </g>
    </g>
  </g>
</svg>
