<?xml version="1.0" encoding="UTF-8" standalone="no"?>
<!DOCTYPE svg PUBLIC "-//W3C//DTD SVG 1.1//EN" "http://www.w3.org/Graphics/SVG/1.1/DTD/svg11.dtd">
<svg xmlns="http://www.w3.org/2000/svg" xmlns:xl="http://www.w3.org/1999/xlink" xmlns:dc="http://purl.org/dc/elements/1.1/" version="1.1" viewBox="0 0 133 181" width="133" height="181">
  <defs>
    <clipPath id="inner_stroke_clip_path">
      <path d="M 6.936666 16.25 L 9.342078 16.25 C 9.346253 14.491815 10.019071 12.734924 11.360532 11.39347 C 12.710362 10.043632 14.480836 9.370815 16.25 9.375016 L 16.25 6.969604 C 13.865238 6.965406 11.47917 7.873069 9.659655 9.692593 C 7.8485075 11.503731 6.9408445 13.876218 6.936666 16.25 Z"/>
    </clipPath>
  </defs>
  <metadata> Produced by OmniGraffle 7.18.1\n2021-01-01 23:22:20 +0000</metadata>
  <g id="sidebar-right-odd" stroke-opacity="1" stroke-dasharray="none" fill-opacity="1" stroke="none" fill="none">
    <title>sidebar-right-odd</title>
    <g id="sidebar-right-odd_Layer_1">
      <title>Layer 1</title>
      <g id="Group_25">
        <title>Cable</title>
        <g id="Graphic_19">
          <title>cable</title>
          <path d="M 105 15 L 67.5 15 L 67.5 18.75 L 105 18.75 L 105 45 C 105 45 56.25 45 60 45 C 60 45 56.25 45 56.25 48.75 C 56.25 48.75 56.25 112.5 56.25 108.75 C 56.25 108.75 56.25 112.5 60 112.5 C 60 112.5 75 112.5 71.25 112.5 C 71.25 112.5 75 112.5 75 108.75 L 75 67.5 L 90 67.5 C 90 67.5 90 180 90 176.25 C 90 176.25 90 180 93.75 180 L 135 180 L 135 176.25 L 93.75 176.25 C 93.75 176.25 93.75 63.75 93.75 67.5 C 93.75 67.5 93.75 63.75 90 63.75 C 90 63.75 71.25 63.75 75 63.75 C 75 63.75 71.25 63.75 71.25 67.5 L 71.25 108.75 L 60 108.75 L 60 48.75 L 105 48.75 C 105 48.75 108.75 48.75 108.75 45 C 108.75 45 108.75 15 108.75 18.75 C 108.75 18.75 108.75 15 105 15 Z" fill="#fcf7f7"/>
          <path d="M 105 15 L 67.5 15 L 67.5 18.75 L 105 18.75 L 105 45 C 105 45 56.25 45 60 45 C 60 45 56.25 45 56.25 48.75 C 56.25 48.75 56.25 112.5 56.25 108.75 C 56.25 108.75 56.25 112.5 60 112.5 C 60 112.5 75 112.5 71.25 112.5 C 71.25 112.5 75 112.5 75 108.75 L 75 67.5 L 90 67.5 C 90 67.5 90 180 90 176.25 C 90 176.25 90 180 93.75 180 L 135 180 L 135 176.25 L 93.75 176.25 C 93.75 176.25 93.75 63.75 93.75 67.5 C 93.75 67.5 93.75 63.75 90 63.75 C 90 63.75 71.25 63.75 75 63.75 C 75 63.75 71.25 63.75 71.25 67.5 L 71.25 108.75 L 60 108.75 L 60 48.75 L 105 48.75 C 105 48.75 108.75 48.75 108.75 45 C 108.75 45 108.75 15 108.75 18.75 C 108.75 18.75 108.75 15 105 15 Z" stroke="black" stroke-linecap="square" stroke-linejoin="miter" stroke-width=".25"/>
        </g>
        <g id="Graphic_18">
          <title>reflection-cable</title>
          <rect x="105.7" y="18.75" width=".55" height="26.25" fill="white"/>
          <rect x="105.7" y="18.75" width=".55" height="26.25" stroke="black" stroke-linecap="square" stroke-linejoin="miter" stroke-width=".125"/>
        </g>
        <g id="Graphic_22">
          <title>reflection-cable</title>
          <rect x="71.95" y="67.5" width=".55" height="41.25" fill="white"/>
          <rect x="71.95" y="67.5" width=".55" height="41.25" stroke="black" stroke-linecap="square" stroke-linejoin="miter" stroke-width=".125"/>
        </g>
        <g id="Graphic_23">
          <title>reflection-cable</title>
          <rect x="56.95" y="48.75" width=".55" height="60" fill="white"/>
          <rect x="56.95" y="48.75" width=".55" height="60" stroke="black" stroke-linecap="square" stroke-linejoin="miter" stroke-width=".125"/>
        </g>
        <g id="Graphic_24">
          <title>reflection-cable</title>
          <rect x="90.7" y="67.5" width=".55" height="108.75" fill="white"/>
          <rect x="90.7" y="67.5" width=".55" height="108.75" stroke="black" stroke-linecap="square" stroke-linejoin="miter" stroke-width=".125"/>
        </g>
      </g>
      <g id="Group_3">
        <title>Earbud</title>
        <g id="Group_11">
          <title>Earbud stem</title>
          <g id="Graphic_16">
            <title>upper</title>
            <rect x="23.75" y="12.5" width="40" height="8.75" fill="#fcf7f7"/>
            <rect x="23.75" y="12.5" width="40" height="8.75" stroke="black" stroke-linecap="square" stroke-linejoin="miter" stroke-width=".5"/>
          </g>
          <g id="Graphic_15">
            <title>lower</title>
            <rect x="63.75" y="13.75" width="5" height="6.25" fill="#fcf7f7"/>
            <rect x="63.75" y="13.75" width="5" height="6.25" stroke="black" stroke-linecap="square" stroke-linejoin="miter" stroke-width=".5"/>
          </g>
          <g id="Graphic_14">
            <title>reflection-lower</title>
            <rect x="63.9375" y="15" width="3.5625" height=".75" fill="white"/>
            <rect x="63.9375" y="15" width="3.5625" height=".75" stroke="black" stroke-linecap="square" stroke-linejoin="miter" stroke-width=".125"/>
          </g>
          <g id="Graphic_13">
            <title>reflection-upper</title>
            <rect x="24.375" y="13.75" width="38.125" height="1.25" fill="white"/>
            <rect x="24.375" y="13.75" width="38.125" height="1.25" stroke="black" stroke-linecap="square" stroke-linejoin="miter" stroke-width=".125"/>
          </g>
          <g id="Graphic_20">
            <title>R</title>
            <path d="M 61.02983 17.765697 L 60.260306 17.765697 L 60.260306 17.107198 C 60.260306 16.969371 60.290296 16.866003 60.350275 16.79709 C 60.410255 16.728177 60.506605 16.693721 60.639326 16.693721 C 60.77715 16.693721 60.87669 16.728177 60.93795 16.79709 C 60.999204 16.866003 61.02983 16.969371 61.02983 17.107198 Z M 59.79323 18.366769 L 62.52677 18.366769 L 62.52677 17.765697 L 61.45862 17.765697 L 61.45862 17.164625 C 61.45862 17.014037 61.4918 16.905564 61.55816 16.839204 C 61.62452 16.772843 61.72917 16.729454 61.8721 16.709035 C 61.98185 16.693721 62.0967 16.682236 62.21666 16.674579 C 62.33662 16.666922 62.43999 16.646503 62.52677 16.613323 L 62.52677 16.012251 C 62.48848 16.040327 62.441904 16.061383 62.38703 16.075421 C 62.332154 16.089459 62.27409 16.099668 62.21283 16.106049 C 62.15158 16.11243 62.0916 16.116896 62.032894 16.119449 C 61.97419 16.122001 61.923145 16.124553 61.879755 16.127106 C 61.81084 16.13221 61.74193 16.141781 61.67302 16.15582 C 61.6041 16.169857 61.540934 16.19219 61.48351 16.222818 C 61.42608 16.253446 61.37631 16.293006 61.334196 16.3415 C 61.29208 16.389995 61.26082 16.45125 61.2404 16.525268 L 61.23274 16.525268 C 61.171485 16.372128 61.082155 16.261741 60.96475 16.194104 C 60.84734 16.126467 60.70824 16.09265 60.54744 16.09265 C 60.4428 16.09265 60.34517 16.111153 60.25456 16.148162 C 60.163955 16.185171 60.084196 16.23877 60.01528 16.308959 C 59.94637 16.379148 59.892134 16.463374 59.85257 16.561639 C 59.81301 16.659904 59.79323 16.77029 59.79323 16.892802 Z" fill="black"/>
          </g>
        </g>
        <g id="Group_4">
          <title>Earbud tip</title>
          <g id="Graphic_10">
            <title>outter-circle</title>
            <circle cx="16.25" cy="16.25" r="15.0000239685284" fill="#fcf7f7"/>
            <circle cx="16.25" cy="16.25" r="15.0000239685284" stroke="black" stroke-linecap="round" stroke-linejoin="round" stroke-width=".5"/>
          </g>
          <g id="Graphic_9">
            <title>inner-circle</title>
            <circle cx="16.23353" cy="16.23353" r="11.8585497052958" fill="white"/>
            <circle cx="16.23353" cy="16.23353" r="11.8585497052958" stroke="black" stroke-linecap="round" stroke-linejoin="round" stroke-width="1"/>
          </g>
          <g id="Graphic_8">
            <title>grill-2</title>
            <path d="M 26.942615 21.39481 C 27.729114 19.773408 28.123242 18.00956 28.125 16.245391 L 28.125 16.22167 C 28.123242 14.457502 27.729114 12.693652 26.942615 11.07225 Z M 24.577844 7.789608 L 24.577844 24.677452 C 24.605955 24.649887 24.633962 24.622153 24.661864 24.59425 C 25.0628 24.193318 25.42892 23.770756 25.76023 23.33032 L 25.76023 9.13674 C 25.42892 8.696305 25.0628 8.273743 24.661864 7.87281 C 24.633962 7.844908 24.605955 7.817174 24.577844 7.789608 Z M 23.395458 6.772583 C 23.01392 6.485735 22.618978 6.225003 22.213073 5.990388 L 22.213073 26.476673 C 22.618978 26.242058 23.01392 25.981326 23.395458 25.694478 Z M 21.030687 5.393332 C 20.643147 5.224371 20.2484 5.0771766 19.848301 4.9517484 L 19.848301 27.515312 C 20.2484 27.389884 20.643147 27.24269 21.030687 27.07373 Z M 18.665916 4.6472385 C 18.274491 4.567725 17.87982 4.508171 17.48353 4.4685765 L 17.48353 27.998484 C 17.87982 27.95889 18.274491 27.899336 18.665916 27.819822 Z M 16.301144 4.4096677 C 16.29719 4.4096677 16.293237 4.4096696 16.289283 4.4096736 C 15.898578 4.410063 15.507889 4.4296974 15.118758 4.4685765 L 15.118758 27.998484 C 15.507889 28.037363 15.898578 28.056998 16.289283 28.057387 L 16.301144 28.057387 Z M 13.936373 4.6472385 C 13.538313 4.7281 13.143613 4.829603 12.753987 4.9517484 L 12.753987 27.515312 C 13.143613 27.637458 13.538313 27.73896 13.936373 27.819822 Z M 11.571601 5.393332 C 11.169 5.5688597 10.774178 5.767878 10.389216 5.990388 L 10.389216 26.476673 C 10.774178 26.699183 11.169 26.8982 11.571601 27.07373 Z M 9.20683 6.772583 C 8.796158 7.081334 8.401015 7.420343 8.024444 7.789608 L 8.024444 24.677452 C 8.401015 25.046718 8.796158 25.385727 9.20683 25.694478 Z M 6.842059 9.13674 C 6.3803086 9.750582 5.98618 10.399141 5.659673 11.07225 L 5.659673 21.39481 C 5.98618 22.06792 6.3803086 22.71648 6.842059 23.33032 Z" stroke="black" stroke-linecap="round" stroke-linejoin="round" stroke-width=".25"/>
          </g>
          <g id="Graphic_7">
            <title>grill-1</title>
            <path d="M 11.072251 26.942615 C 12.693653 27.729113 14.457502 28.12324 16.22167 28.125 L 16.24539 28.125 C 18.009558 28.12324 19.773407 27.729113 21.39481 26.942615 Z M 7.789609 24.577844 C 7.817175 24.605954 7.844909 24.63396 7.872811 24.661864 C 8.273744 25.062798 8.696306 25.42892 9.136741 25.76023 L 23.330319 25.76023 C 23.770754 25.42892 24.193316 25.062798 24.59425 24.661864 C 24.62215 24.63396 24.649885 24.605954 24.67745 24.577844 Z M 5.9903895 22.213073 C 6.2250044 22.618978 6.485736 23.01392 6.772584 23.395458 L 25.694476 23.395458 C 25.981324 23.01392 26.242055 22.618978 26.47667 22.213073 Z M 4.95175 19.848302 C 5.077178 20.2484 5.224373 20.643147 5.393334 21.030687 L 27.073726 21.030687 C 27.242687 20.643147 27.389882 20.2484 27.51531 19.848302 Z M 4.468578 17.48353 C 4.5081727 17.87982 4.5677266 18.274492 4.64724 18.665916 L 27.81982 18.665916 C 27.899333 18.274492 27.958887 17.87982 27.998482 17.48353 Z M 4.468578 15.11876 C 4.429699 15.50789 4.4100647 15.89858 4.409675 16.289284 L 4.409675 16.301145 L 28.057385 16.301145 C 28.05739 16.297192 28.05739 16.293238 28.057385 16.289284 C 28.056995 15.89858 28.03736 15.50789 27.998482 15.11876 Z M 4.95175 12.753989 C 4.829605 13.143615 4.7281015 13.538315 4.64724 13.936374 L 27.81982 13.936374 C 27.73896 13.538315 27.637455 13.143615 27.51531 12.753989 Z M 5.9903895 10.389218 C 5.76788 10.77418 5.568861 11.169002 5.393334 11.571603 L 27.073726 11.571603 C 26.8982 11.169002 26.69918 10.77418 26.47667 10.389218 Z M 7.789609 8.024447 C 7.420344 8.401018 7.081335 8.796161 6.772584 9.206832 L 25.694476 9.206832 C 25.385725 8.796161 25.046716 8.401018 24.67745 8.024447 Z M 23.330319 6.8420615 C 22.716477 6.3803115 22.067918 5.986183 21.39481 5.659676 L 11.072251 5.659676 C 10.399142 5.986183 9.750582 6.3803115 9.136741 6.8420615 Z" stroke="black" stroke-linecap="round" stroke-linejoin="round" stroke-width=".25"/>
          </g>
          <g id="Graphic_6">
            <title>reflection-tip</title>
            <path d="M 15.747595 2.5091246 C 12.397968 2.630839 9.084352 3.97023 6.527297 6.527297 C 3.8256105 9.22897 2.4832308 12.775202 2.500158 16.316143 L 3.1251656 16.316143 C 3.1082333 12.935155 4.389591 9.548873 6.969238 6.969238 C 9.404252 4.5342126 12.558003 3.2559863 15.747595 3.1345594 Z" fill="white"/>
            <path d="M 15.747595 2.5091246 C 12.397968 2.630839 9.084352 3.97023 6.527297 6.527297 C 3.8256105 9.22897 2.4832308 12.775202 2.500158 16.316143 L 3.1251656 16.316143 C 3.1082333 12.935155 4.389591 9.548873 6.969238 6.969238 C 9.404252 4.5342126 12.558003 3.2559863 15.747595 3.1345594 Z" stroke="black" stroke-linecap="round" stroke-linejoin="round" stroke-width=".125"/>
          </g>
          <g id="Graphic_5">
            <title>shadow-grill</title>
            <path d="M 6.936666 16.25 L 9.342078 16.25 C 9.346253 14.491815 10.019071 12.734924 11.360532 11.39347 C 12.710362 10.043632 14.480836 9.370815 16.25 9.375016 L 16.25 6.969604 C 13.865238 6.965406 11.47917 7.873069 9.659655 9.692593 C 7.8485075 11.503731 6.9408445 13.876218 6.936666 16.25 Z" fill="#333"/>
            <path d="M 6.936666 16.25 L 9.342078 16.25 C 9.346253 14.491815 10.019071 12.734924 11.360532 11.39347 C 12.710362 10.043632 14.480836 9.370815 16.25 9.375016 L 16.25 6.969604 C 13.865238 6.965406 11.47917 7.873069 9.659655 9.692593 C 7.8485075 11.503731 6.9408445 13.876218 6.936666 16.25 Z" stroke="#fafafa" stroke-linecap="round" stroke-linejoin="round" stroke-width="1" clip-path="url(#inner_stroke_clip_path)"/>
          </g>
        </g>
      </g>
    </g>
  </g>
</svg>
