<?xml version="1.0" encoding="UTF-8" standalone="no"?>
<!DOCTYPE svg PUBLIC "-//W3C//DTD SVG 1.1//EN" "http://www.w3.org/Graphics/SVG/1.1/DTD/svg11.dtd">
<svg xmlns="http://www.w3.org/2000/svg" xmlns:xl="http://www.w3.org/1999/xlink" xmlns:dc="http://purl.org/dc/elements/1.1/" version="1.1" viewBox="0 0 133 85" width="133" height="85">
  <defs>
    <clipPath id="inner_stroke_clip_path">
      <path d="M 14.436666 16.25 L 16.842078 16.25 C 16.846253 14.491815 17.519071 12.734924 18.860532 11.39347 C 20.210362 10.043632 21.980836 9.370815 23.75 9.375016 L 23.75 6.969604 C 21.365238 6.965406 18.97917 7.873069 17.159655 9.692593 C 15.348508 11.503731 14.440845 13.876218 14.436666 16.25 Z"/>
    </clipPath>
  </defs>
  <metadata> Produced by OmniGraffle 7.18.1\n2021-01-01 22:46:27 +0000</metadata>
  <g id="sidebar-right-2-even" stroke-opacity="1" stroke-dasharray="none" fill-opacity="1" stroke="none" fill="none">
    <title>sidebar-right-2-even</title>
    <g id="sidebar-right-2-even_Layer_1">
      <title>Layer 1</title>
      <g id="Group_31">
        <title>Cable</title>
        <g id="Graphic_28">
          <title>cable</title>
          <path d="M 25 65 L 21.25 65 C 21.25 65 21.25 83.75 21.25 80 C 21.25 80 21.25 83.75 25 83.75 L 133.75 83.75 L 133.75 80 L 25 80 Z" fill="#fcf7f7"/>
          <path d="M 25 65 L 21.25 65 C 21.25 65 21.25 83.75 21.25 80 C 21.25 80 21.25 83.75 25 83.75 L 133.75 83.75 L 133.75 80 L 25 80 Z" stroke="black" stroke-linecap="square" stroke-linejoin="miter" stroke-width=".25"/>
        </g>
        <g id="Graphic_30">
          <title>reflection-cable</title>
          <rect x="21.95" y="66.25" width=".55" height="13.75" fill="white"/>
          <rect x="21.95" y="66.25" width=".55" height="13.75" stroke="black" stroke-linecap="square" stroke-linejoin="miter" stroke-width=".125"/>
        </g>
      </g>
      <g id="Group_3">
        <title>Earbud</title>
        <g id="Group_11">
          <title>Earbud stem</title>
          <g id="Graphic_16">
            <title>upper</title>
            <rect x="18.75" y="23.75" width="8.75" height="40" fill="#fcf7f7"/>
            <rect x="18.75" y="23.75" width="8.75" height="40" stroke="black" stroke-linecap="square" stroke-linejoin="miter" stroke-width=".5"/>
          </g>
          <g id="Graphic_15">
            <title>lower</title>
            <rect x="20" y="63.75" width="6.25" height="5" fill="#fcf7f7"/>
            <rect x="20" y="63.75" width="6.25" height="5" stroke="black" stroke-linecap="square" stroke-linejoin="miter" stroke-width=".5"/>
          </g>
          <g id="Graphic_14">
            <title>reflection-lower</title>
            <rect x="21.25" y="63.9375" width=".75" height="3.5625" fill="white"/>
            <rect x="21.25" y="63.9375" width=".75" height="3.5625" stroke="black" stroke-linecap="square" stroke-linejoin="miter" stroke-width=".125"/>
          </g>
          <g id="Graphic_13">
            <title>reflection-upper</title>
            <rect x="20" y="24.375" width="1.25" height="38.125" fill="white"/>
            <rect x="20" y="24.375" width="1.25" height="38.125" stroke="black" stroke-linecap="square" stroke-linejoin="miter" stroke-width=".125"/>
          </g>
          <g id="Graphic_20">
            <title>R</title>
            <path d="M 22.71784 61.02983 L 22.71784 60.260306 L 23.37634 60.260306 C 23.514166 60.260306 23.617534 60.290296 23.686447 60.350275 C 23.75536 60.410255 23.789816 60.506605 23.789816 60.639326 C 23.789816 60.77715 23.75536 60.87669 23.686447 60.93795 C 23.617534 60.999204 23.514166 61.02983 23.37634 61.02983 Z M 22.11677 59.79323 L 22.11677 62.52677 L 22.71784 62.52677 L 22.71784 61.45862 L 23.318913 61.45862 C 23.4695 61.45862 23.577973 61.4918 23.644334 61.55816 C 23.710695 61.62452 23.754084 61.72917 23.774502 61.8721 C 23.789816 61.98185 23.801302 62.0967 23.80896 62.21666 C 23.816616 62.33662 23.837034 62.43999 23.870214 62.52677 L 24.471286 62.52677 C 24.44321 62.48848 24.422154 62.441904 24.408116 62.38703 C 24.394079 62.332154 24.38387 62.27409 24.377489 62.21283 C 24.371108 62.15158 24.36664 62.0916 24.36409 62.032894 C 24.361536 61.97419 24.358984 61.923145 24.356432 61.879755 C 24.351327 61.81084 24.341756 61.74193 24.327718 61.67302 C 24.31368 61.6041 24.291348 61.540934 24.26072 61.48351 C 24.230092 61.42608 24.19053 61.37631 24.142037 61.334196 C 24.093542 61.29208 24.032287 61.26082 23.95827 61.2404 L 23.95827 61.23274 C 24.11141 61.171485 24.221796 61.082155 24.289433 60.96475 C 24.35707 60.84734 24.390888 60.70824 24.390888 60.54744 C 24.390888 60.4428 24.372384 60.34517 24.335375 60.25456 C 24.298366 60.163955 24.244768 60.084196 24.17458 60.01528 C 24.10439 59.94637 24.020164 59.892134 23.9219 59.85257 C 23.823634 59.81301 23.713247 59.79323 23.590735 59.79323 Z" fill="black"/>
          </g>
        </g>
        <g id="Group_4">
          <title>Earbud tip</title>
          <g id="Graphic_10">
            <title>outter-circle</title>
            <circle cx="23.75" cy="16.25" r="15.0000239685284" fill="#fcf7f7"/>
            <circle cx="23.75" cy="16.25" r="15.0000239685284" stroke="black" stroke-linecap="round" stroke-linejoin="round" stroke-width=".5"/>
          </g>
          <g id="Graphic_9">
            <title>inner-circle</title>
            <circle cx="23.73353" cy="16.23353" r="11.8585497052958" fill="white"/>
            <circle cx="23.73353" cy="16.23353" r="11.8585497052958" stroke="black" stroke-linecap="round" stroke-linejoin="round" stroke-width="1"/>
          </g>
          <g id="Graphic_8">
            <title>grill-2</title>
            <path d="M 34.442615 21.39481 C 35.229114 19.773408 35.623242 18.00956 35.625 16.245391 L 35.625 16.22167 C 35.623242 14.457502 35.229114 12.693652 34.442615 11.07225 Z M 32.077844 7.789608 L 32.077844 24.677452 C 32.105955 24.649887 32.13396 24.622153 32.161864 24.59425 C 32.5628 24.193318 32.92892 23.770756 33.26023 23.33032 L 33.26023 9.13674 C 32.92892 8.696305 32.5628 8.273743 32.161864 7.87281 C 32.13396 7.844908 32.105955 7.817174 32.077844 7.789608 Z M 30.89546 6.772583 C 30.51392 6.485735 30.118978 6.225003 29.713073 5.990388 L 29.713073 26.476673 C 30.118978 26.242058 30.51392 25.981326 30.89546 25.694478 Z M 28.530687 5.393332 C 28.143147 5.224371 27.7484 5.0771766 27.3483 4.9517484 L 27.3483 27.515312 C 27.7484 27.389884 28.143147 27.24269 28.530687 27.07373 Z M 26.165916 4.6472385 C 25.77449 4.567725 25.37982 4.508171 24.98353 4.4685765 L 24.98353 27.998484 C 25.37982 27.95889 25.77449 27.899336 26.165916 27.819822 Z M 23.801144 4.4096677 C 23.79719 4.4096677 23.793237 4.4096696 23.789283 4.4096736 C 23.398578 4.410063 23.007889 4.4296974 22.618758 4.4685765 L 22.618758 27.998484 C 23.007889 28.037363 23.398578 28.056998 23.789283 28.057387 L 23.801144 28.057387 Z M 21.436373 4.6472385 C 21.038313 4.7281 20.643613 4.829603 20.253987 4.9517484 L 20.253987 27.515312 C 20.643613 27.637458 21.038313 27.73896 21.436373 27.819822 Z M 19.071601 5.393332 C 18.669 5.5688597 18.274178 5.767878 17.889216 5.990388 L 17.889216 26.476673 C 18.274178 26.699183 18.669 26.8982 19.071601 27.07373 Z M 16.70683 6.772583 C 16.296158 7.081334 15.901015 7.420343 15.524444 7.789608 L 15.524444 24.677452 C 15.901015 25.046718 16.296158 25.385727 16.70683 25.694478 Z M 14.342059 9.13674 C 13.880309 9.750582 13.48618 10.399141 13.159673 11.07225 L 13.159673 21.39481 C 13.48618 22.06792 13.880309 22.71648 14.342059 23.33032 Z" stroke="black" stroke-linecap="round" stroke-linejoin="round" stroke-width=".25"/>
          </g>
          <g id="Graphic_7">
            <title>grill-1</title>
            <path d="M 18.57225 26.942615 C 20.193653 27.729113 21.957502 28.12324 23.72167 28.125 L 23.74539 28.125 C 25.509558 28.12324 27.273407 27.729113 28.89481 26.942615 Z M 15.28961 24.577844 C 15.317175 24.605954 15.344909 24.63396 15.372811 24.661864 C 15.773744 25.062798 16.196306 25.42892 16.636741 25.76023 L 30.83032 25.76023 C 31.270754 25.42892 31.693316 25.062798 32.09425 24.661864 C 32.12215 24.63396 32.149885 24.605954 32.17745 24.577844 Z M 13.49039 22.213073 C 13.725004 22.618978 13.985736 23.01392 14.272584 23.395458 L 33.194476 23.395458 C 33.481324 23.01392 33.742055 22.618978 33.97667 22.213073 Z M 12.45175 19.848302 C 12.577178 20.2484 12.724373 20.643147 12.893334 21.030687 L 34.573726 21.030687 C 34.742687 20.643147 34.88988 20.2484 35.01531 19.848302 Z M 11.968578 17.48353 C 12.008173 17.87982 12.067727 18.274492 12.14724 18.665916 L 35.31982 18.665916 C 35.399333 18.274492 35.458887 17.87982 35.49848 17.48353 Z M 11.968578 15.11876 C 11.929699 15.50789 11.910065 15.89858 11.909675 16.289284 L 11.909675 16.301145 L 35.557385 16.301145 C 35.55739 16.297192 35.55739 16.293238 35.557385 16.289284 C 35.556995 15.89858 35.53736 15.50789 35.49848 15.11876 Z M 12.45175 12.753989 C 12.329605 13.143615 12.228101 13.538315 12.14724 13.936374 L 35.31982 13.936374 C 35.23896 13.538315 35.137455 13.143615 35.01531 12.753989 Z M 13.49039 10.389218 C 13.26788 10.77418 13.068861 11.169002 12.893334 11.571603 L 34.573726 11.571603 C 34.3982 11.169002 34.19918 10.77418 33.97667 10.389218 Z M 15.28961 8.024447 C 14.920344 8.401018 14.581335 8.796161 14.272584 9.206832 L 33.194476 9.206832 C 32.885725 8.796161 32.546716 8.401018 32.17745 8.024447 Z M 30.83032 6.8420615 C 30.216477 6.3803115 29.567918 5.986183 28.89481 5.659676 L 18.57225 5.659676 C 17.899142 5.986183 17.250582 6.3803115 16.636741 6.8420615 Z" stroke="black" stroke-linecap="round" stroke-linejoin="round" stroke-width=".25"/>
          </g>
          <g id="Graphic_6">
            <title>reflection-tip</title>
            <path d="M 23.247595 2.5091246 C 19.897968 2.630839 16.584352 3.97023 14.027297 6.527297 C 11.32561 9.22897 9.983231 12.775202 10.000158 16.316143 L 10.625166 16.316143 C 10.608233 12.935155 11.889591 9.548873 14.469238 6.969238 C 16.904252 4.5342126 20.058003 3.2559863 23.247595 3.1345594 Z" fill="white"/>
            <path d="M 23.247595 2.5091246 C 19.897968 2.630839 16.584352 3.97023 14.027297 6.527297 C 11.32561 9.22897 9.983231 12.775202 10.000158 16.316143 L 10.625166 16.316143 C 10.608233 12.935155 11.889591 9.548873 14.469238 6.969238 C 16.904252 4.5342126 20.058003 3.2559863 23.247595 3.1345594 Z" stroke="black" stroke-linecap="round" stroke-linejoin="round" stroke-width=".125"/>
          </g>
          <g id="Graphic_5">
            <title>shadow-grill</title>
            <path d="M 14.436666 16.25 L 16.842078 16.25 C 16.846253 14.491815 17.519071 12.734924 18.860532 11.39347 C 20.210362 10.043632 21.980836 9.370815 23.75 9.375016 L 23.75 6.969604 C 21.365238 6.965406 18.97917 7.873069 17.159655 9.692593 C 15.348508 11.503731 14.440845 13.876218 14.436666 16.25 Z" fill="#333"/>
            <path d="M 14.436666 16.25 L 16.842078 16.25 C 16.846253 14.491815 17.519071 12.734924 18.860532 11.39347 C 20.210362 10.043632 21.980836 9.370815 23.75 9.375016 L 23.75 6.969604 C 21.365238 6.965406 18.97917 7.873069 17.159655 9.692593 C 15.348508 11.503731 14.440845 13.876218 14.436666 16.25 Z" stroke="#fafafa" stroke-linecap="round" stroke-linejoin="round" stroke-width="1" clip-path="url(#inner_stroke_clip_path)"/>
          </g>
        </g>
      </g>
    </g>
  </g>
</svg>
