<?xml version="1.0" encoding="UTF-8" standalone="no"?>
<!DOCTYPE svg PUBLIC "-//W3C//DTD SVG 1.1//EN" "http://www.w3.org/Graphics/SVG/1.1/DTD/svg11.dtd">
<svg xmlns="http://www.w3.org/2000/svg" xmlns:xl="http://www.w3.org/1999/xlink" xmlns:dc="http://purl.org/dc/elements/1.1/" version="1.1" viewBox="0 0 133 104" width="133" height="104">
  <defs>
    <clipPath id="inner_stroke_clip_path">
      <path d="M 38.186666 35 L 40.59208 35 C 40.596253 33.241815 41.26907 31.484924 42.61053 30.14347 C 43.96036 28.793632 45.730836 28.120815 47.5 28.125016 L 47.5 25.719604 C 45.11524 25.715406 42.72917 26.62307 40.909655 28.442593 C 39.098508 30.25373 38.190845 32.626218 38.186666 35 Z"/>
    </clipPath>
  </defs>
  <metadata> Produced by OmniGraffle 7.18.1\n2021-01-01 22:46:27 +0000</metadata>
  <g id="sidebar-right-2-odd" stroke-opacity="1" stroke-dasharray="none" fill-opacity="1" stroke="none" fill="none">
    <title>sidebar-right-2-odd</title>
    <g id="sidebar-right-2-odd_Layer_1">
      <title>Layer 1</title>
      <g id="Group_31">
        <g id="Graphic_28">
          <title>cable</title>
          <path d="M 22.5 5 C 22.5 5 22.5 102.5 22.5 98.75 C 22.5 98.75 22.5 102.5 26.25 102.5 C 26.25 102.5 48.75 102.5 45 102.5 C 45 102.5 48.75 102.5 48.75 98.75 L 48.75 83.75 L 45 83.75 L 45 98.75 L 26.25 98.75 L 26.25 5 L 67.5 5 C 67.5 5 67.5 102.5 67.5 98.75 C 67.5 98.75 67.5 102.5 71.25 102.5 L 135 102.5 L 135 98.75 L 71.25 98.75 C 71.25 98.75 71.25 1.25 71.25 5 C 71.25 5 71.25 1.25 67.5 1.25 C 67.5 1.25 22.5 1.25 26.25 1.25 C 26.25 1.25 22.5 1.25 22.5 5 Z" fill="#fcf7f7"/>
          <path d="M 22.5 5 C 22.5 5 22.5 102.5 22.5 98.75 C 22.5 98.75 22.5 102.5 26.25 102.5 C 26.25 102.5 48.75 102.5 45 102.5 C 45 102.5 48.75 102.5 48.75 98.75 L 48.75 83.75 L 45 83.75 L 45 98.75 L 26.25 98.75 L 26.25 5 L 67.5 5 C 67.5 5 67.5 102.5 67.5 98.75 C 67.5 98.75 67.5 102.5 71.25 102.5 L 135 102.5 L 135 98.75 L 71.25 98.75 C 71.25 98.75 71.25 1.25 71.25 5 C 71.25 5 71.25 1.25 67.5 1.25 C 67.5 1.25 22.5 1.25 26.25 1.25 C 26.25 1.25 22.5 1.25 22.5 5 Z" stroke="black" stroke-linecap="square" stroke-linejoin="miter" stroke-width=".25"/>
        </g>
        <g id="Graphic_27">
          <title>reflection-cable</title>
          <rect x="23.125" y="5" width=".55" height="93.75" fill="white"/>
          <rect x="23.125" y="5" width=".55" height="93.75" stroke="black" stroke-linecap="square" stroke-linejoin="miter" stroke-width=".125"/>
        </g>
        <g id="Graphic_29">
          <title>reflection-cable</title>
          <rect x="68.2" y="5" width=".55" height="93.75" fill="white"/>
          <rect x="68.2" y="5" width=".55" height="93.75" stroke="black" stroke-linecap="square" stroke-linejoin="miter" stroke-width=".125"/>
        </g>
        <g id="Graphic_30">
          <title>reflection-cable</title>
          <rect x="45.7" y="85" width=".55" height="13.75" fill="white"/>
          <rect x="45.7" y="85" width=".55" height="13.75" stroke="black" stroke-linecap="square" stroke-linejoin="miter" stroke-width=".125"/>
        </g>
      </g>
      <g id="Group_3">
        <title>Earbud</title>
        <g id="Group_11">
          <title>Earbud stem</title>
          <g id="Graphic_16">
            <title>upper</title>
            <rect x="42.5" y="42.5" width="8.75" height="40" fill="#fcf7f7"/>
            <rect x="42.5" y="42.5" width="8.75" height="40" stroke="black" stroke-linecap="square" stroke-linejoin="miter" stroke-width=".5"/>
          </g>
          <g id="Graphic_15">
            <title>lower</title>
            <rect x="43.75" y="82.5" width="6.25" height="5" fill="#fcf7f7"/>
            <rect x="43.75" y="82.5" width="6.25" height="5" stroke="black" stroke-linecap="square" stroke-linejoin="miter" stroke-width=".5"/>
          </g>
          <g id="Graphic_14">
            <title>reflection-lower</title>
            <rect x="45" y="82.6875" width=".75" height="3.5625" fill="white"/>
            <rect x="45" y="82.6875" width=".75" height="3.5625" stroke="black" stroke-linecap="square" stroke-linejoin="miter" stroke-width=".125"/>
          </g>
          <g id="Graphic_13">
            <title>reflection-upper</title>
            <rect x="43.75" y="43.125" width="1.25" height="38.125" fill="white"/>
            <rect x="43.75" y="43.125" width="1.25" height="38.125" stroke="black" stroke-linecap="square" stroke-linejoin="miter" stroke-width=".125"/>
          </g>
          <g id="Graphic_20">
            <title>R</title>
            <path d="M 46.46784 79.77983 L 46.46784 79.01031 L 47.12634 79.01031 C 47.264166 79.01031 47.367534 79.0403 47.436447 79.10028 C 47.50536 79.16026 47.539816 79.2566 47.539816 79.38933 C 47.539816 79.52715 47.50536 79.62669 47.436447 79.68795 C 47.367534 79.7492 47.264166 79.77983 47.12634 79.77983 Z M 45.86677 78.54323 L 45.86677 81.27677 L 46.46784 81.27677 L 46.46784 80.20862 L 47.06891 80.20862 C 47.2195 80.20862 47.327973 80.2418 47.394334 80.30816 C 47.460695 80.37452 47.504084 80.47917 47.5245 80.6221 C 47.539816 80.73185 47.5513 80.8467 47.55896 80.96666 C 47.566616 81.08662 47.587034 81.18999 47.620214 81.27677 L 48.221286 81.27677 C 48.19321 81.23848 48.172154 81.1919 48.158116 81.13703 C 48.14408 81.08215 48.13387 81.02409 48.12749 80.96283 C 48.12111 80.90158 48.11664 80.8416 48.11409 80.78289 C 48.111536 80.72419 48.108984 80.67314 48.10643 80.629755 C 48.10133 80.56084 48.091756 80.49193 48.07772 80.42302 C 48.06368 80.3541 48.04135 80.29093 48.01072 80.23351 C 47.98009 80.17608 47.94053 80.12631 47.892037 80.0842 C 47.84354 80.04208 47.78229 80.01082 47.70827 79.9904 L 47.70827 79.98274 C 47.86141 79.921485 47.971796 79.83215 48.039433 79.71475 C 48.10707 79.59734 48.14089 79.45824 48.14089 79.29744 C 48.14089 79.1928 48.122384 79.09517 48.085375 79.00456 C 48.048366 78.91396 47.99477 78.8342 47.92458 78.76528 C 47.85439 78.69637 47.770164 78.64213 47.6719 78.60257 C 47.573634 78.56301 47.463247 78.54323 47.340735 78.54323 Z" fill="black"/>
          </g>
        </g>
        <g id="Group_4">
          <title>Earbud tip</title>
          <g id="Graphic_10">
            <title>outter-circle</title>
            <circle cx="47.5" cy="35" r="15.0000239685284" fill="#fcf7f7"/>
            <circle cx="47.5" cy="35" r="15.0000239685284" stroke="black" stroke-linecap="round" stroke-linejoin="round" stroke-width=".5"/>
          </g>
          <g id="Graphic_9">
            <title>inner-circle</title>
            <circle cx="47.48353" cy="34.98353" r="11.8585497052958" fill="white"/>
            <circle cx="47.48353" cy="34.98353" r="11.8585497052958" stroke="black" stroke-linecap="round" stroke-linejoin="round" stroke-width="1"/>
          </g>
          <g id="Graphic_8">
            <title>grill-2</title>
            <path d="M 58.192615 40.14481 C 58.979114 38.52341 59.37324 36.75956 59.375 34.99539 L 59.375 34.97167 C 59.37324 33.2075 58.979114 31.443652 58.192615 29.82225 Z M 55.827844 26.539608 L 55.827844 43.42745 C 55.855955 43.399887 55.88396 43.372153 55.911864 43.34425 C 56.3128 42.94332 56.67892 42.520756 57.01023 42.08032 L 57.01023 27.88674 C 56.67892 27.446305 56.3128 27.023743 55.911864 26.62281 C 55.88396 26.594908 55.855955 26.567174 55.827844 26.539608 Z M 54.64546 25.522583 C 54.26392 25.235735 53.86898 24.975003 53.46307 24.740388 L 53.46307 45.226673 C 53.86898 44.99206 54.26392 44.731326 54.64546 44.44448 Z M 52.28069 24.143332 C 51.893147 23.97437 51.4984 23.827177 51.0983 23.701748 L 51.0983 46.26531 C 51.4984 46.139884 51.893147 45.99269 52.28069 45.82373 Z M 49.915916 23.397238 C 49.52449 23.317725 49.12982 23.25817 48.73353 23.218577 L 48.73353 46.748484 C 49.12982 46.70889 49.52449 46.649336 49.915916 46.56982 Z M 47.551144 23.159668 C 47.54719 23.159668 47.543237 23.15967 47.539283 23.159674 C 47.14858 23.160063 46.75789 23.179697 46.36876 23.218577 L 46.36876 46.748484 C 46.75789 46.787363 47.14858 46.807 47.539283 46.80739 L 47.551144 46.80739 Z M 45.186373 23.397238 C 44.788313 23.4781 44.393613 23.579603 44.003987 23.701748 L 44.003987 46.26531 C 44.393613 46.38746 44.788313 46.48896 45.186373 46.56982 Z M 42.8216 24.143332 C 42.419 24.31886 42.02418 24.517878 41.639216 24.740388 L 41.639216 45.226673 C 42.02418 45.44918 42.419 45.6482 42.8216 45.82373 Z M 40.45683 25.522583 C 40.04616 25.831334 39.651015 26.170343 39.274444 26.539608 L 39.274444 43.42745 C 39.651015 43.79672 40.04616 44.135727 40.45683 44.44448 Z M 38.09206 27.88674 C 37.63031 28.500582 37.23618 29.14914 36.909673 29.82225 L 36.909673 40.14481 C 37.23618 40.81792 37.63031 41.46648 38.09206 42.08032 Z" stroke="black" stroke-linecap="round" stroke-linejoin="round" stroke-width=".25"/>
          </g>
          <g id="Graphic_7">
            <title>grill-1</title>
            <path d="M 42.32225 45.692615 C 43.943653 46.479113 45.7075 46.87324 47.47167 46.875 L 47.49539 46.875 C 49.25956 46.87324 51.02341 46.479113 52.64481 45.692615 Z M 39.03961 43.327844 C 39.067175 43.355954 39.09491 43.38396 39.12281 43.411864 C 39.523744 43.8128 39.946306 44.17892 40.38674 44.51023 L 54.58032 44.51023 C 55.020754 44.17892 55.443316 43.8128 55.84425 43.411864 C 55.87215 43.38396 55.899885 43.355954 55.92745 43.327844 Z M 37.24039 40.963073 C 37.475004 41.368978 37.735736 41.76392 38.022584 42.14546 L 56.944476 42.14546 C 57.231324 41.76392 57.492055 41.368978 57.72667 40.963073 Z M 36.20175 38.5983 C 36.32718 38.9984 36.474373 39.393147 36.643334 39.780687 L 58.323726 39.780687 C 58.49269 39.393147 58.63988 38.9984 58.76531 38.5983 Z M 35.71858 36.23353 C 35.758173 36.62982 35.817727 37.024492 35.89724 37.415916 L 59.06982 37.415916 C 59.14933 37.024492 59.20889 36.62982 59.24848 36.23353 Z M 35.71858 33.86876 C 35.6797 34.25789 35.660065 34.64858 35.659675 35.039284 L 35.659675 35.051145 L 59.307385 35.051145 C 59.30739 35.04719 59.30739 35.04324 59.307385 35.039284 C 59.306995 34.64858 59.28736 34.25789 59.24848 33.86876 Z M 36.20175 31.50399 C 36.079605 31.893615 35.9781 32.288315 35.89724 32.686374 L 59.06982 32.686374 C 58.98896 32.288315 58.887455 31.893615 58.76531 31.50399 Z M 37.24039 29.139218 C 37.01788 29.52418 36.81886 29.919002 36.643334 30.321603 L 58.323726 30.321603 C 58.1482 29.919002 57.94918 29.52418 57.72667 29.139218 Z M 39.03961 26.774447 C 38.670344 27.151018 38.331335 27.54616 38.022584 27.956832 L 56.944476 27.956832 C 56.635725 27.54616 56.296716 27.151018 55.92745 26.774447 Z M 54.58032 25.59206 C 53.96648 25.130312 53.31792 24.736183 52.64481 24.409676 L 42.32225 24.409676 C 41.64914 24.736183 41.000582 25.130312 40.38674 25.59206 Z" stroke="black" stroke-linecap="round" stroke-linejoin="round" stroke-width=".25"/>
          </g>
          <g id="Graphic_6">
            <title>reflection-tip</title>
            <path d="M 46.997595 21.259125 C 43.64797 21.38084 40.33435 22.72023 37.777297 25.277297 C 35.07561 27.97897 33.73323 31.525202 33.75016 35.066143 L 34.375166 35.066143 C 34.358233 31.685155 35.63959 28.298873 38.21924 25.719238 C 40.65425 23.284213 43.808003 22.005986 46.997595 21.88456 Z" fill="white"/>
            <path d="M 46.997595 21.259125 C 43.64797 21.38084 40.33435 22.72023 37.777297 25.277297 C 35.07561 27.97897 33.73323 31.525202 33.75016 35.066143 L 34.375166 35.066143 C 34.358233 31.685155 35.63959 28.298873 38.21924 25.719238 C 40.65425 23.284213 43.808003 22.005986 46.997595 21.88456 Z" stroke="black" stroke-linecap="round" stroke-linejoin="round" stroke-width=".125"/>
          </g>
          <g id="Graphic_5">
            <title>shadow-grill</title>
            <path d="M 38.186666 35 L 40.59208 35 C 40.596253 33.241815 41.26907 31.484924 42.61053 30.14347 C 43.96036 28.793632 45.730836 28.120815 47.5 28.125016 L 47.5 25.719604 C 45.11524 25.715406 42.72917 26.62307 40.909655 28.442593 C 39.098508 30.25373 38.190845 32.626218 38.186666 35 Z" fill="#333"/>
            <path d="M 38.186666 35 L 40.59208 35 C 40.596253 33.241815 41.26907 31.484924 42.61053 30.14347 C 43.96036 28.793632 45.730836 28.120815 47.5 28.125016 L 47.5 25.719604 C 45.11524 25.715406 42.72917 26.62307 40.909655 28.442593 C 39.098508 30.25373 38.190845 32.626218 38.186666 35 Z" stroke="#fafafa" stroke-linecap="round" stroke-linejoin="round" stroke-width="1" clip-path="url(#inner_stroke_clip_path)"/>
          </g>
        </g>
      </g>
    </g>
  </g>
</svg>
