<?xml version="1.0" encoding="UTF-8" standalone="no"?>
<!DOCTYPE svg PUBLIC "-//W3C//DTD SVG 1.1//EN" "http://www.w3.org/Graphics/SVG/1.1/DTD/svg11.dtd">
<svg xmlns="http://www.w3.org/2000/svg" xmlns:xl="http://www.w3.org/1999/xlink" xmlns:dc="http://purl.org/dc/elements/1.1/" version="1.1" viewBox="0 0 16 16" width="16" height="16">
  <defs/>
  <metadata> Produced by OmniGraffle 7.18.1\n2021-01-01 15:52:00 +0000</metadata>
  <g id="favicon-pinned-svg" stroke-opacity="1" stroke-dasharray="none" fill-opacity="1" stroke="none" fill="none">
    <title>favicon-pinned-svg</title>
    <g id="favicon-pinned-svg_Layer_1">
      <title>Layer 1</title>
      <g id="Graphic_14">
        <path d="M 13.656845 2.3431548 C 10.532655 -.7810516 5.467345 -.7810516 2.3431548 2.3431548 C -.7810516 5.467345 -.7810516 10.532655 2.3431548 13.656845 C 5.467345 16.781052 10.532655 16.781052 13.656845 13.656845 C 16.781052 10.532655 16.781052 5.467345 13.656845 2.3431548 M 12.146112 3.83632 C 14.44081 6.131007 14.44081 9.851426 12.146112 12.146113 C 9.851426 14.440811 6.131006 14.440811 3.8363195 12.146113 C 1.541621 9.851426 1.541621 6.131007 3.8363195 3.83632 C 6.131006 1.5416215 9.851426 1.5416215 12.146112 3.83632 M 3.0328908 8 L 3.0328908 8 L 3.0328908 8 L 4.3157766 8 C 4.3180035 7.062302 4.6768396 6.1252935 5.392285 5.409852 C 6.112194 4.689939 7.056446 4.331103 8 4.333344 L 8 3.050458 C 6.728128 3.048219 5.4555584 3.5323056 4.485151 4.502718 C 3.5192063 5.468658 3.0351196 6.7339835 3.0328908 8 Z" fill="black"/>
      </g>
    </g>
  </g>
</svg>
