<?xml version="1.0" encoding="UTF-8" standalone="no"?>
<!DOCTYPE svg PUBLIC "-//W3C//DTD SVG 1.1//EN" "http://www.w3.org/Graphics/SVG/1.1/DTD/svg11.dtd">
<svg xmlns="http://www.w3.org/2000/svg" xmlns:xl="http://www.w3.org/1999/xlink" xmlns:dc="http://purl.org/dc/elements/1.1/" version="1.1" viewBox="166.5 189 867 252" width="867" height="252">
  <defs/>
  <metadata> Designed by John Peart\nwww.johnpe.art\n@johnpeart\n2021-01-01 16:09:19 +0000</metadata>
  <g id="wordmark" stroke-opacity="1" stroke-dasharray="none" fill-opacity="1" stroke="none" fill="none">
    <title>You Should Listen to This</title>
    <g id="workmark-youshouldlistentothis">
        <g id="wordmark-this">
          <title>This</title>
          <g id="wordmark-this-t">
            <title>T</title>
            <g id="Graphic_251">
              <path d="M 847.5 340 L 882.5 340 C 882.5 340 887.5 340 887.5 345 C 887.5 345 887.5 350 882.5 350 L 847.5 350 L 847.5 430 C 847.5 430 847.5 440 837.5 440 C 837.5 440 827.5 440 827.5 430 L 827.5 350 L 807.5 350 C 807.5 350 802.5 350 802.5 345 C 802.5 345 802.5 340 807.5 340 C 807.5 340 822.5 340 827.5 340 C 827.5 340 837.5 340 837.5 350 L 837.5 430 L 837.5 350 C 837.5 350 837.5 340 847.5 340 Z" fill="#fdf6f7"/>
              <path d="M 847.5 340 L 882.5 340 C 882.5 340 887.5 340 887.5 345 C 887.5 345 887.5 350 882.5 350 L 847.5 350 L 847.5 430 C 847.5 430 847.5 440 837.5 440 C 837.5 440 827.5 440 827.5 430 L 827.5 350 L 807.5 350 C 807.5 350 802.5 350 802.5 345 C 802.5 345 802.5 340 807.5 340 C 807.5 340 822.5 340 827.5 340 C 827.5 340 837.5 340 837.5 350 L 837.5 430 L 837.5 350 C 837.5 350 837.5 340 847.5 340 Z" stroke="#1d1d1d" stroke-linecap="round" stroke-linejoin="round" stroke-width="2"/>
            </g>
            <g id="Graphic_250">
              <path d="M 806 342.5 L 826.5 342.5 C 827.0523 342.5 827.5 342.9477 827.5 343.5 L 827.5 343.5 C 827.5 344.0523 827.0523 344.5 826.5 344.5 L 806 344.5 C 805.4477 344.5 805 344.0523 805 343.5 L 805 343.5 C 805 342.9477 805.4477 342.5 806 342.5 Z" fill="white"/>
              <path d="M 806 342.5 L 826.5 342.5 C 827.0523 342.5 827.5 342.9477 827.5 343.5 L 827.5 343.5 C 827.5 344.0523 827.0523 344.5 826.5 344.5 L 806 344.5 C 805.4477 344.5 805 344.0523 805 343.5 L 805 343.5 C 805 342.9477 805.4477 342.5 806 342.5 Z" stroke="black" stroke-opacity=".5" stroke-linecap="round" stroke-linejoin="round" stroke-width=".5"/>
            </g>
            <g id="Graphic_249">
              <path d="M 848.5 342.5 L 879 342.5 C 879.5523 342.5 880 342.9477 880 343.5 L 880 343.5 C 880 344.0523 879.5523 344.5 879 344.5 L 848.5 344.5 C 847.9477 344.5 847.5 344.0523 847.5 343.5 L 847.5 343.5 C 847.5 342.9477 847.9477 342.5 848.5 342.5 Z" fill="white"/>
              <path d="M 848.5 342.5 L 879 342.5 C 879.5523 342.5 880 342.9477 880 343.5 L 880 343.5 C 880 344.0523 879.5523 344.5 879 344.5 L 848.5 344.5 C 847.9477 344.5 847.5 344.0523 847.5 343.5 L 847.5 343.5 C 847.5 342.9477 847.9477 342.5 848.5 342.5 Z" stroke="black" stroke-opacity=".5" stroke-linecap="round" stroke-linejoin="round" stroke-width=".5"/>
            </g>
          </g>
          <g id="wordmark-this-h">
            <title>H</title>
            <g id="Graphic_247">
              <path d="M 877.5 435 L 877.5 345 C 877.5 345 877.5 340 882.5 340 C 882.5 340 887.5 340 887.5 345 L 887.5 390 L 907.5 390 L 907.5 345 C 907.5 345 907.5 340 912.5 340 C 912.5 340 917.5 340 917.5 345 L 917.5 390 C 917.5 390 917.5 400 907.5 400 C 907.5 400 917.5 400 917.5 390 L 917.5 405 C 917.5 405 917.5 400 917.5 405 L 917.5 430 L 942.5 430 C 942.5 430 947.5 430 947.5 435 C 947.5 435 947.5 440 942.5 440 L 912.5 440 C 912.5 440 907.5 440 907.5 435 L 907.5 405 L 907.5 400 C 907.5 400 892.5 400 887.5 400 L 887.5 390 L 887.5 435 C 887.5 435 887.5 440 882.5 440 C 882.5 440 877.5 440 877.5 435 Z" fill="#fdf6f7"/>
              <path d="M 877.5 435 L 877.5 345 C 877.5 345 877.5 340 882.5 340 C 882.5 340 887.5 340 887.5 345 L 887.5 390 L 907.5 390 L 907.5 345 C 907.5 345 907.5 340 912.5 340 C 912.5 340 917.5 340 917.5 345 L 917.5 390 C 917.5 390 917.5 400 907.5 400 C 907.5 400 917.5 400 917.5 390 L 917.5 405 C 917.5 405 917.5 400 917.5 405 L 917.5 430 L 942.5 430 C 942.5 430 947.5 430 947.5 435 C 947.5 435 947.5 440 942.5 440 L 912.5 440 C 912.5 440 907.5 440 907.5 435 L 907.5 405 L 907.5 400 C 907.5 400 892.5 400 887.5 400 L 887.5 390 L 887.5 435 C 887.5 435 887.5 440 882.5 440 C 882.5 440 877.5 440 877.5 435 Z" stroke="#1d1d1d" stroke-linecap="round" stroke-linejoin="round" stroke-width="2"/>
            </g>
            <g id="Graphic_246">
              <path d="M 883.5 342.5 L 884 342.5 C 884.5523 342.5 885 342.9477 885 343.5 L 885 343.5 C 885 344.0523 884.5523 344.5 884 344.5 L 883.5 344.5 C 882.9477 344.5 882.5 344.0523 882.5 343.5 L 882.5 343.5 C 882.5 342.9477 882.9477 342.5 883.5 342.5 Z" fill="white"/>
              <path d="M 883.5 342.5 L 884 342.5 C 884.5523 342.5 885 342.9477 885 343.5 L 885 343.5 C 885 344.0523 884.5523 344.5 884 344.5 L 883.5 344.5 C 882.9477 344.5 882.5 344.0523 882.5 343.5 L 882.5 343.5 C 882.5 342.9477 882.9477 342.5 883.5 342.5 Z" stroke="black" stroke-opacity=".5" stroke-linecap="round" stroke-linejoin="round" stroke-width=".5"/>
            </g>
            <g id="Graphic_245">
              <path d="M 913.5 343 L 914 343 C 914.5523 343 915 343.4477 915 344 L 915 344 C 915 344.5523 914.5523 345 914 345 L 913.5 345 C 912.9477 345 912.5 344.5523 912.5 344 L 912.5 344 C 912.5 343.4477 912.9477 343 913.5 343 Z" fill="white"/>
              <path d="M 913.5 343 L 914 343 C 914.5523 343 915 343.4477 915 344 L 915 344 C 915 344.5523 914.5523 345 914 345 L 913.5 345 C 912.9477 345 912.5 344.5523 912.5 344 L 912.5 344 C 912.5 343.4477 912.9477 343 913.5 343 Z" stroke="black" stroke-opacity=".5" stroke-linecap="round" stroke-linejoin="round" stroke-width=".5"/>
            </g>
            <g id="Graphic_244">
              <path d="M 893.5 392.5 L 906.5 392.5 C 907.0523 392.5 907.5 392.9477 907.5 393.5 L 907.5 393.5 C 907.5 394.0523 907.0523 394.5 906.5 394.5 L 893.5 394.5 C 892.9477 394.5 892.5 394.0523 892.5 393.5 L 892.5 393.5 C 892.5 392.9477 892.9477 392.5 893.5 392.5 Z" fill="white"/>
              <path d="M 893.5 392.5 L 906.5 392.5 C 907.0523 392.5 907.5 392.9477 907.5 393.5 L 907.5 393.5 C 907.5 394.0523 907.0523 394.5 906.5 394.5 L 893.5 394.5 C 892.9477 394.5 892.5 394.0523 892.5 393.5 L 892.5 393.5 C 892.5 392.9477 892.9477 392.5 893.5 392.5 Z" stroke="black" stroke-opacity=".5" stroke-linecap="round" stroke-linejoin="round" stroke-width=".5"/>
            </g>
            <g id="Graphic_243">
              <path d="M 918.5 432.5 L 941.5 432.5 C 942.0523 432.5 942.5 432.9477 942.5 433.5 L 942.5 433.5 C 942.5 434.0523 942.0523 434.5 941.5 434.5 L 918.5 434.5 C 917.9477 434.5 917.5 434.0523 917.5 433.5 L 917.5 433.5 C 917.5 432.9477 917.9477 432.5 918.5 432.5 Z" fill="white"/>
              <path d="M 918.5 432.5 L 941.5 432.5 C 942.0523 432.5 942.5 432.9477 942.5 433.5 L 942.5 433.5 C 942.5 434.0523 942.0523 434.5 941.5 434.5 L 918.5 434.5 C 917.9477 434.5 917.5 434.0523 917.5 433.5 L 917.5 433.5 C 917.5 432.9477 917.9477 432.5 918.5 432.5 Z" stroke="black" stroke-opacity=".5" stroke-linecap="round" stroke-linejoin="round" stroke-width=".5"/>
            </g>
          </g>
          <g id="wordmark-this-s">
            <title>S</title>
            <g id="Graphic_241">
              <path d="M 952.5 440 C 952.5 440 947.5 440 947.5 435 C 947.5 430 952.5 430 952.5 430 L 1002.5 430 L 1002.5 390 L 982.5 390 C 982.5 390 972.5 388 972.5 380 C 972.5 370 972.5 350 972.5 350 C 972.5 350 972.5 340 982.5 340 L 1027.5 340 C 1027.5 340 1032.5 340 1032.5 345 C 1032.5 345 1032.5 350 1027.5 350 L 982.5 350 L 982.5 380 L 1002.5 380 C 1012.5 380 1012.5 390 1012.5 390 L 1012.5 430 C 1012.5 430 1012.5 440 1002.5 440 C 992.5 440 952.5 440 952.5 440 Z" fill="#fdf6f7"/>
              <path d="M 952.5 440 C 952.5 440 947.5 440 947.5 435 C 947.5 430 952.5 430 952.5 430 L 1002.5 430 L 1002.5 390 L 982.5 390 C 982.5 390 972.5 388 972.5 380 C 972.5 370 972.5 350 972.5 350 C 972.5 350 972.5 340 982.5 340 L 1027.5 340 C 1027.5 340 1032.5 340 1032.5 345 C 1032.5 345 1032.5 350 1027.5 350 L 982.5 350 L 982.5 380 L 1002.5 380 C 1012.5 380 1012.5 390 1012.5 390 L 1012.5 430 C 1012.5 430 1012.5 440 1002.5 440 C 992.5 440 952.5 440 952.5 440 Z" stroke="#1d1d1d" stroke-linecap="square" stroke-linejoin="miter" stroke-width="2"/>
            </g>
            <g id="Graphic_240">
              <path d="M 961 432.5 L 1001.5 432.5 C 1002.0523 432.5 1002.5 432.9477 1002.5 433.5 L 1002.5 433.5 C 1002.5 434.0523 1002.0523 434.5 1001.5 434.5 L 961 434.5 C 960.4477 434.5 960 434.0523 960 433.5 L 960 433.5 C 960 432.9477 960.4477 432.5 961 432.5 Z" fill="white"/>
              <path d="M 961 432.5 L 1001.5 432.5 C 1002.0523 432.5 1002.5 432.9477 1002.5 433.5 L 1002.5 433.5 C 1002.5 434.0523 1002.0523 434.5 1001.5 434.5 L 961 434.5 C 960.4477 434.5 960 434.0523 960 433.5 L 960 433.5 C 960 432.9477 960.4477 432.5 961 432.5 Z" stroke="black" stroke-opacity=".5" stroke-linecap="round" stroke-linejoin="round" stroke-width=".5"/>
            </g>
            <g id="Graphic_239">
              <path d="M 983.5 343 L 1024 343 C 1024.5523 343 1025 343.4477 1025 344 L 1025 344 C 1025 344.5523 1024.5523 345 1024 345 L 983.5 345 C 982.9477 345 982.5 344.5523 982.5 344 L 982.5 344 C 982.5 343.4477 982.9477 343 983.5 343 Z" fill="white"/>
              <path d="M 983.5 343 L 1024 343 C 1024.5523 343 1025 343.4477 1025 344 L 1025 344 C 1025 344.5523 1024.5523 345 1024 345 L 983.5 345 C 982.9477 345 982.5 344.5523 982.5 344 L 982.5 344 C 982.5 343.4477 982.9477 343 983.5 343 Z" stroke="black" stroke-opacity=".5" stroke-linecap="round" stroke-linejoin="round" stroke-width=".5"/>
            </g>
            <g id="Graphic_238">
              <path d="M 983.5 383 L 1001.5 383 C 1002.0523 383 1002.5 383.4477 1002.5 384 L 1002.5 384 C 1002.5 384.5523 1002.0523 385 1001.5 385 L 983.5 385 C 982.9477 385 982.5 384.5523 982.5 384 L 982.5 384 C 982.5 383.4477 982.9477 383 983.5 383 Z" fill="white"/>
              <path d="M 983.5 383 L 1001.5 383 C 1002.0523 383 1002.5 383.4477 1002.5 384 L 1002.5 384 C 1002.5 384.5523 1002.0523 385 1001.5 385 L 983.5 385 C 982.9477 385 982.5 384.5523 982.5 384 L 982.5 384 C 982.5 383.4477 982.9477 383 983.5 383 Z" stroke="black" stroke-opacity=".5" stroke-linecap="round" stroke-linejoin="round" stroke-width=".5"/>
            </g>
          </g>
          <g id="wordmark-this-i">
            <title>I</title>
            <g id="Graphic_236">
              <path d="M 942.5 440 C 942.5 440 937.5 440 937.5 435 L 937.5 350 C 937.5 350 937.5 340 947.5 340 C 947.5 340 957.5 340 957.5 350 L 957.5 435 C 957.5 435 957.5 440 952.5 440 C 952.5 440 947.5 440 947.5 435 L 947.5 350 L 947.5 435 C 947.5 435 947.5 440 942.5 440 Z" fill="#fdf6f7"/>
              <path d="M 942.5 440 C 942.5 440 937.5 440 937.5 435 L 937.5 350 C 937.5 350 937.5 340 947.5 340 C 947.5 340 957.5 340 957.5 350 L 957.5 435 C 957.5 435 957.5 440 952.5 440 C 952.5 440 947.5 440 947.5 435 L 947.5 350 L 947.5 435 C 947.5 435 947.5 440 942.5 440 Z" stroke="#1d1d1d" stroke-linecap="round" stroke-linejoin="round" stroke-width="2"/>
            </g>
            <g id="Graphic_235">
              <path d="M 946 343 L 949 343 C 949.5523 343 950 343.4477 950 344 L 950 344 C 950 344.5523 949.5523 345 949 345 L 946 345 C 945.4477 345 945 344.5523 945 344 L 945 344 C 945 343.4477 945.4477 343 946 343 Z" fill="white"/>
              <path d="M 946 343 L 949 343 C 949.5523 343 950 343.4477 950 344 L 950 344 C 950 344.5523 949.5523 345 949 345 L 946 345 C 945.4477 345 945 344.5523 945 344 L 945 344 C 945 343.4477 945.4477 343 946 343 Z" stroke="black" stroke-opacity=".5" stroke-linecap="round" stroke-linejoin="round" stroke-width=".5"/>
            </g>
          </g>
        </g>
        <g id="wordmark-to">
          <title>To</title>
          <g id="wordmark-to-t">
            <title>T</title>
            <g id="Graphic_232">
              <path d="M 707.5 340 L 742.5 340 C 742.5 340 747.5 340 747.5 345 C 747.5 345 747.5 350 742.5 350 L 707.5 350 L 707.5 430 C 707.5 430 707.5 440 697.5 440 C 697.5 440 687.5 440 687.5 430 L 687.5 350 L 667.5 350 C 667.5 350 662.5 350 662.5 345 C 662.5 345 662.5 340 667.5 340 C 667.5 340 682.5 340 687.5 340 C 687.5 340 697.5 340 697.5 350 L 697.5 430 L 697.5 350 C 697.5 350 697.5 340 707.5 340 Z" fill="#fdf6f7"/>
              <path d="M 707.5 340 L 742.5 340 C 742.5 340 747.5 340 747.5 345 C 747.5 345 747.5 350 742.5 350 L 707.5 350 L 707.5 430 C 707.5 430 707.5 440 697.5 440 C 697.5 440 687.5 440 687.5 430 L 687.5 350 L 667.5 350 C 667.5 350 662.5 350 662.5 345 C 662.5 345 662.5 340 667.5 340 C 667.5 340 682.5 340 687.5 340 C 687.5 340 697.5 340 697.5 350 L 697.5 430 L 697.5 350 C 697.5 350 697.5 340 707.5 340 Z" stroke="#1d1d1d" stroke-linecap="round" stroke-linejoin="round" stroke-width="2"/>
            </g>
            <g id="Graphic_231">
              <path d="M 671 342.5 L 686.5 342.5 C 687.0523 342.5 687.5 342.9477 687.5 343.5 L 687.5 343.5 C 687.5 344.0523 687.0523 344.5 686.5 344.5 L 671 344.5 C 670.4477 344.5 670 344.0523 670 343.5 L 670 343.5 C 670 342.9477 670.4477 342.5 671 342.5 Z" fill="white"/>
              <path d="M 671 342.5 L 686.5 342.5 C 687.0523 342.5 687.5 342.9477 687.5 343.5 L 687.5 343.5 C 687.5 344.0523 687.0523 344.5 686.5 344.5 L 671 344.5 C 670.4477 344.5 670 344.0523 670 343.5 L 670 343.5 C 670 342.9477 670.4477 342.5 671 342.5 Z" stroke="black" stroke-opacity=".5" stroke-linecap="round" stroke-linejoin="round" stroke-width=".5"/>
            </g>
            <g id="Graphic_230">
              <path d="M 708.5 342.5 L 734 342.5 C 734.5523 342.5 735 342.9477 735 343.5 L 735 343.5 C 735 344.0523 734.5523 344.5 734 344.5 L 708.5 344.5 C 707.9477 344.5 707.5 344.0523 707.5 343.5 L 707.5 343.5 C 707.5 342.9477 707.9477 342.5 708.5 342.5 Z" fill="white"/>
              <path d="M 708.5 342.5 L 734 342.5 C 734.5523 342.5 735 342.9477 735 343.5 L 735 343.5 C 735 344.0523 734.5523 344.5 734 344.5 L 708.5 344.5 C 707.9477 344.5 707.5 344.0523 707.5 343.5 L 707.5 343.5 C 707.5 342.9477 707.9477 342.5 708.5 342.5 Z" stroke="black" stroke-opacity=".5" stroke-linecap="round" stroke-linejoin="round" stroke-width=".5"/>
            </g>
          </g>
          <g id="wordmark-to-o">
            <title>O</title>
            <g id="Graphic_228">
              <path d="M 742.5 340 C 742.5 340 747.5 340 747.5 345 C 747.5 345 747.5 350 742.5 350 C 742.5 350 737.5 350 737.5 360 L 737.5 420 C 737.5 420 737.5 430 747.5 430 C 747.5 430 757.5 430 757.5 420 L 757.5 360 C 757.5 360 757.5 350 752.5 350 C 752.5 350 747.5 350 747.5 345 C 747.5 345 747.5 340 752.5 340 C 752.5 340 767.5 340 767.5 360 L 767.5 420 C 767.5 420 767.5 440 747.5 440 C 747.5 440 727.5 440 727.5 420 L 727.5 360 C 727.5 360 727.5 340 742.5 340 Z" fill="#fdf6f7"/>
              <path d="M 742.5 340 C 742.5 340 747.5 340 747.5 345 C 747.5 345 747.5 350 742.5 350 C 742.5 350 737.5 350 737.5 360 L 737.5 420 C 737.5 420 737.5 430 747.5 430 C 747.5 430 757.5 430 757.5 420 L 757.5 360 C 757.5 360 757.5 350 752.5 350 C 752.5 350 747.5 350 747.5 345 C 747.5 345 747.5 340 752.5 340 C 752.5 340 767.5 340 767.5 360 L 767.5 420 C 767.5 420 767.5 440 747.5 440 C 747.5 440 727.5 440 727.5 420 L 727.5 360 C 727.5 360 727.5 340 742.5 340 Z" stroke="#1d1d1d" stroke-linecap="round" stroke-linejoin="round" stroke-width="2"/>
            </g>
            <g id="Graphic_227">
              <path d="M 751 342.5 L 754 342.5 C 754.5523 342.5 755 342.9477 755 343.5 L 755 343.5 C 755 344.0523 754.5523 344.5 754 344.5 L 751 344.5 C 750.4477 344.5 750 344.0523 750 343.5 L 750 343.5 C 750 342.9477 750.4477 342.5 751 342.5 Z" fill="white"/>
              <path d="M 751 342.5 L 754 342.5 C 754.5523 342.5 755 342.9477 755 343.5 L 755 343.5 C 755 344.0523 754.5523 344.5 754 344.5 L 751 344.5 C 750.4477 344.5 750 344.0523 750 343.5 L 750 343.5 C 750 342.9477 750.4477 342.5 751 342.5 Z" stroke="black" stroke-opacity=".5" stroke-linecap="round" stroke-linejoin="round" stroke-width=".5"/>
            </g>
            <g id="Graphic_226">
              <path d="M 741 342.5 L 744 342.5 C 744.5523 342.5 745 342.9477 745 343.5 L 745 343.5 C 745 344.0523 744.5523 344.5 744 344.5 L 741 344.5 C 740.4477 344.5 740 344.0523 740 343.5 L 740 343.5 C 740 342.9477 740.4477 342.5 741 342.5 Z" fill="white"/>
              <path d="M 741 342.5 L 744 342.5 C 744.5523 342.5 745 342.9477 745 343.5 L 745 343.5 C 745 344.0523 744.5523 344.5 744 344.5 L 741 344.5 C 740.4477 344.5 740 344.0523 740 343.5 L 740 343.5 C 740 342.9477 740.4477 342.5 741 342.5 Z" stroke="black" stroke-opacity=".5" stroke-linecap="round" stroke-linejoin="round" stroke-width=".5"/>
            </g>
          </g>
        </g>
        <g id="wordmark-listen">
          <title>Listen</title>
          <g id="wordmark-listen-l">
            <title>L</title>
            <g id="Graphic_223">
              <path d="M 357.5 440 C 357.5 440 362.5 440 362.5 435 C 362.5 435 362.5 430 357.5 430 L 317.5 430 L 317.5 195 C 317.5 195 317.5 190 312.5 190 C 312.5 190 307.5 190 307.5 195 L 307.5 430 C 307.5 430 307.5 440 317.5 440 Z" fill="#fdf6f7"/>
              <path d="M 357.5 440 C 357.5 440 362.5 440 362.5 435 C 362.5 435 362.5 430 357.5 430 L 317.5 430 L 317.5 195 C 317.5 195 317.5 190 312.5 190 C 312.5 190 307.5 190 307.5 195 L 307.5 430 C 307.5 430 307.5 440 317.5 440 Z" stroke="#1d1d1d" stroke-linecap="round" stroke-linejoin="round" stroke-width="2"/>
            </g>
            <g id="Graphic_222">
              <path d="M 318.5 433 L 356.5 433 C 357.0523 433 357.5 433.4477 357.5 434 L 357.5 434 C 357.5 434.5523 357.0523 435 356.5 435 L 318.5 435 C 317.9477 435 317.5 434.5523 317.5 434 L 317.5 434 C 317.5 433.4477 317.9477 433 318.5 433 Z" fill="white"/>
              <path d="M 318.5 433 L 356.5 433 C 357.0523 433 357.5 433.4477 357.5 434 L 357.5 434 C 357.5 434.5523 357.0523 435 356.5 435 L 318.5 435 C 317.9477 435 317.5 434.5523 317.5 434 L 317.5 434 C 317.5 433.4477 317.9477 433 318.5 433 Z" stroke="black" stroke-opacity=".5" stroke-linecap="round" stroke-linejoin="round" stroke-width=".5"/>
            </g>
          </g>
          <g id="wordmark-listen-s">
            <title>S</title>
            <g id="Graphic_220">
              <path d="M 367.5 440 C 367.5 440 362.5 440 362.5 435 C 362.5 430 367.5 430 367.5 430 L 417.5 430 L 417.5 390 L 397.5 390 C 397.5 390 387.5 388 387.5 380 C 387.5 370 387.5 350 387.5 350 C 387.5 350 387.5 340 397.5 340 L 442.5 340 C 442.5 340 447.5 340 447.5 345 C 447.5 345 447.5 350 442.5 350 L 397.5 350 L 397.5 380 L 417.5 380 C 427.5 380 427.5 390 427.5 390 L 427.5 430 C 427.5 430 427.5 440 417.5 440 C 407.5 440 367.5 440 367.5 440 Z" fill="#fdf6f7"/>
              <path d="M 367.5 440 C 367.5 440 362.5 440 362.5 435 C 362.5 430 367.5 430 367.5 430 L 417.5 430 L 417.5 390 L 397.5 390 C 397.5 390 387.5 388 387.5 380 C 387.5 370 387.5 350 387.5 350 C 387.5 350 387.5 340 397.5 340 L 442.5 340 C 442.5 340 447.5 340 447.5 345 C 447.5 345 447.5 350 442.5 350 L 397.5 350 L 397.5 380 L 417.5 380 C 427.5 380 427.5 390 427.5 390 L 427.5 430 C 427.5 430 427.5 440 417.5 440 C 407.5 440 367.5 440 367.5 440 Z" stroke="#1d1d1d" stroke-linecap="square" stroke-linejoin="miter" stroke-width="2"/>
            </g>
            <g id="Graphic_219">
              <path d="M 398.5 383 L 416.5 383 C 417.0523 383 417.5 383.4477 417.5 384 L 417.5 384 C 417.5 384.5523 417.0523 385 416.5 385 L 398.5 385 C 397.9477 385 397.5 384.5523 397.5 384 L 397.5 384 C 397.5 383.4477 397.9477 383 398.5 383 Z" fill="white"/>
              <path d="M 398.5 383 L 416.5 383 C 417.0523 383 417.5 383.4477 417.5 384 L 417.5 384 C 417.5 384.5523 417.0523 385 416.5 385 L 398.5 385 C 397.9477 385 397.5 384.5523 397.5 384 L 397.5 384 C 397.5 383.4477 397.9477 383 398.5 383 Z" stroke="black" stroke-opacity=".5" stroke-linecap="round" stroke-linejoin="round" stroke-width=".5"/>
            </g>
            <g id="Graphic_218">
              <path d="M 398.5 342.5 L 461.5 342.5 C 462.0523 342.5 462.5 342.9477 462.5 343.5 L 462.5 343.5 C 462.5 344.0523 462.0523 344.5 461.5 344.5 L 398.5 344.5 C 397.9477 344.5 397.5 344.0523 397.5 343.5 L 397.5 343.5 C 397.5 342.9477 397.9477 342.5 398.5 342.5 Z" fill="white"/>
              <path d="M 398.5 342.5 L 461.5 342.5 C 462.0523 342.5 462.5 342.9477 462.5 343.5 L 462.5 343.5 C 462.5 344.0523 462.0523 344.5 461.5 344.5 L 398.5 344.5 C 397.9477 344.5 397.5 344.0523 397.5 343.5 L 397.5 343.5 C 397.5 342.9477 397.9477 342.5 398.5 342.5 Z" stroke="black" stroke-opacity=".5" stroke-linecap="round" stroke-linejoin="round" stroke-width=".5"/>
            </g>
            <g id="Graphic_217">
              <path d="M 368.5 432.5 L 416.5 432.5 C 417.0523 432.5 417.5 432.9477 417.5 433.5 L 417.5 433.5 C 417.5 434.0523 417.0523 434.5 416.5 434.5 L 368.5 434.5 C 367.9477 434.5 367.5 434.0523 367.5 433.5 L 367.5 433.5 C 367.5 432.9477 367.9477 432.5 368.5 432.5 Z" fill="white"/>
              <path d="M 368.5 432.5 L 416.5 432.5 C 417.0523 432.5 417.5 432.9477 417.5 433.5 L 417.5 433.5 C 417.5 434.0523 417.0523 434.5 416.5 434.5 L 368.5 434.5 C 367.9477 434.5 367.5 434.0523 367.5 433.5 L 367.5 433.5 C 367.5 432.9477 367.9477 432.5 368.5 432.5 Z" stroke="black" stroke-opacity=".5" stroke-linecap="round" stroke-linejoin="round" stroke-width=".5"/>
            </g>
          </g>
          <g id="wordmark-listen-en">
            <title>EN</title>
            <g id="Graphic_215">
              <path d="M 582.5 440 C 584.08416 440 585.1664 439.4981 585.90576 438.8123 C 586.0418 438.6774 586.1805 438.5479 586.3124 438.40567 C 586.9981 437.6663 587.5 436.5841 587.5 435 L 587.5 435 L 587.5 350 L 597.5 350 L 597.5 430 C 597.5 430 597.5 440 607.5 440 L 617.5 440 C 617.5 440 627.5 440 627.5 430 L 627.5 345 C 627.5 345 627.5 340 622.5 340 C 622.5 340 617.5 340 617.5 345 L 617.5 430 L 607.5 430 L 607.5 350 C 607.5 350 607.5 340 597.5 340 L 587.5 340 C 587.5 340 577.5 340 577.5 350 L 577.5 430 L 527.5 430 L 527.5 400 L 557.5 400 C 567.5 400 567.5 390 567.5 390 C 567.5 380 557.5 380 557.5 380 L 527.5 380 L 527.5 360 L 557.5 360 C 567.5 360 567.5 350 567.5 350 C 567.5 340 557.5 340 557.5 340 L 502.5 340 C 497.5 340 497.5 345 497.5 345 C 497.5 350 502.5 350 502.5 350 L 557.5 350 L 527.5 350 C 517.5 350 517.5 360 517.5 360 L 517.5 380 C 517.5 389.9999 527.4998 390 527.5 390 C 517.5 390 517.5 400 517.5 400 L 517.5 430 C 517.5 440 527.5 440 527.5 440 Z M 527.5 390 L 557.5 390 Z" fill="#fdf6f7"/>
              <path d="M 582.5 440 C 584.08416 440 585.1664 439.4981 585.90576 438.8123 C 586.0418 438.6774 586.1805 438.5479 586.3124 438.40567 C 586.9981 437.6663 587.5 436.5841 587.5 435 L 587.5 435 L 587.5 350 L 597.5 350 L 597.5 430 C 597.5 430 597.5 440 607.5 440 L 617.5 440 C 617.5 440 627.5 440 627.5 430 L 627.5 345 C 627.5 345 627.5 340 622.5 340 C 622.5 340 617.5 340 617.5 345 L 617.5 430 L 607.5 430 L 607.5 350 C 607.5 350 607.5 340 597.5 340 L 587.5 340 C 587.5 340 577.5 340 577.5 350 L 577.5 430 L 527.5 430 L 527.5 400 L 557.5 400 C 567.5 400 567.5 390 567.5 390 C 567.5 380 557.5 380 557.5 380 L 527.5 380 L 527.5 360 L 557.5 360 C 567.5 360 567.5 350 567.5 350 C 567.5 340 557.5 340 557.5 340 L 502.5 340 C 497.5 340 497.5 345 497.5 345 C 497.5 350 502.5 350 502.5 350 L 557.5 350 L 527.5 350 C 517.5 350 517.5 360 517.5 360 L 517.5 380 C 517.5 389.9999 527.4998 390 527.5 390 C 517.5 390 517.5 400 517.5 400 L 517.5 430 C 517.5 440 527.5 440 527.5 440 Z M 527.5 390 L 557.5 390 Z" stroke="#1d1d1d" stroke-linecap="round" stroke-linejoin="round" stroke-width="2"/>
            </g>
            <g id="Graphic_214">
              <path d="M 528.5 353 L 556.5 353 C 557.0523 353 557.5 353.4477 557.5 354 L 557.5 354 C 557.5 354.5523 557.0523 355 556.5 355 L 528.5 355 C 527.9477 355 527.5 354.5523 527.5 354 L 527.5 354 C 527.5 353.4477 527.9477 353 528.5 353 Z" fill="white"/>
              <path d="M 528.5 353 L 556.5 353 C 557.0523 353 557.5 353.4477 557.5 354 L 557.5 354 C 557.5 354.5523 557.0523 355 556.5 355 L 528.5 355 C 527.9477 355 527.5 354.5523 527.5 354 L 527.5 354 C 527.5 353.4477 527.9477 353 528.5 353 Z" stroke="black" stroke-opacity=".5" stroke-linecap="round" stroke-linejoin="round" stroke-width=".5"/>
            </g>
            <g id="Graphic_213">
              <path d="M 528.5 382.5 L 556.5 382.5 C 557.0523 382.5 557.5 382.9477 557.5 383.5 L 557.5 383.5 C 557.5 384.0523 557.0523 384.5 556.5 384.5 L 528.5 384.5 C 527.9477 384.5 527.5 384.0523 527.5 383.5 L 527.5 383.5 C 527.5 382.9477 527.9477 382.5 528.5 382.5 Z" fill="white"/>
              <path d="M 528.5 382.5 L 556.5 382.5 C 557.0523 382.5 557.5 382.9477 557.5 383.5 L 557.5 383.5 C 557.5 384.0523 557.0523 384.5 556.5 384.5 L 528.5 384.5 C 527.9477 384.5 527.5 384.0523 527.5 383.5 L 527.5 383.5 C 527.5 382.9477 527.9477 382.5 528.5 382.5 Z" stroke="black" stroke-opacity=".5" stroke-linecap="round" stroke-linejoin="round" stroke-width=".5"/>
            </g>
            <g id="Graphic_212">
              <path d="M 528.5 392.5 L 556.5 392.5 C 557.0523 392.5 557.5 392.9477 557.5 393.5 L 557.5 393.5 C 557.5 394.0523 557.0523 394.5 556.5 394.5 L 528.5 394.5 C 527.9477 394.5 527.5 394.0523 527.5 393.5 L 527.5 393.5 C 527.5 392.9477 527.9477 392.5 528.5 392.5 Z" fill="white"/>
              <path d="M 528.5 392.5 L 556.5 392.5 C 557.0523 392.5 557.5 392.9477 557.5 393.5 L 557.5 393.5 C 557.5 394.0523 557.0523 394.5 556.5 394.5 L 528.5 394.5 C 527.9477 394.5 527.5 394.0523 527.5 393.5 L 527.5 393.5 C 527.5 392.9477 527.9477 392.5 528.5 392.5 Z" stroke="black" stroke-opacity=".5" stroke-linecap="round" stroke-linejoin="round" stroke-width=".5"/>
            </g>
            <g id="Graphic_211">
              <path d="M 528.5 432.5 L 576.5 432.5 C 577.0523 432.5 577.5 432.9477 577.5 433.5 L 577.5 433.5 C 577.5 434.0523 577.0523 434.5 576.5 434.5 L 528.5 434.5 C 527.9477 434.5 527.5 434.0523 527.5 433.5 L 527.5 433.5 C 527.5 432.9477 527.9477 432.5 528.5 432.5 Z" fill="white"/>
              <path d="M 528.5 432.5 L 576.5 432.5 C 577.0523 432.5 577.5 432.9477 577.5 433.5 L 577.5 433.5 C 577.5 434.0523 577.0523 434.5 576.5 434.5 L 528.5 434.5 C 527.9477 434.5 527.5 434.0523 527.5 433.5 L 527.5 433.5 C 527.5 432.9477 527.9477 432.5 528.5 432.5 Z" stroke="black" stroke-opacity=".5" stroke-linecap="round" stroke-linejoin="round" stroke-width=".5"/>
            </g>
            <g id="Graphic_210">
              <path d="M 608.5 432.5 L 616.5 432.5 C 617.0523 432.5 617.5 432.9477 617.5 433.5 L 617.5 433.5 C 617.5 434.0523 617.0523 434.5 616.5 434.5 L 608.5 434.5 C 607.9477 434.5 607.5 434.0523 607.5 433.5 L 607.5 433.5 C 607.5 432.9477 607.9477 432.5 608.5 432.5 Z" fill="white"/>
              <path d="M 608.5 432.5 L 616.5 432.5 C 617.0523 432.5 617.5 432.9477 617.5 433.5 L 617.5 433.5 C 617.5 434.0523 617.0523 434.5 616.5 434.5 L 608.5 434.5 C 607.9477 434.5 607.5 434.0523 607.5 433.5 L 607.5 433.5 C 607.5 432.9477 607.9477 432.5 608.5 432.5 Z" stroke="black" stroke-opacity=".5" stroke-linecap="round" stroke-linejoin="round" stroke-width=".5"/>
            </g>
            <g id="Graphic_209">
              <path d="M 588.5 342.5 L 596.5 342.5 C 597.0523 342.5 597.5 342.9477 597.5 343.5 L 597.5 343.5 C 597.5 344.0523 597.0523 344.5 596.5 344.5 L 588.5 344.5 C 587.9477 344.5 587.5 344.0523 587.5 343.5 L 587.5 343.5 C 587.5 342.9477 587.9477 342.5 588.5 342.5 Z" fill="white"/>
              <path d="M 588.5 342.5 L 596.5 342.5 C 597.0523 342.5 597.5 342.9477 597.5 343.5 L 597.5 343.5 C 597.5 344.0523 597.0523 344.5 596.5 344.5 L 588.5 344.5 C 587.9477 344.5 587.5 344.0523 587.5 343.5 L 587.5 343.5 C 587.5 342.9477 587.9477 342.5 588.5 342.5 Z" stroke="black" stroke-opacity=".5" stroke-linecap="round" stroke-linejoin="round" stroke-width=".5"/>
            </g>
            <g id="Graphic_208">
              <path d="M 623.5 342.5 L 624 342.5 C 624.5523 342.5 625 342.9477 625 343.5 L 625 343.5 C 625 344.0523 624.5523 344.5 624 344.5 L 623.5 344.5 C 622.9477 344.5 622.5 344.0523 622.5 343.5 L 622.5 343.5 C 622.5 342.9477 622.9477 342.5 623.5 342.5 Z" fill="white"/>
              <path d="M 623.5 342.5 L 624 342.5 C 624.5523 342.5 625 342.9477 625 343.5 L 625 343.5 C 625 344.0523 624.5523 344.5 624 344.5 L 623.5 344.5 C 622.9477 344.5 622.5 344.0523 622.5 343.5 L 622.5 343.5 C 622.5 342.9477 622.9477 342.5 623.5 342.5 Z" stroke="black" stroke-opacity=".5" stroke-linecap="round" stroke-linejoin="round" stroke-width=".5"/>
            </g>
            <g id="Graphic_207">
              <path d="M 501 342.5 L 556.5 342.5 C 557.0523 342.5 557.5 342.9477 557.5 343.5 L 557.5 343.5 C 557.5 344.0523 557.0523 344.5 556.5 344.5 L 501 344.5 C 500.4477 344.5 500 344.0523 500 343.5 L 500 343.5 C 500 342.9477 500.4477 342.5 501 342.5 Z" fill="white"/>
              <path d="M 501 342.5 L 556.5 342.5 C 557.0523 342.5 557.5 342.9477 557.5 343.5 L 557.5 343.5 C 557.5 344.0523 557.0523 344.5 556.5 344.5 L 501 344.5 C 500.4477 344.5 500 344.0523 500 343.5 L 500 343.5 C 500 342.9477 500.4477 342.5 501 342.5 Z" stroke="black" stroke-opacity=".5" stroke-linecap="round" stroke-linejoin="round" stroke-width=".5"/>
            </g>
          </g>
          <g id="wordmark-listen-t">
            <title>T</title>
            <g id="Graphic_205">
              <path d="M 482.5 340 L 502.5 340 C 502.5 340 507.5 340 507.5 345 C 507.5 345 507.5 350 502.5 350 L 482.5 350 L 482.5 430 C 482.5 430 482.5 440 472.5 440 C 472.5 440 462.5 440 462.5 430 L 462.5 350 L 442.5 350 C 442.5 350 437.5 350 437.5 345 C 437.5 345 437.5 340 442.5 340 C 442.5 340 457.5 340 462.5 340 C 462.5 340 472.5 340 472.5 350 L 472.5 430 L 472.5 350 C 472.5 350 472.5 340 482.5 340 Z" fill="#fdf6f7"/>
              <path d="M 482.5 340 L 502.5 340 C 502.5 340 507.5 340 507.5 345 C 507.5 345 507.5 350 502.5 350 L 482.5 350 L 482.5 430 C 482.5 430 482.5 440 472.5 440 C 472.5 440 462.5 440 462.5 430 L 462.5 350 L 442.5 350 C 442.5 350 437.5 350 437.5 345 C 437.5 345 437.5 340 442.5 340 C 442.5 340 457.5 340 462.5 340 C 462.5 340 472.5 340 472.5 350 L 472.5 430 L 472.5 350 C 472.5 350 472.5 340 482.5 340 Z" stroke="#1d1d1d" stroke-linecap="round" stroke-linejoin="round" stroke-width="2"/>
            </g>
            <g id="Graphic_204">
              <path d="M 443.5 342.5 L 461.5 342.5 C 462.0523 342.5 462.5 342.9477 462.5 343.5 L 462.5 343.5 C 462.5 344.0523 462.0523 344.5 461.5 344.5 L 443.5 344.5 C 442.9477 344.5 442.5 344.0523 442.5 343.5 L 442.5 343.5 C 442.5 342.9477 442.9477 342.5 443.5 342.5 Z" fill="white"/>
              <path d="M 443.5 342.5 L 461.5 342.5 C 462.0523 342.5 462.5 342.9477 462.5 343.5 L 462.5 343.5 C 462.5 344.0523 462.0523 344.5 461.5 344.5 L 443.5 344.5 C 442.9477 344.5 442.5 344.0523 442.5 343.5 L 442.5 343.5 C 442.5 342.9477 442.9477 342.5 443.5 342.5 Z" stroke="black" stroke-opacity=".5" stroke-linecap="round" stroke-linejoin="round" stroke-width=".5"/>
            </g>
            <g id="Graphic_203">
              <path d="M 483.5 342.5 L 501.5 342.5 C 502.0523 342.5 502.5 342.9477 502.5 343.5 L 502.5 343.5 C 502.5 344.0523 502.0523 344.5 501.5 344.5 L 483.5 344.5 C 482.9477 344.5 482.5 344.0523 482.5 343.5 L 482.5 343.5 C 482.5 342.9477 482.9477 342.5 483.5 342.5 Z" fill="white"/>
              <path d="M 483.5 342.5 L 501.5 342.5 C 502.0523 342.5 502.5 342.9477 502.5 343.5 L 502.5 343.5 C 502.5 344.0523 502.0523 344.5 501.5 344.5 L 483.5 344.5 C 482.9477 344.5 482.5 344.0523 482.5 343.5 L 482.5 343.5 C 482.5 342.9477 482.9477 342.5 483.5 342.5 Z" stroke="black" stroke-opacity=".5" stroke-linecap="round" stroke-linejoin="round" stroke-width=".5"/>
            </g>
          </g>
          <g id="wordmark-listen-i">
            <title>I</title>
            <g id="Graphic_201">
              <path d="M 357.5 440 C 357.5 440 352.5 440 352.5 435 L 352.5 350 C 352.5 350 352.5 340 362.5 340 C 362.5 340 372.5 340 372.5 350 L 372.5 435 C 372.5 435 372.5 440 367.5 440 C 367.5 440 362.5 440 362.5 435 L 362.5 350 L 362.5 435 C 362.5 435 362.5 440 357.5 440 Z" fill="#fdf6f7"/>
              <path d="M 357.5 440 C 357.5 440 352.5 440 352.5 435 L 352.5 350 C 352.5 350 352.5 340 362.5 340 C 362.5 340 372.5 340 372.5 350 L 372.5 435 C 372.5 435 372.5 440 367.5 440 C 367.5 440 362.5 440 362.5 435 L 362.5 350 L 362.5 435 C 362.5 435 362.5 440 357.5 440 Z" stroke="#1d1d1d" stroke-linecap="round" stroke-linejoin="round" stroke-width="2"/>
            </g>
            <g id="Graphic_200">
              <path d="M 361 343 L 364 343 C 364.5523 343 365 343.4477 365 344 L 365 344 C 365 344.5523 364.5523 345 364 345 L 361 345 C 360.4477 345 360 344.5523 360 344 L 360 344 C 360 343.4477 360.4477 343 361 343 Z" fill="white"/>
              <path d="M 361 343 L 364 343 C 364.5523 343 365 343.4477 365 344 L 365 344 C 365 344.5523 364.5523 345 364 345 L 361 345 C 360.4477 345 360 344.5523 360 344 L 360 344 C 360 343.4477 360.4477 343 361 343 Z" stroke="black" stroke-opacity=".5" stroke-linecap="round" stroke-linejoin="round" stroke-width=".5"/>
            </g>
          </g>
        </g>
        <g id="wordmark-should">
          <title>Should</title>
          <g id="wordmark-should-h">
            <title>H</title>
            <g id="Graphic_197">
              <path d="M 427.5 195 L 427.5 285 C 427.5 285 427.5 290 432.5 290 C 432.5 290 437.5 290 437.5 285 C 437.5 285 437.5 245 437.5 240 L 457.5 240 L 457.5 285 C 457.5 285 457.5 290 462.5 290 C 462.5 290 467.5 290 467.5 285 L 467.5 240 C 467.5 240 467.5 230 457.5 230 C 457.5 230 467.5 230 467.5 240 L 467.5 225 C 467.5 225 467.5 230 467.5 225 L 467.5 200 L 492.5 200 C 492.5 200 497.5 200 497.5 195 C 497.5 195 497.5 190 492.5 190 L 462.5 190 C 462.5 190 457.5 190 457.5 195 L 457.5 225 L 457.5 230 L 437.5 230 C 437.5 230 437.5 235 437.5 240 L 437.5 195 C 437.5 195 437.5 190 432.5 190 C 432.5 190 427.5 190 427.5 195 Z" fill="#fdf6f7"/>
              <path d="M 427.5 195 L 427.5 285 C 427.5 285 427.5 290 432.5 290 C 432.5 290 437.5 290 437.5 285 C 437.5 285 437.5 245 437.5 240 L 457.5 240 L 457.5 285 C 457.5 285 457.5 290 462.5 290 C 462.5 290 467.5 290 467.5 285 L 467.5 240 C 467.5 240 467.5 230 457.5 230 C 457.5 230 467.5 230 467.5 240 L 467.5 225 C 467.5 225 467.5 230 467.5 225 L 467.5 200 L 492.5 200 C 492.5 200 497.5 200 497.5 195 C 497.5 195 497.5 190 492.5 190 L 462.5 190 C 462.5 190 457.5 190 457.5 195 L 457.5 225 L 457.5 230 L 437.5 230 C 437.5 230 437.5 235 437.5 240 L 437.5 195 C 437.5 195 437.5 190 432.5 190 C 432.5 190 427.5 190 427.5 195 Z" stroke="#1d1d1d" stroke-linecap="round" stroke-linejoin="round" stroke-width="2"/>
            </g>
            <g id="Graphic_196">
              <path d="M 441 233 L 456.5 233 C 457.0523 233 457.5 233.44772 457.5 234 L 457.5 234 C 457.5 234.55228 457.0523 235 456.5 235 L 441 235 C 440.4477 235 440 234.55228 440 234 L 440 234 C 440 233.44772 440.4477 233 441 233 Z" fill="white"/>
              <path d="M 441 233 L 456.5 233 C 457.0523 233 457.5 233.44772 457.5 234 L 457.5 234 C 457.5 234.55228 457.0523 235 456.5 235 L 441 235 C 440.4477 235 440 234.55228 440 234 L 440 234 C 440 233.44772 440.4477 233 441 233 Z" stroke="black" stroke-opacity=".5" stroke-linecap="round" stroke-linejoin="round" stroke-width=".5"/>
            </g>
            <g id="Graphic_195">
              <path d="M 468.5 192.5 L 491.5 192.5 C 492.0523 192.5 492.5 192.94772 492.5 193.5 L 492.5 193.5 C 492.5 194.05228 492.0523 194.5 491.5 194.5 L 468.5 194.5 C 467.9477 194.5 467.5 194.05228 467.5 193.5 L 467.5 193.5 C 467.5 192.94772 467.9477 192.5 468.5 192.5 Z" fill="white"/>
              <path d="M 468.5 192.5 L 491.5 192.5 C 492.0523 192.5 492.5 192.94772 492.5 193.5 L 492.5 193.5 C 492.5 194.05228 492.0523 194.5 491.5 194.5 L 468.5 194.5 C 467.9477 194.5 467.5 194.05228 467.5 193.5 L 467.5 193.5 C 467.5 192.94772 467.9477 192.5 468.5 192.5 Z" stroke="black" stroke-opacity=".5" stroke-linecap="round" stroke-linejoin="round" stroke-width=".5"/>
            </g>
          </g>
          <g id="wordmark-should-s">
            <title>S</title>
            <g id="Graphic_193">
              <path d="M 357.5 290 C 357.5 290 352.5 290 352.5 285 C 352.5 280 357.5 280 357.5 280 L 407.5 280 L 407.5 240 L 387.5 240 C 387.5 240 377.5 238 377.5 230 C 377.5 220 377.5 200 377.5 200 C 377.5 200 377.5 190 387.5 190 L 432.5 190 C 432.5 190 437.5 190 437.5 195 C 437.5 195 437.5 200 432.5 200 L 387.5 200 L 387.5 230 L 407.5 230 C 417.5 230 417.5 240 417.5 240 L 417.5 280 C 417.5 280 417.5 290 407.5 290 C 397.5 290 357.5 290 357.5 290 Z" fill="#fdf6f7"/>
              <path d="M 357.5 290 C 357.5 290 352.5 290 352.5 285 C 352.5 280 357.5 280 357.5 280 L 407.5 280 L 407.5 240 L 387.5 240 C 387.5 240 377.5 238 377.5 230 C 377.5 220 377.5 200 377.5 200 C 377.5 200 377.5 190 387.5 190 L 432.5 190 C 432.5 190 437.5 190 437.5 195 C 437.5 195 437.5 200 432.5 200 L 387.5 200 L 387.5 230 L 407.5 230 C 417.5 230 417.5 240 417.5 240 L 417.5 280 C 417.5 280 417.5 290 407.5 290 C 397.5 290 357.5 290 357.5 290 Z" stroke="#1d1d1d" stroke-linecap="square" stroke-linejoin="miter" stroke-width="2"/>
            </g>
            <g id="Graphic_192">
              <path d="M 388.5 193 L 431.5 193 C 432.0523 193 432.5 193.44772 432.5 194 L 432.5 194 C 432.5 194.55228 432.0523 195 431.5 195 L 388.5 195 C 387.9477 195 387.5 194.55228 387.5 194 L 387.5 194 C 387.5 193.44772 387.9477 193 388.5 193 Z" fill="white"/>
              <path d="M 388.5 193 L 431.5 193 C 432.0523 193 432.5 193.44772 432.5 194 L 432.5 194 C 432.5 194.55228 432.0523 195 431.5 195 L 388.5 195 C 387.9477 195 387.5 194.55228 387.5 194 L 387.5 194 C 387.5 193.44772 387.9477 193 388.5 193 Z" stroke="black" stroke-opacity=".5" stroke-linecap="round" stroke-linejoin="round" stroke-width=".5"/>
            </g>
            <g id="Graphic_191">
              <path d="M 358.5 283 L 406.5 283 C 407.0523 283 407.5 283.4477 407.5 284 L 407.5 284 C 407.5 284.5523 407.0523 285 406.5 285 L 358.5 285 C 357.9477 285 357.5 284.5523 357.5 284 L 357.5 284 C 357.5 283.4477 357.9477 283 358.5 283 Z" fill="white"/>
              <path d="M 358.5 283 L 406.5 283 C 407.0523 283 407.5 283.4477 407.5 284 L 407.5 284 C 407.5 284.5523 407.0523 285 406.5 285 L 358.5 285 C 357.9477 285 357.5 284.5523 357.5 284 L 357.5 284 C 357.5 283.4477 357.9477 283 358.5 283 Z" stroke="black" stroke-opacity=".5" stroke-linecap="round" stroke-linejoin="round" stroke-width=".5"/>
            </g>
            <g id="Graphic_190">
              <path d="M 388.5 233 L 406.5 233 C 407.0523 233 407.5 233.44772 407.5 234 L 407.5 234 C 407.5 234.55228 407.0523 235 406.5 235 L 388.5 235 C 387.9477 235 387.5 234.55228 387.5 234 L 387.5 234 C 387.5 233.44772 387.9477 233 388.5 233 Z" fill="white"/>
              <path d="M 388.5 233 L 406.5 233 C 407.0523 233 407.5 233.44772 407.5 234 L 407.5 234 C 407.5 234.55228 407.0523 235 406.5 235 L 388.5 235 C 387.9477 235 387.5 234.55228 387.5 234 L 387.5 234 C 387.5 233.44772 387.9477 233 388.5 233 Z" stroke="black" stroke-opacity=".5" stroke-linecap="round" stroke-linejoin="round" stroke-width=".5"/>
            </g>
          </g>
          <g id="wordmark-should-o">
            <title>O</title>
            <g id="Graphic_188">
              <path d="M 492.5 190 C 492.5 190 497.5 190 497.5 195 C 497.5 195 497.5 200 492.5 200 C 492.5 200 487.5 200 487.5 210 L 487.5 270 C 487.5 270 487.5 280 497.5 280 C 497.5 280 507.5 280 507.5 270 L 507.5 210 C 507.5 210 507.5 200 502.5 200 C 502.5 200 497.5 200 497.5 195 C 497.5 195 497.5 190 502.5 190 C 502.5 190 517.5 190 517.5 210 L 517.5 270 C 517.5 270 517.5 290 497.5 290 C 497.5 290 477.5 290 477.5 270 L 477.5 210 C 477.5 210 477.5 190 492.5 190 Z" fill="#fdf6f7"/>
              <path d="M 492.5 190 C 492.5 190 497.5 190 497.5 195 C 497.5 195 497.5 200 492.5 200 C 492.5 200 487.5 200 487.5 210 L 487.5 270 C 487.5 270 487.5 280 497.5 280 C 497.5 280 507.5 280 507.5 270 L 507.5 210 C 507.5 210 507.5 200 502.5 200 C 502.5 200 497.5 200 497.5 195 C 497.5 195 497.5 190 502.5 190 C 502.5 190 517.5 190 517.5 210 L 517.5 270 C 517.5 270 517.5 290 497.5 290 C 497.5 290 477.5 290 477.5 270 L 477.5 210 C 477.5 210 477.5 190 492.5 190 Z" stroke="#1d1d1d" stroke-linecap="round" stroke-linejoin="round" stroke-width="2"/>
            </g>
            <g id="Graphic_187">
              <path d="M 501 192.5 L 504 192.5 C 504.5523 192.5 505 192.94772 505 193.5 L 505 193.5 C 505 194.05228 504.5523 194.5 504 194.5 L 501 194.5 C 500.4477 194.5 500 194.05228 500 193.5 L 500 193.5 C 500 192.94772 500.4477 192.5 501 192.5 Z" fill="white"/>
              <path d="M 501 192.5 L 504 192.5 C 504.5523 192.5 505 192.94772 505 193.5 L 505 193.5 C 505 194.05228 504.5523 194.5 504 194.5 L 501 194.5 C 500.4477 194.5 500 194.05228 500 193.5 L 500 193.5 C 500 192.94772 500.4477 192.5 501 192.5 Z" stroke="black" stroke-opacity=".5" stroke-linecap="round" stroke-linejoin="round" stroke-width=".5"/>
            </g>
            <g id="Graphic_186">
              <path d="M 491 192.5 L 494 192.5 C 494.5523 192.5 495 192.94772 495 193.5 L 495 193.5 C 495 194.05228 494.5523 194.5 494 194.5 L 491 194.5 C 490.4477 194.5 490 194.05228 490 193.5 L 490 193.5 C 490 192.94772 490.4477 192.5 491 192.5 Z" fill="white"/>
              <path d="M 491 192.5 L 494 192.5 C 494.5523 192.5 495 192.94772 495 193.5 L 495 193.5 C 495 194.05228 494.5523 194.5 494 194.5 L 491 194.5 C 490.4477 194.5 490 194.05228 490 193.5 L 490 193.5 C 490 192.94772 490.4477 192.5 491 192.5 Z" stroke="black" stroke-opacity=".5" stroke-linecap="round" stroke-linejoin="round" stroke-width=".5"/>
            </g>
          </g>
          <g id="wordmark-should-l">
            <title>L</title>
            <g id="Graphic_184">
              <path d="M 587.5 290 C 587.5 290 577.5 290 577.5 280 L 577.5 200 L 562.5 200 C 562.5 200 557.5 200 557.5 195 C 557.5 195 557.5 190 562.5 190 L 577.5 190 C 577.5 190 587.5 190 587.5 200 L 587.5 280 L 627.5 280 C 627.5 280 632.5 280 632.5 285 C 632.5 285 632.5 290 627.5 290 Z" fill="#fdf6f7"/>
              <path d="M 587.5 290 C 587.5 290 577.5 290 577.5 280 L 577.5 200 L 562.5 200 C 562.5 200 557.5 200 557.5 195 C 557.5 195 557.5 190 562.5 190 L 577.5 190 C 577.5 190 587.5 190 587.5 200 L 587.5 280 L 627.5 280 C 627.5 280 632.5 280 632.5 285 C 632.5 285 632.5 290 627.5 290 Z" stroke="#1d1d1d" stroke-linecap="square" stroke-linejoin="miter" stroke-width="2"/>
            </g>
            <g id="Graphic_183">
              <path d="M 568.5 192.5 L 576.5 192.5 C 577.0523 192.5 577.5 192.94772 577.5 193.5 L 577.5 193.5 C 577.5 194.05228 577.0523 194.5 576.5 194.5 L 568.5 194.5 C 567.9477 194.5 567.5 194.05228 567.5 193.5 L 567.5 193.5 C 567.5 192.94772 567.9477 192.5 568.5 192.5 Z" fill="white"/>
              <path d="M 568.5 192.5 L 576.5 192.5 C 577.0523 192.5 577.5 192.94772 577.5 193.5 L 577.5 193.5 C 577.5 194.05228 577.0523 194.5 576.5 194.5 L 568.5 194.5 C 567.9477 194.5 567.5 194.05228 567.5 193.5 L 567.5 193.5 C 567.5 192.94772 567.9477 192.5 568.5 192.5 Z" stroke="black" stroke-opacity=".5" stroke-linecap="round" stroke-linejoin="round" stroke-width=".5"/>
            </g>
            <g id="Graphic_182">
              <path d="M 588.5 282.5 L 619 282.5 C 619.5523 282.5 620 282.9477 620 283.5 L 620 283.5 C 620 284.0523 619.5523 284.5 619 284.5 L 588.5 284.5 C 587.9477 284.5 587.5 284.0523 587.5 283.5 L 587.5 283.5 C 587.5 282.9477 587.9477 282.5 588.5 282.5 Z" fill="white"/>
              <path d="M 588.5 282.5 L 619 282.5 C 619.5523 282.5 620 282.9477 620 283.5 L 620 283.5 C 620 284.0523 619.5523 284.5 619 284.5 L 588.5 284.5 C 587.9477 284.5 587.5 284.0523 587.5 283.5 L 587.5 283.5 C 587.5 282.9477 587.9477 282.5 588.5 282.5 Z" stroke="black" stroke-opacity=".5" stroke-linecap="round" stroke-linejoin="round" stroke-width=".5"/>
            </g>
          </g>
          <g id="wordmark-should-d">
            <title>D</title>
            <g id="Graphic_180">
              <path d="M 632.5 275 C 632.5 275 632.5 280 627.5 280 C 627.5 280 622.5 280 622.5 275 L 622.5 190 L 642.5 190 C 642.5 190 662.5 190 662.5 210 L 662.5 270 C 662.5 270 662.5 290 642.5 290 L 627.5 290 C 627.5 290 622.5 290 622.5 285 C 622.5 285 622.5 280 627.5 280 L 642.5 280 C 642.5 280 652.5 280 652.5 270 L 652.5 210 C 652.5 210 652.5 200 642.5 200 L 632.5 200 Z" fill="#fdf6f7"/>
              <path d="M 632.5 275 C 632.5 275 632.5 280 627.5 280 C 627.5 280 622.5 280 622.5 275 L 622.5 190 L 642.5 190 C 642.5 190 662.5 190 662.5 210 L 662.5 270 C 662.5 270 662.5 290 642.5 290 L 627.5 290 C 627.5 290 622.5 290 622.5 285 C 622.5 285 622.5 280 627.5 280 L 642.5 280 C 642.5 280 652.5 280 652.5 270 L 652.5 210 C 652.5 210 652.5 200 642.5 200 L 632.5 200 Z" stroke="#1d1d1d" stroke-linecap="round" stroke-linejoin="round" stroke-width="2"/>
            </g>
            <g id="Graphic_179">
              <path d="M 628.5 282.5 L 644 282.5 C 644.5523 282.5 645 282.9477 645 283.5 L 645 283.5 C 645 284.0523 644.5523 284.5 644 284.5 L 628.5 284.5 C 627.9477 284.5 627.5 284.0523 627.5 283.5 L 627.5 283.5 C 627.5 282.9477 627.9477 282.5 628.5 282.5 Z" fill="white"/>
              <path d="M 628.5 282.5 L 644 282.5 C 644.5523 282.5 645 282.9477 645 283.5 L 645 283.5 C 645 284.0523 644.5523 284.5 644 284.5 L 628.5 284.5 C 627.9477 284.5 627.5 284.0523 627.5 283.5 L 627.5 283.5 C 627.5 282.9477 627.9477 282.5 628.5 282.5 Z" stroke="black" stroke-opacity=".5" stroke-linecap="round" stroke-linejoin="round" stroke-width=".5"/>
            </g>
            <g id="Graphic_178">
              <path d="M 633.5 192.5 L 644 192.5 C 644.5523 192.5 645 192.94772 645 193.5 L 645 193.5 C 645 194.05228 644.5523 194.5 644 194.5 L 633.5 194.5 C 632.9477 194.5 632.5 194.05228 632.5 193.5 L 632.5 193.5 C 632.5 192.94772 632.9477 192.5 633.5 192.5 Z" fill="white"/>
              <path d="M 633.5 192.5 L 644 192.5 C 644.5523 192.5 645 192.94772 645 193.5 L 645 193.5 C 645 194.05228 644.5523 194.5 644 194.5 L 633.5 194.5 C 632.9477 194.5 632.5 194.05228 632.5 193.5 L 632.5 193.5 C 632.5 192.94772 632.9477 192.5 633.5 192.5 Z" stroke="black" stroke-opacity=".5" stroke-linecap="round" stroke-linejoin="round" stroke-width=".5"/>
            </g>
          </g>
          <g id="wordmark-should-u">
            <title>U</title>
            <g id="Graphic_176">
              <path d="M 527.5 190 C 527.5 190 537.5 190 537.5 200 C 537.5 200 537.5 260 537.5 270 C 537.5 280 547.5 280 547.5 280 C 547.5 280 557.5 280 557.5 270 C 557.5 260 557.5 195 557.5 195 C 557.5 195 557.5 190 562.5 190 C 562.5 190 567.5 190 567.5 195 C 567.5 195 567.5 290 567.5 270 C 567.5 290 547.5 290 547.5 290 C 547.5 290 527.5 290 527.5 270 L 527.5 200 L 502.5 200 C 502.5 200 497.5 200 497.5 195 C 497.5 195 497.5 190 502.5 190 Z" fill="#fdf6f7"/>
              <path d="M 527.5 190 C 527.5 190 537.5 190 537.5 200 C 537.5 200 537.5 260 537.5 270 C 537.5 280 547.5 280 547.5 280 C 547.5 280 557.5 280 557.5 270 C 557.5 260 557.5 195 557.5 195 C 557.5 195 557.5 190 562.5 190 C 562.5 190 567.5 190 567.5 195 C 567.5 195 567.5 290 567.5 270 C 567.5 290 547.5 290 547.5 290 C 547.5 290 527.5 290 527.5 270 L 527.5 200 L 502.5 200 C 502.5 200 497.5 200 497.5 195 C 497.5 195 497.5 190 502.5 190 Z" stroke="#1d1d1d" stroke-linecap="square" stroke-linejoin="miter" stroke-width="2"/>
            </g>
            <g id="Graphic_175">
              <path d="M 563.5 192.5 L 564 192.5 C 564.5523 192.5 565 192.94772 565 193.5 L 565 193.5 C 565 194.05228 564.5523 194.5 564 194.5 L 563.5 194.5 C 562.9477 194.5 562.5 194.05228 562.5 193.5 L 562.5 193.5 C 562.5 192.94772 562.9477 192.5 563.5 192.5 Z" fill="white"/>
              <path d="M 563.5 192.5 L 564 192.5 C 564.5523 192.5 565 192.94772 565 193.5 L 565 193.5 C 565 194.05228 564.5523 194.5 564 194.5 L 563.5 194.5 C 562.9477 194.5 562.5 194.05228 562.5 193.5 L 562.5 193.5 C 562.5 192.94772 562.9477 192.5 563.5 192.5 Z" stroke="black" stroke-opacity=".5" stroke-linecap="round" stroke-linejoin="round" stroke-width=".5"/>
            </g>
            <g id="Graphic_174">
              <path d="M 546 282.5 L 549 282.5 C 549.5523 282.5 550 282.9477 550 283.5 L 550 283.5 C 550 284.0523 549.5523 284.5 549 284.5 L 546 284.5 C 545.4477 284.5 545 284.0523 545 283.5 L 545 283.5 C 545 282.9477 545.4477 282.5 546 282.5 Z" fill="white"/>
              <path d="M 546 282.5 L 549 282.5 C 549.5523 282.5 550 282.9477 550 283.5 L 550 283.5 C 550 284.0523 549.5523 284.5 549 284.5 L 546 284.5 C 545.4477 284.5 545 284.0523 545 283.5 L 545 283.5 C 545 282.9477 545.4477 282.5 546 282.5 Z" stroke="black" stroke-opacity=".5" stroke-linecap="round" stroke-linejoin="round" stroke-width=".5"/>
            </g>
            <g id="Graphic_173">
              <path d="M 503.5 192.5 L 526.5 192.5 C 527.0523 192.5 527.5 192.94772 527.5 193.5 L 527.5 193.5 C 527.5 194.05228 527.0523 194.5 526.5 194.5 L 503.5 194.5 C 502.9477 194.5 502.5 194.05228 502.5 193.5 L 502.5 193.5 C 502.5 192.94772 502.9477 192.5 503.5 192.5 Z" fill="white"/>
              <path d="M 503.5 192.5 L 526.5 192.5 C 527.0523 192.5 527.5 192.94772 527.5 193.5 L 527.5 193.5 C 527.5 194.05228 527.0523 194.5 526.5 194.5 L 503.5 194.5 C 502.9477 194.5 502.5 194.05228 502.5 193.5 L 502.5 193.5 C 502.5 192.94772 502.9477 192.5 503.5 192.5 Z" stroke="black" stroke-opacity=".5" stroke-linecap="round" stroke-linejoin="round" stroke-width=".5"/>
            </g>
          </g>
        </g>
        <g id="wordmark-you">
          <title>You</title>
          <g id="wordmark-you-y">
            <title>Y</title>
            <g id="Graphic_170">
              <path d="M 167.5 195 C 167.5 195 167.5 190 172.5 190 C 172.5 190 177.5 190 177.5 195 L 177.5 240 L 197.5 240 L 197.5 200 C 197.5 200 197.5 190 207.5 190 C 207.5 190 217.5 190 217.5 200 L 217.5 270 C 217.5 270 217.5 280 207.5 280 L 177.5 280 L 247.5 280 L 252.5 285 L 247.5 290 L 177.5 290 C 177.5 290 167.5 290 167.5 280 C 167.5 280 167.5 270 177.5 270 L 207.5 270 L 207.5 200 L 207.5 240 C 207.5 240 207.5 250 197.5 250 L 177.5 250 C 177.5 250 167.5 250 167.5 240 Z" fill="#fdf6f7"/>
              <path d="M 167.5 195 C 167.5 195 167.5 190 172.5 190 C 172.5 190 177.5 190 177.5 195 L 177.5 240 L 197.5 240 L 197.5 200 C 197.5 200 197.5 190 207.5 190 C 207.5 190 217.5 190 217.5 200 L 217.5 270 C 217.5 270 217.5 280 207.5 280 L 177.5 280 L 247.5 280 L 252.5 285 L 247.5 290 L 177.5 290 C 177.5 290 167.5 290 167.5 280 C 167.5 280 167.5 270 177.5 270 L 207.5 270 L 207.5 200 L 207.5 240 C 207.5 240 207.5 250 197.5 250 L 177.5 250 C 177.5 250 167.5 250 167.5 240 Z" stroke="#1d1d1d" stroke-linecap="round" stroke-linejoin="round" stroke-width="2"/>
            </g>
            <g id="Graphic_169">
              <path d="M 178.5 242.5 L 196.5 242.5 C 197.05228 242.5 197.5 242.94772 197.5 243.5 L 197.5 243.5 C 197.5 244.05228 197.05228 244.5 196.5 244.5 L 178.5 244.5 C 177.94772 244.5 177.5 244.05228 177.5 243.5 L 177.5 243.5 C 177.5 242.94772 177.94772 242.5 178.5 242.5 Z" fill="white"/>
              <path d="M 178.5 242.5 L 196.5 242.5 C 197.05228 242.5 197.5 242.94772 197.5 243.5 L 197.5 243.5 C 197.5 244.05228 197.05228 244.5 196.5 244.5 L 178.5 244.5 C 177.94772 244.5 177.5 244.05228 177.5 243.5 L 177.5 243.5 C 177.5 242.94772 177.94772 242.5 178.5 242.5 Z" stroke="black" stroke-opacity=".5" stroke-linecap="round" stroke-linejoin="round" stroke-width=".5"/>
            </g>
            <g id="Graphic_168">
              <path d="M 178.5 272.5 L 206.5 272.5 C 207.05228 272.5 207.5 272.9477 207.5 273.5 L 207.5 273.5 C 207.5 274.0523 207.05228 274.5 206.5 274.5 L 178.5 274.5 C 177.94772 274.5 177.5 274.0523 177.5 273.5 L 177.5 273.5 C 177.5 272.9477 177.94772 272.5 178.5 272.5 Z" fill="white"/>
              <path d="M 178.5 272.5 L 206.5 272.5 C 207.05228 272.5 207.5 272.9477 207.5 273.5 L 207.5 273.5 C 207.5 274.0523 207.05228 274.5 206.5 274.5 L 178.5 274.5 C 177.94772 274.5 177.5 274.0523 177.5 273.5 L 177.5 273.5 C 177.5 272.9477 177.94772 272.5 178.5 272.5 Z" stroke="black" stroke-opacity=".5" stroke-linecap="round" stroke-linejoin="round" stroke-width=".5"/>
            </g>
            <g id="Graphic_167">
              <path d="M 178.5 282.5 L 231.5 282.5 C 232.05228 282.5 232.5 282.9477 232.5 283.5 L 232.5 283.5 C 232.5 284.0523 232.05228 284.5 231.5 284.5 L 178.5 284.5 C 177.94772 284.5 177.5 284.0523 177.5 283.5 L 177.5 283.5 C 177.5 282.9477 177.94772 282.5 178.5 282.5 Z" fill="white"/>
              <path d="M 178.5 282.5 L 231.5 282.5 C 232.05228 282.5 232.5 282.9477 232.5 283.5 L 232.5 283.5 C 232.5 284.0523 232.05228 284.5 231.5 284.5 L 178.5 284.5 C 177.94772 284.5 177.5 284.0523 177.5 283.5 L 177.5 283.5 C 177.5 282.9477 177.94772 282.5 178.5 282.5 Z" stroke="black" stroke-opacity=".5" stroke-linecap="round" stroke-linejoin="round" stroke-width=".5"/>
            </g>
            <g id="Graphic_166">
              <path d="M 173.5 192.5 L 174 192.5 C 174.55228 192.5 175 192.94772 175 193.5 L 175 193.5 C 175 194.05228 174.55228 194.5 174 194.5 L 173.5 194.5 C 172.94772 194.5 172.5 194.05228 172.5 193.5 L 172.5 193.5 C 172.5 192.94772 172.94772 192.5 173.5 192.5 Z" fill="white"/>
              <path d="M 173.5 192.5 L 174 192.5 C 174.55228 192.5 175 192.94772 175 193.5 L 175 193.5 C 175 194.05228 174.55228 194.5 174 194.5 L 173.5 194.5 C 172.94772 194.5 172.5 194.05228 172.5 193.5 L 172.5 193.5 C 172.5 192.94772 172.94772 192.5 173.5 192.5 Z" stroke="black" stroke-opacity=".5" stroke-linecap="round" stroke-linejoin="round" stroke-width=".5"/>
            </g>
            <g id="Graphic_165">
              <path d="M 206 192.5 L 209 192.5 C 209.55228 192.5 210 192.94772 210 193.5 L 210 193.5 C 210 194.05228 209.55228 194.5 209 194.5 L 206 194.5 C 205.44772 194.5 205 194.05228 205 193.5 L 205 193.5 C 205 192.94772 205.44772 192.5 206 192.5 Z" fill="white"/>
              <path d="M 206 192.5 L 209 192.5 C 209.55228 192.5 210 192.94772 210 193.5 L 210 193.5 C 210 194.05228 209.55228 194.5 209 194.5 L 206 194.5 C 205.44772 194.5 205 194.05228 205 193.5 L 205 193.5 C 205 192.94772 205.44772 192.5 206 192.5 Z" stroke="black" stroke-opacity=".5" stroke-linecap="round" stroke-linejoin="round" stroke-width=".5"/>
            </g>
          </g>
          <g id="wordmark-you-u">
            <title>U</title>
            <g id="Graphic_163">
              <path d="M 277.5 190 C 277.5 190 287.5 190 287.5 200 C 287.5 200 287.5 260 287.5 270 C 287.5 280 297.5 280 297.5 280 C 297.5 280 307.5 280 307.5 270 C 307.5 260 307.5 195 307.5 195 C 307.5 195 307.5 190 312.5 190 C 312.5 190 317.5 190 317.5 195 C 317.5 195 317.5 290 317.5 270 C 317.5 290 297.5 290 297.5 290 C 297.5 290 277.5 290 277.5 270 L 277.5 200 L 252.5 200 C 252.5 200 247.5 200 247.5 195 C 247.5 195 247.5 190 252.5 190 Z" fill="#fdf6f7"/>
              <path d="M 277.5 190 C 277.5 190 287.5 190 287.5 200 C 287.5 200 287.5 260 287.5 270 C 287.5 280 297.5 280 297.5 280 C 297.5 280 307.5 280 307.5 270 C 307.5 260 307.5 195 307.5 195 C 307.5 195 307.5 190 312.5 190 C 312.5 190 317.5 190 317.5 195 C 317.5 195 317.5 290 317.5 270 C 317.5 290 297.5 290 297.5 290 C 297.5 290 277.5 290 277.5 270 L 277.5 200 L 252.5 200 C 252.5 200 247.5 200 247.5 195 C 247.5 195 247.5 190 252.5 190 Z" stroke="#1d1d1d" stroke-linecap="square" stroke-linejoin="miter" stroke-width="2"/>
            </g>
            <g id="Graphic_162">
              <path d="M 258.5 193 L 276.5 193 C 277.0523 193 277.5 193.44772 277.5 194 L 277.5 194 C 277.5 194.55228 277.0523 195 276.5 195 L 258.5 195 C 257.9477 195 257.5 194.55228 257.5 194 L 257.5 194 C 257.5 193.44772 257.9477 193 258.5 193 Z" fill="white"/>
              <path d="M 258.5 193 L 276.5 193 C 277.0523 193 277.5 193.44772 277.5 194 L 277.5 194 C 277.5 194.55228 277.0523 195 276.5 195 L 258.5 195 C 257.9477 195 257.5 194.55228 257.5 194 L 257.5 194 C 257.5 193.44772 257.9477 193 258.5 193 Z" stroke="black" stroke-opacity=".5" stroke-linecap="round" stroke-linejoin="round" stroke-width=".5"/>
            </g>
            <g id="Graphic_161">
              <path d="M 313.5 193 L 314 193 C 314.5523 193 315 193.44772 315 194 L 315 194 C 315 194.55228 314.5523 195 314 195 L 313.5 195 C 312.9477 195 312.5 194.55228 312.5 194 L 312.5 194 C 312.5 193.44772 312.9477 193 313.5 193 Z" fill="white"/>
              <path d="M 313.5 193 L 314 193 C 314.5523 193 315 193.44772 315 194 L 315 194 C 315 194.55228 314.5523 195 314 195 L 313.5 195 C 312.9477 195 312.5 194.55228 312.5 194 L 312.5 194 C 312.5 193.44772 312.9477 193 313.5 193 Z" stroke="black" stroke-opacity=".5" stroke-linecap="round" stroke-linejoin="round" stroke-width=".5"/>
            </g>
            <g id="Graphic_160">
              <path d="M 296 282.5 L 299 282.5 C 299.5523 282.5 300 282.9477 300 283.5 L 300 283.5 C 300 284.0523 299.5523 284.5 299 284.5 L 296 284.5 C 295.4477 284.5 295 284.0523 295 283.5 L 295 283.5 C 295 282.9477 295.4477 282.5 296 282.5 Z" fill="white"/>
              <path d="M 296 282.5 L 299 282.5 C 299.5523 282.5 300 282.9477 300 283.5 L 300 283.5 C 300 284.0523 299.5523 284.5 299 284.5 L 296 284.5 C 295.4477 284.5 295 284.0523 295 283.5 L 295 283.5 C 295 282.9477 295.4477 282.5 296 282.5 Z" stroke="black" stroke-opacity=".5" stroke-linecap="round" stroke-linejoin="round" stroke-width=".5"/>
            </g>
          </g>
          <g id="wordmark-you-o">
            <title>O</title>
            <g id="Graphic_158">
              <path d="M 242.5 190 C 242.5 190 247.5 190 247.5 195 C 247.5 195 247.5 200 242.5 200 C 242.5 200 237.5 200 237.5 210 L 237.5 270 C 237.5 270 237.5 280 247.5 280 C 247.5 280 257.5 280 257.5 270 L 257.5 210 C 257.5 210 257.5 200 252.5 200 C 252.5 200 247.5 200 247.5 195 C 247.5 195 247.5 190 252.5 190 C 252.5 190 267.5 190 267.5 210 L 267.5 270 C 267.5 270 267.5 290 247.5 290 C 247.5 290 227.5 290 227.5 270 L 227.5 210 C 227.5 210 227.5 190 242.5 190 Z" fill="#fdf6f7"/>
              <path d="M 242.5 190 C 242.5 190 247.5 190 247.5 195 C 247.5 195 247.5 200 242.5 200 C 242.5 200 237.5 200 237.5 210 L 237.5 270 C 237.5 270 237.5 280 247.5 280 C 247.5 280 257.5 280 257.5 270 L 257.5 210 C 257.5 210 257.5 200 252.5 200 C 252.5 200 247.5 200 247.5 195 C 247.5 195 247.5 190 252.5 190 C 252.5 190 267.5 190 267.5 210 L 267.5 270 C 267.5 270 267.5 290 247.5 290 C 247.5 290 227.5 290 227.5 270 L 227.5 210 C 227.5 210 227.5 190 242.5 190 Z" stroke="#1d1d1d" stroke-linecap="round" stroke-linejoin="round" stroke-width="2"/>
            </g>
            <g id="Graphic_157">
              <path d="M 251 193 L 254 193 C 254.55228 193 255 193.44772 255 194 L 255 194 C 255 194.55228 254.55228 195 254 195 L 251 195 C 250.44772 195 250 194.55228 250 194 L 250 194 C 250 193.44772 250.44772 193 251 193 Z" fill="white"/>
              <path d="M 251 193 L 254 193 C 254.55228 193 255 193.44772 255 194 L 255 194 C 255 194.55228 254.55228 195 254 195 L 251 195 C 250.44772 195 250 194.55228 250 194 L 250 194 C 250 193.44772 250.44772 193 251 193 Z" stroke="black" stroke-opacity=".5" stroke-linecap="round" stroke-linejoin="round" stroke-width=".5"/>
            </g>
            <g id="Graphic_156">
              <path d="M 241 193 L 244 193 C 244.55228 193 245 193.44772 245 194 L 245 194 C 245 194.55228 244.55228 195 244 195 L 241 195 C 240.44772 195 240 194.55228 240 194 L 240 194 C 240 193.44772 240.44772 193 241 193 Z" fill="white"/>
              <path d="M 241 193 L 244 193 C 244.55228 193 245 193.44772 245 194 L 245 194 C 245 194.55228 244.55228 195 244 195 L 241 195 C 240.44772 195 240 194.55228 240 194 L 240 194 C 240 193.44772 240.44772 193 241 193 Z" stroke="black" stroke-opacity=".5" stroke-linecap="round" stroke-linejoin="round" stroke-width=".5"/>
            </g>
            <g id="Graphic_155">
              <path d="M 246 282.5 L 249 282.5 C 249.55228 282.5 250 282.9477 250 283.5 L 250 283.5 C 250 284.0523 249.55228 284.5 249 284.5 L 246 284.5 C 245.44772 284.5 245 284.0523 245 283.5 L 245 283.5 C 245 282.9477 245.44772 282.5 246 282.5 Z" fill="white"/>
              <path d="M 246 282.5 L 249 282.5 C 249.55228 282.5 250 282.9477 250 283.5 L 250 283.5 C 250 284.0523 249.55228 284.5 249 284.5 L 246 284.5 C 245.44772 284.5 245 284.0523 245 283.5 L 245 283.5 C 245 282.9477 245.44772 282.5 246 282.5 Z" stroke="black" stroke-opacity=".5" stroke-linecap="round" stroke-linejoin="round" stroke-width=".5"/>
            </g>
          </g>
        </g>
    </g>
  </g>
</svg>
