<?xml version="1.0" encoding="UTF-8"?>
<!DOCTYPE svg  PUBLIC '-//W3C//DTD SVG 1.1//EN'  'http://www.w3.org/Graphics/SVG/1.1/DTD/svg11.dtd'>
<svg width="622" height="252" version="1.1" viewBox="289 189 622 252" xmlns="http://www.w3.org/2000/svg">
<metadata>Designed by John Peart\nwww.johnpe.art\n@johnpeart\n\n2021-01-02 18:51:30 +0000</metadata>
<g fill="none">
<title>You Have to Hear This</title>
<g>
<title>Wordmark</title>
<g>
<title>HEAR</title>
<g>
<title>H</title>
<path d="m430 195v240s0 5 5 5c0 0 5 0 5-5v-45h20v45s0 5 5 5c0 0 5 0 5-5v-45s0-10-10-10c0 0 10 0 10 10v-15 0-25h25s5 0 5-5c0 0 0-5-5-5h-30s-5 0-5 5v30 5h-20v10-195s0-5-5-5c0 0-5 0-5 5z" fill="#fdf6f7"/>
<path d="m430 195v240s0 5 5 5c0 0 5 0 5-5v-45h20v45s0 5 5 5c0 0 5 0 5-5v-45s0-10-10-10c0 0 10 0 10 10v-15 0-25h25s5 0 5-5c0 0 0-5-5-5h-30s-5 0-5 5v30 5h-20v10-195s0-5-5-5c0 0-5 0-5 5z" stroke="#1d1d1d" stroke-linecap="round" stroke-linejoin="round" stroke-width="2"/>
<path d="m443.5 383h15.5c0.5523 0 1 0.4477 1 1s-0.4477 1-1 1h-15.5c-0.5523 0-1-0.4477-1-1s0.4477-1 1-1z" fill="#fff"/>
<path d="m443.5 383h15.5c0.5523 0 1 0.4477 1 1v0c0 0.5523-0.4477 1-1 1h-15.5c-0.5523 0-1-0.4477-1-1v0c0-0.5523 0.4477-1 1-1z" stroke="#000" stroke-linecap="round" stroke-linejoin="round" stroke-opacity=".5" stroke-width=".5"/>
<path d="m471 342.5h23c0.5523 0 1 0.4477 1 1s-0.4477 1-1 1h-23c-0.5523 0-1-0.4477-1-1s0.4477-1 1-1z" fill="#fff"/>
<path d="m471 342.5h23c0.5523 0 1 0.4477 1 1v0c0 0.5523-0.4477 1-1 1h-23c-0.5523 0-1-0.4477-1-1v0c0-0.5523 0.4477-1 1-1z" stroke="#000" stroke-linecap="round" stroke-linejoin="round" stroke-opacity=".5" stroke-width=".5"/>
</g>
<g>
<title>E</title>
<path d="m465 340s-5 0-5 5c0 0 0 5 5 5h60-30s-10 0-10 10v20s0 10 10 10h30-30s-10 0-10 10v30s0 10 10 10h60s5 0 5-5c0 0 0-5-5-5h-60v-30h30s10 0 10-10c0 0 0-10-10-10h-30v-20h30s10 0 10-10c0 0 0-10-10-10h-60z" fill="#fdf6f7"/>
<path d="m465 340s-5 0-5 5c0 0 0 5 5 5h60-30s-10 0-10 10v20s0 10 10 10h30-30s-10 0-10 10v30s0 10 10 10h60s5 0 5-5c0 0 0-5-5-5h-60v-30h30s10 0 10-10c0 0 0-10-10-10h-30v-20h30s10 0 10-10c0 0 0-10-10-10h-60z" stroke="#1d1d1d" stroke-linecap="round" stroke-linejoin="round" stroke-width="2"/>
<path d="m496 353h28c0.5523 0 1 0.4477 1 1s-0.4477 1-1 1h-28c-0.5523 0-1-0.4477-1-1s0.4477-1 1-1z" fill="#fff"/>
<path d="m496 353h28c0.5523 0 1 0.4477 1 1v0c0 0.5523-0.4477 1-1 1h-28c-0.5523 0-1-0.4477-1-1v0c0-0.5523 0.4477-1 1-1z" stroke="#000" stroke-linecap="round" stroke-linejoin="round" stroke-opacity=".5" stroke-width=".5"/>
<path d="m496 382.5h28c0.5523 0 1 0.4477 1 1s-0.4477 1-1 1h-28c-0.5523 0-1-0.4477-1-1s0.4477-1 1-1z" fill="#fff"/>
<path d="m496 382.5h28c0.5523 0 1 0.4477 1 1v0c0 0.5523-0.4477 1-1 1h-28c-0.5523 0-1-0.4477-1-1v0c0-0.5523 0.4477-1 1-1z" stroke="#000" stroke-linecap="round" stroke-linejoin="round" stroke-opacity=".5" stroke-width=".5"/>
<path d="m496 392.5h28c0.5523 0 1 0.4477 1 1s-0.4477 1-1 1h-28c-0.5523 0-1-0.4477-1-1s0.4477-1 1-1z" fill="#fff"/>
<path d="m496 392.5h28c0.5523 0 1 0.4477 1 1v0c0 0.5523-0.4477 1-1 1h-28c-0.5523 0-1-0.4477-1-1v0c0-0.5523 0.4477-1 1-1z" stroke="#000" stroke-linecap="round" stroke-linejoin="round" stroke-opacity=".5" stroke-width=".5"/>
<path d="m496 432.5h53c0.5523 0 1 0.4477 1 1s-0.4477 1-1 1h-53c-0.5523 0-1-0.4477-1-1s0.4477-1 1-1z" fill="#fff"/>
<path d="m496 432.5h53c0.5523 0 1 0.4477 1 1v0c0 0.5523-0.4477 1-1 1h-53c-0.5523 0-1-0.4477-1-1v0c0-0.5523 0.4477-1 1-1z" stroke="#000" stroke-linecap="round" stroke-linejoin="round" stroke-opacity=".5" stroke-width=".5"/>
<path d="m468.5 342.5h55.5c0.5523 0 1 0.4477 1 1s-0.4477 1-1 1h-55.5c-0.5523 0-1-0.4477-1-1s0.4477-1 1-1z" fill="#fff"/>
<path d="m468.5 342.5h55.5c0.5523 0 1 0.4477 1 1v0c0 0.5523-0.4477 1-1 1h-55.5c-0.5523 0-1-0.4477-1-1v0c0-0.5523 0.4477-1 1-1z" stroke="#000" stroke-linecap="round" stroke-linejoin="round" stroke-opacity=".5" stroke-width=".5"/>
</g>
<g>
<title>R</title>
<path d="m615 340s-10 0-10 10v80h-20s-5 0-5 5c0 0 0 5 5 5h20s10 0 10-10v-80h20v30h-15s-5 0-5 5v10s0 5 5 5h15v35s0 5 5 5c0 0 5 0 5-5v-35s0-10-10-10h-10 10s10 0 10-10v-30s0-10-10-10z" fill="#fdf6f7"/>
<path d="m615 340s-10 0-10 10v80h-20s-5 0-5 5c0 0 0 5 5 5h20s10 0 10-10v-80h20v30h-15s-5 0-5 5v10s0 5 5 5h15v35s0 5 5 5c0 0 5 0 5-5v-35s0-10-10-10h-10 10s10 0 10-10v-30s0-10-10-10z" stroke="#1d1d1d" stroke-linecap="round" stroke-linejoin="round" stroke-width="2"/>
<path d="m626 383h8c0.5523 0 1 0.4477 1 1s-0.4477 1-1 1h-8c-0.5523 0-1-0.4477-1-1s0.4477-1 1-1z" fill="#fff"/>
<path d="m626 383h8c0.5523 0 1 0.4477 1 1v0c0 0.5523-0.4477 1-1 1h-8c-0.5523 0-1-0.4477-1-1v0c0-0.5523 0.4477-1 1-1z" stroke="#000" stroke-linecap="round" stroke-linejoin="round" stroke-opacity=".5" stroke-width=".5"/>
<path d="m626 393h8c0.5523 0 1 0.4477 1 1s-0.4477 1-1 1h-8c-0.5523 0-1-0.4477-1-1s0.4477-1 1-1z" fill="#fff"/>
<path d="m626 393h8c0.5523 0 1 0.4477 1 1v0c0 0.5523-0.4477 1-1 1h-8c-0.5523 0-1-0.4477-1-1v0c0-0.5523 0.4477-1 1-1z" stroke="#000" stroke-linecap="round" stroke-linejoin="round" stroke-opacity=".5" stroke-width=".5"/>
<path d="m591 433h13c0.5523 0 1 0.4477 1 1s-0.4477 1-1 1h-13c-0.5523 0-1-0.4477-1-1s0.4477-1 1-1z" fill="#fff"/>
<path d="m591 433h13c0.5523 0 1 0.4477 1 1v0c0 0.5523-0.4477 1-1 1h-13c-0.5523 0-1-0.4477-1-1v0c0-0.5523 0.4477-1 1-1z" stroke="#000" stroke-linecap="round" stroke-linejoin="round" stroke-opacity=".5" stroke-width=".5"/>
<path d="m616 343h18c0.5523 0 1 0.4477 1 1s-0.4477 1-1 1h-18c-0.5523 0-1-0.4477-1-1s0.4477-1 1-1z" fill="#fff"/>
<path d="m616 343h18c0.5523 0 1 0.4477 1 1v0c0 0.5523-0.4477 1-1 1h-18c-0.5523 0-1-0.4477-1-1v0c0-0.5523 0.4477-1 1-1z" stroke="#000" stroke-linecap="round" stroke-linejoin="round" stroke-opacity=".5" stroke-width=".5"/>
</g>
<g>
<title>A</title>
<path d="m550 435s0 5 5 5c0 0 5 0 5-5v-50s0 5 5 5h10s5 0 5-5c0 0 0-5-5-5h-10s-5 0-5 5v-10-25h20v85s0 5 5 5c0 0 5 0 5-5v-85s0-10-10-10h-20s-10 0-10 10v85z" fill="#fdf6f7"/>
<path d="m550 435s0 5 5 5c0 0 5 0 5-5v-50s0 5 5 5h10s5 0 5-5c0 0 0-5-5-5h-10s-5 0-5 5v-10-25h20v85s0 5 5 5c0 0 5 0 5-5v-85s0-10-10-10h-20s-10 0-10 10v85z" stroke="#1d1d1d" stroke-linecap="round" stroke-linejoin="round" stroke-width="2"/>
<path d="m561 343h18c0.5523 0 1 0.4477 1 1s-0.4477 1-1 1h-18c-0.5523 0-1-0.4477-1-1s0.4477-1 1-1z" fill="#fff"/>
<path d="m561 343h18c0.5523 0 1 0.4477 1 1v0c0 0.5523-0.4477 1-1 1h-18c-0.5523 0-1-0.4477-1-1v0c0-0.5523 0.4477-1 1-1z" stroke="#000" stroke-linecap="round" stroke-linejoin="round" stroke-opacity=".5" stroke-width=".5"/>
<path d="m566 383h8c0.5523 0 1 0.4477 1 1s-0.4477 1-1 1h-8c-0.5523 0-1-0.4477-1-1s0.4477-1 1-1z" fill="#fff"/>
<path d="m566 383h8c0.5523 0 1 0.4477 1 1v0c0 0.5523-0.4477 1-1 1h-8c-0.5523 0-1-0.4477-1-1v0c0-0.5523 0.4477-1 1-1z" stroke="#000" stroke-linecap="round" stroke-linejoin="round" stroke-opacity=".5" stroke-width=".5"/>
</g>
</g>
<g>
<title>TO</title>
<g>
<title>T</title>
<path d="m770 190h35s5 0 5 5c0 0 0 5-5 5h-35v80s0 10-10 10c0 0-10 0-10-10v-80h-20s-5 0-5-5c0 0 0-5 5-5h20s10 0 10 10v80-80s0-10 10-10z" fill="#fdf6f7"/>
<path d="m770 190h35s5 0 5 5c0 0 0 5-5 5h-35v80s0 10-10 10c0 0-10 0-10-10v-80h-20s-5 0-5-5c0 0 0-5 5-5h20s10 0 10 10v80-80s0-10 10-10z" stroke="#1d1d1d" stroke-linecap="round" stroke-linejoin="round" stroke-width="2"/>
<path d="m733.5 192.5h15.5c0.5523 0 1 0.44772 1 1s-0.4477 1-1 1h-15.5c-0.5523 0-1-0.44772-1-1s0.4477-1 1-1z" fill="#fff"/>
<path d="m733.5 192.5h15.5c0.5523 0 1 0.44772 1 1v0c0 0.55228-0.4477 1-1 1h-15.5c-0.5523 0-1-0.44772-1-1v0c0-0.55228 0.4477-1 1-1z" stroke="#000" stroke-linecap="round" stroke-linejoin="round" stroke-opacity=".5" stroke-width=".5"/>
<path d="m771 192.5h25.5c0.5523 0 1 0.44772 1 1s-0.4477 1-1 1h-25.5c-0.5523 0-1-0.44772-1-1s0.4477-1 1-1z" fill="#fff"/>
<path d="m771 192.5h25.5c0.5523 0 1 0.44772 1 1v0c0 0.55228-0.4477 1-1 1h-25.5c-0.5523 0-1-0.44772-1-1v0c0-0.55228 0.4477-1 1-1z" stroke="#000" stroke-linecap="round" stroke-linejoin="round" stroke-opacity=".5" stroke-width=".5"/>
</g>
<g>
<title>O</title>
<path d="m805 190s5 0 5 5c0 0 0 5-5 5 0 0-5 0-5 10v60s0 10 10 10c0 0 10 0 10-10v-60s0-10-5-10c0 0-5 0-5-5 0 0 0-5 5-5 0 0 15 0 15 20v60s0 20-20 20c0 0-20 0-20-20v-60s0-20 15-20z" fill="#fdf6f7"/>
<path d="m805 190s5 0 5 5c0 0 0 5-5 5 0 0-5 0-5 10v60s0 10 10 10c0 0 10 0 10-10v-60s0-10-5-10c0 0-5 0-5-5 0 0 0-5 5-5 0 0 15 0 15 20v60s0 20-20 20c0 0-20 0-20-20v-60s0-20 15-20z" stroke="#1d1d1d" stroke-linecap="round" stroke-linejoin="round" stroke-width="2"/>
<path d="m813.5 192.5h3c0.5523 0 1 0.44772 1 1s-0.4477 1-1 1h-3c-0.5523 0-1-0.44772-1-1s0.4477-1 1-1z" fill="#fff"/>
<path d="m813.5 192.5h3c0.5523 0 1 0.44772 1 1v0c0 0.55228-0.4477 1-1 1h-3c-0.5523 0-1-0.44772-1-1v0c0-0.55228 0.4477-1 1-1z" stroke="#000" stroke-linecap="round" stroke-linejoin="round" stroke-opacity=".5" stroke-width=".5"/>
<path d="m803.5 192.5h3c0.5523 0 1 0.44772 1 1s-0.4477 1-1 1h-3c-0.5523 0-1-0.44772-1-1s0.4477-1 1-1z" fill="#fff"/>
<path d="m803.5 192.5h3c0.5523 0 1 0.44772 1 1v0c0 0.55228-0.4477 1-1 1h-3c-0.5523 0-1-0.44772-1-1v0c0-0.55228 0.4477-1 1-1z" stroke="#000" stroke-linecap="round" stroke-linejoin="round" stroke-opacity=".5" stroke-width=".5"/>
</g>
</g>
<g>
<title>HAVE</title>
<g>
<title>H</title>
<path d="m475 285v-90s0-5 5-5c0 0 5 0 5 5v45h20v-45s0-5 5-5c0 0 5 0 5 5v45s0 10-10 10c0 0 10 0 10-10v15 0 25h20s5 0 5 5c0 0 0 5-5 5h-25s-5 0-5-5v-30-5h-20v-10 45s0 5-5 5c0 0-5 0-5-5z" fill="#fdf6f7"/>
<path d="m475 285v-90s0-5 5-5c0 0 5 0 5 5v45h20v-45s0-5 5-5c0 0 5 0 5 5v45s0 10-10 10c0 0 10 0 10-10v15 0 25h20s5 0 5 5c0 0 0 5-5 5h-25s-5 0-5-5v-30-5h-20v-10 45s0 5-5 5c0 0-5 0-5-5z" stroke="#1d1d1d" stroke-linecap="round" stroke-linejoin="round" stroke-width="2"/>
<path d="m488.5 247h15.5c0.5523 0 1-0.44772 1-1s-0.4477-1-1-1h-15.5c-0.5523 0-1 0.44772-1 1s0.4477 1 1 1z" fill="#fff"/>
<path d="m488.5 247h15.5c0.5523 0 1-0.44772 1-1v0c0-0.55228-0.4477-1-1-1h-15.5c-0.5523 0-1 0.44772-1 1v0c0 0.55228 0.4477 1 1 1z" stroke="#000" stroke-linecap="round" stroke-linejoin="round" stroke-opacity=".5" stroke-width=".5"/>
<path d="m516 287.5h23c0.5523 0 1-0.4477 1-1s-0.4477-1-1-1h-23c-0.5523 0-1 0.4477-1 1s0.4477 1 1 1z" fill="#fff"/>
<path d="m516 287.5h23c0.5523 0 1-0.4477 1-1v0c0-0.5523-0.4477-1-1-1h-23c-0.5523 0-1 0.4477-1 1v0c0 0.5523 0.4477 1 1 1z" stroke="#000" stroke-linecap="round" stroke-linejoin="round" stroke-opacity=".5" stroke-width=".5"/>
</g>
<g>
<title>V</title>
<path d="m585 190s10 0 10 10v65l10 10 10-10v-70s0-5 5-5h25s5 0 5 5-5 5-5 5h-20v70l-20 20-20-20v-70h-20s-5 0-5-5c0 0 0-5 5-5z" fill="#fdf6f7"/>
<path d="m585 190s10 0 10 10v65l10 10 10-10v-70s0-5 5-5h25s5 0 5 5-5 5-5 5h-20v70l-20 20-20-20v-70h-20s-5 0-5-5c0 0 0-5 5-5z" stroke="#1d1d1d" stroke-linecap="square" stroke-width="2"/>
<path d="m566 193h18c0.5523 0 1 0.44772 1 1s-0.4477 1-1 1h-18c-0.5523 0-1-0.44772-1-1s0.4477-1 1-1z" fill="#fff"/>
<path d="m566 193h18c0.5523 0 1 0.44772 1 1v0c0 0.55228-0.4477 1-1 1h-18c-0.5523 0-1-0.44772-1-1v0c0-0.55228 0.4477-1 1-1z" stroke="#000" stroke-linecap="round" stroke-linejoin="round" stroke-opacity=".5" stroke-width=".5"/>
<path d="m606.96 276.63 9.1287-9.1287c0.3905-0.39052 1.0237-0.39052 1.4142 0s0.3905 1.0237 0 1.4142l-9.1287 9.1287c-0.3905 0.39052-1.0237 0.39052-1.4142 0-0.3905-0.39053-0.3905-1.0237 0-1.4142z" fill="#fff"/>
<path d="m606.96 276.63 9.1287-9.1287c0.3905-0.39052 1.0237-0.39052 1.4142 0v0c0.3905 0.39052 0.3905 1.0237 0 1.4142v0l-9.1287 9.1287c-0.3905 0.39052-1.0237 0.39052-1.4142 0v0c-0.3905-0.39053-0.3905-1.0237 0-1.4142v0z" stroke="#000" stroke-linecap="round" stroke-linejoin="round" stroke-opacity=".5" stroke-width=".5"/>
</g>
<g>
<title>A</title>
<path d="m530 285s0 5 5 5c0 0 5 0 5-5v-50s0 5 5 5h10s5 0 5-5c0 0 0-5-5-5h-10s-5 0-5 5v-10-25h20v85s0 5 5 5c0 0 5 0 5-5v-85s0-10-10-10h-20s-10 0-10 10v85z" fill="#fdf6f7"/>
<path d="m530 285s0 5 5 5c0 0 5 0 5-5v-50s0 5 5 5h10s5 0 5-5c0 0 0-5-5-5h-10s-5 0-5 5v-10-25h20v85s0 5 5 5c0 0 5 0 5-5v-85s0-10-10-10h-20s-10 0-10 10v85z" stroke="#1d1d1d" stroke-linecap="round" stroke-linejoin="round" stroke-width="2"/>
<path d="m541 193h18c0.5523 0 1 0.44772 1 1s-0.4477 1-1 1h-18c-0.5523 0-1-0.44772-1-1s0.4477-1 1-1z" fill="#fff"/>
<path d="m541 193h18c0.5523 0 1 0.44772 1 1v0c0 0.55228-0.4477 1-1 1h-18c-0.5523 0-1-0.44772-1-1v0c0-0.55228 0.4477-1 1-1z" stroke="#000" stroke-linecap="round" stroke-linejoin="round" stroke-opacity=".5" stroke-width=".5"/>
<path d="m546 233h8c0.5523 0 1 0.44772 1 1s-0.4477 1-1 1h-8c-0.5523 0-1-0.44772-1-1s0.4477-1 1-1z" fill="#fff"/>
<path d="m546 233h8c0.5523 0 1 0.44772 1 1v0c0 0.55228-0.4477 1-1 1h-8c-0.5523 0-1-0.44772-1-1v0c0-0.55228 0.4477-1 1-1z" stroke="#000" stroke-linecap="round" stroke-linejoin="round" stroke-opacity=".5" stroke-width=".5"/>
</g>
<g>
<title>E</title>
<path d="m620 190s-5 0-5 5c0 0 0 5 5 5h60-30s-10 0-10 10v20s0 10 10 10h30-30s-10 0-10 10v30s0 10 10 10h30v55s0 5 5 5 5-5 5-5v-55s0-10-10-10h-30v-30h30s10 0 10-10c0 0 0-10-10-10h-30v-20h30s10 0 10-10c0 0 0-10-10-10h-60z" fill="#fdf6f7"/>
<path d="m620 190s-5 0-5 5c0 0 0 5 5 5h60-30s-10 0-10 10v20s0 10 10 10h30-30s-10 0-10 10v30s0 10 10 10h30v55s0 5 5 5 5-5 5-5v-55s0-10-10-10h-30v-30h30s10 0 10-10c0 0 0-10-10-10h-30v-20h30s10 0 10-10c0 0 0-10-10-10h-60z" stroke="#1d1d1d" stroke-linecap="round" stroke-linejoin="round" stroke-width="2"/>
<path d="m651 203h28c0.5523 0 1 0.44772 1 1s-0.4477 1-1 1h-28c-0.5523 0-1-0.44772-1-1s0.4477-1 1-1z" fill="#fff"/>
<path d="m651 203h28c0.5523 0 1 0.44772 1 1v0c0 0.55228-0.4477 1-1 1h-28c-0.5523 0-1-0.44772-1-1v0c0-0.55228 0.4477-1 1-1z" stroke="#000" stroke-linecap="round" stroke-linejoin="round" stroke-opacity=".5" stroke-width=".5"/>
<path d="m651 232.5h28c0.5523 0 1 0.44772 1 1s-0.4477 1-1 1h-28c-0.5523 0-1-0.44772-1-1s0.4477-1 1-1z" fill="#fff"/>
<path d="m651 232.5h28c0.5523 0 1 0.44772 1 1v0c0 0.55228-0.4477 1-1 1h-28c-0.5523 0-1-0.44772-1-1v0c0-0.55228 0.4477-1 1-1z" stroke="#000" stroke-linecap="round" stroke-linejoin="round" stroke-opacity=".5" stroke-width=".5"/>
<path d="m651 242.5h28c0.5523 0 1 0.44772 1 1s-0.4477 1-1 1h-28c-0.5523 0-1-0.44772-1-1s0.4477-1 1-1z" fill="#fff"/>
<path d="m651 242.5h28c0.5523 0 1 0.44772 1 1v0c0 0.55228-0.4477 1-1 1h-28c-0.5523 0-1-0.44772-1-1v0c0-0.55228 0.4477-1 1-1z" stroke="#000" stroke-linecap="round" stroke-linejoin="round" stroke-opacity=".5" stroke-width=".5"/>
<path d="m651 282.5h33c0.5523 0 1 0.4477 1 1s-0.4477 1-1 1h-33c-0.5523 0-1-0.4477-1-1s0.4477-1 1-1z" fill="#fff"/>
<path d="m651 282.5h33c0.5523 0 1 0.4477 1 1v0c0 0.5523-0.4477 1-1 1h-33c-0.5523 0-1-0.4477-1-1v0c0-0.5523 0.4477-1 1-1z" stroke="#000" stroke-linecap="round" stroke-linejoin="round" stroke-opacity=".5" stroke-width=".5"/>
<path d="m621.04 192.5h57.913c0.5763 0 1.0435 0.44772 1.0435 1s-0.4672 1-1.0435 1h-57.913c-0.5763 0-1.0435-0.44772-1.0435-1s0.4672-1 1.0435-1z" fill="#fff"/>
<path d="m621.04 192.5h57.913c0.5763 0 1.0435 0.44772 1.0435 1s-0.4672 1-1.0435 1h-57.913c-0.5763 0-1.0435-0.44772-1.0435-1s0.4672-1 1.0435-1z" stroke="#000" stroke-linecap="round" stroke-linejoin="round" stroke-opacity=".5" stroke-width=".5"/>
</g>
</g>
<g>
<title>YOU</title>
<g>
<title>Y</title>
<path d="m290 195s0-5 5-5c0 0 5 0 5 5v45h20v-40s0-10 10-10c0 0 10 0 10 10v70s0 10-10 10h-30 70l5 5-5 5h-70s-10 0-10-10c0 0 0-10 10-10h30v-70 40s0 10-10 10h-20s-10 0-10-10z" fill="#fdf6f7"/>
<path d="m290 195s0-5 5-5c0 0 5 0 5 5v45h20v-40s0-10 10-10c0 0 10 0 10 10v70s0 10-10 10h-30 70l5 5-5 5h-70s-10 0-10-10c0 0 0-10 10-10h30v-70 40s0 10-10 10h-20s-10 0-10-10z" stroke="#1d1d1d" stroke-linecap="round" stroke-linejoin="round" stroke-width="2"/>
<path d="m301 242.5h18c0.5523 0 1 0.44772 1 1s-0.4477 1-1 1h-18c-0.5523 0-1-0.44772-1-1s0.4477-1 1-1z" fill="#fff"/>
<path d="m301 242.5h18c0.5523 0 1 0.44772 1 1v0c0 0.55228-0.4477 1-1 1h-18c-0.5523 0-1-0.44772-1-1v0c0-0.55228 0.4477-1 1-1z" stroke="#000" stroke-linecap="round" stroke-linejoin="round" stroke-opacity=".5" stroke-width=".5"/>
<path d="m301 272.5h28c0.5523 0 1 0.4477 1 1s-0.4477 1-1 1h-28c-0.5523 0-1-0.4477-1-1s0.4477-1 1-1z" fill="#fff"/>
<path d="m301 272.5h28c0.5523 0 1 0.4477 1 1v0c0 0.5523-0.4477 1-1 1h-28c-0.5523 0-1-0.4477-1-1v0c0-0.5523 0.4477-1 1-1z" stroke="#000" stroke-linecap="round" stroke-linejoin="round" stroke-opacity=".5" stroke-width=".5"/>
<path d="m301 282.5h53c0.5523 0 1 0.4477 1 1s-0.4477 1-1 1h-53c-0.5523 0-1-0.4477-1-1s0.4477-1 1-1z" fill="#fff"/>
<path d="m301 282.5h53c0.5523 0 1 0.4477 1 1v0c0 0.5523-0.4477 1-1 1h-53c-0.5523 0-1-0.4477-1-1v0c0-0.5523 0.4477-1 1-1z" stroke="#000" stroke-linecap="round" stroke-linejoin="round" stroke-opacity=".5" stroke-width=".5"/>
<path d="m296 192.5h0.5c0.5523 0 1 0.44772 1 1s-0.4477 1-1 1h-0.5c-0.5523 0-1-0.44772-1-1s0.4477-1 1-1z" fill="#fff"/>
<path d="m296 192.5h0.5c0.5523 0 1 0.44772 1 1v0c0 0.55228-0.4477 1-1 1h-0.5c-0.5523 0-1-0.44772-1-1v0c0-0.55228 0.4477-1 1-1z" stroke="#000" stroke-linecap="round" stroke-linejoin="round" stroke-opacity=".5" stroke-width=".5"/>
<path d="m328.5 192.5h3c0.5523 0 1 0.44772 1 1s-0.4477 1-1 1h-3c-0.5523 0-1-0.44772-1-1s0.4477-1 1-1z" fill="#fff"/>
<path d="m328.5 192.5h3c0.5523 0 1 0.44772 1 1v0c0 0.55228-0.4477 1-1 1h-3c-0.5523 0-1-0.44772-1-1v0c0-0.55228 0.4477-1 1-1z" stroke="#000" stroke-linecap="round" stroke-linejoin="round" stroke-opacity=".5" stroke-width=".5"/>
</g>
<g>
<title>U</title>
<path d="m400 190s10 0 10 10v70c0 10 10 10 10 10s10 0 10-10v-75s0-5 5-5 5 5 5 5v75c0 20-20 20-20 20s-20 0-20-20v-70h-25s-5 0-5-5c0 0 0-5 5-5z" fill="#fdf6f7"/>
<path d="m400 190s10 0 10 10v70c0 10 10 10 10 10s10 0 10-10v-75s0-5 5-5 5 5 5 5v75c0 20-20 20-20 20s-20 0-20-20v-70h-25s-5 0-5-5c0 0 0-5 5-5z" stroke="#1d1d1d" stroke-linecap="square" stroke-width="2"/>
<path d="m381 193h18c0.5523 0 1 0.44772 1 1s-0.4477 1-1 1h-18c-0.5523 0-1-0.44772-1-1s0.4477-1 1-1z" fill="#fff"/>
<path d="m381 193h18c0.5523 0 1 0.44772 1 1v0c0 0.55228-0.4477 1-1 1h-18c-0.5523 0-1-0.44772-1-1v0c0-0.55228 0.4477-1 1-1z" stroke="#000" stroke-linecap="round" stroke-linejoin="round" stroke-opacity=".5" stroke-width=".5"/>
<path d="m436 193h0.5c0.5523 0 1 0.44772 1 1s-0.4477 1-1 1h-0.5c-0.5523 0-1-0.44772-1-1s0.4477-1 1-1z" fill="#fff"/>
<path d="m436 193h0.5c0.5523 0 1 0.44772 1 1v0c0 0.55228-0.4477 1-1 1h-0.5c-0.5523 0-1-0.44772-1-1v0c0-0.55228 0.4477-1 1-1z" stroke="#000" stroke-linecap="round" stroke-linejoin="round" stroke-opacity=".5" stroke-width=".5"/>
<path d="m418.5 282.5h3c0.5523 0 1 0.4477 1 1s-0.4477 1-1 1h-3c-0.5523 0-1-0.4477-1-1s0.4477-1 1-1z" fill="#fff"/>
<path d="m418.5 282.5h3c0.5523 0 1 0.4477 1 1v0c0 0.5523-0.4477 1-1 1h-3c-0.5523 0-1-0.4477-1-1v0c0-0.5523 0.4477-1 1-1z" stroke="#000" stroke-linecap="round" stroke-linejoin="round" stroke-opacity=".5" stroke-width=".5"/>
</g>
<g>
<title>O</title>
<path d="m365 190s5 0 5 5c0 0 0 5-5 5 0 0-5 0-5 10v60s0 10 10 10c0 0 10 0 10-10v-60s0-10-5-10c0 0-5 0-5-5 0 0 0-5 5-5 0 0 15 0 15 20v60s0 20-20 20c0 0-20 0-20-20v-60s0-20 15-20z" fill="#fdf6f7"/>
<path d="m365 190s5 0 5 5c0 0 0 5-5 5 0 0-5 0-5 10v60s0 10 10 10c0 0 10 0 10-10v-60s0-10-5-10c0 0-5 0-5-5 0 0 0-5 5-5 0 0 15 0 15 20v60s0 20-20 20c0 0-20 0-20-20v-60s0-20 15-20z" stroke="#1d1d1d" stroke-linecap="round" stroke-linejoin="round" stroke-width="2"/>
<path d="m373.5 193h3c0.5523 0 1 0.44772 1 1s-0.4477 1-1 1h-3c-0.5523 0-1-0.44772-1-1s0.4477-1 1-1z" fill="#fff"/>
<path d="m373.5 193h3c0.5523 0 1 0.44772 1 1v0c0 0.55228-0.4477 1-1 1h-3c-0.5523 0-1-0.44772-1-1v0c0-0.55228 0.4477-1 1-1z" stroke="#000" stroke-linecap="round" stroke-linejoin="round" stroke-opacity=".5" stroke-width=".5"/>
<path d="m363.5 193h3c0.5523 0 1 0.44772 1 1s-0.4477 1-1 1h-3c-0.5523 0-1-0.44772-1-1s0.4477-1 1-1z" fill="#fff"/>
<path d="m363.5 193h3c0.5523 0 1 0.44772 1 1v0c0 0.55228-0.4477 1-1 1h-3c-0.5523 0-1-0.44772-1-1v0c0-0.55228 0.4477-1 1-1z" stroke="#000" stroke-linecap="round" stroke-linejoin="round" stroke-opacity=".5" stroke-width=".5"/>
<path d="m368.5 282.5h3c0.5523 0 1 0.4477 1 1s-0.4477 1-1 1h-3c-0.5523 0-1-0.4477-1-1s0.4477-1 1-1z" fill="#fff"/>
<path d="m368.5 282.5h3c0.5523 0 1 0.4477 1 1v0c0 0.5523-0.4477 1-1 1h-3c-0.5523 0-1-0.4477-1-1v0c0-0.5523 0.4477-1 1-1z" stroke="#000" stroke-linecap="round" stroke-linejoin="round" stroke-opacity=".5" stroke-width=".5"/>
</g>
</g>
<g>
<title>THIS</title>
<g>
<title>T</title>
<path d="m725 340h35s5 0 5 5c0 0 0 5-5 5h-35v80s0 10-10 10c0 0-10 0-10-10v-80h-20s-5 0-5-5c0 0 0-5 5-5h20s10 0 10 10v80-80s0-10 10-10z" fill="#fdf6f7"/>
<path d="m725 340h35s5 0 5 5c0 0 0 5-5 5h-35v80s0 10-10 10c0 0-10 0-10-10v-80h-20s-5 0-5-5c0 0 0-5 5-5h20s10 0 10 10v80-80s0-10 10-10z" stroke="#1d1d1d" stroke-linecap="round" stroke-linejoin="round" stroke-width="2"/>
<path d="m683.5 342.5h20.5c0.5523 0 1 0.4477 1 1s-0.4477 1-1 1h-20.5c-0.5523 0-1-0.4477-1-1s0.4477-1 1-1z" fill="#fff"/>
<path d="m683.5 342.5h20.5c0.5523 0 1 0.4477 1 1v0c0 0.5523-0.4477 1-1 1h-20.5c-0.5523 0-1-0.4477-1-1v0c0-0.5523 0.4477-1 1-1z" stroke="#000" stroke-linecap="round" stroke-linejoin="round" stroke-opacity=".5" stroke-width=".5"/>
<path d="m726 342.5h30.5c0.5523 0 1 0.4477 1 1s-0.4477 1-1 1h-30.5c-0.5523 0-1-0.4477-1-1s0.4477-1 1-1z" fill="#fff"/>
<path d="m726 342.5h30.5c0.5523 0 1 0.4477 1 1v0c0 0.5523-0.4477 1-1 1h-30.5c-0.5523 0-1-0.4477-1-1v0c0-0.5523 0.4477-1 1-1z" stroke="#000" stroke-linecap="round" stroke-linejoin="round" stroke-opacity=".5" stroke-width=".5"/>
</g>
<g>
<title>H</title>
<path d="m755 435v-90s0-5 5-5c0 0 5 0 5 5v45h20v-45s0-5 5-5c0 0 5 0 5 5v45s0 10-10 10c0 0 10 0 10-10v15 0 25h25s5 0 5 5c0 0 0 5-5 5h-30s-5 0-5-5v-30-5h-20v-10 45s0 5-5 5c0 0-5 0-5-5z" fill="#fdf6f7"/>
<path d="m755 435v-90s0-5 5-5c0 0 5 0 5 5v45h20v-45s0-5 5-5c0 0 5 0 5 5v45s0 10-10 10c0 0 10 0 10-10v15 0 25h25s5 0 5 5c0 0 0 5-5 5h-30s-5 0-5-5v-30-5h-20v-10 45s0 5-5 5c0 0-5 0-5-5z" stroke="#1d1d1d" stroke-linecap="round" stroke-linejoin="round" stroke-width="2"/>
<path d="m761 342.5h0.5c0.5523 0 1 0.4477 1 1s-0.4477 1-1 1h-0.5c-0.5523 0-1-0.4477-1-1s0.4477-1 1-1z" fill="#fff"/>
<path d="m761 342.5h0.5c0.5523 0 1 0.4477 1 1v0c0 0.5523-0.4477 1-1 1h-0.5c-0.5523 0-1-0.4477-1-1v0c0-0.5523 0.4477-1 1-1z" stroke="#000" stroke-linecap="round" stroke-linejoin="round" stroke-opacity=".5" stroke-width=".5"/>
<path d="m791 343h0.5c0.5523 0 1 0.4477 1 1s-0.4477 1-1 1h-0.5c-0.5523 0-1-0.4477-1-1s0.4477-1 1-1z" fill="#fff"/>
<path d="m791 343h0.5c0.5523 0 1 0.4477 1 1v0c0 0.5523-0.4477 1-1 1h-0.5c-0.5523 0-1-0.4477-1-1v0c0-0.5523 0.4477-1 1-1z" stroke="#000" stroke-linecap="round" stroke-linejoin="round" stroke-opacity=".5" stroke-width=".5"/>
<path d="m771 392.5h13c0.5523 0 1 0.4477 1 1s-0.4477 1-1 1h-13c-0.5523 0-1-0.4477-1-1s0.4477-1 1-1z" fill="#fff"/>
<path d="m771 392.5h13c0.5523 0 1 0.4477 1 1v0c0 0.5523-0.4477 1-1 1h-13c-0.5523 0-1-0.4477-1-1v0c0-0.5523 0.4477-1 1-1z" stroke="#000" stroke-linecap="round" stroke-linejoin="round" stroke-opacity=".5" stroke-width=".5"/>
<path d="m796 432.5h23c0.5523 0 1 0.4477 1 1s-0.4477 1-1 1h-23c-0.5523 0-1-0.4477-1-1s0.4477-1 1-1z" fill="#fff"/>
<path d="m796 432.5h23c0.5523 0 1 0.4477 1 1v0c0 0.5523-0.4477 1-1 1h-23c-0.5523 0-1-0.4477-1-1v0c0-0.5523 0.4477-1 1-1z" stroke="#000" stroke-linecap="round" stroke-linejoin="round" stroke-opacity=".5" stroke-width=".5"/>
</g>
<g>
<title>S</title>
<path d="m830 440s-5 0-5-5 5-5 5-5h50v-40h-20s-10-2-10-10v-30s0-10 10-10h45s5 0 5 5c0 0 0 5-5 5h-45v30h20c10 0 10 10 10 10v40s0 10-10 10h-50z" fill="#fdf6f7"/>
<path d="m830 440s-5 0-5-5 5-5 5-5h50v-40h-20s-10-2-10-10v-30s0-10 10-10h45s5 0 5 5c0 0 0 5-5 5h-45v30h20c10 0 10 10 10 10v40s0 10-10 10h-50z" stroke="#1d1d1d" stroke-linecap="square" stroke-width="2"/>
<path d="m838.5 432.5h40.5c0.5523 0 1 0.4477 1 1s-0.4477 1-1 1h-40.5c-0.5523 0-1-0.4477-1-1s0.4477-1 1-1z" fill="#fff"/>
<path d="m838.5 432.5h40.5c0.5523 0 1 0.4477 1 1v0c0 0.5523-0.4477 1-1 1h-40.5c-0.5523 0-1-0.4477-1-1v0c0-0.5523 0.4477-1 1-1z" stroke="#000" stroke-linecap="round" stroke-linejoin="round" stroke-opacity=".5" stroke-width=".5"/>
<path d="m861 343h40.5c0.5523 0 1 0.4477 1 1s-0.4477 1-1 1h-40.5c-0.5523 0-1-0.4477-1-1s0.4477-1 1-1z" fill="#fff"/>
<path d="m861 343h40.5c0.5523 0 1 0.4477 1 1v0c0 0.5523-0.4477 1-1 1h-40.5c-0.5523 0-1-0.4477-1-1v0c0-0.5523 0.4477-1 1-1z" stroke="#000" stroke-linecap="round" stroke-linejoin="round" stroke-opacity=".5" stroke-width=".5"/>
<path d="m861 383h18c0.5523 0 1 0.4477 1 1s-0.4477 1-1 1h-18c-0.5523 0-1-0.4477-1-1s0.4477-1 1-1z" fill="#fff"/>
<path d="m861 383h18c0.5523 0 1 0.4477 1 1v0c0 0.5523-0.4477 1-1 1h-18c-0.5523 0-1-0.4477-1-1v0c0-0.5523 0.4477-1 1-1z" stroke="#000" stroke-linecap="round" stroke-linejoin="round" stroke-opacity=".5" stroke-width=".5"/>
</g>
<g>
<title>I</title>
<path d="m820 440s-5 0-5-5v-85s0-10 10-10c0 0 10 0 10 10v85s0 5-5 5c0 0-5 0-5-5v-85 85s0 5-5 5z" fill="#fdf6f7"/>
<path d="m820 440s-5 0-5-5v-85s0-10 10-10c0 0 10 0 10 10v85s0 5-5 5c0 0-5 0-5-5v-85 85s0 5-5 5z" stroke="#1d1d1d" stroke-linecap="round" stroke-linejoin="round" stroke-width="2"/>
<path d="m823.5 343h3c0.5523 0 1 0.4477 1 1s-0.4477 1-1 1h-3c-0.5523 0-1-0.4477-1-1s0.4477-1 1-1z" fill="#fff"/>
<path d="m823.5 343h3c0.5523 0 1 0.4477 1 1v0c0 0.5523-0.4477 1-1 1h-3c-0.5523 0-1-0.4477-1-1v0c0-0.5523 0.4477-1 1-1z" stroke="#000" stroke-linecap="round" stroke-linejoin="round" stroke-opacity=".5" stroke-width=".5"/>
</g>
</g>
</g>
</g>
</svg>