<?xml version="1.0" encoding="UTF-8"?>
<!DOCTYPE svg  PUBLIC '-//W3C//DTD SVG 1.1//EN'  'http://www.w3.org/Graphics/SVG/1.1/DTD/svg11.dtd'>
<svg width="867" height="252" version="1.1" viewBox="166.5 189 867 252" xmlns="http://www.w3.org/2000/svg">
<metadata>Designed by John Peart\nwww.johnpe.art\n@johnpeart\n2021-01-01 16:09:19 +0000</metadata>
<g fill="none">
<title>You Should Listen to This</title>
<g>
<title>This</title>
<g>
<title>T</title>
<path d="m847.5 340h35s5 0 5 5c0 0 0 5-5 5h-35v80s0 10-10 10c0 0-10 0-10-10v-80h-20s-5 0-5-5c0 0 0-5 5-5h20s10 0 10 10v80-80s0-10 10-10z" fill="#fdf6f7"/>
<path d="m847.5 340h35s5 0 5 5c0 0 0 5-5 5h-35v80s0 10-10 10c0 0-10 0-10-10v-80h-20s-5 0-5-5c0 0 0-5 5-5h20s10 0 10 10v80-80s0-10 10-10z" stroke="#1d1d1d" stroke-linecap="round" stroke-linejoin="round" stroke-width="2"/>
<path d="m806 342.5h20.5c0.5523 0 1 0.4477 1 1s-0.4477 1-1 1h-20.5c-0.5523 0-1-0.4477-1-1s0.4477-1 1-1z" fill="#fff"/>
<path d="m806 342.5h20.5c0.5523 0 1 0.4477 1 1v0c0 0.5523-0.4477 1-1 1h-20.5c-0.5523 0-1-0.4477-1-1v0c0-0.5523 0.4477-1 1-1z" stroke="#000" stroke-linecap="round" stroke-linejoin="round" stroke-opacity=".5" stroke-width=".5"/>
<path d="m848.5 342.5h30.5c0.5523 0 1 0.4477 1 1s-0.4477 1-1 1h-30.5c-0.5523 0-1-0.4477-1-1s0.4477-1 1-1z" fill="#fff"/>
<path d="m848.5 342.5h30.5c0.5523 0 1 0.4477 1 1v0c0 0.5523-0.4477 1-1 1h-30.5c-0.5523 0-1-0.4477-1-1v0c0-0.5523 0.4477-1 1-1z" stroke="#000" stroke-linecap="round" stroke-linejoin="round" stroke-opacity=".5" stroke-width=".5"/>
</g>
<g>
<title>H</title>
<path d="m877.5 435v-90s0-5 5-5c0 0 5 0 5 5v45h20v-45s0-5 5-5c0 0 5 0 5 5v45s0 10-10 10c0 0 10 0 10-10v15 0 25h25s5 0 5 5c0 0 0 5-5 5h-30s-5 0-5-5v-30-5h-20v-10 45s0 5-5 5c0 0-5 0-5-5z" fill="#fdf6f7"/>
<path d="m877.5 435v-90s0-5 5-5c0 0 5 0 5 5v45h20v-45s0-5 5-5c0 0 5 0 5 5v45s0 10-10 10c0 0 10 0 10-10v15 0 25h25s5 0 5 5c0 0 0 5-5 5h-30s-5 0-5-5v-30-5h-20v-10 45s0 5-5 5c0 0-5 0-5-5z" stroke="#1d1d1d" stroke-linecap="round" stroke-linejoin="round" stroke-width="2"/>
<path d="m883.5 342.5h0.5c0.5523 0 1 0.4477 1 1s-0.4477 1-1 1h-0.5c-0.5523 0-1-0.4477-1-1s0.4477-1 1-1z" fill="#fff"/>
<path d="m883.5 342.5h0.5c0.5523 0 1 0.4477 1 1v0c0 0.5523-0.4477 1-1 1h-0.5c-0.5523 0-1-0.4477-1-1v0c0-0.5523 0.4477-1 1-1z" stroke="#000" stroke-linecap="round" stroke-linejoin="round" stroke-opacity=".5" stroke-width=".5"/>
<path d="m913.5 343h0.5c0.5523 0 1 0.4477 1 1s-0.4477 1-1 1h-0.5c-0.5523 0-1-0.4477-1-1s0.4477-1 1-1z" fill="#fff"/>
<path d="m913.5 343h0.5c0.5523 0 1 0.4477 1 1v0c0 0.5523-0.4477 1-1 1h-0.5c-0.5523 0-1-0.4477-1-1v0c0-0.5523 0.4477-1 1-1z" stroke="#000" stroke-linecap="round" stroke-linejoin="round" stroke-opacity=".5" stroke-width=".5"/>
<path d="m893.5 392.5h13c0.5523 0 1 0.4477 1 1s-0.4477 1-1 1h-13c-0.5523 0-1-0.4477-1-1s0.4477-1 1-1z" fill="#fff"/>
<path d="m893.5 392.5h13c0.5523 0 1 0.4477 1 1v0c0 0.5523-0.4477 1-1 1h-13c-0.5523 0-1-0.4477-1-1v0c0-0.5523 0.4477-1 1-1z" stroke="#000" stroke-linecap="round" stroke-linejoin="round" stroke-opacity=".5" stroke-width=".5"/>
<path d="m918.5 432.5h23c0.5523 0 1 0.4477 1 1s-0.4477 1-1 1h-23c-0.5523 0-1-0.4477-1-1s0.4477-1 1-1z" fill="#fff"/>
<path d="m918.5 432.5h23c0.5523 0 1 0.4477 1 1v0c0 0.5523-0.4477 1-1 1h-23c-0.5523 0-1-0.4477-1-1v0c0-0.5523 0.4477-1 1-1z" stroke="#000" stroke-linecap="round" stroke-linejoin="round" stroke-opacity=".5" stroke-width=".5"/>
</g>
<g>
<title>S</title>
<path d="m952.5 440s-5 0-5-5 5-5 5-5h50v-40h-20s-10-2-10-10v-30s0-10 10-10h45s5 0 5 5c0 0 0 5-5 5h-45v30h20c10 0 10 10 10 10v40s0 10-10 10h-50z" fill="#fdf6f7"/>
<path d="m952.5 440s-5 0-5-5 5-5 5-5h50v-40h-20s-10-2-10-10v-30s0-10 10-10h45s5 0 5 5c0 0 0 5-5 5h-45v30h20c10 0 10 10 10 10v40s0 10-10 10h-50z" stroke="#1d1d1d" stroke-linecap="square" stroke-width="2"/>
<path d="m961 432.5h40.5c0.5523 0 1 0.4477 1 1s-0.4477 1-1 1h-40.5c-0.5523 0-1-0.4477-1-1s0.4477-1 1-1z" fill="#fff"/>
<path d="m961 432.5h40.5c0.5523 0 1 0.4477 1 1v0c0 0.5523-0.4477 1-1 1h-40.5c-0.5523 0-1-0.4477-1-1v0c0-0.5523 0.4477-1 1-1z" stroke="#000" stroke-linecap="round" stroke-linejoin="round" stroke-opacity=".5" stroke-width=".5"/>
<path d="m983.5 343h40.5c0.5523 0 1 0.4477 1 1s-0.4477 1-1 1h-40.5c-0.5523 0-1-0.4477-1-1s0.4477-1 1-1z" fill="#fff"/>
<path d="m983.5 343h40.5c0.5523 0 1 0.4477 1 1v0c0 0.5523-0.4477 1-1 1h-40.5c-0.5523 0-1-0.4477-1-1v0c0-0.5523 0.4477-1 1-1z" stroke="#000" stroke-linecap="round" stroke-linejoin="round" stroke-opacity=".5" stroke-width=".5"/>
<path d="m983.5 383h18c0.5523 0 1 0.4477 1 1s-0.4477 1-1 1h-18c-0.5523 0-1-0.4477-1-1s0.4477-1 1-1z" fill="#fff"/>
<path d="m983.5 383h18c0.5523 0 1 0.4477 1 1v0c0 0.5523-0.4477 1-1 1h-18c-0.5523 0-1-0.4477-1-1v0c0-0.5523 0.4477-1 1-1z" stroke="#000" stroke-linecap="round" stroke-linejoin="round" stroke-opacity=".5" stroke-width=".5"/>
</g>
<g>
<title>I</title>
<path d="m942.5 440s-5 0-5-5v-85s0-10 10-10c0 0 10 0 10 10v85s0 5-5 5c0 0-5 0-5-5v-85 85s0 5-5 5z" fill="#fdf6f7"/>
<path d="m942.5 440s-5 0-5-5v-85s0-10 10-10c0 0 10 0 10 10v85s0 5-5 5c0 0-5 0-5-5v-85 85s0 5-5 5z" stroke="#1d1d1d" stroke-linecap="round" stroke-linejoin="round" stroke-width="2"/>
<path d="m946 343h3c0.5523 0 1 0.4477 1 1s-0.4477 1-1 1h-3c-0.5523 0-1-0.4477-1-1s0.4477-1 1-1z" fill="#fff"/>
<path d="m946 343h3c0.5523 0 1 0.4477 1 1v0c0 0.5523-0.4477 1-1 1h-3c-0.5523 0-1-0.4477-1-1v0c0-0.5523 0.4477-1 1-1z" stroke="#000" stroke-linecap="round" stroke-linejoin="round" stroke-opacity=".5" stroke-width=".5"/>
</g>
</g>
<g>
<title>To</title>
<g>
<title>T</title>
<path d="m707.5 340h35s5 0 5 5c0 0 0 5-5 5h-35v80s0 10-10 10c0 0-10 0-10-10v-80h-20s-5 0-5-5c0 0 0-5 5-5h20s10 0 10 10v80-80s0-10 10-10z" fill="#fdf6f7"/>
<path d="m707.5 340h35s5 0 5 5c0 0 0 5-5 5h-35v80s0 10-10 10c0 0-10 0-10-10v-80h-20s-5 0-5-5c0 0 0-5 5-5h20s10 0 10 10v80-80s0-10 10-10z" stroke="#1d1d1d" stroke-linecap="round" stroke-linejoin="round" stroke-width="2"/>
<path d="m671 342.5h15.5c0.5523 0 1 0.4477 1 1s-0.4477 1-1 1h-15.5c-0.5523 0-1-0.4477-1-1s0.4477-1 1-1z" fill="#fff"/>
<path d="m671 342.5h15.5c0.5523 0 1 0.4477 1 1v0c0 0.5523-0.4477 1-1 1h-15.5c-0.5523 0-1-0.4477-1-1v0c0-0.5523 0.4477-1 1-1z" stroke="#000" stroke-linecap="round" stroke-linejoin="round" stroke-opacity=".5" stroke-width=".5"/>
<path d="m708.5 342.5h25.5c0.5523 0 1 0.4477 1 1s-0.4477 1-1 1h-25.5c-0.5523 0-1-0.4477-1-1s0.4477-1 1-1z" fill="#fff"/>
<path d="m708.5 342.5h25.5c0.5523 0 1 0.4477 1 1v0c0 0.5523-0.4477 1-1 1h-25.5c-0.5523 0-1-0.4477-1-1v0c0-0.5523 0.4477-1 1-1z" stroke="#000" stroke-linecap="round" stroke-linejoin="round" stroke-opacity=".5" stroke-width=".5"/>
</g>
<g>
<title>O</title>
<path d="m742.5 340s5 0 5 5c0 0 0 5-5 5 0 0-5 0-5 10v60s0 10 10 10c0 0 10 0 10-10v-60s0-10-5-10c0 0-5 0-5-5 0 0 0-5 5-5 0 0 15 0 15 20v60s0 20-20 20c0 0-20 0-20-20v-60s0-20 15-20z" fill="#fdf6f7"/>
<path d="m742.5 340s5 0 5 5c0 0 0 5-5 5 0 0-5 0-5 10v60s0 10 10 10c0 0 10 0 10-10v-60s0-10-5-10c0 0-5 0-5-5 0 0 0-5 5-5 0 0 15 0 15 20v60s0 20-20 20c0 0-20 0-20-20v-60s0-20 15-20z" stroke="#1d1d1d" stroke-linecap="round" stroke-linejoin="round" stroke-width="2"/>
<path d="m751 342.5h3c0.5523 0 1 0.4477 1 1s-0.4477 1-1 1h-3c-0.5523 0-1-0.4477-1-1s0.4477-1 1-1z" fill="#fff"/>
<path d="m751 342.5h3c0.5523 0 1 0.4477 1 1v0c0 0.5523-0.4477 1-1 1h-3c-0.5523 0-1-0.4477-1-1v0c0-0.5523 0.4477-1 1-1z" stroke="#000" stroke-linecap="round" stroke-linejoin="round" stroke-opacity=".5" stroke-width=".5"/>
<path d="m741 342.5h3c0.5523 0 1 0.4477 1 1s-0.4477 1-1 1h-3c-0.5523 0-1-0.4477-1-1s0.4477-1 1-1z" fill="#fff"/>
<path d="m741 342.5h3c0.5523 0 1 0.4477 1 1v0c0 0.5523-0.4477 1-1 1h-3c-0.5523 0-1-0.4477-1-1v0c0-0.5523 0.4477-1 1-1z" stroke="#000" stroke-linecap="round" stroke-linejoin="round" stroke-opacity=".5" stroke-width=".5"/>
</g>
</g>
<g>
<title>Listen</title>
<g>
<title>L</title>
<path d="m357.5 440s5 0 5-5c0 0 0-5-5-5h-40v-235s0-5-5-5c0 0-5 0-5 5v235s0 10 10 10z" fill="#fdf6f7"/>
<path d="m357.5 440s5 0 5-5c0 0 0-5-5-5h-40v-235s0-5-5-5c0 0-5 0-5 5v235s0 10 10 10z" stroke="#1d1d1d" stroke-linecap="round" stroke-linejoin="round" stroke-width="2"/>
<path d="m318.5 433h38c0.5523 0 1 0.4477 1 1s-0.4477 1-1 1h-38c-0.5523 0-1-0.4477-1-1s0.4477-1 1-1z" fill="#fff"/>
<path d="m318.5 433h38c0.5523 0 1 0.4477 1 1v0c0 0.5523-0.4477 1-1 1h-38c-0.5523 0-1-0.4477-1-1v0c0-0.5523 0.4477-1 1-1z" stroke="#000" stroke-linecap="round" stroke-linejoin="round" stroke-opacity=".5" stroke-width=".5"/>
</g>
<g>
<title>S</title>
<path d="m367.5 440s-5 0-5-5 5-5 5-5h50v-40h-20s-10-2-10-10v-30s0-10 10-10h45s5 0 5 5c0 0 0 5-5 5h-45v30h20c10 0 10 10 10 10v40s0 10-10 10h-50z" fill="#fdf6f7"/>
<path d="m367.5 440s-5 0-5-5 5-5 5-5h50v-40h-20s-10-2-10-10v-30s0-10 10-10h45s5 0 5 5c0 0 0 5-5 5h-45v30h20c10 0 10 10 10 10v40s0 10-10 10h-50z" stroke="#1d1d1d" stroke-linecap="square" stroke-width="2"/>
<path d="m398.5 383h18c0.5523 0 1 0.4477 1 1s-0.4477 1-1 1h-18c-0.5523 0-1-0.4477-1-1s0.4477-1 1-1z" fill="#fff"/>
<path d="m398.5 383h18c0.5523 0 1 0.4477 1 1v0c0 0.5523-0.4477 1-1 1h-18c-0.5523 0-1-0.4477-1-1v0c0-0.5523 0.4477-1 1-1z" stroke="#000" stroke-linecap="round" stroke-linejoin="round" stroke-opacity=".5" stroke-width=".5"/>
<path d="m398.5 342.5h63c0.5523 0 1 0.4477 1 1s-0.4477 1-1 1h-63c-0.5523 0-1-0.4477-1-1s0.4477-1 1-1z" fill="#fff"/>
<path d="m398.5 342.5h63c0.5523 0 1 0.4477 1 1v0c0 0.5523-0.4477 1-1 1h-63c-0.5523 0-1-0.4477-1-1v0c0-0.5523 0.4477-1 1-1z" stroke="#000" stroke-linecap="round" stroke-linejoin="round" stroke-opacity=".5" stroke-width=".5"/>
<path d="m368.5 432.5h48c0.5523 0 1 0.4477 1 1s-0.4477 1-1 1h-48c-0.5523 0-1-0.4477-1-1s0.4477-1 1-1z" fill="#fff"/>
<path d="m368.5 432.5h48c0.5523 0 1 0.4477 1 1v0c0 0.5523-0.4477 1-1 1h-48c-0.5523 0-1-0.4477-1-1v0c0-0.5523 0.4477-1 1-1z" stroke="#000" stroke-linecap="round" stroke-linejoin="round" stroke-opacity=".5" stroke-width=".5"/>
</g>
<g>
<title>EN</title>
<path d="m582.5 440c1.5842 0 2.6664-0.5019 3.4058-1.1877 0.13604-0.1349 0.27474-0.2644 0.40664-0.40663 0.6857-0.73937 1.1876-1.8216 1.1876-3.4057v-85h10v80s0 10 10 10h10s10 0 10-10v-85s0-5-5-5c0 0-5 0-5 5v85h-10v-80s0-10-10-10h-10s-10 0-10 10v80h-50v-30h30c10 0 10-10 10-10 0-10-10-10-10-10h-30v-20h30c10 0 10-10 10-10 0-10-10-10-10-10h-55c-5 0-5 5-5 5 0 5 5 5 5 5h55-30c-10 0-10 10-10 10v20c0 9.9999 9.9998 10 10 10-10 0-10 10-10 10v30c0 10 10 10 10 10zm-55-50h30z" fill="#fdf6f7"/>
<path d="m582.5 440c1.5842 0 2.6664-0.5019 3.4058-1.1877 0.13604-0.1349 0.27474-0.2644 0.40664-0.40663 0.6857-0.73937 1.1876-1.8216 1.1876-3.4057v0-85h10v80s0 10 10 10h10s10 0 10-10v-85s0-5-5-5c0 0-5 0-5 5v85h-10v-80s0-10-10-10h-10s-10 0-10 10v80h-50v-30h30c10 0 10-10 10-10 0-10-10-10-10-10h-30v-20h30c10 0 10-10 10-10 0-10-10-10-10-10h-55c-5 0-5 5-5 5 0 5 5 5 5 5h55-30c-10 0-10 10-10 10v20c0 9.9999 9.9998 10 10 10-10 0-10 10-10 10v30c0 10 10 10 10 10zm-55-50h30z" stroke="#1d1d1d" stroke-linecap="round" stroke-linejoin="round" stroke-width="2"/>
<path d="m528.5 353h28c0.5523 0 1 0.4477 1 1s-0.4477 1-1 1h-28c-0.5523 0-1-0.4477-1-1s0.4477-1 1-1z" fill="#fff"/>
<path d="m528.5 353h28c0.5523 0 1 0.4477 1 1v0c0 0.5523-0.4477 1-1 1h-28c-0.5523 0-1-0.4477-1-1v0c0-0.5523 0.4477-1 1-1z" stroke="#000" stroke-linecap="round" stroke-linejoin="round" stroke-opacity=".5" stroke-width=".5"/>
<path d="m528.5 382.5h28c0.5523 0 1 0.4477 1 1s-0.4477 1-1 1h-28c-0.5523 0-1-0.4477-1-1s0.4477-1 1-1z" fill="#fff"/>
<path d="m528.5 382.5h28c0.5523 0 1 0.4477 1 1v0c0 0.5523-0.4477 1-1 1h-28c-0.5523 0-1-0.4477-1-1v0c0-0.5523 0.4477-1 1-1z" stroke="#000" stroke-linecap="round" stroke-linejoin="round" stroke-opacity=".5" stroke-width=".5"/>
<path d="m528.5 392.5h28c0.5523 0 1 0.4477 1 1s-0.4477 1-1 1h-28c-0.5523 0-1-0.4477-1-1s0.4477-1 1-1z" fill="#fff"/>
<path d="m528.5 392.5h28c0.5523 0 1 0.4477 1 1v0c0 0.5523-0.4477 1-1 1h-28c-0.5523 0-1-0.4477-1-1v0c0-0.5523 0.4477-1 1-1z" stroke="#000" stroke-linecap="round" stroke-linejoin="round" stroke-opacity=".5" stroke-width=".5"/>
<path d="m528.5 432.5h48c0.5523 0 1 0.4477 1 1s-0.4477 1-1 1h-48c-0.5523 0-1-0.4477-1-1s0.4477-1 1-1z" fill="#fff"/>
<path d="m528.5 432.5h48c0.5523 0 1 0.4477 1 1v0c0 0.5523-0.4477 1-1 1h-48c-0.5523 0-1-0.4477-1-1v0c0-0.5523 0.4477-1 1-1z" stroke="#000" stroke-linecap="round" stroke-linejoin="round" stroke-opacity=".5" stroke-width=".5"/>
<path d="m608.5 432.5h8c0.5523 0 1 0.4477 1 1s-0.4477 1-1 1h-8c-0.5523 0-1-0.4477-1-1s0.4477-1 1-1z" fill="#fff"/>
<path d="m608.5 432.5h8c0.5523 0 1 0.4477 1 1v0c0 0.5523-0.4477 1-1 1h-8c-0.5523 0-1-0.4477-1-1v0c0-0.5523 0.4477-1 1-1z" stroke="#000" stroke-linecap="round" stroke-linejoin="round" stroke-opacity=".5" stroke-width=".5"/>
<path d="m588.5 342.5h8c0.5523 0 1 0.4477 1 1s-0.4477 1-1 1h-8c-0.5523 0-1-0.4477-1-1s0.4477-1 1-1z" fill="#fff"/>
<path d="m588.5 342.5h8c0.5523 0 1 0.4477 1 1v0c0 0.5523-0.4477 1-1 1h-8c-0.5523 0-1-0.4477-1-1v0c0-0.5523 0.4477-1 1-1z" stroke="#000" stroke-linecap="round" stroke-linejoin="round" stroke-opacity=".5" stroke-width=".5"/>
<path d="m623.5 342.5h0.5c0.5523 0 1 0.4477 1 1s-0.4477 1-1 1h-0.5c-0.5523 0-1-0.4477-1-1s0.4477-1 1-1z" fill="#fff"/>
<path d="m623.5 342.5h0.5c0.5523 0 1 0.4477 1 1v0c0 0.5523-0.4477 1-1 1h-0.5c-0.5523 0-1-0.4477-1-1v0c0-0.5523 0.4477-1 1-1z" stroke="#000" stroke-linecap="round" stroke-linejoin="round" stroke-opacity=".5" stroke-width=".5"/>
<path d="m501 342.5h55.5c0.5523 0 1 0.4477 1 1s-0.4477 1-1 1h-55.5c-0.5523 0-1-0.4477-1-1s0.4477-1 1-1z" fill="#fff"/>
<path d="m501 342.5h55.5c0.5523 0 1 0.4477 1 1v0c0 0.5523-0.4477 1-1 1h-55.5c-0.5523 0-1-0.4477-1-1v0c0-0.5523 0.4477-1 1-1z" stroke="#000" stroke-linecap="round" stroke-linejoin="round" stroke-opacity=".5" stroke-width=".5"/>
</g>
<g>
<title>T</title>
<path d="m482.5 340h20s5 0 5 5c0 0 0 5-5 5h-20v80s0 10-10 10c0 0-10 0-10-10v-80h-20s-5 0-5-5c0 0 0-5 5-5h20s10 0 10 10v80-80s0-10 10-10z" fill="#fdf6f7"/>
<path d="m482.5 340h20s5 0 5 5c0 0 0 5-5 5h-20v80s0 10-10 10c0 0-10 0-10-10v-80h-20s-5 0-5-5c0 0 0-5 5-5h20s10 0 10 10v80-80s0-10 10-10z" stroke="#1d1d1d" stroke-linecap="round" stroke-linejoin="round" stroke-width="2"/>
<path d="m443.5 342.5h18c0.5523 0 1 0.4477 1 1s-0.4477 1-1 1h-18c-0.5523 0-1-0.4477-1-1s0.4477-1 1-1z" fill="#fff"/>
<path d="m443.5 342.5h18c0.5523 0 1 0.4477 1 1v0c0 0.5523-0.4477 1-1 1h-18c-0.5523 0-1-0.4477-1-1v0c0-0.5523 0.4477-1 1-1z" stroke="#000" stroke-linecap="round" stroke-linejoin="round" stroke-opacity=".5" stroke-width=".5"/>
<path d="m483.5 342.5h18c0.5523 0 1 0.4477 1 1s-0.4477 1-1 1h-18c-0.5523 0-1-0.4477-1-1s0.4477-1 1-1z" fill="#fff"/>
<path d="m483.5 342.5h18c0.5523 0 1 0.4477 1 1v0c0 0.5523-0.4477 1-1 1h-18c-0.5523 0-1-0.4477-1-1v0c0-0.5523 0.4477-1 1-1z" stroke="#000" stroke-linecap="round" stroke-linejoin="round" stroke-opacity=".5" stroke-width=".5"/>
</g>
<g>
<title>I</title>
<path d="m357.5 440s-5 0-5-5v-85s0-10 10-10c0 0 10 0 10 10v85s0 5-5 5c0 0-5 0-5-5v-85 85s0 5-5 5z" fill="#fdf6f7"/>
<path d="m357.5 440s-5 0-5-5v-85s0-10 10-10c0 0 10 0 10 10v85s0 5-5 5c0 0-5 0-5-5v-85 85s0 5-5 5z" stroke="#1d1d1d" stroke-linecap="round" stroke-linejoin="round" stroke-width="2"/>
<path d="m361 343h3c0.5523 0 1 0.4477 1 1s-0.4477 1-1 1h-3c-0.5523 0-1-0.4477-1-1s0.4477-1 1-1z" fill="#fff"/>
<path d="m361 343h3c0.5523 0 1 0.4477 1 1v0c0 0.5523-0.4477 1-1 1h-3c-0.5523 0-1-0.4477-1-1v0c0-0.5523 0.4477-1 1-1z" stroke="#000" stroke-linecap="round" stroke-linejoin="round" stroke-opacity=".5" stroke-width=".5"/>
</g>
</g>
<g>
<title>Should</title>
<g>
<title>H</title>
<path d="m427.5 195v90s0 5 5 5c0 0 5 0 5-5v-45h20v45s0 5 5 5c0 0 5 0 5-5v-45s0-10-10-10c0 0 10 0 10 10v-15 0-25h25s5 0 5-5c0 0 0-5-5-5h-30s-5 0-5 5v30 5h-20v10-45s0-5-5-5c0 0-5 0-5 5z" fill="#fdf6f7"/>
<path d="m427.5 195v90s0 5 5 5c0 0 5 0 5-5v-45h20v45s0 5 5 5c0 0 5 0 5-5v-45s0-10-10-10c0 0 10 0 10 10v-15 0-25h25s5 0 5-5c0 0 0-5-5-5h-30s-5 0-5 5v30 5h-20v10-45s0-5-5-5c0 0-5 0-5 5z" stroke="#1d1d1d" stroke-linecap="round" stroke-linejoin="round" stroke-width="2"/>
<path d="m441 233h15.5c0.5523 0 1 0.44772 1 1s-0.4477 1-1 1h-15.5c-0.5523 0-1-0.44772-1-1s0.4477-1 1-1z" fill="#fff"/>
<path d="m441 233h15.5c0.5523 0 1 0.44772 1 1v0c0 0.55228-0.4477 1-1 1h-15.5c-0.5523 0-1-0.44772-1-1v0c0-0.55228 0.4477-1 1-1z" stroke="#000" stroke-linecap="round" stroke-linejoin="round" stroke-opacity=".5" stroke-width=".5"/>
<path d="m468.5 192.5h23c0.5523 0 1 0.44772 1 1s-0.4477 1-1 1h-23c-0.5523 0-1-0.44772-1-1s0.4477-1 1-1z" fill="#fff"/>
<path d="m468.5 192.5h23c0.5523 0 1 0.44772 1 1v0c0 0.55228-0.4477 1-1 1h-23c-0.5523 0-1-0.44772-1-1v0c0-0.55228 0.4477-1 1-1z" stroke="#000" stroke-linecap="round" stroke-linejoin="round" stroke-opacity=".5" stroke-width=".5"/>
</g>
<g>
<title>S</title>
<path d="m357.5 290s-5 0-5-5 5-5 5-5h50v-40h-20s-10-2-10-10v-30s0-10 10-10h45s5 0 5 5c0 0 0 5-5 5h-45v30h20c10 0 10 10 10 10v40s0 10-10 10h-50z" fill="#fdf6f7"/>
<path d="m357.5 290s-5 0-5-5 5-5 5-5h50v-40h-20s-10-2-10-10v-30s0-10 10-10h45s5 0 5 5c0 0 0 5-5 5h-45v30h20c10 0 10 10 10 10v40s0 10-10 10h-50z" stroke="#1d1d1d" stroke-linecap="square" stroke-width="2"/>
<path d="m388.5 193h43c0.5523 0 1 0.44772 1 1s-0.4477 1-1 1h-43c-0.5523 0-1-0.44772-1-1s0.4477-1 1-1z" fill="#fff"/>
<path d="m388.5 193h43c0.5523 0 1 0.44772 1 1v0c0 0.55228-0.4477 1-1 1h-43c-0.5523 0-1-0.44772-1-1v0c0-0.55228 0.4477-1 1-1z" stroke="#000" stroke-linecap="round" stroke-linejoin="round" stroke-opacity=".5" stroke-width=".5"/>
<path d="m358.5 283h48c0.5523 0 1 0.4477 1 1s-0.4477 1-1 1h-48c-0.5523 0-1-0.4477-1-1s0.4477-1 1-1z" fill="#fff"/>
<path d="m358.5 283h48c0.5523 0 1 0.4477 1 1v0c0 0.5523-0.4477 1-1 1h-48c-0.5523 0-1-0.4477-1-1v0c0-0.5523 0.4477-1 1-1z" stroke="#000" stroke-linecap="round" stroke-linejoin="round" stroke-opacity=".5" stroke-width=".5"/>
<path d="m388.5 233h18c0.5523 0 1 0.44772 1 1s-0.4477 1-1 1h-18c-0.5523 0-1-0.44772-1-1s0.4477-1 1-1z" fill="#fff"/>
<path d="m388.5 233h18c0.5523 0 1 0.44772 1 1v0c0 0.55228-0.4477 1-1 1h-18c-0.5523 0-1-0.44772-1-1v0c0-0.55228 0.4477-1 1-1z" stroke="#000" stroke-linecap="round" stroke-linejoin="round" stroke-opacity=".5" stroke-width=".5"/>
</g>
<g>
<title>O</title>
<path d="m492.5 190s5 0 5 5c0 0 0 5-5 5 0 0-5 0-5 10v60s0 10 10 10c0 0 10 0 10-10v-60s0-10-5-10c0 0-5 0-5-5 0 0 0-5 5-5 0 0 15 0 15 20v60s0 20-20 20c0 0-20 0-20-20v-60s0-20 15-20z" fill="#fdf6f7"/>
<path d="m492.5 190s5 0 5 5c0 0 0 5-5 5 0 0-5 0-5 10v60s0 10 10 10c0 0 10 0 10-10v-60s0-10-5-10c0 0-5 0-5-5 0 0 0-5 5-5 0 0 15 0 15 20v60s0 20-20 20c0 0-20 0-20-20v-60s0-20 15-20z" stroke="#1d1d1d" stroke-linecap="round" stroke-linejoin="round" stroke-width="2"/>
<path d="m501 192.5h3c0.5523 0 1 0.44772 1 1s-0.4477 1-1 1h-3c-0.5523 0-1-0.44772-1-1s0.4477-1 1-1z" fill="#fff"/>
<path d="m501 192.5h3c0.5523 0 1 0.44772 1 1v0c0 0.55228-0.4477 1-1 1h-3c-0.5523 0-1-0.44772-1-1v0c0-0.55228 0.4477-1 1-1z" stroke="#000" stroke-linecap="round" stroke-linejoin="round" stroke-opacity=".5" stroke-width=".5"/>
<path d="m491 192.5h3c0.5523 0 1 0.44772 1 1s-0.4477 1-1 1h-3c-0.5523 0-1-0.44772-1-1s0.4477-1 1-1z" fill="#fff"/>
<path d="m491 192.5h3c0.5523 0 1 0.44772 1 1v0c0 0.55228-0.4477 1-1 1h-3c-0.5523 0-1-0.44772-1-1v0c0-0.55228 0.4477-1 1-1z" stroke="#000" stroke-linecap="round" stroke-linejoin="round" stroke-opacity=".5" stroke-width=".5"/>
</g>
<g>
<title>L</title>
<path d="m587.5 290s-10 0-10-10v-80h-15s-5 0-5-5c0 0 0-5 5-5h15s10 0 10 10v80h40s5 0 5 5c0 0 0 5-5 5z" fill="#fdf6f7"/>
<path d="m587.5 290s-10 0-10-10v-80h-15s-5 0-5-5c0 0 0-5 5-5h15s10 0 10 10v80h40s5 0 5 5c0 0 0 5-5 5z" stroke="#1d1d1d" stroke-linecap="square" stroke-width="2"/>
<path d="m568.5 192.5h8c0.5523 0 1 0.44772 1 1s-0.4477 1-1 1h-8c-0.5523 0-1-0.44772-1-1s0.4477-1 1-1z" fill="#fff"/>
<path d="m568.5 192.5h8c0.5523 0 1 0.44772 1 1v0c0 0.55228-0.4477 1-1 1h-8c-0.5523 0-1-0.44772-1-1v0c0-0.55228 0.4477-1 1-1z" stroke="#000" stroke-linecap="round" stroke-linejoin="round" stroke-opacity=".5" stroke-width=".5"/>
<path d="m588.5 282.5h30.5c0.5523 0 1 0.4477 1 1s-0.4477 1-1 1h-30.5c-0.5523 0-1-0.4477-1-1s0.4477-1 1-1z" fill="#fff"/>
<path d="m588.5 282.5h30.5c0.5523 0 1 0.4477 1 1v0c0 0.5523-0.4477 1-1 1h-30.5c-0.5523 0-1-0.4477-1-1v0c0-0.5523 0.4477-1 1-1z" stroke="#000" stroke-linecap="round" stroke-linejoin="round" stroke-opacity=".5" stroke-width=".5"/>
</g>
<g>
<title>D</title>
<path d="m632.5 275s0 5-5 5c0 0-5 0-5-5v-85h20s20 0 20 20v60s0 20-20 20h-15s-5 0-5-5c0 0 0-5 5-5h15s10 0 10-10v-60s0-10-10-10h-10z" fill="#fdf6f7"/>
<path d="m632.5 275s0 5-5 5c0 0-5 0-5-5v-85h20s20 0 20 20v60s0 20-20 20h-15s-5 0-5-5c0 0 0-5 5-5h15s10 0 10-10v-60s0-10-10-10h-10z" stroke="#1d1d1d" stroke-linecap="round" stroke-linejoin="round" stroke-width="2"/>
<path d="m628.5 282.5h15.5c0.5523 0 1 0.4477 1 1s-0.4477 1-1 1h-15.5c-0.5523 0-1-0.4477-1-1s0.4477-1 1-1z" fill="#fff"/>
<path d="m628.5 282.5h15.5c0.5523 0 1 0.4477 1 1v0c0 0.5523-0.4477 1-1 1h-15.5c-0.5523 0-1-0.4477-1-1v0c0-0.5523 0.4477-1 1-1z" stroke="#000" stroke-linecap="round" stroke-linejoin="round" stroke-opacity=".5" stroke-width=".5"/>
<path d="m633.5 192.5h10.5c0.5523 0 1 0.44772 1 1s-0.4477 1-1 1h-10.5c-0.5523 0-1-0.44772-1-1s0.4477-1 1-1z" fill="#fff"/>
<path d="m633.5 192.5h10.5c0.5523 0 1 0.44772 1 1v0c0 0.55228-0.4477 1-1 1h-10.5c-0.5523 0-1-0.44772-1-1v0c0-0.55228 0.4477-1 1-1z" stroke="#000" stroke-linecap="round" stroke-linejoin="round" stroke-opacity=".5" stroke-width=".5"/>
</g>
<g>
<title>U</title>
<path d="m527.5 190s10 0 10 10v70c0 10 10 10 10 10s10 0 10-10v-75s0-5 5-5c0 0 5 0 5 5v75c0 20-20 20-20 20s-20 0-20-20v-70h-25s-5 0-5-5c0 0 0-5 5-5z" fill="#fdf6f7"/>
<path d="m527.5 190s10 0 10 10v70c0 10 10 10 10 10s10 0 10-10v-75s0-5 5-5c0 0 5 0 5 5v75c0 20-20 20-20 20s-20 0-20-20v-70h-25s-5 0-5-5c0 0 0-5 5-5z" stroke="#1d1d1d" stroke-linecap="square" stroke-width="2"/>
<path d="m563.5 192.5h0.5c0.5523 0 1 0.44772 1 1s-0.4477 1-1 1h-0.5c-0.5523 0-1-0.44772-1-1s0.4477-1 1-1z" fill="#fff"/>
<path d="m563.5 192.5h0.5c0.5523 0 1 0.44772 1 1v0c0 0.55228-0.4477 1-1 1h-0.5c-0.5523 0-1-0.44772-1-1v0c0-0.55228 0.4477-1 1-1z" stroke="#000" stroke-linecap="round" stroke-linejoin="round" stroke-opacity=".5" stroke-width=".5"/>
<path d="m546 282.5h3c0.5523 0 1 0.4477 1 1s-0.4477 1-1 1h-3c-0.5523 0-1-0.4477-1-1s0.4477-1 1-1z" fill="#fff"/>
<path d="m546 282.5h3c0.5523 0 1 0.4477 1 1v0c0 0.5523-0.4477 1-1 1h-3c-0.5523 0-1-0.4477-1-1v0c0-0.5523 0.4477-1 1-1z" stroke="#000" stroke-linecap="round" stroke-linejoin="round" stroke-opacity=".5" stroke-width=".5"/>
<path d="m503.5 192.5h23c0.5523 0 1 0.44772 1 1s-0.4477 1-1 1h-23c-0.5523 0-1-0.44772-1-1s0.4477-1 1-1z" fill="#fff"/>
<path d="m503.5 192.5h23c0.5523 0 1 0.44772 1 1v0c0 0.55228-0.4477 1-1 1h-23c-0.5523 0-1-0.44772-1-1v0c0-0.55228 0.4477-1 1-1z" stroke="#000" stroke-linecap="round" stroke-linejoin="round" stroke-opacity=".5" stroke-width=".5"/>
</g>
</g>
<g>
<title>You</title>
<g>
<title>Y</title>
<path d="m167.5 195s0-5 5-5c0 0 5 0 5 5v45h20v-40s0-10 10-10c0 0 10 0 10 10v70s0 10-10 10h-30 70l5 5-5 5h-70s-10 0-10-10c0 0 0-10 10-10h30v-70 40s0 10-10 10h-20s-10 0-10-10z" fill="#fdf6f7"/>
<path d="m167.5 195s0-5 5-5c0 0 5 0 5 5v45h20v-40s0-10 10-10c0 0 10 0 10 10v70s0 10-10 10h-30 70l5 5-5 5h-70s-10 0-10-10c0 0 0-10 10-10h30v-70 40s0 10-10 10h-20s-10 0-10-10z" stroke="#1d1d1d" stroke-linecap="round" stroke-linejoin="round" stroke-width="2"/>
<path d="m178.5 242.5h18c0.55228 0 1 0.44772 1 1s-0.44772 1-1 1h-18c-0.55228 0-1-0.44772-1-1s0.44772-1 1-1z" fill="#fff"/>
<path d="m178.5 242.5h18c0.55228 0 1 0.44772 1 1v0c0 0.55228-0.44772 1-1 1h-18c-0.55228 0-1-0.44772-1-1v0c0-0.55228 0.44772-1 1-1z" stroke="#000" stroke-linecap="round" stroke-linejoin="round" stroke-opacity=".5" stroke-width=".5"/>
<path d="m178.5 272.5h28c0.55228 0 1 0.4477 1 1s-0.44772 1-1 1h-28c-0.55228 0-1-0.4477-1-1s0.44772-1 1-1z" fill="#fff"/>
<path d="m178.5 272.5h28c0.55228 0 1 0.4477 1 1v0c0 0.5523-0.44772 1-1 1h-28c-0.55228 0-1-0.4477-1-1v0c0-0.5523 0.44772-1 1-1z" stroke="#000" stroke-linecap="round" stroke-linejoin="round" stroke-opacity=".5" stroke-width=".5"/>
<path d="m178.5 282.5h53c0.55228 0 1 0.4477 1 1s-0.44772 1-1 1h-53c-0.55228 0-1-0.4477-1-1s0.44772-1 1-1z" fill="#fff"/>
<path d="m178.5 282.5h53c0.55228 0 1 0.4477 1 1v0c0 0.5523-0.44772 1-1 1h-53c-0.55228 0-1-0.4477-1-1v0c0-0.5523 0.44772-1 1-1z" stroke="#000" stroke-linecap="round" stroke-linejoin="round" stroke-opacity=".5" stroke-width=".5"/>
<path d="m173.5 192.5h0.5c0.55228 0 1 0.44772 1 1s-0.44772 1-1 1h-0.5c-0.55228 0-1-0.44772-1-1s0.44772-1 1-1z" fill="#fff"/>
<path d="m173.5 192.5h0.5c0.55228 0 1 0.44772 1 1v0c0 0.55228-0.44772 1-1 1h-0.5c-0.55228 0-1-0.44772-1-1v0c0-0.55228 0.44772-1 1-1z" stroke="#000" stroke-linecap="round" stroke-linejoin="round" stroke-opacity=".5" stroke-width=".5"/>
<path d="m206 192.5h3c0.55228 0 1 0.44772 1 1s-0.44772 1-1 1h-3c-0.55228 0-1-0.44772-1-1s0.44772-1 1-1z" fill="#fff"/>
<path d="m206 192.5h3c0.55228 0 1 0.44772 1 1v0c0 0.55228-0.44772 1-1 1h-3c-0.55228 0-1-0.44772-1-1v0c0-0.55228 0.44772-1 1-1z" stroke="#000" stroke-linecap="round" stroke-linejoin="round" stroke-opacity=".5" stroke-width=".5"/>
</g>
<g>
<title>U</title>
<path d="m277.5 190s10 0 10 10v70c0 10 10 10 10 10s10 0 10-10v-75s0-5 5-5c0 0 5 0 5 5v75c0 20-20 20-20 20s-20 0-20-20v-70h-25s-5 0-5-5c0 0 0-5 5-5z" fill="#fdf6f7"/>
<path d="m277.5 190s10 0 10 10v70c0 10 10 10 10 10s10 0 10-10v-75s0-5 5-5c0 0 5 0 5 5v75c0 20-20 20-20 20s-20 0-20-20v-70h-25s-5 0-5-5c0 0 0-5 5-5z" stroke="#1d1d1d" stroke-linecap="square" stroke-width="2"/>
<path d="m258.5 193h18c0.5523 0 1 0.44772 1 1s-0.4477 1-1 1h-18c-0.5523 0-1-0.44772-1-1s0.4477-1 1-1z" fill="#fff"/>
<path d="m258.5 193h18c0.5523 0 1 0.44772 1 1v0c0 0.55228-0.4477 1-1 1h-18c-0.5523 0-1-0.44772-1-1v0c0-0.55228 0.4477-1 1-1z" stroke="#000" stroke-linecap="round" stroke-linejoin="round" stroke-opacity=".5" stroke-width=".5"/>
<path d="m313.5 193h0.5c0.5523 0 1 0.44772 1 1s-0.4477 1-1 1h-0.5c-0.5523 0-1-0.44772-1-1s0.4477-1 1-1z" fill="#fff"/>
<path d="m313.5 193h0.5c0.5523 0 1 0.44772 1 1v0c0 0.55228-0.4477 1-1 1h-0.5c-0.5523 0-1-0.44772-1-1v0c0-0.55228 0.4477-1 1-1z" stroke="#000" stroke-linecap="round" stroke-linejoin="round" stroke-opacity=".5" stroke-width=".5"/>
<path d="m296 282.5h3c0.5523 0 1 0.4477 1 1s-0.4477 1-1 1h-3c-0.5523 0-1-0.4477-1-1s0.4477-1 1-1z" fill="#fff"/>
<path d="m296 282.5h3c0.5523 0 1 0.4477 1 1v0c0 0.5523-0.4477 1-1 1h-3c-0.5523 0-1-0.4477-1-1v0c0-0.5523 0.4477-1 1-1z" stroke="#000" stroke-linecap="round" stroke-linejoin="round" stroke-opacity=".5" stroke-width=".5"/>
</g>
<g>
<title>O</title>
<path d="m242.5 190s5 0 5 5c0 0 0 5-5 5 0 0-5 0-5 10v60s0 10 10 10c0 0 10 0 10-10v-60s0-10-5-10c0 0-5 0-5-5 0 0 0-5 5-5 0 0 15 0 15 20v60s0 20-20 20c0 0-20 0-20-20v-60s0-20 15-20z" fill="#fdf6f7"/>
<path d="m242.5 190s5 0 5 5c0 0 0 5-5 5 0 0-5 0-5 10v60s0 10 10 10c0 0 10 0 10-10v-60s0-10-5-10c0 0-5 0-5-5 0 0 0-5 5-5 0 0 15 0 15 20v60s0 20-20 20c0 0-20 0-20-20v-60s0-20 15-20z" stroke="#1d1d1d" stroke-linecap="round" stroke-linejoin="round" stroke-width="2"/>
<path d="m251 193h3c0.55228 0 1 0.44772 1 1s-0.44772 1-1 1h-3c-0.55228 0-1-0.44772-1-1s0.44772-1 1-1z" fill="#fff"/>
<path d="m251 193h3c0.55228 0 1 0.44772 1 1v0c0 0.55228-0.44772 1-1 1h-3c-0.55228 0-1-0.44772-1-1v0c0-0.55228 0.44772-1 1-1z" stroke="#000" stroke-linecap="round" stroke-linejoin="round" stroke-opacity=".5" stroke-width=".5"/>
<path d="m241 193h3c0.55228 0 1 0.44772 1 1s-0.44772 1-1 1h-3c-0.55228 0-1-0.44772-1-1s0.44772-1 1-1z" fill="#fff"/>
<path d="m241 193h3c0.55228 0 1 0.44772 1 1v0c0 0.55228-0.44772 1-1 1h-3c-0.55228 0-1-0.44772-1-1v0c0-0.55228 0.44772-1 1-1z" stroke="#000" stroke-linecap="round" stroke-linejoin="round" stroke-opacity=".5" stroke-width=".5"/>
<path d="m246 282.5h3c0.55228 0 1 0.4477 1 1s-0.44772 1-1 1h-3c-0.55228 0-1-0.4477-1-1s0.44772-1 1-1z" fill="#fff"/>
<path d="m246 282.5h3c0.55228 0 1 0.4477 1 1v0c0 0.5523-0.44772 1-1 1h-3c-0.55228 0-1-0.4477-1-1v0c0-0.5523 0.44772-1 1-1z" stroke="#000" stroke-linecap="round" stroke-linejoin="round" stroke-opacity=".5" stroke-width=".5"/>
</g>
</g>
</g>
</svg>
