<?xml version="1.0" encoding="UTF-8" standalone="no"?>
<!DOCTYPE svg PUBLIC "-//W3C//DTD SVG 1.1//EN" "http://www.w3.org/Graphics/SVG/1.1/DTD/svg11.dtd">
<svg version="1.1" xmlns="http://www.w3.org/2000/svg" xmlns:xl="http://www.w3.org/1999/xlink" xmlns:dc="http://purl.org/dc/elements/1.1/" viewBox="289 189 622 252" width="622" height="252">
  <defs/>
  <metadata>Designed by John Peart\nwww.johnpe.art\n@johnpeart\n\n2021-01-02 18:51:30 +0000</metadata>
  <g id="wordmark-havetohearthis" fill-opacity="1" stroke-opacity="1" stroke-dasharray="none" stroke="none" fill="none">
    <title>You Have to Hear This</title>
    <g id="wordmark-havetohearthis_Wordmark">
      <title>Wordmark</title>
        <g id="wordmark-hear">
          <title>HEAR</title>
          <g id="Group_194">
            <title>H</title>
            <g id="Graphic_197">
              <path d="M 430 195 L 430 435 C 430 435 430 440 435 440 C 435 440 440 440 440 435 C 440 435 440 395 440 390 L 460 390 L 460 435 C 460 435 460 440 465 440 C 465 440 470 440 470 435 L 470 390 C 470 390 470 380 460 380 C 460 380 470 380 470 390 L 470 375 C 470 375 470 380 470 375 L 470 350 L 495 350 C 495 350 500 350 500 345 C 500 345 500 340 495 340 L 465 340 C 465 340 460 340 460 345 L 460 375 L 460 380 L 440 380 C 440 380 440 385 440 390 L 440 195 C 440 195 440 190 435 190 C 435 190 430 190 430 195 Z" fill="#fdf6f7"/>
              <path d="M 430 195 L 430 435 C 430 435 430 440 435 440 C 435 440 440 440 440 435 C 440 435 440 395 440 390 L 460 390 L 460 435 C 460 435 460 440 465 440 C 465 440 470 440 470 435 L 470 390 C 470 390 470 380 460 380 C 460 380 470 380 470 390 L 470 375 C 470 375 470 380 470 375 L 470 350 L 495 350 C 495 350 500 350 500 345 C 500 345 500 340 495 340 L 465 340 C 465 340 460 340 460 345 L 460 375 L 460 380 L 440 380 C 440 380 440 385 440 390 L 440 195 C 440 195 440 190 435 190 C 435 190 430 190 430 195 Z" stroke="#1d1d1d" stroke-linecap="round" stroke-linejoin="round" stroke-width="2"/>
            </g>
            <g id="Graphic_196">
              <path d="M 443.5 383 L 459 383 C 459.5523 383 460 383.4477 460 384 L 460 384 C 460 384.5523 459.5523 385 459 385 L 443.5 385 C 442.9477 385 442.5 384.5523 442.5 384 L 442.5 384 C 442.5 383.4477 442.9477 383 443.5 383 Z" fill="white"/>
              <path d="M 443.5 383 L 459 383 C 459.5523 383 460 383.4477 460 384 L 460 384 C 460 384.5523 459.5523 385 459 385 L 443.5 385 C 442.9477 385 442.5 384.5523 442.5 384 L 442.5 384 C 442.5 383.4477 442.9477 383 443.5 383 Z" stroke="black" stroke-opacity=".5" stroke-linecap="round" stroke-linejoin="round" stroke-width=".5"/>
            </g>
            <g id="Graphic_195">
              <path d="M 471 342.5 L 494 342.5 C 494.5523 342.5 495 342.9477 495 343.5 L 495 343.5 C 495 344.0523 494.5523 344.5 494 344.5 L 471 344.5 C 470.4477 344.5 470 344.0523 470 343.5 L 470 343.5 C 470 342.9477 470.4477 342.5 471 342.5 Z" fill="white"/>
              <path d="M 471 342.5 L 494 342.5 C 494.5523 342.5 495 342.9477 495 343.5 L 495 343.5 C 495 344.0523 494.5523 344.5 494 344.5 L 471 344.5 C 470.4477 344.5 470 344.0523 470 343.5 L 470 343.5 C 470 342.9477 470.4477 342.5 471 342.5 Z" stroke="black" stroke-opacity=".5" stroke-linecap="round" stroke-linejoin="round" stroke-width=".5"/>
            </g>
          </g>
          <g id="Group_252">
            <title>E</title>
            <g id="Graphic_262">
              <path d="M 465 340 C 465 340 460 340 460 345 C 460 345 460 350 465 350 L 525 350 C 525 350 485 350 495 350 C 495 350 485 350 485 360 C 485 360 485 390 485 380 C 485 380 485 390 495 390 L 525 390 C 525 390 485 390 495 390 C 495 390 485 390 485 400 C 485 400 485 440 485 430 C 485 430 485 440 495 440 C 495 440 560 440 555 440 C 555 440 560 440 560 435 C 560 435 560 430 555 430 L 495 430 L 495 400 C 495 400 535 400 525 400 C 525 400 535 400 535 390 C 535 390 535 380 525 380 L 495 380 L 495 360 C 495 360 535 360 525 360 C 525 360 535 360 535 350 C 535 350 535 340 525 340 C 525 340 460 340 465 340 Z" fill="#fdf6f7"/>
              <path d="M 465 340 C 465 340 460 340 460 345 C 460 345 460 350 465 350 L 525 350 C 525 350 485 350 495 350 C 495 350 485 350 485 360 C 485 360 485 390 485 380 C 485 380 485 390 495 390 L 525 390 C 525 390 485 390 495 390 C 495 390 485 390 485 400 C 485 400 485 440 485 430 C 485 430 485 440 495 440 C 495 440 560 440 555 440 C 555 440 560 440 560 435 C 560 435 560 430 555 430 L 495 430 L 495 400 C 495 400 535 400 525 400 C 525 400 535 400 535 390 C 535 390 535 380 525 380 L 495 380 L 495 360 C 495 360 535 360 525 360 C 525 360 535 360 535 350 C 535 350 535 340 525 340 C 525 340 460 340 465 340 Z" stroke="#1d1d1d" stroke-linecap="round" stroke-linejoin="round" stroke-width="2"/>
            </g>
            <g id="Graphic_260">
              <path d="M 496 353 L 524 353 C 524.5523 353 525 353.4477 525 354 L 525 354 C 525 354.5523 524.5523 355 524 355 L 496 355 C 495.4477 355 495 354.5523 495 354 L 495 354 C 495 353.4477 495.4477 353 496 353 Z" fill="white"/>
              <path d="M 496 353 L 524 353 C 524.5523 353 525 353.4477 525 354 L 525 354 C 525 354.5523 524.5523 355 524 355 L 496 355 C 495.4477 355 495 354.5523 495 354 L 495 354 C 495 353.4477 495.4477 353 496 353 Z" stroke="black" stroke-opacity=".5" stroke-linecap="round" stroke-linejoin="round" stroke-width=".5"/>
            </g>
            <g id="Graphic_259">
              <path d="M 496 382.5 L 524 382.5 C 524.5523 382.5 525 382.9477 525 383.5 L 525 383.5 C 525 384.0523 524.5523 384.5 524 384.5 L 496 384.5 C 495.4477 384.5 495 384.0523 495 383.5 L 495 383.5 C 495 382.9477 495.4477 382.5 496 382.5 Z" fill="white"/>
              <path d="M 496 382.5 L 524 382.5 C 524.5523 382.5 525 382.9477 525 383.5 L 525 383.5 C 525 384.0523 524.5523 384.5 524 384.5 L 496 384.5 C 495.4477 384.5 495 384.0523 495 383.5 L 495 383.5 C 495 382.9477 495.4477 382.5 496 382.5 Z" stroke="black" stroke-opacity=".5" stroke-linecap="round" stroke-linejoin="round" stroke-width=".5"/>
            </g>
            <g id="Graphic_258">
              <path d="M 496 392.5 L 524 392.5 C 524.5523 392.5 525 392.9477 525 393.5 L 525 393.5 C 525 394.0523 524.5523 394.5 524 394.5 L 496 394.5 C 495.4477 394.5 495 394.0523 495 393.5 L 495 393.5 C 495 392.9477 495.4477 392.5 496 392.5 Z" fill="white"/>
              <path d="M 496 392.5 L 524 392.5 C 524.5523 392.5 525 392.9477 525 393.5 L 525 393.5 C 525 394.0523 524.5523 394.5 524 394.5 L 496 394.5 C 495.4477 394.5 495 394.0523 495 393.5 L 495 393.5 C 495 392.9477 495.4477 392.5 496 392.5 Z" stroke="black" stroke-opacity=".5" stroke-linecap="round" stroke-linejoin="round" stroke-width=".5"/>
            </g>
            <g id="Graphic_257">
              <path d="M 496 432.5 L 549 432.5 C 549.5523 432.5 550 432.9477 550 433.5 L 550 433.5 C 550 434.0523 549.5523 434.5 549 434.5 L 496 434.5 C 495.4477 434.5 495 434.0523 495 433.5 L 495 433.5 C 495 432.9477 495.4477 432.5 496 432.5 Z" fill="white"/>
              <path d="M 496 432.5 L 549 432.5 C 549.5523 432.5 550 432.9477 550 433.5 L 550 433.5 C 550 434.0523 549.5523 434.5 549 434.5 L 496 434.5 C 495.4477 434.5 495 434.0523 495 433.5 L 495 433.5 C 495 432.9477 495.4477 432.5 496 432.5 Z" stroke="black" stroke-opacity=".5" stroke-linecap="round" stroke-linejoin="round" stroke-width=".5"/>
            </g>
            <g id="Graphic_253">
              <path d="M 468.5 342.5 L 524 342.5 C 524.5523 342.5 525 342.9477 525 343.5 L 525 343.5 C 525 344.0523 524.5523 344.5 524 344.5 L 468.5 344.5 C 467.9477 344.5 467.5 344.0523 467.5 343.5 L 467.5 343.5 C 467.5 342.9477 467.9477 342.5 468.5 342.5 Z" fill="white"/>
              <path d="M 468.5 342.5 L 524 342.5 C 524.5523 342.5 525 342.9477 525 343.5 L 525 343.5 C 525 344.0523 524.5523 344.5 524 344.5 L 468.5 344.5 C 467.9477 344.5 467.5 344.0523 467.5 343.5 L 467.5 343.5 C 467.5 342.9477 467.9477 342.5 468.5 342.5 Z" stroke="black" stroke-opacity=".5" stroke-linecap="round" stroke-linejoin="round" stroke-width=".5"/>
            </g>
          </g>
          <g id="Group_272">
            <title>R</title>
            <g id="Graphic_263">
              <path d="M 615 340 C 615 340 605 340 605 350 L 605 430 C 605 430 580 430 585 430 C 585 430 580 430 580 435 C 580 435 580 440 585 440 L 605 440 C 605 440 615 440 615 430 C 615 420 615 350 615 350 L 635 350 L 635 380 L 620 380 C 620 380 615 380 615 385 L 615 395 C 615 395 615 400 620 400 L 635 400 L 635 435 C 635 435 635 440 640 440 C 640 440 645 440 645 435 L 645 400 C 645 400 645 390 635 390 L 625 390 C 625 390 645 390 635 390 C 635 390 645 390 645 380 L 645 350 C 645 350 645 340 635 340 Z" fill="#fdf6f7"/>
              <path d="M 615 340 C 615 340 605 340 605 350 L 605 430 C 605 430 580 430 585 430 C 585 430 580 430 580 435 C 580 435 580 440 585 440 L 605 440 C 605 440 615 440 615 430 C 615 420 615 350 615 350 L 635 350 L 635 380 L 620 380 C 620 380 615 380 615 385 L 615 395 C 615 395 615 400 620 400 L 635 400 L 635 435 C 635 435 635 440 640 440 C 640 440 645 440 645 435 L 645 400 C 645 400 645 390 635 390 L 625 390 C 625 390 645 390 635 390 C 635 390 645 390 645 380 L 645 350 C 645 350 645 340 635 340 Z" stroke="#1d1d1d" stroke-linecap="round" stroke-linejoin="round" stroke-width="2"/>
            </g>
            <g id="Graphic_267">
              <path d="M 626 383 L 634 383 C 634.5523 383 635 383.4477 635 384 L 635 384 C 635 384.5523 634.5523 385 634 385 L 626 385 C 625.4477 385 625 384.5523 625 384 L 625 384 C 625 383.4477 625.4477 383 626 383 Z" fill="white"/>
              <path d="M 626 383 L 634 383 C 634.5523 383 635 383.4477 635 384 L 635 384 C 635 384.5523 634.5523 385 634 385 L 626 385 C 625.4477 385 625 384.5523 625 384 L 625 384 C 625 383.4477 625.4477 383 626 383 Z" stroke="black" stroke-opacity=".5" stroke-linecap="round" stroke-linejoin="round" stroke-width=".5"/>
            </g>
            <g id="Graphic_268">
              <path d="M 626 393 L 634 393 C 634.5523 393 635 393.4477 635 394 L 635 394 C 635 394.5523 634.5523 395 634 395 L 626 395 C 625.4477 395 625 394.5523 625 394 L 625 394 C 625 393.4477 625.4477 393 626 393 Z" fill="white"/>
              <path d="M 626 393 L 634 393 C 634.5523 393 635 393.4477 635 394 L 635 394 C 635 394.5523 634.5523 395 634 395 L 626 395 C 625.4477 395 625 394.5523 625 394 L 625 394 C 625 393.4477 625.4477 393 626 393 Z" stroke="black" stroke-opacity=".5" stroke-linecap="round" stroke-linejoin="round" stroke-width=".5"/>
            </g>
            <g id="Graphic_269">
              <path d="M 591 433 L 604 433 C 604.5523 433 605 433.4477 605 434 L 605 434 C 605 434.5523 604.5523 435 604 435 L 591 435 C 590.4477 435 590 434.5523 590 434 L 590 434 C 590 433.4477 590.4477 433 591 433 Z" fill="white"/>
              <path d="M 591 433 L 604 433 C 604.5523 433 605 433.4477 605 434 L 605 434 C 605 434.5523 604.5523 435 604 435 L 591 435 C 590.4477 435 590 434.5523 590 434 L 590 434 C 590 433.4477 590.4477 433 591 433 Z" stroke="black" stroke-opacity=".5" stroke-linecap="round" stroke-linejoin="round" stroke-width=".5"/>
            </g>
            <g id="Graphic_270">
              <path d="M 616 343 L 634 343 C 634.5523 343 635 343.4477 635 344 L 635 344 C 635 344.5523 634.5523 345 634 345 L 616 345 C 615.4477 345 615 344.5523 615 344 L 615 344 C 615 343.4477 615.4477 343 616 343 Z" fill="white"/>
              <path d="M 616 343 L 634 343 C 634.5523 343 635 343.4477 635 344 L 635 344 C 635 344.5523 634.5523 345 634 345 L 616 345 C 615.4477 345 615 344.5523 615 344 L 615 344 C 615 343.4477 615.4477 343 616 343 Z" stroke="black" stroke-opacity=".5" stroke-linecap="round" stroke-linejoin="round" stroke-width=".5"/>
            </g>
          </g>
          <g id="Group_271">
            <title>A</title>
            <g id="Graphic_264">
              <path d="M 550 435 C 550 435 550 440 555 440 C 555 440 560 440 560 435 C 560 430 560 385 560 385 C 560 385 560 390 565 390 L 575 390 C 575 390 580 390 580 385 C 580 385 580 380 575 380 L 565 380 C 565 380 560 380 560 385 L 560 375 L 560 350 L 580 350 L 580 435 C 580 435 580 440 585 440 C 585 440 590 440 590 435 C 590 430 590 350 590 350 C 590 350 590 340 580 340 C 570 340 560 340 560 340 C 560 340 550 340 550 350 C 550 360 550 435 550 435 Z" fill="#fdf6f7"/>
              <path d="M 550 435 C 550 435 550 440 555 440 C 555 440 560 440 560 435 C 560 430 560 385 560 385 C 560 385 560 390 565 390 L 575 390 C 575 390 580 390 580 385 C 580 385 580 380 575 380 L 565 380 C 565 380 560 380 560 385 L 560 375 L 560 350 L 580 350 L 580 435 C 580 435 580 440 585 440 C 585 440 590 440 590 435 C 590 430 590 350 590 350 C 590 350 590 340 580 340 C 570 340 560 340 560 340 C 560 340 550 340 550 350 C 550 360 550 435 550 435 Z" stroke="#1d1d1d" stroke-linecap="round" stroke-linejoin="round" stroke-width="2"/>
            </g>
            <g id="Graphic_265">
              <path d="M 561 343 L 579 343 C 579.5523 343 580 343.4477 580 344 L 580 344 C 580 344.5523 579.5523 345 579 345 L 561 345 C 560.4477 345 560 344.5523 560 344 L 560 344 C 560 343.4477 560.4477 343 561 343 Z" fill="white"/>
              <path d="M 561 343 L 579 343 C 579.5523 343 580 343.4477 580 344 L 580 344 C 580 344.5523 579.5523 345 579 345 L 561 345 C 560.4477 345 560 344.5523 560 344 L 560 344 C 560 343.4477 560.4477 343 561 343 Z" stroke="black" stroke-opacity=".5" stroke-linecap="round" stroke-linejoin="round" stroke-width=".5"/>
            </g>
            <g id="Graphic_266">
              <path d="M 566 383 L 574 383 C 574.5523 383 575 383.4477 575 384 L 575 384 C 575 384.5523 574.5523 385 574 385 L 566 385 C 565.4477 385 565 384.5523 565 384 L 565 384 C 565 383.4477 565.4477 383 566 383 Z" fill="white"/>
              <path d="M 566 383 L 574 383 C 574.5523 383 575 383.4477 575 384 L 575 384 C 575 384.5523 574.5523 385 574 385 L 566 385 C 565.4477 385 565 384.5523 565 384 L 565 384 C 565 383.4477 565.4477 383 566 383 Z" stroke="black" stroke-opacity=".5" stroke-linecap="round" stroke-linejoin="round" stroke-width=".5"/>
            </g>
          </g>
        </g>
        <g id="wordmark-to">
          <title>TO</title>
          <g id="Group_229">
            <title>T</title>
            <g id="Graphic_232">
              <path d="M 770 190 L 805 190 C 805 190 810 190 810 195 C 810 195 810 200 805 200 L 770 200 L 770 280 C 770 280 770 290 760 290 C 760 290 750 290 750 280 L 750 200 L 730 200 C 730 200 725 200 725 195 C 725 195 725 190 730 190 C 730 190 745 190 750 190 C 750 190 760 190 760 200 L 760 280 L 760 200 C 760 200 760 190 770 190 Z" fill="#fdf6f7"/>
              <path d="M 770 190 L 805 190 C 805 190 810 190 810 195 C 810 195 810 200 805 200 L 770 200 L 770 280 C 770 280 770 290 760 290 C 760 290 750 290 750 280 L 750 200 L 730 200 C 730 200 725 200 725 195 C 725 195 725 190 730 190 C 730 190 745 190 750 190 C 750 190 760 190 760 200 L 760 280 L 760 200 C 760 200 760 190 770 190 Z" stroke="#1d1d1d" stroke-linecap="round" stroke-linejoin="round" stroke-width="2"/>
            </g>
            <g id="Graphic_231">
              <path d="M 733.5 192.5 L 749 192.5 C 749.5523 192.5 750 192.94772 750 193.5 L 750 193.5 C 750 194.05228 749.5523 194.5 749 194.5 L 733.5 194.5 C 732.9477 194.5 732.5 194.05228 732.5 193.5 L 732.5 193.5 C 732.5 192.94772 732.9477 192.5 733.5 192.5 Z" fill="white"/>
              <path d="M 733.5 192.5 L 749 192.5 C 749.5523 192.5 750 192.94772 750 193.5 L 750 193.5 C 750 194.05228 749.5523 194.5 749 194.5 L 733.5 194.5 C 732.9477 194.5 732.5 194.05228 732.5 193.5 L 732.5 193.5 C 732.5 192.94772 732.9477 192.5 733.5 192.5 Z" stroke="black" stroke-opacity=".5" stroke-linecap="round" stroke-linejoin="round" stroke-width=".5"/>
            </g>
            <g id="Graphic_230">
              <path d="M 771 192.5 L 796.5 192.5 C 797.0523 192.5 797.5 192.94772 797.5 193.5 L 797.5 193.5 C 797.5 194.05228 797.0523 194.5 796.5 194.5 L 771 194.5 C 770.4477 194.5 770 194.05228 770 193.5 L 770 193.5 C 770 192.94772 770.4477 192.5 771 192.5 Z" fill="white"/>
              <path d="M 771 192.5 L 796.5 192.5 C 797.0523 192.5 797.5 192.94772 797.5 193.5 L 797.5 193.5 C 797.5 194.05228 797.0523 194.5 796.5 194.5 L 771 194.5 C 770.4477 194.5 770 194.05228 770 193.5 L 770 193.5 C 770 192.94772 770.4477 192.5 771 192.5 Z" stroke="black" stroke-opacity=".5" stroke-linecap="round" stroke-linejoin="round" stroke-width=".5"/>
            </g>
          </g>
          <g id="Group_225">
            <title>O</title>
            <g id="Graphic_228">
              <path d="M 805 190 C 805 190 810 190 810 195 C 810 195 810 200 805 200 C 805 200 800 200 800 210 L 800 270 C 800 270 800 280 810 280 C 810 280 820 280 820 270 L 820 210 C 820 210 820 200 815 200 C 815 200 810 200 810 195 C 810 195 810 190 815 190 C 815 190 830 190 830 210 L 830 270 C 830 270 830 290 810 290 C 810 290 790 290 790 270 L 790 210 C 790 210 790 190 805 190 Z" fill="#fdf6f7"/>
              <path d="M 805 190 C 805 190 810 190 810 195 C 810 195 810 200 805 200 C 805 200 800 200 800 210 L 800 270 C 800 270 800 280 810 280 C 810 280 820 280 820 270 L 820 210 C 820 210 820 200 815 200 C 815 200 810 200 810 195 C 810 195 810 190 815 190 C 815 190 830 190 830 210 L 830 270 C 830 270 830 290 810 290 C 810 290 790 290 790 270 L 790 210 C 790 210 790 190 805 190 Z" stroke="#1d1d1d" stroke-linecap="round" stroke-linejoin="round" stroke-width="2"/>
            </g>
            <g id="Graphic_227">
              <path d="M 813.5 192.5 L 816.5 192.5 C 817.0523 192.5 817.5 192.94772 817.5 193.5 L 817.5 193.5 C 817.5 194.05228 817.0523 194.5 816.5 194.5 L 813.5 194.5 C 812.9477 194.5 812.5 194.05228 812.5 193.5 L 812.5 193.5 C 812.5 192.94772 812.9477 192.5 813.5 192.5 Z" fill="white"/>
              <path d="M 813.5 192.5 L 816.5 192.5 C 817.0523 192.5 817.5 192.94772 817.5 193.5 L 817.5 193.5 C 817.5 194.05228 817.0523 194.5 816.5 194.5 L 813.5 194.5 C 812.9477 194.5 812.5 194.05228 812.5 193.5 L 812.5 193.5 C 812.5 192.94772 812.9477 192.5 813.5 192.5 Z" stroke="black" stroke-opacity=".5" stroke-linecap="round" stroke-linejoin="round" stroke-width=".5"/>
            </g>
            <g id="Graphic_226">
              <path d="M 803.5 192.5 L 806.5 192.5 C 807.0523 192.5 807.5 192.94772 807.5 193.5 L 807.5 193.5 C 807.5 194.05228 807.0523 194.5 806.5 194.5 L 803.5 194.5 C 802.9477 194.5 802.5 194.05228 802.5 193.5 L 802.5 193.5 C 802.5 192.94772 802.9477 192.5 803.5 192.5 Z" fill="white"/>
              <path d="M 803.5 192.5 L 806.5 192.5 C 807.0523 192.5 807.5 192.94772 807.5 193.5 L 807.5 193.5 C 807.5 194.05228 807.0523 194.5 806.5 194.5 L 803.5 194.5 C 802.9477 194.5 802.5 194.05228 802.5 193.5 L 802.5 193.5 C 802.5 192.94772 802.9477 192.5 803.5 192.5 Z" stroke="black" stroke-opacity=".5" stroke-linecap="round" stroke-linejoin="round" stroke-width=".5"/>
            </g>
          </g>
        </g>
        <g id="wordmark-have">
          <title>HAVE</title>
          <g id="Group_292">
            <title>H</title>
            <g id="Graphic_295">
              <path d="M 475 285 L 475 195 C 475 195 475 190 480 190 C 480 190 485 190 485 195 C 485 195 485 235 485 240 L 505 240 L 505 195 C 505 195 505 190 510 190 C 510 190 515 190 515 195 L 515 240 C 515 240 515 250 505 250 C 505 250 515 250 515 240 L 515 255 C 515 255 515 250 515 255 L 515 280 L 535 280 C 535 280 540 280 540 285 C 540 285 540 290 535 290 L 510 290 C 510 290 505 290 505 285 L 505 255 L 505 250 L 485 250 C 485 250 485 245 485 240 L 485 285 C 485 285 485 290 480 290 C 480 290 475 290 475 285 Z" fill="#fdf6f7"/>
              <path d="M 475 285 L 475 195 C 475 195 475 190 480 190 C 480 190 485 190 485 195 C 485 195 485 235 485 240 L 505 240 L 505 195 C 505 195 505 190 510 190 C 510 190 515 190 515 195 L 515 240 C 515 240 515 250 505 250 C 505 250 515 250 515 240 L 515 255 C 515 255 515 250 515 255 L 515 280 L 535 280 C 535 280 540 280 540 285 C 540 285 540 290 535 290 L 510 290 C 510 290 505 290 505 285 L 505 255 L 505 250 L 485 250 C 485 250 485 245 485 240 L 485 285 C 485 285 485 290 480 290 C 480 290 475 290 475 285 Z" stroke="#1d1d1d" stroke-linecap="round" stroke-linejoin="round" stroke-width="2"/>
            </g>
            <g id="Graphic_294">
              <path d="M 488.5 247 L 504 247 C 504.5523 247 505 246.55228 505 246 L 505 246 C 505 245.44772 504.5523 245 504 245 L 488.5 245 C 487.9477 245 487.5 245.44772 487.5 246 L 487.5 246 C 487.5 246.55228 487.9477 247 488.5 247 Z" fill="white"/>
              <path d="M 488.5 247 L 504 247 C 504.5523 247 505 246.55228 505 246 L 505 246 C 505 245.44772 504.5523 245 504 245 L 488.5 245 C 487.9477 245 487.5 245.44772 487.5 246 L 487.5 246 C 487.5 246.55228 487.9477 247 488.5 247 Z" stroke="black" stroke-opacity=".5" stroke-linecap="round" stroke-linejoin="round" stroke-width=".5"/>
            </g>
            <g id="Graphic_293">
              <path d="M 516 287.5 L 539 287.5 C 539.5523 287.5 540 287.0523 540 286.5 L 540 286.5 C 540 285.9477 539.5523 285.5 539 285.5 L 516 285.5 C 515.4477 285.5 515 285.9477 515 286.5 L 515 286.5 C 515 287.0523 515.4477 287.5 516 287.5 Z" fill="white"/>
              <path d="M 516 287.5 L 539 287.5 C 539.5523 287.5 540 287.0523 540 286.5 L 540 286.5 C 540 285.9477 539.5523 285.5 539 285.5 L 516 285.5 C 515.4477 285.5 515 285.9477 515 286.5 L 515 286.5 C 515 287.0523 515.4477 287.5 516 287.5 Z" stroke="black" stroke-opacity=".5" stroke-linecap="round" stroke-linejoin="round" stroke-width=".5"/>
            </g>
          </g>
          <g id="Group_296">
            <title>V</title>
            <g id="Graphic_300">
              <path d="M 585 190 C 585 190 595 190 595 200 L 595 265 L 605 275 L 615 265 L 615 195 C 615 195 615 190 620 190 L 645 190 C 645 190 650 190 650 195 C 650 200 645 200 645 200 L 625 200 L 625 270 L 605 290 L 585 270 L 585 200 L 565 200 C 565 200 560 200 560 195 C 560 195 560 190 565 190 Z" fill="#fdf6f7"/>
              <path d="M 585 190 C 585 190 595 190 595 200 L 595 265 L 605 275 L 615 265 L 615 195 C 615 195 615 190 620 190 L 645 190 C 645 190 650 190 650 195 C 650 200 645 200 645 200 L 625 200 L 625 270 L 605 290 L 585 270 L 585 200 L 565 200 C 565 200 560 200 560 195 C 560 195 560 190 565 190 Z" stroke="#1d1d1d" stroke-linecap="square" stroke-linejoin="miter" stroke-width="2"/>
            </g>
            <g id="Graphic_299">
              <path d="M 566 193 L 584 193 C 584.5523 193 585 193.44772 585 194 L 585 194 C 585 194.55228 584.5523 195 584 195 L 566 195 C 565.4477 195 565 194.55228 565 194 L 565 194 C 565 193.44772 565.4477 193 566 193 Z" fill="white"/>
              <path d="M 566 193 L 584 193 C 584.5523 193 585 193.44772 585 194 L 585 194 C 585 194.55228 584.5523 195 584 195 L 566 195 C 565.4477 195 565 194.55228 565 194 L 565 194 C 565 193.44772 565.4477 193 566 193 Z" stroke="black" stroke-opacity=".5" stroke-linecap="round" stroke-linejoin="round" stroke-width=".5"/>
            </g>
            <g id="Graphic_302">
              <path d="M 606.9571 276.62868 L 616.0858 267.5 C 616.4763 267.10948 617.1095 267.10948 617.5 267.5 L 617.5 267.5 C 617.8905 267.89052 617.8905 268.5237 617.5 268.9142 C 617.5 268.9142 617.5 268.9142 617.5 268.9142 L 608.3713 278.0429 C 607.9808 278.43342 607.3476 278.43342 606.9571 278.0429 L 606.9571 278.0429 C 606.5666 277.65237 606.5666 277.0192 606.9571 276.62868 C 606.9571 276.62868 606.9571 276.62868 606.9571 276.62868 Z" fill="white"/>
              <path d="M 606.9571 276.62868 L 616.0858 267.5 C 616.4763 267.10948 617.1095 267.10948 617.5 267.5 L 617.5 267.5 C 617.8905 267.89052 617.8905 268.5237 617.5 268.9142 C 617.5 268.9142 617.5 268.9142 617.5 268.9142 L 608.3713 278.0429 C 607.9808 278.43342 607.3476 278.43342 606.9571 278.0429 L 606.9571 278.0429 C 606.5666 277.65237 606.5666 277.0192 606.9571 276.62868 C 606.9571 276.62868 606.9571 276.62868 606.9571 276.62868 Z" stroke="black" stroke-opacity=".5" stroke-linecap="round" stroke-linejoin="round" stroke-width=".5"/>
            </g>
          </g>
          <g id="Group_275">
            <title>A</title>
            <g id="Graphic_278">
              <path d="M 530 285 C 530 285 530 290 535 290 C 535 290 540 290 540 285 C 540 280 540 235 540 235 C 540 235 540 240 545 240 L 555 240 C 555 240 560 240 560 235 C 560 235 560 230 555 230 L 545 230 C 545 230 540 230 540 235 L 540 225 L 540 200 L 560 200 L 560 285 C 560 285 560 290 565 290 C 565 290 570 290 570 285 C 570 280 570 200 570 200 C 570 200 570 190 560 190 C 550 190 540 190 540 190 C 540 190 530 190 530 200 C 530 210 530 285 530 285 Z" fill="#fdf6f7"/>
              <path d="M 530 285 C 530 285 530 290 535 290 C 535 290 540 290 540 285 C 540 280 540 235 540 235 C 540 235 540 240 545 240 L 555 240 C 555 240 560 240 560 235 C 560 235 560 230 555 230 L 545 230 C 545 230 540 230 540 235 L 540 225 L 540 200 L 560 200 L 560 285 C 560 285 560 290 565 290 C 565 290 570 290 570 285 C 570 280 570 200 570 200 C 570 200 570 190 560 190 C 550 190 540 190 540 190 C 540 190 530 190 530 200 C 530 210 530 285 530 285 Z" stroke="#1d1d1d" stroke-linecap="round" stroke-linejoin="round" stroke-width="2"/>
            </g>
            <g id="Graphic_277">
              <path d="M 541 193 L 559 193 C 559.5523 193 560 193.44772 560 194 L 560 194 C 560 194.55228 559.5523 195 559 195 L 541 195 C 540.4477 195 540 194.55228 540 194 L 540 194 C 540 193.44772 540.4477 193 541 193 Z" fill="white"/>
              <path d="M 541 193 L 559 193 C 559.5523 193 560 193.44772 560 194 L 560 194 C 560 194.55228 559.5523 195 559 195 L 541 195 C 540.4477 195 540 194.55228 540 194 L 540 194 C 540 193.44772 540.4477 193 541 193 Z" stroke="black" stroke-opacity=".5" stroke-linecap="round" stroke-linejoin="round" stroke-width=".5"/>
            </g>
            <g id="Graphic_276">
              <path d="M 546 233 L 554 233 C 554.5523 233 555 233.44772 555 234 L 555 234 C 555 234.55228 554.5523 235 554 235 L 546 235 C 545.4477 235 545 234.55228 545 234 L 545 234 C 545 233.44772 545.4477 233 546 233 Z" fill="white"/>
              <path d="M 546 233 L 554 233 C 554.5523 233 555 233.44772 555 234 L 555 234 C 555 234.55228 554.5523 235 554 235 L 546 235 C 545.4477 235 545 234.55228 545 234 L 545 234 C 545 233.44772 545.4477 233 546 233 Z" stroke="black" stroke-opacity=".5" stroke-linecap="round" stroke-linejoin="round" stroke-width=".5"/>
            </g>
          </g>
          <g id="Group_285">
            <title>E</title>
            <g id="Graphic_291">
              <path d="M 620 190 C 620 190 615 190 615 195 C 615 195 615 200 620 200 L 680 200 C 680 200 640 200 650 200 C 650 200 640 200 640 210 C 640 210 640 240 640 230 C 640 230 640 240 650 240 L 680 240 C 680 240 640 240 650 240 C 650 240 640 240 640 250 C 640 250 640 290 640 280 C 640 280 640 290 650 290 L 680 290 L 680 345 C 680 345 680 350 685 350 C 690 350 690 345 690 345 C 690 345 690 280 690 290 C 690 290 690 280 680 280 L 650 280 L 650 250 C 650 250 690 250 680 250 C 680 250 690 250 690 240 C 690 240 690 230 680 230 L 650 230 L 650 210 C 650 210 690 210 680 210 C 680 210 690 210 690 200 C 690 200 690 190 680 190 C 680 190 615 190 620 190 Z" fill="#fdf6f7"/>
              <path d="M 620 190 C 620 190 615 190 615 195 C 615 195 615 200 620 200 L 680 200 C 680 200 640 200 650 200 C 650 200 640 200 640 210 C 640 210 640 240 640 230 C 640 230 640 240 650 240 L 680 240 C 680 240 640 240 650 240 C 650 240 640 240 640 250 C 640 250 640 290 640 280 C 640 280 640 290 650 290 L 680 290 L 680 345 C 680 345 680 350 685 350 C 690 350 690 345 690 345 C 690 345 690 280 690 290 C 690 290 690 280 680 280 L 650 280 L 650 250 C 650 250 690 250 680 250 C 680 250 690 250 690 240 C 690 240 690 230 680 230 L 650 230 L 650 210 C 650 210 690 210 680 210 C 680 210 690 210 690 200 C 690 200 690 190 680 190 C 680 190 615 190 620 190 Z" stroke="#1d1d1d" stroke-linecap="round" stroke-linejoin="round" stroke-width="2"/>
            </g>
            <g id="Graphic_290">
              <path d="M 651 203 L 679 203 C 679.5523 203 680 203.44772 680 204 L 680 204 C 680 204.55228 679.5523 205 679 205 L 651 205 C 650.4477 205 650 204.55228 650 204 L 650 204 C 650 203.44772 650.4477 203 651 203 Z" fill="white"/>
              <path d="M 651 203 L 679 203 C 679.5523 203 680 203.44772 680 204 L 680 204 C 680 204.55228 679.5523 205 679 205 L 651 205 C 650.4477 205 650 204.55228 650 204 L 650 204 C 650 203.44772 650.4477 203 651 203 Z" stroke="black" stroke-opacity=".5" stroke-linecap="round" stroke-linejoin="round" stroke-width=".5"/>
            </g>
            <g id="Graphic_289">
              <path d="M 651 232.5 L 679 232.5 C 679.5523 232.5 680 232.94772 680 233.5 L 680 233.5 C 680 234.05228 679.5523 234.5 679 234.5 L 651 234.5 C 650.4477 234.5 650 234.05228 650 233.5 L 650 233.5 C 650 232.94772 650.4477 232.5 651 232.5 Z" fill="white"/>
              <path d="M 651 232.5 L 679 232.5 C 679.5523 232.5 680 232.94772 680 233.5 L 680 233.5 C 680 234.05228 679.5523 234.5 679 234.5 L 651 234.5 C 650.4477 234.5 650 234.05228 650 233.5 L 650 233.5 C 650 232.94772 650.4477 232.5 651 232.5 Z" stroke="black" stroke-opacity=".5" stroke-linecap="round" stroke-linejoin="round" stroke-width=".5"/>
            </g>
            <g id="Graphic_288">
              <path d="M 651 242.5 L 679 242.5 C 679.5523 242.5 680 242.94772 680 243.5 L 680 243.5 C 680 244.05228 679.5523 244.5 679 244.5 L 651 244.5 C 650.4477 244.5 650 244.05228 650 243.5 L 650 243.5 C 650 242.94772 650.4477 242.5 651 242.5 Z" fill="white"/>
              <path d="M 651 242.5 L 679 242.5 C 679.5523 242.5 680 242.94772 680 243.5 L 680 243.5 C 680 244.05228 679.5523 244.5 679 244.5 L 651 244.5 C 650.4477 244.5 650 244.05228 650 243.5 L 650 243.5 C 650 242.94772 650.4477 242.5 651 242.5 Z" stroke="black" stroke-opacity=".5" stroke-linecap="round" stroke-linejoin="round" stroke-width=".5"/>
            </g>
            <g id="Graphic_287">
              <path d="M 651 282.5 L 684 282.5 C 684.5523 282.5 685 282.9477 685 283.5 L 685 283.5 C 685 284.0523 684.5523 284.5 684 284.5 L 651 284.5 C 650.4477 284.5 650 284.0523 650 283.5 L 650 283.5 C 650 282.9477 650.4477 282.5 651 282.5 Z" fill="white"/>
              <path d="M 651 282.5 L 684 282.5 C 684.5523 282.5 685 282.9477 685 283.5 L 685 283.5 C 685 284.0523 684.5523 284.5 684 284.5 L 651 284.5 C 650.4477 284.5 650 284.0523 650 283.5 L 650 283.5 C 650 282.9477 650.4477 282.5 651 282.5 Z" stroke="black" stroke-opacity=".5" stroke-linecap="round" stroke-linejoin="round" stroke-width=".5"/>
            </g>
            <g id="Graphic_286">
              <path d="M 621.0435 192.5 L 678.9565 192.5 C 679.5328 192.5 680 192.94772 680 193.5 C 680 194.05228 679.5328 194.5 678.9565 194.5 L 621.0435 194.5 C 620.4672 194.5 620 194.05228 620 193.5 C 620 192.94772 620.4672 192.5 621.0435 192.5 Z" fill="white"/>
              <path d="M 621.0435 192.5 L 678.9565 192.5 C 679.5328 192.5 680 192.94772 680 193.5 C 680 194.05228 679.5328 194.5 678.9565 194.5 L 621.0435 194.5 C 620.4672 194.5 620 194.05228 620 193.5 C 620 192.94772 620.4672 192.5 621.0435 192.5 Z" stroke="black" stroke-opacity=".5" stroke-linecap="round" stroke-linejoin="round" stroke-width=".5"/>
            </g>
          </g>
        </g>
        <g id="wordmark-you">
          <title>YOU</title>
          <g id="Group_164">
            <title>Y</title>
            <g id="Graphic_170">
              <path d="M 290 195 C 290 195 290 190 295 190 C 295 190 300 190 300 195 L 300 240 L 320 240 L 320 200 C 320 200 320 190 330 190 C 330 190 340 190 340 200 L 340 270 C 340 270 340 280 330 280 L 300 280 L 370 280 L 375 285 L 370 290 L 300 290 C 300 290 290 290 290 280 C 290 280 290 270 300 270 L 330 270 L 330 200 L 330 240 C 330 240 330 250 320 250 L 300 250 C 300 250 290 250 290 240 Z" fill="#fdf6f7"/>
              <path d="M 290 195 C 290 195 290 190 295 190 C 295 190 300 190 300 195 L 300 240 L 320 240 L 320 200 C 320 200 320 190 330 190 C 330 190 340 190 340 200 L 340 270 C 340 270 340 280 330 280 L 300 280 L 370 280 L 375 285 L 370 290 L 300 290 C 300 290 290 290 290 280 C 290 280 290 270 300 270 L 330 270 L 330 200 L 330 240 C 330 240 330 250 320 250 L 300 250 C 300 250 290 250 290 240 Z" stroke="#1d1d1d" stroke-linecap="round" stroke-linejoin="round" stroke-width="2"/>
            </g>
            <g id="Graphic_169">
              <path d="M 301 242.5 L 319 242.5 C 319.5523 242.5 320 242.94772 320 243.5 L 320 243.5 C 320 244.05228 319.5523 244.5 319 244.5 L 301 244.5 C 300.4477 244.5 300 244.05228 300 243.5 L 300 243.5 C 300 242.94772 300.4477 242.5 301 242.5 Z" fill="white"/>
              <path d="M 301 242.5 L 319 242.5 C 319.5523 242.5 320 242.94772 320 243.5 L 320 243.5 C 320 244.05228 319.5523 244.5 319 244.5 L 301 244.5 C 300.4477 244.5 300 244.05228 300 243.5 L 300 243.5 C 300 242.94772 300.4477 242.5 301 242.5 Z" stroke="black" stroke-opacity=".5" stroke-linecap="round" stroke-linejoin="round" stroke-width=".5"/>
            </g>
            <g id="Graphic_168">
              <path d="M 301 272.5 L 329 272.5 C 329.5523 272.5 330 272.9477 330 273.5 L 330 273.5 C 330 274.0523 329.5523 274.5 329 274.5 L 301 274.5 C 300.4477 274.5 300 274.0523 300 273.5 L 300 273.5 C 300 272.9477 300.4477 272.5 301 272.5 Z" fill="white"/>
              <path d="M 301 272.5 L 329 272.5 C 329.5523 272.5 330 272.9477 330 273.5 L 330 273.5 C 330 274.0523 329.5523 274.5 329 274.5 L 301 274.5 C 300.4477 274.5 300 274.0523 300 273.5 L 300 273.5 C 300 272.9477 300.4477 272.5 301 272.5 Z" stroke="black" stroke-opacity=".5" stroke-linecap="round" stroke-linejoin="round" stroke-width=".5"/>
            </g>
            <g id="Graphic_167">
              <path d="M 301 282.5 L 354 282.5 C 354.5523 282.5 355 282.9477 355 283.5 L 355 283.5 C 355 284.0523 354.5523 284.5 354 284.5 L 301 284.5 C 300.4477 284.5 300 284.0523 300 283.5 L 300 283.5 C 300 282.9477 300.4477 282.5 301 282.5 Z" fill="white"/>
              <path d="M 301 282.5 L 354 282.5 C 354.5523 282.5 355 282.9477 355 283.5 L 355 283.5 C 355 284.0523 354.5523 284.5 354 284.5 L 301 284.5 C 300.4477 284.5 300 284.0523 300 283.5 L 300 283.5 C 300 282.9477 300.4477 282.5 301 282.5 Z" stroke="black" stroke-opacity=".5" stroke-linecap="round" stroke-linejoin="round" stroke-width=".5"/>
            </g>
            <g id="Graphic_166">
              <path d="M 296 192.5 L 296.5 192.5 C 297.0523 192.5 297.5 192.94772 297.5 193.5 L 297.5 193.5 C 297.5 194.05228 297.0523 194.5 296.5 194.5 L 296 194.5 C 295.4477 194.5 295 194.05228 295 193.5 L 295 193.5 C 295 192.94772 295.4477 192.5 296 192.5 Z" fill="white"/>
              <path d="M 296 192.5 L 296.5 192.5 C 297.0523 192.5 297.5 192.94772 297.5 193.5 L 297.5 193.5 C 297.5 194.05228 297.0523 194.5 296.5 194.5 L 296 194.5 C 295.4477 194.5 295 194.05228 295 193.5 L 295 193.5 C 295 192.94772 295.4477 192.5 296 192.5 Z" stroke="black" stroke-opacity=".5" stroke-linecap="round" stroke-linejoin="round" stroke-width=".5"/>
            </g>
            <g id="Graphic_165">
              <path d="M 328.5 192.5 L 331.5 192.5 C 332.0523 192.5 332.5 192.94772 332.5 193.5 L 332.5 193.5 C 332.5 194.05228 332.0523 194.5 331.5 194.5 L 328.5 194.5 C 327.9477 194.5 327.5 194.05228 327.5 193.5 L 327.5 193.5 C 327.5 192.94772 327.9477 192.5 328.5 192.5 Z" fill="white"/>
              <path d="M 328.5 192.5 L 331.5 192.5 C 332.0523 192.5 332.5 192.94772 332.5 193.5 L 332.5 193.5 C 332.5 194.05228 332.0523 194.5 331.5 194.5 L 328.5 194.5 C 327.9477 194.5 327.5 194.05228 327.5 193.5 L 327.5 193.5 C 327.5 192.94772 327.9477 192.5 328.5 192.5 Z" stroke="black" stroke-opacity=".5" stroke-linecap="round" stroke-linejoin="round" stroke-width=".5"/>
            </g>
          </g>
          <g id="Group_159">
            <title>U</title>
            <g id="Graphic_163">
              <path d="M 400 190 C 400 190 410 190 410 200 C 410 200 410 260 410 270 C 410 280 420 280 420 280 C 420 280 430 280 430 270 C 430 260 430 190 430 195 C 430 195 430 190 435 190 C 440 190 440 195 440 195 C 440 195 440 290 440 270 C 440 290 420 290 420 290 C 420 290 400 290 400 270 L 400 200 L 375 200 C 375 200 370 200 370 195 C 370 195 370 190 375 190 Z" fill="#fdf6f7"/>
              <path d="M 400 190 C 400 190 410 190 410 200 C 410 200 410 260 410 270 C 410 280 420 280 420 280 C 420 280 430 280 430 270 C 430 260 430 190 430 195 C 430 195 430 190 435 190 C 440 190 440 195 440 195 C 440 195 440 290 440 270 C 440 290 420 290 420 290 C 420 290 400 290 400 270 L 400 200 L 375 200 C 375 200 370 200 370 195 C 370 195 370 190 375 190 Z" stroke="#1d1d1d" stroke-linecap="square" stroke-linejoin="miter" stroke-width="2"/>
            </g>
            <g id="Graphic_162">
              <path d="M 381 193 L 399 193 C 399.5523 193 400 193.44772 400 194 L 400 194 C 400 194.55228 399.5523 195 399 195 L 381 195 C 380.4477 195 380 194.55228 380 194 L 380 194 C 380 193.44772 380.4477 193 381 193 Z" fill="white"/>
              <path d="M 381 193 L 399 193 C 399.5523 193 400 193.44772 400 194 L 400 194 C 400 194.55228 399.5523 195 399 195 L 381 195 C 380.4477 195 380 194.55228 380 194 L 380 194 C 380 193.44772 380.4477 193 381 193 Z" stroke="black" stroke-opacity=".5" stroke-linecap="round" stroke-linejoin="round" stroke-width=".5"/>
            </g>
            <g id="Graphic_161">
              <path d="M 436 193 L 436.5 193 C 437.0523 193 437.5 193.44772 437.5 194 L 437.5 194 C 437.5 194.55228 437.0523 195 436.5 195 L 436 195 C 435.4477 195 435 194.55228 435 194 L 435 194 C 435 193.44772 435.4477 193 436 193 Z" fill="white"/>
              <path d="M 436 193 L 436.5 193 C 437.0523 193 437.5 193.44772 437.5 194 L 437.5 194 C 437.5 194.55228 437.0523 195 436.5 195 L 436 195 C 435.4477 195 435 194.55228 435 194 L 435 194 C 435 193.44772 435.4477 193 436 193 Z" stroke="black" stroke-opacity=".5" stroke-linecap="round" stroke-linejoin="round" stroke-width=".5"/>
            </g>
            <g id="Graphic_160">
              <path d="M 418.5 282.5 L 421.5 282.5 C 422.0523 282.5 422.5 282.9477 422.5 283.5 L 422.5 283.5 C 422.5 284.0523 422.0523 284.5 421.5 284.5 L 418.5 284.5 C 417.9477 284.5 417.5 284.0523 417.5 283.5 L 417.5 283.5 C 417.5 282.9477 417.9477 282.5 418.5 282.5 Z" fill="white"/>
              <path d="M 418.5 282.5 L 421.5 282.5 C 422.0523 282.5 422.5 282.9477 422.5 283.5 L 422.5 283.5 C 422.5 284.0523 422.0523 284.5 421.5 284.5 L 418.5 284.5 C 417.9477 284.5 417.5 284.0523 417.5 283.5 L 417.5 283.5 C 417.5 282.9477 417.9477 282.5 418.5 282.5 Z" stroke="black" stroke-opacity=".5" stroke-linecap="round" stroke-linejoin="round" stroke-width=".5"/>
            </g>
          </g>
          <g id="Group_154">
            <title>O</title>
            <g id="Graphic_158">
              <path d="M 365 190 C 365 190 370 190 370 195 C 370 195 370 200 365 200 C 365 200 360 200 360 210 L 360 270 C 360 270 360 280 370 280 C 370 280 380 280 380 270 L 380 210 C 380 210 380 200 375 200 C 375 200 370 200 370 195 C 370 195 370 190 375 190 C 375 190 390 190 390 210 L 390 270 C 390 270 390 290 370 290 C 370 290 350 290 350 270 L 350 210 C 350 210 350 190 365 190 Z" fill="#fdf6f7"/>
              <path d="M 365 190 C 365 190 370 190 370 195 C 370 195 370 200 365 200 C 365 200 360 200 360 210 L 360 270 C 360 270 360 280 370 280 C 370 280 380 280 380 270 L 380 210 C 380 210 380 200 375 200 C 375 200 370 200 370 195 C 370 195 370 190 375 190 C 375 190 390 190 390 210 L 390 270 C 390 270 390 290 370 290 C 370 290 350 290 350 270 L 350 210 C 350 210 350 190 365 190 Z" stroke="#1d1d1d" stroke-linecap="round" stroke-linejoin="round" stroke-width="2"/>
            </g>
            <g id="Graphic_157">
              <path d="M 373.5 193 L 376.5 193 C 377.0523 193 377.5 193.44772 377.5 194 L 377.5 194 C 377.5 194.55228 377.0523 195 376.5 195 L 373.5 195 C 372.9477 195 372.5 194.55228 372.5 194 L 372.5 194 C 372.5 193.44772 372.9477 193 373.5 193 Z" fill="white"/>
              <path d="M 373.5 193 L 376.5 193 C 377.0523 193 377.5 193.44772 377.5 194 L 377.5 194 C 377.5 194.55228 377.0523 195 376.5 195 L 373.5 195 C 372.9477 195 372.5 194.55228 372.5 194 L 372.5 194 C 372.5 193.44772 372.9477 193 373.5 193 Z" stroke="black" stroke-opacity=".5" stroke-linecap="round" stroke-linejoin="round" stroke-width=".5"/>
            </g>
            <g id="Graphic_156">
              <path d="M 363.5 193 L 366.5 193 C 367.0523 193 367.5 193.44772 367.5 194 L 367.5 194 C 367.5 194.55228 367.0523 195 366.5 195 L 363.5 195 C 362.9477 195 362.5 194.55228 362.5 194 L 362.5 194 C 362.5 193.44772 362.9477 193 363.5 193 Z" fill="white"/>
              <path d="M 363.5 193 L 366.5 193 C 367.0523 193 367.5 193.44772 367.5 194 L 367.5 194 C 367.5 194.55228 367.0523 195 366.5 195 L 363.5 195 C 362.9477 195 362.5 194.55228 362.5 194 L 362.5 194 C 362.5 193.44772 362.9477 193 363.5 193 Z" stroke="black" stroke-opacity=".5" stroke-linecap="round" stroke-linejoin="round" stroke-width=".5"/>
            </g>
            <g id="Graphic_155">
              <path d="M 368.5 282.5 L 371.5 282.5 C 372.0523 282.5 372.5 282.9477 372.5 283.5 L 372.5 283.5 C 372.5 284.0523 372.0523 284.5 371.5 284.5 L 368.5 284.5 C 367.9477 284.5 367.5 284.0523 367.5 283.5 L 367.5 283.5 C 367.5 282.9477 367.9477 282.5 368.5 282.5 Z" fill="white"/>
              <path d="M 368.5 282.5 L 371.5 282.5 C 372.0523 282.5 372.5 282.9477 372.5 283.5 L 372.5 283.5 C 372.5 284.0523 372.0523 284.5 371.5 284.5 L 368.5 284.5 C 367.9477 284.5 367.5 284.0523 367.5 283.5 L 367.5 283.5 C 367.5 282.9477 367.9477 282.5 368.5 282.5 Z" stroke="black" stroke-opacity=".5" stroke-linecap="round" stroke-linejoin="round" stroke-width=".5"/>
            </g>
          </g>
        </g>
        <g id="wordmark-this">
          <title>THIS</title>
          <g id="Group_248">
            <title>T</title>
            <g id="Graphic_251">
              <path d="M 725 340 L 760 340 C 760 340 765 340 765 345 C 765 345 765 350 760 350 L 725 350 L 725 430 C 725 430 725 440 715 440 C 715 440 705 440 705 430 L 705 350 L 685 350 C 685 350 680 350 680 345 C 680 345 680 340 685 340 C 685 340 700 340 705 340 C 705 340 715 340 715 350 L 715 430 L 715 350 C 715 350 715 340 725 340 Z" fill="#fdf6f7"/>
              <path d="M 725 340 L 760 340 C 760 340 765 340 765 345 C 765 345 765 350 760 350 L 725 350 L 725 430 C 725 430 725 440 715 440 C 715 440 705 440 705 430 L 705 350 L 685 350 C 685 350 680 350 680 345 C 680 345 680 340 685 340 C 685 340 700 340 705 340 C 705 340 715 340 715 350 L 715 430 L 715 350 C 715 350 715 340 725 340 Z" stroke="#1d1d1d" stroke-linecap="round" stroke-linejoin="round" stroke-width="2"/>
            </g>
            <g id="Graphic_250">
              <path d="M 683.5 342.5 L 704 342.5 C 704.5523 342.5 705 342.9477 705 343.5 L 705 343.5 C 705 344.0523 704.5523 344.5 704 344.5 L 683.5 344.5 C 682.9477 344.5 682.5 344.0523 682.5 343.5 L 682.5 343.5 C 682.5 342.9477 682.9477 342.5 683.5 342.5 Z" fill="white"/>
              <path d="M 683.5 342.5 L 704 342.5 C 704.5523 342.5 705 342.9477 705 343.5 L 705 343.5 C 705 344.0523 704.5523 344.5 704 344.5 L 683.5 344.5 C 682.9477 344.5 682.5 344.0523 682.5 343.5 L 682.5 343.5 C 682.5 342.9477 682.9477 342.5 683.5 342.5 Z" stroke="black" stroke-opacity=".5" stroke-linecap="round" stroke-linejoin="round" stroke-width=".5"/>
            </g>
            <g id="Graphic_249">
              <path d="M 726 342.5 L 756.5 342.5 C 757.0523 342.5 757.5 342.9477 757.5 343.5 L 757.5 343.5 C 757.5 344.0523 757.0523 344.5 756.5 344.5 L 726 344.5 C 725.4477 344.5 725 344.0523 725 343.5 L 725 343.5 C 725 342.9477 725.4477 342.5 726 342.5 Z" fill="white"/>
              <path d="M 726 342.5 L 756.5 342.5 C 757.0523 342.5 757.5 342.9477 757.5 343.5 L 757.5 343.5 C 757.5 344.0523 757.0523 344.5 756.5 344.5 L 726 344.5 C 725.4477 344.5 725 344.0523 725 343.5 L 725 343.5 C 725 342.9477 725.4477 342.5 726 342.5 Z" stroke="black" stroke-opacity=".5" stroke-linecap="round" stroke-linejoin="round" stroke-width=".5"/>
            </g>
          </g>
          <g id="Group_242">
            <title>H</title>
            <g id="Graphic_247">
              <path d="M 755 435 L 755 345 C 755 345 755 340 760 340 C 760 340 765 340 765 345 L 765 390 L 785 390 L 785 345 C 785 345 785 340 790 340 C 790 340 795 340 795 345 L 795 390 C 795 390 795 400 785 400 C 785 400 795 400 795 390 L 795 405 C 795 405 795 400 795 405 L 795 430 L 820 430 C 820 430 825 430 825 435 C 825 435 825 440 820 440 L 790 440 C 790 440 785 440 785 435 L 785 405 L 785 400 C 785 400 770 400 765 400 L 765 390 L 765 435 C 765 435 765 440 760 440 C 760 440 755 440 755 435 Z" fill="#fdf6f7"/>
              <path d="M 755 435 L 755 345 C 755 345 755 340 760 340 C 760 340 765 340 765 345 L 765 390 L 785 390 L 785 345 C 785 345 785 340 790 340 C 790 340 795 340 795 345 L 795 390 C 795 390 795 400 785 400 C 785 400 795 400 795 390 L 795 405 C 795 405 795 400 795 405 L 795 430 L 820 430 C 820 430 825 430 825 435 C 825 435 825 440 820 440 L 790 440 C 790 440 785 440 785 435 L 785 405 L 785 400 C 785 400 770 400 765 400 L 765 390 L 765 435 C 765 435 765 440 760 440 C 760 440 755 440 755 435 Z" stroke="#1d1d1d" stroke-linecap="round" stroke-linejoin="round" stroke-width="2"/>
            </g>
            <g id="Graphic_246">
              <path d="M 761 342.5 L 761.5 342.5 C 762.0523 342.5 762.5 342.9477 762.5 343.5 L 762.5 343.5 C 762.5 344.0523 762.0523 344.5 761.5 344.5 L 761 344.5 C 760.4477 344.5 760 344.0523 760 343.5 L 760 343.5 C 760 342.9477 760.4477 342.5 761 342.5 Z" fill="white"/>
              <path d="M 761 342.5 L 761.5 342.5 C 762.0523 342.5 762.5 342.9477 762.5 343.5 L 762.5 343.5 C 762.5 344.0523 762.0523 344.5 761.5 344.5 L 761 344.5 C 760.4477 344.5 760 344.0523 760 343.5 L 760 343.5 C 760 342.9477 760.4477 342.5 761 342.5 Z" stroke="black" stroke-opacity=".5" stroke-linecap="round" stroke-linejoin="round" stroke-width=".5"/>
            </g>
            <g id="Graphic_245">
              <path d="M 791 343 L 791.5 343 C 792.0523 343 792.5 343.4477 792.5 344 L 792.5 344 C 792.5 344.5523 792.0523 345 791.5 345 L 791 345 C 790.4477 345 790 344.5523 790 344 L 790 344 C 790 343.4477 790.4477 343 791 343 Z" fill="white"/>
              <path d="M 791 343 L 791.5 343 C 792.0523 343 792.5 343.4477 792.5 344 L 792.5 344 C 792.5 344.5523 792.0523 345 791.5 345 L 791 345 C 790.4477 345 790 344.5523 790 344 L 790 344 C 790 343.4477 790.4477 343 791 343 Z" stroke="black" stroke-opacity=".5" stroke-linecap="round" stroke-linejoin="round" stroke-width=".5"/>
            </g>
            <g id="Graphic_244">
              <path d="M 771 392.5 L 784 392.5 C 784.5523 392.5 785 392.9477 785 393.5 L 785 393.5 C 785 394.0523 784.5523 394.5 784 394.5 L 771 394.5 C 770.4477 394.5 770 394.0523 770 393.5 L 770 393.5 C 770 392.9477 770.4477 392.5 771 392.5 Z" fill="white"/>
              <path d="M 771 392.5 L 784 392.5 C 784.5523 392.5 785 392.9477 785 393.5 L 785 393.5 C 785 394.0523 784.5523 394.5 784 394.5 L 771 394.5 C 770.4477 394.5 770 394.0523 770 393.5 L 770 393.5 C 770 392.9477 770.4477 392.5 771 392.5 Z" stroke="black" stroke-opacity=".5" stroke-linecap="round" stroke-linejoin="round" stroke-width=".5"/>
            </g>
            <g id="Graphic_243">
              <path d="M 796 432.5 L 819 432.5 C 819.5523 432.5 820 432.9477 820 433.5 L 820 433.5 C 820 434.0523 819.5523 434.5 819 434.5 L 796 434.5 C 795.4477 434.5 795 434.0523 795 433.5 L 795 433.5 C 795 432.9477 795.4477 432.5 796 432.5 Z" fill="white"/>
              <path d="M 796 432.5 L 819 432.5 C 819.5523 432.5 820 432.9477 820 433.5 L 820 433.5 C 820 434.0523 819.5523 434.5 819 434.5 L 796 434.5 C 795.4477 434.5 795 434.0523 795 433.5 L 795 433.5 C 795 432.9477 795.4477 432.5 796 432.5 Z" stroke="black" stroke-opacity=".5" stroke-linecap="round" stroke-linejoin="round" stroke-width=".5"/>
            </g>
          </g>
          <g id="Group_237">
            <title>S</title>
            <g id="Graphic_241">
              <path d="M 830 440 C 830 440 825 440 825 435 C 825 430 830 430 830 430 L 880 430 L 880 390 L 860 390 C 860 390 850 388 850 380 C 850 370 850 350 850 350 C 850 350 850 340 860 340 L 905 340 C 905 340 910 340 910 345 C 910 345 910 350 905 350 L 860 350 L 860 380 L 880 380 C 890 380 890 390 890 390 L 890 430 C 890 430 890 440 880 440 C 870 440 830 440 830 440 Z" fill="#fdf6f7"/>
              <path d="M 830 440 C 830 440 825 440 825 435 C 825 430 830 430 830 430 L 880 430 L 880 390 L 860 390 C 860 390 850 388 850 380 C 850 370 850 350 850 350 C 850 350 850 340 860 340 L 905 340 C 905 340 910 340 910 345 C 910 345 910 350 905 350 L 860 350 L 860 380 L 880 380 C 890 380 890 390 890 390 L 890 430 C 890 430 890 440 880 440 C 870 440 830 440 830 440 Z" stroke="#1d1d1d" stroke-linecap="square" stroke-linejoin="miter" stroke-width="2"/>
            </g>
            <g id="Graphic_240">
              <path d="M 838.5 432.5 L 879 432.5 C 879.5523 432.5 880 432.9477 880 433.5 L 880 433.5 C 880 434.0523 879.5523 434.5 879 434.5 L 838.5 434.5 C 837.9477 434.5 837.5 434.0523 837.5 433.5 L 837.5 433.5 C 837.5 432.9477 837.9477 432.5 838.5 432.5 Z" fill="white"/>
              <path d="M 838.5 432.5 L 879 432.5 C 879.5523 432.5 880 432.9477 880 433.5 L 880 433.5 C 880 434.0523 879.5523 434.5 879 434.5 L 838.5 434.5 C 837.9477 434.5 837.5 434.0523 837.5 433.5 L 837.5 433.5 C 837.5 432.9477 837.9477 432.5 838.5 432.5 Z" stroke="black" stroke-opacity=".5" stroke-linecap="round" stroke-linejoin="round" stroke-width=".5"/>
            </g>
            <g id="Graphic_239">
              <path d="M 861 343 L 901.5 343 C 902.0523 343 902.5 343.4477 902.5 344 L 902.5 344 C 902.5 344.5523 902.0523 345 901.5 345 L 861 345 C 860.4477 345 860 344.5523 860 344 L 860 344 C 860 343.4477 860.4477 343 861 343 Z" fill="white"/>
              <path d="M 861 343 L 901.5 343 C 902.0523 343 902.5 343.4477 902.5 344 L 902.5 344 C 902.5 344.5523 902.0523 345 901.5 345 L 861 345 C 860.4477 345 860 344.5523 860 344 L 860 344 C 860 343.4477 860.4477 343 861 343 Z" stroke="black" stroke-opacity=".5" stroke-linecap="round" stroke-linejoin="round" stroke-width=".5"/>
            </g>
            <g id="Graphic_238">
              <path d="M 861 383 L 879 383 C 879.5523 383 880 383.4477 880 384 L 880 384 C 880 384.5523 879.5523 385 879 385 L 861 385 C 860.4477 385 860 384.5523 860 384 L 860 384 C 860 383.4477 860.4477 383 861 383 Z" fill="white"/>
              <path d="M 861 383 L 879 383 C 879.5523 383 880 383.4477 880 384 L 880 384 C 880 384.5523 879.5523 385 879 385 L 861 385 C 860.4477 385 860 384.5523 860 384 L 860 384 C 860 383.4477 860.4477 383 861 383 Z" stroke="black" stroke-opacity=".5" stroke-linecap="round" stroke-linejoin="round" stroke-width=".5"/>
            </g>
          </g>
          <g id="Group_234">
            <title>I</title>
            <g id="Graphic_236">
              <path d="M 820 440 C 820 440 815 440 815 435 L 815 350 C 815 350 815 340 825 340 C 825 340 835 340 835 350 L 835 435 C 835 435 835 440 830 440 C 830 440 825 440 825 435 L 825 350 L 825 435 C 825 435 825 440 820 440 Z" fill="#fdf6f7"/>
              <path d="M 820 440 C 820 440 815 440 815 435 L 815 350 C 815 350 815 340 825 340 C 825 340 835 340 835 350 L 835 435 C 835 435 835 440 830 440 C 830 440 825 440 825 435 L 825 350 L 825 435 C 825 435 825 440 820 440 Z" stroke="#1d1d1d" stroke-linecap="round" stroke-linejoin="round" stroke-width="2"/>
            </g>
            <g id="Graphic_235">
              <path d="M 823.5 343 L 826.5 343 C 827.0523 343 827.5 343.4477 827.5 344 L 827.5 344 C 827.5 344.5523 827.0523 345 826.5 345 L 823.5 345 C 822.9477 345 822.5 344.5523 822.5 344 L 822.5 344 C 822.5 343.4477 822.9477 343 823.5 343 Z" fill="white"/>
              <path d="M 823.5 343 L 826.5 343 C 827.0523 343 827.5 343.4477 827.5 344 L 827.5 344 C 827.5 344.5523 827.0523 345 826.5 345 L 823.5 345 C 822.9477 345 822.5 344.5523 822.5 344 L 822.5 344 C 822.5 343.4477 822.9477 343 823.5 343 Z" stroke="black" stroke-opacity=".5" stroke-linecap="round" stroke-linejoin="round" stroke-width=".5"/>
            </g>
          </g>
        </g>
    </g>
  </g>
</svg>
