<?xml version="1.0" encoding="UTF-8" standalone="no"?>
<!DOCTYPE svg PUBLIC "-//W3C//DTD SVG 1.1//EN" "http://www.w3.org/Graphics/SVG/1.1/DTD/svg11.dtd">
<svg version="1.1" xmlns="http://www.w3.org/2000/svg" xmlns:xl="http://www.w3.org/1999/xlink" xmlns:dc="http://purl.org/dc/elements/1.1/" viewBox="156 181 888 268" width="888" height="268">
  <metadata>Designed by John Peart\nwww.johnpe.art\n@johnpeart\n\n2021-01-02 18:51:30 +0000</metadata>
  <g id="wordmark-havetohearthis" fill-opacity="1" stroke-opacity="1" stroke-dasharray="none" stroke="none" fill="none">
    <title>wordmark-havetohearthis</title>
    <g id="wordmark-havetohearthis_Wordmark">
      <title>Wordmark</title>
      <g id="Group_340">
        <title>Earbuds</title>
        <g id="Group_338">
          <g id="Graphic_318">
            <path d="M 295 190 C 300 190 300 195 300 195 L 300 330 C 300 330 415 330 405 330 C 405 330 415 330 415 340 C 415 340 415 410 415 400 C 415 400 415 410 405 410 L 300 410 L 300 400 L 405 400 L 405 340 C 405 340 290 340 300 340 C 300 340 290 340 290 330 L 290 195 C 290 195 290 190 295 190 Z" fill="#fdf6f7"/>
            <path d="M 295 190 C 300 190 300 195 300 195 L 300 330 C 300 330 415 330 405 330 C 405 330 415 330 415 340 C 415 340 415 410 415 400 C 415 400 415 410 405 410 L 300 410 L 300 400 L 405 400 L 405 340 C 405 340 290 340 300 340 C 300 340 290 340 290 330 L 290 195 C 290 195 290 190 295 190 Z" stroke="#1d1d1d" stroke-linecap="round" stroke-linejoin="round" stroke-width="1"/>
          </g>
          <g id="Group_304">
            <title>Earbud</title>
            <g id="Group_312">
              <title>Earbud stem</title>
              <g id="Graphic_317">
                <title>upper</title>
                <rect x="217.5" y="394.79167" width="93.33333" height="20.416667" fill="#fcf7f7"/>
                <rect x="217.5" y="394.79167" width="93.33333" height="20.416667" stroke="black" stroke-linecap="square" stroke-linejoin="miter" stroke-width="1.1666667"/>
              </g>
              <g id="Graphic_316">
                <title>lower</title>
                <rect x="310.83333" y="397.70833" width="11.666667" height="14.583333" fill="#fcf7f7"/>
                <rect x="310.83333" y="397.70833" width="11.666667" height="14.583333" stroke="black" stroke-linecap="square" stroke-linejoin="miter" stroke-width="1.1666667"/>
              </g>
              <g id="Graphic_315">
                <title>reflection-lower</title>
                <rect x="311.27083" y="400.0052" width="8.3125" height="1.75" fill="white"/>
                <rect x="311.27083" y="400.0052" width="8.3125" height="1.75" stroke="black" stroke-linecap="square" stroke-linejoin="miter" stroke-width=".29166667"/>
              </g>
              <g id="Graphic_314">
                <title>reflection-upper</title>
                <rect x="218.95833" y="397.54427" width="88.95833" height="2.9166667" fill="white"/>
                <rect x="218.95833" y="397.54427" width="88.95833" height="2.9166667" stroke="black" stroke-linecap="square" stroke-linejoin="miter" stroke-width=".29166667"/>
              </g>
              <g id="Graphic_313">
                <title>L</title>
                <path d="M 301.25267 407.35667 L 307.91667 407.35667 L 307.91667 402.64333 L 306.68467 402.64333 L 306.68467 405.89133 L 301.25267 405.89133 Z" fill="black"/>
              </g>
            </g>
            <g id="Group_305">
              <title>Earbud tip</title>
              <g id="Graphic_311">
                <title>outter-circle</title>
                <circle cx="200" cy="405" r="35.0000559265663" fill="#fcf7f7"/>
                <circle cx="200" cy="405" r="35.0000559265663" stroke="black" stroke-linecap="round" stroke-linejoin="round" stroke-width="1.1666667"/>
              </g>
              <g id="Graphic_310">
                <title>inner-circle</title>
                <circle cx="199.96157" cy="404.96157" r="27.6699493123568" fill="white"/>
                <circle cx="199.96157" cy="404.96157" r="27.6699493123568" stroke="black" stroke-linecap="round" stroke-linejoin="round" stroke-width="2.3333333"/>
              </g>
              <g id="Graphic_309">
                <title>grill-2</title>
                <path d="M 224.94944 417.00456 C 226.7846 413.2213 227.70423 409.10564 227.70834 404.98925 L 227.70834 404.9339 C 227.70423 400.8175 226.7846 396.70186 224.94944 392.9186 Z M 219.43164 385.2591 L 219.43164 424.66406 C 219.49723 424.59974 219.56258 424.535 219.62768 424.4699 C 220.5632 423.5344 221.41748 422.54843 222.19054 421.52075 L 222.19054 388.4024 C 221.41748 387.3747 220.5632 386.38873 219.62768 385.45322 C 219.56258 385.3881 219.49723 385.3234 219.43164 385.2591 Z M 216.67274 382.88603 C 215.78248 382.2167 214.86095 381.60834 213.91384 381.0609 L 213.91384 428.86224 C 214.86095 428.3148 215.78248 427.70643 216.67274 427.0371 Z M 211.15494 379.66778 C 210.25068 379.27353 209.3296 378.9301 208.39604 378.6374 L 208.39604 431.28573 C 209.3296 430.99306 210.25068 430.6496 211.15494 430.25537 Z M 205.63714 377.9269 C 204.72381 377.74136 203.8029 377.6024 202.87824 377.51 L 202.87824 432.41313 C 203.8029 432.32074 204.72381 432.1818 205.63714 431.99625 Z M 200.11934 377.37256 C 200.1101 377.37256 200.10089 377.37256 200.09166 377.37257 C 199.18002 377.3735 198.2684 377.4193 197.36044 377.51 L 197.36044 432.41313 C 198.2684 432.50385 199.18002 432.54966 200.09166 432.55057 L 200.11934 432.55057 Z M 194.60154 377.9269 C 193.67273 378.11557 192.75176 378.3524 191.84264 378.6374 L 191.84264 431.28573 C 192.75176 431.57073 193.67273 431.8076 194.60154 431.99625 Z M 189.08374 379.66778 C 188.14433 380.07734 187.22308 380.5417 186.32484 381.0609 L 186.32484 428.86224 C 187.22308 429.38143 188.14433 429.8458 189.08374 430.25537 Z M 183.56594 382.88603 C 182.6077 383.60645 181.6857 384.39747 180.80704 385.2591 L 180.80704 424.66406 C 181.6857 425.5257 182.6077 426.3167 183.56594 427.0371 Z M 178.04814 388.4024 C 176.97072 389.8347 176.05109 391.348 175.28924 392.9186 L 175.28924 417.00456 C 176.05109 418.57515 176.97072 420.08845 178.04814 421.52075 Z" stroke="black" stroke-linecap="round" stroke-linejoin="round" stroke-width=".5833333"/>
              </g>
              <g id="Graphic_308">
                <title>grill-1</title>
                <path d="M 187.91859 429.94943 C 191.70186 431.7846 195.8175 432.70423 199.9339 432.70833 L 199.98925 432.70833 C 204.10564 432.70423 208.22128 431.7846 212.00455 429.94943 Z M 180.25909 424.43164 C 180.3234 424.49723 180.38812 424.5626 180.45323 424.6277 C 181.38874 425.5632 182.37471 426.4175 183.4024 427.19053 L 216.52074 427.19053 C 217.54843 426.4175 218.5344 425.5632 219.46991 424.6277 C 219.53502 424.5626 219.59973 424.49723 219.66405 424.43164 Z M 176.0609 418.91384 C 176.60834 419.86095 177.21672 420.7825 177.88603 421.67274 L 222.0371 421.67274 C 222.70642 420.7825 223.3148 419.86095 223.86223 418.91384 Z M 173.63742 413.39604 C 173.93008 414.3296 174.27354 415.2507 174.66778 416.15494 L 225.25536 416.15494 C 225.6496 415.2507 225.99306 414.3296 226.28572 413.39604 Z M 172.51002 407.87824 C 172.6024 408.8029 172.74136 409.7238 172.9269 410.63714 L 226.99625 410.63714 C 227.18178 409.7238 227.32074 408.8029 227.41312 407.87824 Z M 172.51002 402.36044 C 172.4193 403.2684 172.37348 404.18 172.37258 405.09166 L 172.37258 405.11934 L 227.55056 405.11934 C 227.55058 405.1101 227.55057 405.1009 227.55056 405.09166 C 227.54966 404.18 227.50384 403.2684 227.41312 402.36044 Z M 173.63742 396.84264 C 173.35241 397.75177 173.11557 398.67274 172.9269 399.60154 L 226.99625 399.60154 C 226.80757 398.67274 226.57073 397.75177 226.28572 396.84264 Z M 176.0609 391.32484 C 175.54172 392.2231 175.07734 393.14434 174.66778 394.08374 L 225.25536 394.08374 C 224.8458 393.14434 224.38142 392.2231 223.86223 391.32484 Z M 180.25909 385.80704 C 179.39747 386.6857 178.60645 387.6077 177.88603 388.56594 L 222.0371 388.56594 C 221.3167 387.6077 220.52567 386.6857 219.66405 385.80704 Z M 216.52074 383.04814 C 215.08845 381.97073 213.57514 381.0511 212.00455 380.28924 L 187.91859 380.28924 C 186.348 381.0511 184.8347 381.97073 183.4024 383.04814 Z" stroke="black" stroke-linecap="round" stroke-linejoin="round" stroke-width=".5833333"/>
              </g>
              <g id="Graphic_307">
                <title>reflection-tip</title>
                <path d="M 198.82772 372.93796 C 191.01192 373.22196 183.28015 376.3472 177.3137 382.3137 C 171.00976 388.6176 167.87754 396.89214 167.91704 405.15433 L 169.37539 405.15433 C 169.33588 397.26536 172.32571 389.36404 178.3449 383.3449 C 184.02659 377.66316 191.38534 374.68063 198.82772 374.3973 Z" fill="white"/>
                <path d="M 198.82772 372.93796 C 191.01192 373.22196 183.28015 376.3472 177.3137 382.3137 C 171.00976 388.6176 167.87754 396.89214 167.91704 405.15433 L 169.37539 405.15433 C 169.33588 397.26536 172.32571 389.36404 178.3449 383.3449 C 184.02659 377.66316 191.38534 374.68063 198.82772 374.3973 Z" stroke="black" stroke-linecap="round" stroke-linejoin="round" stroke-width=".29166667"/>
              </g>
              <g id="Graphic_306">
                <title>shadow-grill</title>
                <path d="M 178.26889 405 L 183.88151 405 C 183.89126 400.89757 185.46117 396.79815 188.59124 393.6681 C 191.74084 390.51848 195.87195 388.94857 200 388.95837 L 200 383.34574 C 194.43556 383.33595 188.86806 385.45383 184.62253 389.6994 C 180.39652 393.92537 178.27864 399.46118 178.26889 405 Z" fill="#333"/>
                <path d="M 178.26889 405 L 183.88151 405 C 183.89126 400.89757 185.46117 396.79815 188.59124 393.6681 C 191.74084 390.51848 195.87195 388.94857 200 388.95837 L 200 383.34574 C 194.43556 383.33595 188.86806 385.45383 184.62253 389.6994 C 180.39652 393.92537 178.27864 399.46118 178.26889 405 Z" stroke="#fafafa" stroke-linecap="round" stroke-linejoin="round" stroke-width="2.3333333" clip-path="url(#inner_stroke_clip_path)"/>
              </g>
            </g>
          </g>
          <g id="Graphic_333">
            <title>reflection-upper</title>
            <path d="M 404.0852 333.86666 L 300.9148 333.86666 C 300.3073 333.86666 299.8148 333.37417 299.8148 332.76666 L 299.8148 332.76666 C 299.8148 332.15915 300.3073 331.66666 300.9148 331.66666 L 404.0852 331.66666 C 404.6927 331.66666 405.1852 332.15915 405.1852 332.76666 L 405.1852 332.76666 C 405.1852 333.37417 404.6927 333.86666 404.0852 333.86666 Z" fill="white"/>
            <path d="M 404.0852 333.86666 L 300.9148 333.86666 C 300.3073 333.86666 299.8148 333.37417 299.8148 332.76666 L 299.8148 332.76666 C 299.8148 332.15915 300.3073 331.66666 300.9148 331.66666 L 404.0852 331.66666 C 404.6927 331.66666 405.1852 332.15915 405.1852 332.76666 L 405.1852 332.76666 C 405.1852 333.37417 404.6927 333.86666 404.0852 333.86666 Z" stroke="black" stroke-linecap="square" stroke-linejoin="miter" stroke-width=".22"/>
          </g>
        </g>
        <g id="Group_339">
          <g id="Graphic_334">
            <path d="M 910 345 C 910 345 910 350 905 350 C 900 350 900 345 900 345 L 900 315 C 900 315 850 315 860 315 C 860 315 850 315 850 305 C 850 305 850 220 850 230 C 850 230 850 220 860 220 L 900 220 L 900 230 L 860 230 L 860 305 C 860 305 910 305 900 305 C 900 305 910 305 910 315 Z" fill="#fdf6f7"/>
            <path d="M 910 345 C 910 345 910 350 905 350 C 900 350 900 345 900 345 L 900 315 C 900 315 850 315 860 315 C 860 315 850 315 850 305 C 850 305 850 220 850 230 C 850 230 850 220 860 220 L 900 220 L 900 230 L 860 230 L 860 305 C 860 305 910 305 900 305 C 900 305 910 305 910 315 Z" stroke="#1d1d1d" stroke-linecap="round" stroke-linejoin="round" stroke-width="1"/>
          </g>
          <g id="Graphic_335">
            <title>reflection-upper</title>
            <path d="M 899.0852 308.86666 L 860.9148 308.86666 C 860.3073 308.86666 859.8148 308.37417 859.8148 307.76666 L 859.8148 307.76666 C 859.8148 307.15915 860.3073 306.66666 860.9148 306.66666 L 899.0852 306.66666 C 899.6927 306.66666 900.1852 307.15915 900.1852 307.76666 L 900.1852 307.76666 C 900.1852 308.37417 899.6927 308.86666 899.0852 308.86666 Z" fill="white"/>
            <path d="M 899.0852 308.86666 L 860.9148 308.86666 C 860.3073 308.86666 859.8148 308.37417 859.8148 307.76666 L 859.8148 307.76666 C 859.8148 307.15915 860.3073 306.66666 860.9148 306.66666 L 899.0852 306.66666 C 899.6927 306.66666 900.1852 307.15915 900.1852 307.76666 L 900.1852 307.76666 C 900.1852 308.37417 899.6927 308.86666 899.0852 308.86666 Z" stroke="black" stroke-linecap="square" stroke-linejoin="miter" stroke-width=".22"/>
          </g>
          <g id="Graphic_336">
            <title>reflection-upper</title>
            <path d="M 881.4 223.86666 L 860.7296 223.86666 C 860.1221 223.86666 859.6296 223.37417 859.6296 222.76666 L 859.6296 222.76666 C 859.6296 222.15915 860.1221 221.66666 860.7296 221.66666 L 881.4 221.66666 C 882.0075 221.66666 882.5 222.15915 882.5 222.76666 L 882.5 222.76666 C 882.5 223.37417 882.0075 223.86666 881.4 223.86666 Z" fill="white"/>
            <path d="M 881.4 223.86666 L 860.7296 223.86666 C 860.1221 223.86666 859.6296 223.37417 859.6296 222.76666 L 859.6296 222.76666 C 859.6296 222.15915 860.1221 221.66666 860.7296 221.66666 L 881.4 221.66666 C 882.0075 221.66666 882.5 222.15915 882.5 222.76666 L 882.5 222.76666 C 882.5 223.37417 882.0075 223.86666 881.4 223.86666 Z" stroke="black" stroke-linecap="square" stroke-linejoin="miter" stroke-width=".22"/>
          </g>
          <g id="Group_319">
            <title>Earbud</title>
            <g id="Group_327">
              <title>Earbud stem</title>
              <g id="Graphic_332">
                <title>upper</title>
                <rect x="886.6667" y="214.79167" width="93.33333" height="20.416667" fill="#fcf7f7"/>
                <rect x="886.6667" y="214.79167" width="93.33333" height="20.416667" stroke="black" stroke-linecap="square" stroke-linejoin="miter" stroke-width="1.1666667"/>
              </g>
              <g id="Graphic_331">
                <title>lower</title>
                <rect x="875" y="217.70833" width="11.666667" height="14.583333" fill="#fcf7f7"/>
                <rect x="875" y="217.70833" width="11.666667" height="14.583333" stroke="black" stroke-linecap="square" stroke-linejoin="miter" stroke-width="1.1666667"/>
              </g>
              <g id="Graphic_330">
                <title>reflection-lower</title>
                <rect x="877.9167" y="220" width="8.3125" height="1.75" fill="white"/>
                <rect x="877.9167" y="220" width="8.3125" height="1.75" stroke="black" stroke-linecap="square" stroke-linejoin="miter" stroke-width=".29166667"/>
              </g>
              <g id="Graphic_329">
                <title>reflection-upper</title>
                <rect x="889.5833" y="217.08333" width="88.95833" height="2.9166667" fill="white"/>
                <rect x="889.5833" y="217.08333" width="88.95833" height="2.9166667" stroke="black" stroke-linecap="square" stroke-linejoin="miter" stroke-width=".29166667"/>
              </g>
              <g id="Graphic_328">
                <title>R</title>
                <path d="M 893.0137 222.9217 L 894.8093 222.9217 L 894.8093 224.4582 C 894.8093 224.7798 894.7393 225.021 894.5994 225.1818 C 894.4594 225.34259 894.2346 225.42298 893.9249 225.42298 C 893.6033 225.42298 893.371 225.34259 893.2281 225.1818 C 893.0852 225.021 893.0137 224.7798 893.0137 224.4582 Z M 895.8991 221.5192 L 889.5209 221.5192 L 889.5209 222.9217 L 892.0132 222.9217 L 892.0132 224.3242 C 892.0132 224.67558 891.9358 224.92868 891.781 225.08352 C 891.6261 225.23837 891.3819 225.3396 891.0484 225.38725 C 890.7924 225.42298 890.5244 225.44978 890.2445 225.46765 C 889.9646 225.48552 889.7234 225.53316 889.5209 225.61058 L 889.5209 227.01308 C 889.6102 226.94757 889.7189 226.89844 889.8469 226.86568 C 889.975 226.83293 890.1105 226.8091 890.2534 226.79422 C 890.3963 226.77933 890.5363 226.7689 890.6732 226.76295 C 890.8102 226.757 890.9293 226.75104 891.0306 226.7451 C 891.1914 226.73318 891.3522 226.71084 891.513 226.6781 C 891.6738 226.64533 891.8212 226.59322 891.9552 226.52176 C 892.0891 226.4503 892.2053 226.35799 892.3035 226.24483 C 892.4018 226.13168 892.4748 225.98875 892.5224 225.81604 L 892.5403 225.81604 C 892.6832 226.17337 892.8916 226.43094 893.1656 226.58876 C 893.4395 226.74658 893.7641 226.82548 894.1393 226.82548 C 894.3835 226.82548 894.6113 226.7823 894.8227 226.69595 C 895.0341 226.6096 895.2202 226.48454 895.381 226.32076 C 895.5418 226.157 895.6684 225.96046 895.7607 225.73118 C 895.853 225.5019 895.8991 225.24432 895.8991 224.95846 Z" fill="black"/>
              </g>
            </g>
            <g id="Group_320">
              <title>Earbud tip</title>
              <g id="Graphic_326">
                <title>outter-circle</title>
                <circle cx="997.5" cy="225" r="35.0000559265664" fill="#fcf7f7"/>
                <circle cx="997.5" cy="225" r="35.0000559265664" stroke="black" stroke-linecap="round" stroke-linejoin="round" stroke-width="1.1666667"/>
              </g>
              <g id="Graphic_325">
                <title>inner-circle</title>
                <circle cx="997.4616" cy="224.96157" r="27.669949312357" fill="white"/>
                <circle cx="997.4616" cy="224.96157" r="27.669949312357" stroke="black" stroke-linecap="round" stroke-linejoin="round" stroke-width="2.3333333"/>
              </g>
              <g id="Graphic_324">
                <title>grill-2</title>
                <path d="M 1022.4494 237.00456 C 1024.2846 233.2213 1025.2042 229.10564 1025.2083 224.98925 L 1025.2083 224.9339 C 1025.2042 220.8175 1024.2846 216.70186 1022.4494 212.91858 Z M 1016.9316 205.25909 L 1016.9316 244.66406 C 1016.9972 244.59974 1017.0626 244.53502 1017.1277 244.46992 C 1018.0632 243.5344 1018.9175 242.54843 1019.6905 241.52075 L 1019.6905 208.4024 C 1018.9175 207.3747 1018.0632 206.38873 1017.1277 205.45322 C 1017.0626 205.38812 1016.9972 205.3234 1016.9316 205.25909 Z M 1014.1727 202.88603 C 1013.2825 202.21671 1012.361 201.60834 1011.4138 201.0609 L 1011.4138 248.86224 C 1012.361 248.3148 1013.2825 247.70643 1014.1727 247.03711 Z M 1008.6549 199.66778 C 1007.7507 199.27353 1006.8296 198.93008 1005.896 198.63741 L 1005.896 251.28573 C 1006.8296 250.99306 1007.7507 250.6496 1008.6549 250.25537 Z M 1003.1371 197.9269 C 1002.2238 197.74136 1001.3029 197.6024 1000.3782 197.51001 L 1000.3782 252.41313 C 1001.3029 252.32074 1002.2238 252.18178 1003.1371 251.99625 Z M 997.6193 197.37256 C 997.6101 197.37256 997.6009 197.37256 997.5917 197.37257 C 996.68 197.37348 995.7684 197.4193 994.8604 197.51001 L 994.8604 252.41313 C 995.7684 252.50385 996.68 252.54966 997.5917 252.55057 L 997.6193 252.55057 Z M 992.1015 197.9269 C 991.1727 198.11557 990.2518 198.3524 989.3426 198.63741 L 989.3426 251.28573 C 990.2518 251.57073 991.1727 251.80758 992.1015 251.99625 Z M 986.5837 199.66778 C 985.6443 200.07734 984.7231 200.54172 983.8248 201.0609 L 983.8248 248.86224 C 984.7231 249.38143 985.6443 249.8458 986.5837 250.25537 Z M 981.0659 202.88603 C 980.1077 203.60645 979.1857 204.39747 978.307 205.25909 L 978.307 244.66406 C 979.1857 245.52568 980.1077 246.3167 981.0659 247.03711 Z M 975.5481 208.4024 C 974.4707 209.8347 973.5511 211.348 972.7892 212.91858 L 972.7892 237.00456 C 973.5511 238.57515 974.4707 240.08845 975.5481 241.52075 Z" stroke="black" stroke-linecap="round" stroke-linejoin="round" stroke-width=".5833333"/>
              </g>
              <g id="Graphic_323">
                <title>grill-1</title>
                <path d="M 985.4186 249.94943 C 989.2019 251.7846 993.3175 252.70423 997.4339 252.70833 L 997.4892 252.70833 C 1001.6056 252.70423 1005.7213 251.7846 1009.5046 249.94943 Z M 977.7591 244.43164 C 977.8234 244.49723 977.8881 244.56258 977.9532 244.62768 C 978.8887 245.5632 979.8747 246.41748 980.9024 247.19053 L 1014.0207 247.19053 C 1015.0484 246.41748 1016.0344 245.5632 1016.9699 244.62768 C 1017.035 244.56258 1017.0997 244.49723 1017.164 244.43164 Z M 973.5609 238.91384 C 974.1083 239.86095 974.7167 240.78248 975.386 241.67274 L 1019.5371 241.67274 C 1020.2064 240.78248 1020.8148 239.86095 1021.3622 238.91384 Z M 971.1374 233.39604 C 971.4301 234.3296 971.7735 235.25068 972.1678 236.15494 L 1022.7554 236.15494 C 1023.1496 235.25068 1023.493 234.3296 1023.7857 233.39604 Z M 970.01 227.87824 C 970.1024 228.80291 970.2414 229.72382 970.4269 230.63714 L 1024.4962 230.63714 C 1024.6818 229.72382 1024.8207 228.80291 1024.9131 227.87824 Z M 970.01 222.36044 C 969.9193 223.2684 969.8735 224.18002 969.8726 225.09166 L 969.8726 225.11934 L 1025.0506 225.11934 C 1025.0506 225.11011 1025.0506 225.1009 1025.0506 225.09166 C 1025.0497 224.18002 1025.0038 223.2684 1024.9131 222.36044 Z M 971.1374 216.84264 C 970.8524 217.75177 970.6156 218.67274 970.4269 219.60154 L 1024.4962 219.60154 C 1024.3076 218.67274 1024.0707 217.75177 1023.7857 216.84264 Z M 973.5609 211.32484 C 973.0417 212.22309 972.5773 213.14434 972.1678 214.08374 L 1022.7554 214.08374 C 1022.3458 213.14434 1021.8814 212.22309 1021.3622 211.32484 Z M 977.7591 205.80704 C 976.8975 206.6857 976.1064 207.6077 975.386 208.56594 L 1019.5371 208.56594 C 1018.8167 207.6077 1018.0257 206.6857 1017.164 205.80704 Z M 1014.0207 203.04814 C 1012.5884 201.97073 1011.0751 201.0511 1009.5046 200.28924 L 985.4186 200.28924 C 983.848 201.0511 982.3347 201.97073 980.9024 203.04814 Z" stroke="black" stroke-linecap="round" stroke-linejoin="round" stroke-width=".5833333"/>
              </g>
              <g id="Graphic_322">
                <title>reflection-tip</title>
                <path d="M 996.3277 192.93796 C 988.5119 193.22196 980.7802 196.3472 974.8137 202.3137 C 968.5098 208.6176 965.3775 216.89214 965.417 225.15433 L 966.8754 225.15433 C 966.8359 217.26536 969.8257 209.36404 975.8449 203.3449 C 981.5266 197.66316 988.8853 194.68063 996.3277 194.3973 Z" fill="white"/>
                <path d="M 996.3277 192.93796 C 988.5119 193.22196 980.7802 196.3472 974.8137 202.3137 C 968.5098 208.6176 965.3775 216.89214 965.417 225.15433 L 966.8754 225.15433 C 966.8359 217.26536 969.8257 209.36404 975.8449 203.3449 C 981.5266 197.66316 988.8853 194.68063 996.3277 194.3973 Z" stroke="black" stroke-linecap="round" stroke-linejoin="round" stroke-width=".29166667"/>
              </g>
              <g id="Graphic_321">
                <title>shadow-grill</title>
                <path d="M 975.7689 225 L 981.3815 225 C 981.3913 220.89757 982.9612 216.79815 986.0912 213.6681 C 989.2408 210.51848 993.372 208.94857 997.5 208.95837 L 997.5 203.34574 C 991.9356 203.33595 986.3681 205.45383 982.1225 209.69938 C 977.8965 213.92537 975.7786 219.46118 975.7689 225 Z" fill="#333"/>
                <path d="M 975.7689 225 L 981.3815 225 C 981.3913 220.89757 982.9612 216.79815 986.0912 213.6681 C 989.2408 210.51848 993.372 208.94857 997.5 208.95837 L 997.5 203.34574 C 991.9356 203.33595 986.3681 205.45383 982.1225 209.69938 C 977.8965 213.92537 975.7786 219.46118 975.7689 225 Z" stroke="#fafafa" stroke-linecap="round" stroke-linejoin="round" stroke-width="2.3333333" clip-path="url(#inner_stroke_clip_path_2)"/>
              </g>
            </g>
          </g>
        </g>
      </g>
      <g id="Group_303">
        <title>You Have To Hear This</title>
        <g id="Group_273">
          <title>HEAR</title>
          <g id="Group_194">
            <title>H</title>
            <g id="Graphic_197">
              <path d="M 430 195 L 430 435 C 430 435 430 440 435 440 C 435 440 440 440 440 435 C 440 435 440 395 440 390 L 460 390 L 460 435 C 460 435 460 440 465 440 C 465 440 470 440 470 435 L 470 390 C 470 390 470 380 460 380 C 460 380 470 380 470 390 L 470 375 C 470 375 470 380 470 375 L 470 350 L 495 350 C 495 350 500 350 500 345 C 500 345 500 340 495 340 L 465 340 C 465 340 460 340 460 345 L 460 375 L 460 380 L 440 380 C 440 380 440 385 440 390 L 440 195 C 440 195 440 190 435 190 C 435 190 430 190 430 195 Z" fill="#fdf6f7"/>
              <path d="M 430 195 L 430 435 C 430 435 430 440 435 440 C 435 440 440 440 440 435 C 440 435 440 395 440 390 L 460 390 L 460 435 C 460 435 460 440 465 440 C 465 440 470 440 470 435 L 470 390 C 470 390 470 380 460 380 C 460 380 470 380 470 390 L 470 375 C 470 375 470 380 470 375 L 470 350 L 495 350 C 495 350 500 350 500 345 C 500 345 500 340 495 340 L 465 340 C 465 340 460 340 460 345 L 460 375 L 460 380 L 440 380 C 440 380 440 385 440 390 L 440 195 C 440 195 440 190 435 190 C 435 190 430 190 430 195 Z" stroke="#1d1d1d" stroke-linecap="round" stroke-linejoin="round" stroke-width="2"/>
            </g>
            <g id="Graphic_196">
              <path d="M 443.5 383 L 459 383 C 459.5523 383 460 383.4477 460 384 L 460 384 C 460 384.5523 459.5523 385 459 385 L 443.5 385 C 442.9477 385 442.5 384.5523 442.5 384 L 442.5 384 C 442.5 383.4477 442.9477 383 443.5 383 Z" fill="white"/>
              <path d="M 443.5 383 L 459 383 C 459.5523 383 460 383.4477 460 384 L 460 384 C 460 384.5523 459.5523 385 459 385 L 443.5 385 C 442.9477 385 442.5 384.5523 442.5 384 L 442.5 384 C 442.5 383.4477 442.9477 383 443.5 383 Z" stroke="black" stroke-opacity=".5" stroke-linecap="round" stroke-linejoin="round" stroke-width=".5"/>
            </g>
            <g id="Graphic_195">
              <path d="M 471 342.5 L 494 342.5 C 494.5523 342.5 495 342.9477 495 343.5 L 495 343.5 C 495 344.0523 494.5523 344.5 494 344.5 L 471 344.5 C 470.4477 344.5 470 344.0523 470 343.5 L 470 343.5 C 470 342.9477 470.4477 342.5 471 342.5 Z" fill="white"/>
              <path d="M 471 342.5 L 494 342.5 C 494.5523 342.5 495 342.9477 495 343.5 L 495 343.5 C 495 344.0523 494.5523 344.5 494 344.5 L 471 344.5 C 470.4477 344.5 470 344.0523 470 343.5 L 470 343.5 C 470 342.9477 470.4477 342.5 471 342.5 Z" stroke="black" stroke-opacity=".5" stroke-linecap="round" stroke-linejoin="round" stroke-width=".5"/>
            </g>
          </g>
          <g id="Group_252">
            <title>E</title>
            <g id="Graphic_262">
              <path d="M 465 340 C 465 340 460 340 460 345 C 460 345 460 350 465 350 L 525 350 C 525 350 485 350 495 350 C 495 350 485 350 485 360 C 485 360 485 390 485 380 C 485 380 485 390 495 390 L 525 390 C 525 390 485 390 495 390 C 495 390 485 390 485 400 C 485 400 485 440 485 430 C 485 430 485 440 495 440 C 495 440 560 440 555 440 C 555 440 560 440 560 435 C 560 435 560 430 555 430 L 495 430 L 495 400 C 495 400 535 400 525 400 C 525 400 535 400 535 390 C 535 390 535 380 525 380 L 495 380 L 495 360 C 495 360 535 360 525 360 C 525 360 535 360 535 350 C 535 350 535 340 525 340 C 525 340 460 340 465 340 Z" fill="#fdf6f7"/>
              <path d="M 465 340 C 465 340 460 340 460 345 C 460 345 460 350 465 350 L 525 350 C 525 350 485 350 495 350 C 495 350 485 350 485 360 C 485 360 485 390 485 380 C 485 380 485 390 495 390 L 525 390 C 525 390 485 390 495 390 C 495 390 485 390 485 400 C 485 400 485 440 485 430 C 485 430 485 440 495 440 C 495 440 560 440 555 440 C 555 440 560 440 560 435 C 560 435 560 430 555 430 L 495 430 L 495 400 C 495 400 535 400 525 400 C 525 400 535 400 535 390 C 535 390 535 380 525 380 L 495 380 L 495 360 C 495 360 535 360 525 360 C 525 360 535 360 535 350 C 535 350 535 340 525 340 C 525 340 460 340 465 340 Z" stroke="#1d1d1d" stroke-linecap="round" stroke-linejoin="round" stroke-width="2"/>
            </g>
            <g id="Graphic_260">
              <path d="M 496 353 L 524 353 C 524.5523 353 525 353.4477 525 354 L 525 354 C 525 354.5523 524.5523 355 524 355 L 496 355 C 495.4477 355 495 354.5523 495 354 L 495 354 C 495 353.4477 495.4477 353 496 353 Z" fill="white"/>
              <path d="M 496 353 L 524 353 C 524.5523 353 525 353.4477 525 354 L 525 354 C 525 354.5523 524.5523 355 524 355 L 496 355 C 495.4477 355 495 354.5523 495 354 L 495 354 C 495 353.4477 495.4477 353 496 353 Z" stroke="black" stroke-opacity=".5" stroke-linecap="round" stroke-linejoin="round" stroke-width=".5"/>
            </g>
            <g id="Graphic_259">
              <path d="M 496 382.5 L 524 382.5 C 524.5523 382.5 525 382.9477 525 383.5 L 525 383.5 C 525 384.0523 524.5523 384.5 524 384.5 L 496 384.5 C 495.4477 384.5 495 384.0523 495 383.5 L 495 383.5 C 495 382.9477 495.4477 382.5 496 382.5 Z" fill="white"/>
              <path d="M 496 382.5 L 524 382.5 C 524.5523 382.5 525 382.9477 525 383.5 L 525 383.5 C 525 384.0523 524.5523 384.5 524 384.5 L 496 384.5 C 495.4477 384.5 495 384.0523 495 383.5 L 495 383.5 C 495 382.9477 495.4477 382.5 496 382.5 Z" stroke="black" stroke-opacity=".5" stroke-linecap="round" stroke-linejoin="round" stroke-width=".5"/>
            </g>
            <g id="Graphic_258">
              <path d="M 496 392.5 L 524 392.5 C 524.5523 392.5 525 392.9477 525 393.5 L 525 393.5 C 525 394.0523 524.5523 394.5 524 394.5 L 496 394.5 C 495.4477 394.5 495 394.0523 495 393.5 L 495 393.5 C 495 392.9477 495.4477 392.5 496 392.5 Z" fill="white"/>
              <path d="M 496 392.5 L 524 392.5 C 524.5523 392.5 525 392.9477 525 393.5 L 525 393.5 C 525 394.0523 524.5523 394.5 524 394.5 L 496 394.5 C 495.4477 394.5 495 394.0523 495 393.5 L 495 393.5 C 495 392.9477 495.4477 392.5 496 392.5 Z" stroke="black" stroke-opacity=".5" stroke-linecap="round" stroke-linejoin="round" stroke-width=".5"/>
            </g>
            <g id="Graphic_257">
              <path d="M 496 432.5 L 549 432.5 C 549.5523 432.5 550 432.9477 550 433.5 L 550 433.5 C 550 434.0523 549.5523 434.5 549 434.5 L 496 434.5 C 495.4477 434.5 495 434.0523 495 433.5 L 495 433.5 C 495 432.9477 495.4477 432.5 496 432.5 Z" fill="white"/>
              <path d="M 496 432.5 L 549 432.5 C 549.5523 432.5 550 432.9477 550 433.5 L 550 433.5 C 550 434.0523 549.5523 434.5 549 434.5 L 496 434.5 C 495.4477 434.5 495 434.0523 495 433.5 L 495 433.5 C 495 432.9477 495.4477 432.5 496 432.5 Z" stroke="black" stroke-opacity=".5" stroke-linecap="round" stroke-linejoin="round" stroke-width=".5"/>
            </g>
            <g id="Graphic_253">
              <path d="M 468.5 342.5 L 524 342.5 C 524.5523 342.5 525 342.9477 525 343.5 L 525 343.5 C 525 344.0523 524.5523 344.5 524 344.5 L 468.5 344.5 C 467.9477 344.5 467.5 344.0523 467.5 343.5 L 467.5 343.5 C 467.5 342.9477 467.9477 342.5 468.5 342.5 Z" fill="white"/>
              <path d="M 468.5 342.5 L 524 342.5 C 524.5523 342.5 525 342.9477 525 343.5 L 525 343.5 C 525 344.0523 524.5523 344.5 524 344.5 L 468.5 344.5 C 467.9477 344.5 467.5 344.0523 467.5 343.5 L 467.5 343.5 C 467.5 342.9477 467.9477 342.5 468.5 342.5 Z" stroke="black" stroke-opacity=".5" stroke-linecap="round" stroke-linejoin="round" stroke-width=".5"/>
            </g>
          </g>
          <g id="Group_272">
            <title>R</title>
            <g id="Graphic_263">
              <path d="M 615 340 C 615 340 605 340 605 350 L 605 430 C 605 430 580 430 585 430 C 585 430 580 430 580 435 C 580 435 580 440 585 440 L 605 440 C 605 440 615 440 615 430 C 615 420 615 350 615 350 L 635 350 L 635 380 L 620 380 C 620 380 615 380 615 385 L 615 395 C 615 395 615 400 620 400 L 635 400 L 635 435 C 635 435 635 440 640 440 C 640 440 645 440 645 435 L 645 400 C 645 400 645 390 635 390 L 625 390 C 625 390 645 390 635 390 C 635 390 645 390 645 380 L 645 350 C 645 350 645 340 635 340 Z" fill="#fdf6f7"/>
              <path d="M 615 340 C 615 340 605 340 605 350 L 605 430 C 605 430 580 430 585 430 C 585 430 580 430 580 435 C 580 435 580 440 585 440 L 605 440 C 605 440 615 440 615 430 C 615 420 615 350 615 350 L 635 350 L 635 380 L 620 380 C 620 380 615 380 615 385 L 615 395 C 615 395 615 400 620 400 L 635 400 L 635 435 C 635 435 635 440 640 440 C 640 440 645 440 645 435 L 645 400 C 645 400 645 390 635 390 L 625 390 C 625 390 645 390 635 390 C 635 390 645 390 645 380 L 645 350 C 645 350 645 340 635 340 Z" stroke="#1d1d1d" stroke-linecap="round" stroke-linejoin="round" stroke-width="2"/>
            </g>
            <g id="Graphic_267">
              <path d="M 626 383 L 634 383 C 634.5523 383 635 383.4477 635 384 L 635 384 C 635 384.5523 634.5523 385 634 385 L 626 385 C 625.4477 385 625 384.5523 625 384 L 625 384 C 625 383.4477 625.4477 383 626 383 Z" fill="white"/>
              <path d="M 626 383 L 634 383 C 634.5523 383 635 383.4477 635 384 L 635 384 C 635 384.5523 634.5523 385 634 385 L 626 385 C 625.4477 385 625 384.5523 625 384 L 625 384 C 625 383.4477 625.4477 383 626 383 Z" stroke="black" stroke-opacity=".5" stroke-linecap="round" stroke-linejoin="round" stroke-width=".5"/>
            </g>
            <g id="Graphic_268">
              <path d="M 626 393 L 634 393 C 634.5523 393 635 393.4477 635 394 L 635 394 C 635 394.5523 634.5523 395 634 395 L 626 395 C 625.4477 395 625 394.5523 625 394 L 625 394 C 625 393.4477 625.4477 393 626 393 Z" fill="white"/>
              <path d="M 626 393 L 634 393 C 634.5523 393 635 393.4477 635 394 L 635 394 C 635 394.5523 634.5523 395 634 395 L 626 395 C 625.4477 395 625 394.5523 625 394 L 625 394 C 625 393.4477 625.4477 393 626 393 Z" stroke="black" stroke-opacity=".5" stroke-linecap="round" stroke-linejoin="round" stroke-width=".5"/>
            </g>
            <g id="Graphic_269">
              <path d="M 591 433 L 604 433 C 604.5523 433 605 433.4477 605 434 L 605 434 C 605 434.5523 604.5523 435 604 435 L 591 435 C 590.4477 435 590 434.5523 590 434 L 590 434 C 590 433.4477 590.4477 433 591 433 Z" fill="white"/>
              <path d="M 591 433 L 604 433 C 604.5523 433 605 433.4477 605 434 L 605 434 C 605 434.5523 604.5523 435 604 435 L 591 435 C 590.4477 435 590 434.5523 590 434 L 590 434 C 590 433.4477 590.4477 433 591 433 Z" stroke="black" stroke-opacity=".5" stroke-linecap="round" stroke-linejoin="round" stroke-width=".5"/>
            </g>
            <g id="Graphic_270">
              <path d="M 616 343 L 634 343 C 634.5523 343 635 343.4477 635 344 L 635 344 C 635 344.5523 634.5523 345 634 345 L 616 345 C 615.4477 345 615 344.5523 615 344 L 615 344 C 615 343.4477 615.4477 343 616 343 Z" fill="white"/>
              <path d="M 616 343 L 634 343 C 634.5523 343 635 343.4477 635 344 L 635 344 C 635 344.5523 634.5523 345 634 345 L 616 345 C 615.4477 345 615 344.5523 615 344 L 615 344 C 615 343.4477 615.4477 343 616 343 Z" stroke="black" stroke-opacity=".5" stroke-linecap="round" stroke-linejoin="round" stroke-width=".5"/>
            </g>
          </g>
          <g id="Group_271">
            <title>A</title>
            <g id="Graphic_264">
              <path d="M 550 435 C 550 435 550 440 555 440 C 555 440 560 440 560 435 C 560 430 560 385 560 385 C 560 385 560 390 565 390 L 575 390 C 575 390 580 390 580 385 C 580 385 580 380 575 380 L 565 380 C 565 380 560 380 560 385 L 560 375 L 560 350 L 580 350 L 580 435 C 580 435 580 440 585 440 C 585 440 590 440 590 435 C 590 430 590 350 590 350 C 590 350 590 340 580 340 C 570 340 560 340 560 340 C 560 340 550 340 550 350 C 550 360 550 435 550 435 Z" fill="#fdf6f7"/>
              <path d="M 550 435 C 550 435 550 440 555 440 C 555 440 560 440 560 435 C 560 430 560 385 560 385 C 560 385 560 390 565 390 L 575 390 C 575 390 580 390 580 385 C 580 385 580 380 575 380 L 565 380 C 565 380 560 380 560 385 L 560 375 L 560 350 L 580 350 L 580 435 C 580 435 580 440 585 440 C 585 440 590 440 590 435 C 590 430 590 350 590 350 C 590 350 590 340 580 340 C 570 340 560 340 560 340 C 560 340 550 340 550 350 C 550 360 550 435 550 435 Z" stroke="#1d1d1d" stroke-linecap="round" stroke-linejoin="round" stroke-width="2"/>
            </g>
            <g id="Graphic_265">
              <path d="M 561 343 L 579 343 C 579.5523 343 580 343.4477 580 344 L 580 344 C 580 344.5523 579.5523 345 579 345 L 561 345 C 560.4477 345 560 344.5523 560 344 L 560 344 C 560 343.4477 560.4477 343 561 343 Z" fill="white"/>
              <path d="M 561 343 L 579 343 C 579.5523 343 580 343.4477 580 344 L 580 344 C 580 344.5523 579.5523 345 579 345 L 561 345 C 560.4477 345 560 344.5523 560 344 L 560 344 C 560 343.4477 560.4477 343 561 343 Z" stroke="black" stroke-opacity=".5" stroke-linecap="round" stroke-linejoin="round" stroke-width=".5"/>
            </g>
            <g id="Graphic_266">
              <path d="M 566 383 L 574 383 C 574.5523 383 575 383.4477 575 384 L 575 384 C 575 384.5523 574.5523 385 574 385 L 566 385 C 565.4477 385 565 384.5523 565 384 L 565 384 C 565 383.4477 565.4477 383 566 383 Z" fill="white"/>
              <path d="M 566 383 L 574 383 C 574.5523 383 575 383.4477 575 384 L 575 384 C 575 384.5523 574.5523 385 574 385 L 566 385 C 565.4477 385 565 384.5523 565 384 L 565 384 C 565 383.4477 565.4477 383 566 383 Z" stroke="black" stroke-opacity=".5" stroke-linecap="round" stroke-linejoin="round" stroke-width=".5"/>
            </g>
          </g>
        </g>
        <g id="Group_224">
          <title>TO</title>
          <g id="Group_229">
            <title>T</title>
            <g id="Graphic_232">
              <path d="M 770 190 L 805 190 C 805 190 810 190 810 195 C 810 195 810 200 805 200 L 770 200 L 770 280 C 770 280 770 290 760 290 C 760 290 750 290 750 280 L 750 200 L 730 200 C 730 200 725 200 725 195 C 725 195 725 190 730 190 C 730 190 745 190 750 190 C 750 190 760 190 760 200 L 760 280 L 760 200 C 760 200 760 190 770 190 Z" fill="#fdf6f7"/>
              <path d="M 770 190 L 805 190 C 805 190 810 190 810 195 C 810 195 810 200 805 200 L 770 200 L 770 280 C 770 280 770 290 760 290 C 760 290 750 290 750 280 L 750 200 L 730 200 C 730 200 725 200 725 195 C 725 195 725 190 730 190 C 730 190 745 190 750 190 C 750 190 760 190 760 200 L 760 280 L 760 200 C 760 200 760 190 770 190 Z" stroke="#1d1d1d" stroke-linecap="round" stroke-linejoin="round" stroke-width="2"/>
            </g>
            <g id="Graphic_231">
              <path d="M 733.5 192.5 L 749 192.5 C 749.5523 192.5 750 192.94772 750 193.5 L 750 193.5 C 750 194.05228 749.5523 194.5 749 194.5 L 733.5 194.5 C 732.9477 194.5 732.5 194.05228 732.5 193.5 L 732.5 193.5 C 732.5 192.94772 732.9477 192.5 733.5 192.5 Z" fill="white"/>
              <path d="M 733.5 192.5 L 749 192.5 C 749.5523 192.5 750 192.94772 750 193.5 L 750 193.5 C 750 194.05228 749.5523 194.5 749 194.5 L 733.5 194.5 C 732.9477 194.5 732.5 194.05228 732.5 193.5 L 732.5 193.5 C 732.5 192.94772 732.9477 192.5 733.5 192.5 Z" stroke="black" stroke-opacity=".5" stroke-linecap="round" stroke-linejoin="round" stroke-width=".5"/>
            </g>
            <g id="Graphic_230">
              <path d="M 771 192.5 L 796.5 192.5 C 797.0523 192.5 797.5 192.94772 797.5 193.5 L 797.5 193.5 C 797.5 194.05228 797.0523 194.5 796.5 194.5 L 771 194.5 C 770.4477 194.5 770 194.05228 770 193.5 L 770 193.5 C 770 192.94772 770.4477 192.5 771 192.5 Z" fill="white"/>
              <path d="M 771 192.5 L 796.5 192.5 C 797.0523 192.5 797.5 192.94772 797.5 193.5 L 797.5 193.5 C 797.5 194.05228 797.0523 194.5 796.5 194.5 L 771 194.5 C 770.4477 194.5 770 194.05228 770 193.5 L 770 193.5 C 770 192.94772 770.4477 192.5 771 192.5 Z" stroke="black" stroke-opacity=".5" stroke-linecap="round" stroke-linejoin="round" stroke-width=".5"/>
            </g>
          </g>
          <g id="Group_225">
            <title>O</title>
            <g id="Graphic_228">
              <path d="M 805 190 C 805 190 810 190 810 195 C 810 195 810 200 805 200 C 805 200 800 200 800 210 L 800 270 C 800 270 800 280 810 280 C 810 280 820 280 820 270 L 820 210 C 820 210 820 200 815 200 C 815 200 810 200 810 195 C 810 195 810 190 815 190 C 815 190 830 190 830 210 L 830 270 C 830 270 830 290 810 290 C 810 290 790 290 790 270 L 790 210 C 790 210 790 190 805 190 Z" fill="#fdf6f7"/>
              <path d="M 805 190 C 805 190 810 190 810 195 C 810 195 810 200 805 200 C 805 200 800 200 800 210 L 800 270 C 800 270 800 280 810 280 C 810 280 820 280 820 270 L 820 210 C 820 210 820 200 815 200 C 815 200 810 200 810 195 C 810 195 810 190 815 190 C 815 190 830 190 830 210 L 830 270 C 830 270 830 290 810 290 C 810 290 790 290 790 270 L 790 210 C 790 210 790 190 805 190 Z" stroke="#1d1d1d" stroke-linecap="round" stroke-linejoin="round" stroke-width="2"/>
            </g>
            <g id="Graphic_227">
              <path d="M 813.5 192.5 L 816.5 192.5 C 817.0523 192.5 817.5 192.94772 817.5 193.5 L 817.5 193.5 C 817.5 194.05228 817.0523 194.5 816.5 194.5 L 813.5 194.5 C 812.9477 194.5 812.5 194.05228 812.5 193.5 L 812.5 193.5 C 812.5 192.94772 812.9477 192.5 813.5 192.5 Z" fill="white"/>
              <path d="M 813.5 192.5 L 816.5 192.5 C 817.0523 192.5 817.5 192.94772 817.5 193.5 L 817.5 193.5 C 817.5 194.05228 817.0523 194.5 816.5 194.5 L 813.5 194.5 C 812.9477 194.5 812.5 194.05228 812.5 193.5 L 812.5 193.5 C 812.5 192.94772 812.9477 192.5 813.5 192.5 Z" stroke="black" stroke-opacity=".5" stroke-linecap="round" stroke-linejoin="round" stroke-width=".5"/>
            </g>
            <g id="Graphic_226">
              <path d="M 803.5 192.5 L 806.5 192.5 C 807.0523 192.5 807.5 192.94772 807.5 193.5 L 807.5 193.5 C 807.5 194.05228 807.0523 194.5 806.5 194.5 L 803.5 194.5 C 802.9477 194.5 802.5 194.05228 802.5 193.5 L 802.5 193.5 C 802.5 192.94772 802.9477 192.5 803.5 192.5 Z" fill="white"/>
              <path d="M 803.5 192.5 L 806.5 192.5 C 807.0523 192.5 807.5 192.94772 807.5 193.5 L 807.5 193.5 C 807.5 194.05228 807.0523 194.5 806.5 194.5 L 803.5 194.5 C 802.9477 194.5 802.5 194.05228 802.5 193.5 L 802.5 193.5 C 802.5 192.94772 802.9477 192.5 803.5 192.5 Z" stroke="black" stroke-opacity=".5" stroke-linecap="round" stroke-linejoin="round" stroke-width=".5"/>
            </g>
          </g>
        </g>
        <g id="Group_274">
          <title>HAVE</title>
          <g id="Group_292">
            <title>H</title>
            <g id="Graphic_295">
              <path d="M 475 285 L 475 195 C 475 195 475 190 480 190 C 480 190 485 190 485 195 C 485 195 485 235 485 240 L 505 240 L 505 195 C 505 195 505 190 510 190 C 510 190 515 190 515 195 L 515 240 C 515 240 515 250 505 250 C 505 250 515 250 515 240 L 515 255 C 515 255 515 250 515 255 L 515 280 L 535 280 C 535 280 540 280 540 285 C 540 285 540 290 535 290 L 510 290 C 510 290 505 290 505 285 L 505 255 L 505 250 L 485 250 C 485 250 485 245 485 240 L 485 285 C 485 285 485 290 480 290 C 480 290 475 290 475 285 Z" fill="#fdf6f7"/>
              <path d="M 475 285 L 475 195 C 475 195 475 190 480 190 C 480 190 485 190 485 195 C 485 195 485 235 485 240 L 505 240 L 505 195 C 505 195 505 190 510 190 C 510 190 515 190 515 195 L 515 240 C 515 240 515 250 505 250 C 505 250 515 250 515 240 L 515 255 C 515 255 515 250 515 255 L 515 280 L 535 280 C 535 280 540 280 540 285 C 540 285 540 290 535 290 L 510 290 C 510 290 505 290 505 285 L 505 255 L 505 250 L 485 250 C 485 250 485 245 485 240 L 485 285 C 485 285 485 290 480 290 C 480 290 475 290 475 285 Z" stroke="#1d1d1d" stroke-linecap="round" stroke-linejoin="round" stroke-width="2"/>
            </g>
            <g id="Graphic_294">
              <path d="M 488.5 247 L 504 247 C 504.5523 247 505 246.55228 505 246 L 505 246 C 505 245.44772 504.5523 245 504 245 L 488.5 245 C 487.9477 245 487.5 245.44772 487.5 246 L 487.5 246 C 487.5 246.55228 487.9477 247 488.5 247 Z" fill="white"/>
              <path d="M 488.5 247 L 504 247 C 504.5523 247 505 246.55228 505 246 L 505 246 C 505 245.44772 504.5523 245 504 245 L 488.5 245 C 487.9477 245 487.5 245.44772 487.5 246 L 487.5 246 C 487.5 246.55228 487.9477 247 488.5 247 Z" stroke="black" stroke-opacity=".5" stroke-linecap="round" stroke-linejoin="round" stroke-width=".5"/>
            </g>
            <g id="Graphic_293">
              <path d="M 516 287.5 L 539 287.5 C 539.5523 287.5 540 287.0523 540 286.5 L 540 286.5 C 540 285.9477 539.5523 285.5 539 285.5 L 516 285.5 C 515.4477 285.5 515 285.9477 515 286.5 L 515 286.5 C 515 287.0523 515.4477 287.5 516 287.5 Z" fill="white"/>
              <path d="M 516 287.5 L 539 287.5 C 539.5523 287.5 540 287.0523 540 286.5 L 540 286.5 C 540 285.9477 539.5523 285.5 539 285.5 L 516 285.5 C 515.4477 285.5 515 285.9477 515 286.5 L 515 286.5 C 515 287.0523 515.4477 287.5 516 287.5 Z" stroke="black" stroke-opacity=".5" stroke-linecap="round" stroke-linejoin="round" stroke-width=".5"/>
            </g>
          </g>
          <g id="Group_296">
            <title>V</title>
            <g id="Graphic_300">
              <path d="M 585 190 C 585 190 595 190 595 200 L 595 265 L 605 275 L 615 265 L 615 195 C 615 195 615 190 620 190 L 645 190 C 645 190 650 190 650 195 C 650 200 645 200 645 200 L 625 200 L 625 270 L 605 290 L 585 270 L 585 200 L 565 200 C 565 200 560 200 560 195 C 560 195 560 190 565 190 Z" fill="#fdf6f7"/>
              <path d="M 585 190 C 585 190 595 190 595 200 L 595 265 L 605 275 L 615 265 L 615 195 C 615 195 615 190 620 190 L 645 190 C 645 190 650 190 650 195 C 650 200 645 200 645 200 L 625 200 L 625 270 L 605 290 L 585 270 L 585 200 L 565 200 C 565 200 560 200 560 195 C 560 195 560 190 565 190 Z" stroke="#1d1d1d" stroke-linecap="square" stroke-linejoin="miter" stroke-width="2"/>
            </g>
            <g id="Graphic_299">
              <path d="M 566 193 L 584 193 C 584.5523 193 585 193.44772 585 194 L 585 194 C 585 194.55228 584.5523 195 584 195 L 566 195 C 565.4477 195 565 194.55228 565 194 L 565 194 C 565 193.44772 565.4477 193 566 193 Z" fill="white"/>
              <path d="M 566 193 L 584 193 C 584.5523 193 585 193.44772 585 194 L 585 194 C 585 194.55228 584.5523 195 584 195 L 566 195 C 565.4477 195 565 194.55228 565 194 L 565 194 C 565 193.44772 565.4477 193 566 193 Z" stroke="black" stroke-opacity=".5" stroke-linecap="round" stroke-linejoin="round" stroke-width=".5"/>
            </g>
            <g id="Graphic_302">
              <path d="M 606.9571 276.62868 L 616.0858 267.5 C 616.4763 267.10948 617.1095 267.10948 617.5 267.5 L 617.5 267.5 C 617.8905 267.89052 617.8905 268.5237 617.5 268.9142 C 617.5 268.9142 617.5 268.9142 617.5 268.9142 L 608.3713 278.0429 C 607.9808 278.43342 607.3476 278.43342 606.9571 278.0429 L 606.9571 278.0429 C 606.5666 277.65237 606.5666 277.0192 606.9571 276.62868 C 606.9571 276.62868 606.9571 276.62868 606.9571 276.62868 Z" fill="white"/>
              <path d="M 606.9571 276.62868 L 616.0858 267.5 C 616.4763 267.10948 617.1095 267.10948 617.5 267.5 L 617.5 267.5 C 617.8905 267.89052 617.8905 268.5237 617.5 268.9142 C 617.5 268.9142 617.5 268.9142 617.5 268.9142 L 608.3713 278.0429 C 607.9808 278.43342 607.3476 278.43342 606.9571 278.0429 L 606.9571 278.0429 C 606.5666 277.65237 606.5666 277.0192 606.9571 276.62868 C 606.9571 276.62868 606.9571 276.62868 606.9571 276.62868 Z" stroke="black" stroke-opacity=".5" stroke-linecap="round" stroke-linejoin="round" stroke-width=".5"/>
            </g>
          </g>
          <g id="Group_275">
            <title>A</title>
            <g id="Graphic_278">
              <path d="M 530 285 C 530 285 530 290 535 290 C 535 290 540 290 540 285 C 540 280 540 235 540 235 C 540 235 540 240 545 240 L 555 240 C 555 240 560 240 560 235 C 560 235 560 230 555 230 L 545 230 C 545 230 540 230 540 235 L 540 225 L 540 200 L 560 200 L 560 285 C 560 285 560 290 565 290 C 565 290 570 290 570 285 C 570 280 570 200 570 200 C 570 200 570 190 560 190 C 550 190 540 190 540 190 C 540 190 530 190 530 200 C 530 210 530 285 530 285 Z" fill="#fdf6f7"/>
              <path d="M 530 285 C 530 285 530 290 535 290 C 535 290 540 290 540 285 C 540 280 540 235 540 235 C 540 235 540 240 545 240 L 555 240 C 555 240 560 240 560 235 C 560 235 560 230 555 230 L 545 230 C 545 230 540 230 540 235 L 540 225 L 540 200 L 560 200 L 560 285 C 560 285 560 290 565 290 C 565 290 570 290 570 285 C 570 280 570 200 570 200 C 570 200 570 190 560 190 C 550 190 540 190 540 190 C 540 190 530 190 530 200 C 530 210 530 285 530 285 Z" stroke="#1d1d1d" stroke-linecap="round" stroke-linejoin="round" stroke-width="2"/>
            </g>
            <g id="Graphic_277">
              <path d="M 541 193 L 559 193 C 559.5523 193 560 193.44772 560 194 L 560 194 C 560 194.55228 559.5523 195 559 195 L 541 195 C 540.4477 195 540 194.55228 540 194 L 540 194 C 540 193.44772 540.4477 193 541 193 Z" fill="white"/>
              <path d="M 541 193 L 559 193 C 559.5523 193 560 193.44772 560 194 L 560 194 C 560 194.55228 559.5523 195 559 195 L 541 195 C 540.4477 195 540 194.55228 540 194 L 540 194 C 540 193.44772 540.4477 193 541 193 Z" stroke="black" stroke-opacity=".5" stroke-linecap="round" stroke-linejoin="round" stroke-width=".5"/>
            </g>
            <g id="Graphic_276">
              <path d="M 546 233 L 554 233 C 554.5523 233 555 233.44772 555 234 L 555 234 C 555 234.55228 554.5523 235 554 235 L 546 235 C 545.4477 235 545 234.55228 545 234 L 545 234 C 545 233.44772 545.4477 233 546 233 Z" fill="white"/>
              <path d="M 546 233 L 554 233 C 554.5523 233 555 233.44772 555 234 L 555 234 C 555 234.55228 554.5523 235 554 235 L 546 235 C 545.4477 235 545 234.55228 545 234 L 545 234 C 545 233.44772 545.4477 233 546 233 Z" stroke="black" stroke-opacity=".5" stroke-linecap="round" stroke-linejoin="round" stroke-width=".5"/>
            </g>
          </g>
          <g id="Group_285">
            <title>E</title>
            <g id="Graphic_291">
              <path d="M 620 190 C 620 190 615 190 615 195 C 615 195 615 200 620 200 L 680 200 C 680 200 640 200 650 200 C 650 200 640 200 640 210 C 640 210 640 240 640 230 C 640 230 640 240 650 240 L 680 240 C 680 240 640 240 650 240 C 650 240 640 240 640 250 C 640 250 640 290 640 280 C 640 280 640 290 650 290 L 680 290 L 680 345 C 680 345 680 350 685 350 C 690 350 690 345 690 345 C 690 345 690 280 690 290 C 690 290 690 280 680 280 L 650 280 L 650 250 C 650 250 690 250 680 250 C 680 250 690 250 690 240 C 690 240 690 230 680 230 L 650 230 L 650 210 C 650 210 690 210 680 210 C 680 210 690 210 690 200 C 690 200 690 190 680 190 C 680 190 615 190 620 190 Z" fill="#fdf6f7"/>
              <path d="M 620 190 C 620 190 615 190 615 195 C 615 195 615 200 620 200 L 680 200 C 680 200 640 200 650 200 C 650 200 640 200 640 210 C 640 210 640 240 640 230 C 640 230 640 240 650 240 L 680 240 C 680 240 640 240 650 240 C 650 240 640 240 640 250 C 640 250 640 290 640 280 C 640 280 640 290 650 290 L 680 290 L 680 345 C 680 345 680 350 685 350 C 690 350 690 345 690 345 C 690 345 690 280 690 290 C 690 290 690 280 680 280 L 650 280 L 650 250 C 650 250 690 250 680 250 C 680 250 690 250 690 240 C 690 240 690 230 680 230 L 650 230 L 650 210 C 650 210 690 210 680 210 C 680 210 690 210 690 200 C 690 200 690 190 680 190 C 680 190 615 190 620 190 Z" stroke="#1d1d1d" stroke-linecap="round" stroke-linejoin="round" stroke-width="2"/>
            </g>
            <g id="Graphic_290">
              <path d="M 651 203 L 679 203 C 679.5523 203 680 203.44772 680 204 L 680 204 C 680 204.55228 679.5523 205 679 205 L 651 205 C 650.4477 205 650 204.55228 650 204 L 650 204 C 650 203.44772 650.4477 203 651 203 Z" fill="white"/>
              <path d="M 651 203 L 679 203 C 679.5523 203 680 203.44772 680 204 L 680 204 C 680 204.55228 679.5523 205 679 205 L 651 205 C 650.4477 205 650 204.55228 650 204 L 650 204 C 650 203.44772 650.4477 203 651 203 Z" stroke="black" stroke-opacity=".5" stroke-linecap="round" stroke-linejoin="round" stroke-width=".5"/>
            </g>
            <g id="Graphic_289">
              <path d="M 651 232.5 L 679 232.5 C 679.5523 232.5 680 232.94772 680 233.5 L 680 233.5 C 680 234.05228 679.5523 234.5 679 234.5 L 651 234.5 C 650.4477 234.5 650 234.05228 650 233.5 L 650 233.5 C 650 232.94772 650.4477 232.5 651 232.5 Z" fill="white"/>
              <path d="M 651 232.5 L 679 232.5 C 679.5523 232.5 680 232.94772 680 233.5 L 680 233.5 C 680 234.05228 679.5523 234.5 679 234.5 L 651 234.5 C 650.4477 234.5 650 234.05228 650 233.5 L 650 233.5 C 650 232.94772 650.4477 232.5 651 232.5 Z" stroke="black" stroke-opacity=".5" stroke-linecap="round" stroke-linejoin="round" stroke-width=".5"/>
            </g>
            <g id="Graphic_288">
              <path d="M 651 242.5 L 679 242.5 C 679.5523 242.5 680 242.94772 680 243.5 L 680 243.5 C 680 244.05228 679.5523 244.5 679 244.5 L 651 244.5 C 650.4477 244.5 650 244.05228 650 243.5 L 650 243.5 C 650 242.94772 650.4477 242.5 651 242.5 Z" fill="white"/>
              <path d="M 651 242.5 L 679 242.5 C 679.5523 242.5 680 242.94772 680 243.5 L 680 243.5 C 680 244.05228 679.5523 244.5 679 244.5 L 651 244.5 C 650.4477 244.5 650 244.05228 650 243.5 L 650 243.5 C 650 242.94772 650.4477 242.5 651 242.5 Z" stroke="black" stroke-opacity=".5" stroke-linecap="round" stroke-linejoin="round" stroke-width=".5"/>
            </g>
            <g id="Graphic_287">
              <path d="M 651 282.5 L 684 282.5 C 684.5523 282.5 685 282.9477 685 283.5 L 685 283.5 C 685 284.0523 684.5523 284.5 684 284.5 L 651 284.5 C 650.4477 284.5 650 284.0523 650 283.5 L 650 283.5 C 650 282.9477 650.4477 282.5 651 282.5 Z" fill="white"/>
              <path d="M 651 282.5 L 684 282.5 C 684.5523 282.5 685 282.9477 685 283.5 L 685 283.5 C 685 284.0523 684.5523 284.5 684 284.5 L 651 284.5 C 650.4477 284.5 650 284.0523 650 283.5 L 650 283.5 C 650 282.9477 650.4477 282.5 651 282.5 Z" stroke="black" stroke-opacity=".5" stroke-linecap="round" stroke-linejoin="round" stroke-width=".5"/>
            </g>
            <g id="Graphic_286">
              <path d="M 621.0435 192.5 L 678.9565 192.5 C 679.5328 192.5 680 192.94772 680 193.5 C 680 194.05228 679.5328 194.5 678.9565 194.5 L 621.0435 194.5 C 620.4672 194.5 620 194.05228 620 193.5 C 620 192.94772 620.4672 192.5 621.0435 192.5 Z" fill="white"/>
              <path d="M 621.0435 192.5 L 678.9565 192.5 C 679.5328 192.5 680 192.94772 680 193.5 C 680 194.05228 679.5328 194.5 678.9565 194.5 L 621.0435 194.5 C 620.4672 194.5 620 194.05228 620 193.5 C 620 192.94772 620.4672 192.5 621.0435 192.5 Z" stroke="black" stroke-opacity=".5" stroke-linecap="round" stroke-linejoin="round" stroke-width=".5"/>
            </g>
          </g>
        </g>
        <g id="Group_153">
          <title>YOU</title>
          <g id="Group_164">
            <title>Y</title>
            <g id="Graphic_170">
              <path d="M 290 195 C 290 195 290 190 295 190 C 295 190 300 190 300 195 L 300 240 L 320 240 L 320 200 C 320 200 320 190 330 190 C 330 190 340 190 340 200 L 340 270 C 340 270 340 280 330 280 L 300 280 L 370 280 L 375 285 L 370 290 L 300 290 C 300 290 290 290 290 280 C 290 280 290 270 300 270 L 330 270 L 330 200 L 330 240 C 330 240 330 250 320 250 L 300 250 C 300 250 290 250 290 240 Z" fill="#fdf6f7"/>
              <path d="M 290 195 C 290 195 290 190 295 190 C 295 190 300 190 300 195 L 300 240 L 320 240 L 320 200 C 320 200 320 190 330 190 C 330 190 340 190 340 200 L 340 270 C 340 270 340 280 330 280 L 300 280 L 370 280 L 375 285 L 370 290 L 300 290 C 300 290 290 290 290 280 C 290 280 290 270 300 270 L 330 270 L 330 200 L 330 240 C 330 240 330 250 320 250 L 300 250 C 300 250 290 250 290 240 Z" stroke="#1d1d1d" stroke-linecap="round" stroke-linejoin="round" stroke-width="2"/>
            </g>
            <g id="Graphic_169">
              <path d="M 301 242.5 L 319 242.5 C 319.5523 242.5 320 242.94772 320 243.5 L 320 243.5 C 320 244.05228 319.5523 244.5 319 244.5 L 301 244.5 C 300.4477 244.5 300 244.05228 300 243.5 L 300 243.5 C 300 242.94772 300.4477 242.5 301 242.5 Z" fill="white"/>
              <path d="M 301 242.5 L 319 242.5 C 319.5523 242.5 320 242.94772 320 243.5 L 320 243.5 C 320 244.05228 319.5523 244.5 319 244.5 L 301 244.5 C 300.4477 244.5 300 244.05228 300 243.5 L 300 243.5 C 300 242.94772 300.4477 242.5 301 242.5 Z" stroke="black" stroke-opacity=".5" stroke-linecap="round" stroke-linejoin="round" stroke-width=".5"/>
            </g>
            <g id="Graphic_168">
              <path d="M 301 272.5 L 329 272.5 C 329.5523 272.5 330 272.9477 330 273.5 L 330 273.5 C 330 274.0523 329.5523 274.5 329 274.5 L 301 274.5 C 300.4477 274.5 300 274.0523 300 273.5 L 300 273.5 C 300 272.9477 300.4477 272.5 301 272.5 Z" fill="white"/>
              <path d="M 301 272.5 L 329 272.5 C 329.5523 272.5 330 272.9477 330 273.5 L 330 273.5 C 330 274.0523 329.5523 274.5 329 274.5 L 301 274.5 C 300.4477 274.5 300 274.0523 300 273.5 L 300 273.5 C 300 272.9477 300.4477 272.5 301 272.5 Z" stroke="black" stroke-opacity=".5" stroke-linecap="round" stroke-linejoin="round" stroke-width=".5"/>
            </g>
            <g id="Graphic_167">
              <path d="M 301 282.5 L 354 282.5 C 354.5523 282.5 355 282.9477 355 283.5 L 355 283.5 C 355 284.0523 354.5523 284.5 354 284.5 L 301 284.5 C 300.4477 284.5 300 284.0523 300 283.5 L 300 283.5 C 300 282.9477 300.4477 282.5 301 282.5 Z" fill="white"/>
              <path d="M 301 282.5 L 354 282.5 C 354.5523 282.5 355 282.9477 355 283.5 L 355 283.5 C 355 284.0523 354.5523 284.5 354 284.5 L 301 284.5 C 300.4477 284.5 300 284.0523 300 283.5 L 300 283.5 C 300 282.9477 300.4477 282.5 301 282.5 Z" stroke="black" stroke-opacity=".5" stroke-linecap="round" stroke-linejoin="round" stroke-width=".5"/>
            </g>
            <g id="Graphic_166">
              <path d="M 296 192.5 L 296.5 192.5 C 297.0523 192.5 297.5 192.94772 297.5 193.5 L 297.5 193.5 C 297.5 194.05228 297.0523 194.5 296.5 194.5 L 296 194.5 C 295.4477 194.5 295 194.05228 295 193.5 L 295 193.5 C 295 192.94772 295.4477 192.5 296 192.5 Z" fill="white"/>
              <path d="M 296 192.5 L 296.5 192.5 C 297.0523 192.5 297.5 192.94772 297.5 193.5 L 297.5 193.5 C 297.5 194.05228 297.0523 194.5 296.5 194.5 L 296 194.5 C 295.4477 194.5 295 194.05228 295 193.5 L 295 193.5 C 295 192.94772 295.4477 192.5 296 192.5 Z" stroke="black" stroke-opacity=".5" stroke-linecap="round" stroke-linejoin="round" stroke-width=".5"/>
            </g>
            <g id="Graphic_165">
              <path d="M 328.5 192.5 L 331.5 192.5 C 332.0523 192.5 332.5 192.94772 332.5 193.5 L 332.5 193.5 C 332.5 194.05228 332.0523 194.5 331.5 194.5 L 328.5 194.5 C 327.9477 194.5 327.5 194.05228 327.5 193.5 L 327.5 193.5 C 327.5 192.94772 327.9477 192.5 328.5 192.5 Z" fill="white"/>
              <path d="M 328.5 192.5 L 331.5 192.5 C 332.0523 192.5 332.5 192.94772 332.5 193.5 L 332.5 193.5 C 332.5 194.05228 332.0523 194.5 331.5 194.5 L 328.5 194.5 C 327.9477 194.5 327.5 194.05228 327.5 193.5 L 327.5 193.5 C 327.5 192.94772 327.9477 192.5 328.5 192.5 Z" stroke="black" stroke-opacity=".5" stroke-linecap="round" stroke-linejoin="round" stroke-width=".5"/>
            </g>
          </g>
          <g id="Group_159">
            <title>U</title>
            <g id="Graphic_163">
              <path d="M 400 190 C 400 190 410 190 410 200 C 410 200 410 260 410 270 C 410 280 420 280 420 280 C 420 280 430 280 430 270 C 430 260 430 190 430 195 C 430 195 430 190 435 190 C 440 190 440 195 440 195 C 440 195 440 290 440 270 C 440 290 420 290 420 290 C 420 290 400 290 400 270 L 400 200 L 375 200 C 375 200 370 200 370 195 C 370 195 370 190 375 190 Z" fill="#fdf6f7"/>
              <path d="M 400 190 C 400 190 410 190 410 200 C 410 200 410 260 410 270 C 410 280 420 280 420 280 C 420 280 430 280 430 270 C 430 260 430 190 430 195 C 430 195 430 190 435 190 C 440 190 440 195 440 195 C 440 195 440 290 440 270 C 440 290 420 290 420 290 C 420 290 400 290 400 270 L 400 200 L 375 200 C 375 200 370 200 370 195 C 370 195 370 190 375 190 Z" stroke="#1d1d1d" stroke-linecap="square" stroke-linejoin="miter" stroke-width="2"/>
            </g>
            <g id="Graphic_162">
              <path d="M 381 193 L 399 193 C 399.5523 193 400 193.44772 400 194 L 400 194 C 400 194.55228 399.5523 195 399 195 L 381 195 C 380.4477 195 380 194.55228 380 194 L 380 194 C 380 193.44772 380.4477 193 381 193 Z" fill="white"/>
              <path d="M 381 193 L 399 193 C 399.5523 193 400 193.44772 400 194 L 400 194 C 400 194.55228 399.5523 195 399 195 L 381 195 C 380.4477 195 380 194.55228 380 194 L 380 194 C 380 193.44772 380.4477 193 381 193 Z" stroke="black" stroke-opacity=".5" stroke-linecap="round" stroke-linejoin="round" stroke-width=".5"/>
            </g>
            <g id="Graphic_161">
              <path d="M 436 193 L 436.5 193 C 437.0523 193 437.5 193.44772 437.5 194 L 437.5 194 C 437.5 194.55228 437.0523 195 436.5 195 L 436 195 C 435.4477 195 435 194.55228 435 194 L 435 194 C 435 193.44772 435.4477 193 436 193 Z" fill="white"/>
              <path d="M 436 193 L 436.5 193 C 437.0523 193 437.5 193.44772 437.5 194 L 437.5 194 C 437.5 194.55228 437.0523 195 436.5 195 L 436 195 C 435.4477 195 435 194.55228 435 194 L 435 194 C 435 193.44772 435.4477 193 436 193 Z" stroke="black" stroke-opacity=".5" stroke-linecap="round" stroke-linejoin="round" stroke-width=".5"/>
            </g>
            <g id="Graphic_160">
              <path d="M 418.5 282.5 L 421.5 282.5 C 422.0523 282.5 422.5 282.9477 422.5 283.5 L 422.5 283.5 C 422.5 284.0523 422.0523 284.5 421.5 284.5 L 418.5 284.5 C 417.9477 284.5 417.5 284.0523 417.5 283.5 L 417.5 283.5 C 417.5 282.9477 417.9477 282.5 418.5 282.5 Z" fill="white"/>
              <path d="M 418.5 282.5 L 421.5 282.5 C 422.0523 282.5 422.5 282.9477 422.5 283.5 L 422.5 283.5 C 422.5 284.0523 422.0523 284.5 421.5 284.5 L 418.5 284.5 C 417.9477 284.5 417.5 284.0523 417.5 283.5 L 417.5 283.5 C 417.5 282.9477 417.9477 282.5 418.5 282.5 Z" stroke="black" stroke-opacity=".5" stroke-linecap="round" stroke-linejoin="round" stroke-width=".5"/>
            </g>
          </g>
          <g id="Group_154">
            <title>O</title>
            <g id="Graphic_158">
              <path d="M 365 190 C 365 190 370 190 370 195 C 370 195 370 200 365 200 C 365 200 360 200 360 210 L 360 270 C 360 270 360 280 370 280 C 370 280 380 280 380 270 L 380 210 C 380 210 380 200 375 200 C 375 200 370 200 370 195 C 370 195 370 190 375 190 C 375 190 390 190 390 210 L 390 270 C 390 270 390 290 370 290 C 370 290 350 290 350 270 L 350 210 C 350 210 350 190 365 190 Z" fill="#fdf6f7"/>
              <path d="M 365 190 C 365 190 370 190 370 195 C 370 195 370 200 365 200 C 365 200 360 200 360 210 L 360 270 C 360 270 360 280 370 280 C 370 280 380 280 380 270 L 380 210 C 380 210 380 200 375 200 C 375 200 370 200 370 195 C 370 195 370 190 375 190 C 375 190 390 190 390 210 L 390 270 C 390 270 390 290 370 290 C 370 290 350 290 350 270 L 350 210 C 350 210 350 190 365 190 Z" stroke="#1d1d1d" stroke-linecap="round" stroke-linejoin="round" stroke-width="2"/>
            </g>
            <g id="Graphic_157">
              <path d="M 373.5 193 L 376.5 193 C 377.0523 193 377.5 193.44772 377.5 194 L 377.5 194 C 377.5 194.55228 377.0523 195 376.5 195 L 373.5 195 C 372.9477 195 372.5 194.55228 372.5 194 L 372.5 194 C 372.5 193.44772 372.9477 193 373.5 193 Z" fill="white"/>
              <path d="M 373.5 193 L 376.5 193 C 377.0523 193 377.5 193.44772 377.5 194 L 377.5 194 C 377.5 194.55228 377.0523 195 376.5 195 L 373.5 195 C 372.9477 195 372.5 194.55228 372.5 194 L 372.5 194 C 372.5 193.44772 372.9477 193 373.5 193 Z" stroke="black" stroke-opacity=".5" stroke-linecap="round" stroke-linejoin="round" stroke-width=".5"/>
            </g>
            <g id="Graphic_156">
              <path d="M 363.5 193 L 366.5 193 C 367.0523 193 367.5 193.44772 367.5 194 L 367.5 194 C 367.5 194.55228 367.0523 195 366.5 195 L 363.5 195 C 362.9477 195 362.5 194.55228 362.5 194 L 362.5 194 C 362.5 193.44772 362.9477 193 363.5 193 Z" fill="white"/>
              <path d="M 363.5 193 L 366.5 193 C 367.0523 193 367.5 193.44772 367.5 194 L 367.5 194 C 367.5 194.55228 367.0523 195 366.5 195 L 363.5 195 C 362.9477 195 362.5 194.55228 362.5 194 L 362.5 194 C 362.5 193.44772 362.9477 193 363.5 193 Z" stroke="black" stroke-opacity=".5" stroke-linecap="round" stroke-linejoin="round" stroke-width=".5"/>
            </g>
            <g id="Graphic_155">
              <path d="M 368.5 282.5 L 371.5 282.5 C 372.0523 282.5 372.5 282.9477 372.5 283.5 L 372.5 283.5 C 372.5 284.0523 372.0523 284.5 371.5 284.5 L 368.5 284.5 C 367.9477 284.5 367.5 284.0523 367.5 283.5 L 367.5 283.5 C 367.5 282.9477 367.9477 282.5 368.5 282.5 Z" fill="white"/>
              <path d="M 368.5 282.5 L 371.5 282.5 C 372.0523 282.5 372.5 282.9477 372.5 283.5 L 372.5 283.5 C 372.5 284.0523 372.0523 284.5 371.5 284.5 L 368.5 284.5 C 367.9477 284.5 367.5 284.0523 367.5 283.5 L 367.5 283.5 C 367.5 282.9477 367.9477 282.5 368.5 282.5 Z" stroke="black" stroke-opacity=".5" stroke-linecap="round" stroke-linejoin="round" stroke-width=".5"/>
            </g>
          </g>
        </g>
        <g id="Group_233">
          <title>THIS</title>
          <g id="Group_248">
            <title>T</title>
            <g id="Graphic_251">
              <path d="M 725 340 L 760 340 C 760 340 765 340 765 345 C 765 345 765 350 760 350 L 725 350 L 725 430 C 725 430 725 440 715 440 C 715 440 705 440 705 430 L 705 350 L 685 350 C 685 350 680 350 680 345 C 680 345 680 340 685 340 C 685 340 700 340 705 340 C 705 340 715 340 715 350 L 715 430 L 715 350 C 715 350 715 340 725 340 Z" fill="#fdf6f7"/>
              <path d="M 725 340 L 760 340 C 760 340 765 340 765 345 C 765 345 765 350 760 350 L 725 350 L 725 430 C 725 430 725 440 715 440 C 715 440 705 440 705 430 L 705 350 L 685 350 C 685 350 680 350 680 345 C 680 345 680 340 685 340 C 685 340 700 340 705 340 C 705 340 715 340 715 350 L 715 430 L 715 350 C 715 350 715 340 725 340 Z" stroke="#1d1d1d" stroke-linecap="round" stroke-linejoin="round" stroke-width="2"/>
            </g>
            <g id="Graphic_250">
              <path d="M 683.5 342.5 L 704 342.5 C 704.5523 342.5 705 342.9477 705 343.5 L 705 343.5 C 705 344.0523 704.5523 344.5 704 344.5 L 683.5 344.5 C 682.9477 344.5 682.5 344.0523 682.5 343.5 L 682.5 343.5 C 682.5 342.9477 682.9477 342.5 683.5 342.5 Z" fill="white"/>
              <path d="M 683.5 342.5 L 704 342.5 C 704.5523 342.5 705 342.9477 705 343.5 L 705 343.5 C 705 344.0523 704.5523 344.5 704 344.5 L 683.5 344.5 C 682.9477 344.5 682.5 344.0523 682.5 343.5 L 682.5 343.5 C 682.5 342.9477 682.9477 342.5 683.5 342.5 Z" stroke="black" stroke-opacity=".5" stroke-linecap="round" stroke-linejoin="round" stroke-width=".5"/>
            </g>
            <g id="Graphic_249">
              <path d="M 726 342.5 L 756.5 342.5 C 757.0523 342.5 757.5 342.9477 757.5 343.5 L 757.5 343.5 C 757.5 344.0523 757.0523 344.5 756.5 344.5 L 726 344.5 C 725.4477 344.5 725 344.0523 725 343.5 L 725 343.5 C 725 342.9477 725.4477 342.5 726 342.5 Z" fill="white"/>
              <path d="M 726 342.5 L 756.5 342.5 C 757.0523 342.5 757.5 342.9477 757.5 343.5 L 757.5 343.5 C 757.5 344.0523 757.0523 344.5 756.5 344.5 L 726 344.5 C 725.4477 344.5 725 344.0523 725 343.5 L 725 343.5 C 725 342.9477 725.4477 342.5 726 342.5 Z" stroke="black" stroke-opacity=".5" stroke-linecap="round" stroke-linejoin="round" stroke-width=".5"/>
            </g>
          </g>
          <g id="Group_242">
            <title>H</title>
            <g id="Graphic_247">
              <path d="M 755 435 L 755 345 C 755 345 755 340 760 340 C 760 340 765 340 765 345 L 765 390 L 785 390 L 785 345 C 785 345 785 340 790 340 C 790 340 795 340 795 345 L 795 390 C 795 390 795 400 785 400 C 785 400 795 400 795 390 L 795 405 C 795 405 795 400 795 405 L 795 430 L 820 430 C 820 430 825 430 825 435 C 825 435 825 440 820 440 L 790 440 C 790 440 785 440 785 435 L 785 405 L 785 400 C 785 400 770 400 765 400 L 765 390 L 765 435 C 765 435 765 440 760 440 C 760 440 755 440 755 435 Z" fill="#fdf6f7"/>
              <path d="M 755 435 L 755 345 C 755 345 755 340 760 340 C 760 340 765 340 765 345 L 765 390 L 785 390 L 785 345 C 785 345 785 340 790 340 C 790 340 795 340 795 345 L 795 390 C 795 390 795 400 785 400 C 785 400 795 400 795 390 L 795 405 C 795 405 795 400 795 405 L 795 430 L 820 430 C 820 430 825 430 825 435 C 825 435 825 440 820 440 L 790 440 C 790 440 785 440 785 435 L 785 405 L 785 400 C 785 400 770 400 765 400 L 765 390 L 765 435 C 765 435 765 440 760 440 C 760 440 755 440 755 435 Z" stroke="#1d1d1d" stroke-linecap="round" stroke-linejoin="round" stroke-width="2"/>
            </g>
            <g id="Graphic_246">
              <path d="M 761 342.5 L 761.5 342.5 C 762.0523 342.5 762.5 342.9477 762.5 343.5 L 762.5 343.5 C 762.5 344.0523 762.0523 344.5 761.5 344.5 L 761 344.5 C 760.4477 344.5 760 344.0523 760 343.5 L 760 343.5 C 760 342.9477 760.4477 342.5 761 342.5 Z" fill="white"/>
              <path d="M 761 342.5 L 761.5 342.5 C 762.0523 342.5 762.5 342.9477 762.5 343.5 L 762.5 343.5 C 762.5 344.0523 762.0523 344.5 761.5 344.5 L 761 344.5 C 760.4477 344.5 760 344.0523 760 343.5 L 760 343.5 C 760 342.9477 760.4477 342.5 761 342.5 Z" stroke="black" stroke-opacity=".5" stroke-linecap="round" stroke-linejoin="round" stroke-width=".5"/>
            </g>
            <g id="Graphic_245">
              <path d="M 791 343 L 791.5 343 C 792.0523 343 792.5 343.4477 792.5 344 L 792.5 344 C 792.5 344.5523 792.0523 345 791.5 345 L 791 345 C 790.4477 345 790 344.5523 790 344 L 790 344 C 790 343.4477 790.4477 343 791 343 Z" fill="white"/>
              <path d="M 791 343 L 791.5 343 C 792.0523 343 792.5 343.4477 792.5 344 L 792.5 344 C 792.5 344.5523 792.0523 345 791.5 345 L 791 345 C 790.4477 345 790 344.5523 790 344 L 790 344 C 790 343.4477 790.4477 343 791 343 Z" stroke="black" stroke-opacity=".5" stroke-linecap="round" stroke-linejoin="round" stroke-width=".5"/>
            </g>
            <g id="Graphic_244">
              <path d="M 771 392.5 L 784 392.5 C 784.5523 392.5 785 392.9477 785 393.5 L 785 393.5 C 785 394.0523 784.5523 394.5 784 394.5 L 771 394.5 C 770.4477 394.5 770 394.0523 770 393.5 L 770 393.5 C 770 392.9477 770.4477 392.5 771 392.5 Z" fill="white"/>
              <path d="M 771 392.5 L 784 392.5 C 784.5523 392.5 785 392.9477 785 393.5 L 785 393.5 C 785 394.0523 784.5523 394.5 784 394.5 L 771 394.5 C 770.4477 394.5 770 394.0523 770 393.5 L 770 393.5 C 770 392.9477 770.4477 392.5 771 392.5 Z" stroke="black" stroke-opacity=".5" stroke-linecap="round" stroke-linejoin="round" stroke-width=".5"/>
            </g>
            <g id="Graphic_243">
              <path d="M 796 432.5 L 819 432.5 C 819.5523 432.5 820 432.9477 820 433.5 L 820 433.5 C 820 434.0523 819.5523 434.5 819 434.5 L 796 434.5 C 795.4477 434.5 795 434.0523 795 433.5 L 795 433.5 C 795 432.9477 795.4477 432.5 796 432.5 Z" fill="white"/>
              <path d="M 796 432.5 L 819 432.5 C 819.5523 432.5 820 432.9477 820 433.5 L 820 433.5 C 820 434.0523 819.5523 434.5 819 434.5 L 796 434.5 C 795.4477 434.5 795 434.0523 795 433.5 L 795 433.5 C 795 432.9477 795.4477 432.5 796 432.5 Z" stroke="black" stroke-opacity=".5" stroke-linecap="round" stroke-linejoin="round" stroke-width=".5"/>
            </g>
          </g>
          <g id="Group_237">
            <title>S</title>
            <g id="Graphic_241">
              <path d="M 830 440 C 830 440 825 440 825 435 C 825 430 830 430 830 430 L 880 430 L 880 390 L 860 390 C 860 390 850 388 850 380 C 850 370 850 350 850 350 C 850 350 850 340 860 340 L 905 340 C 905 340 910 340 910 345 C 910 345 910 350 905 350 L 860 350 L 860 380 L 880 380 C 890 380 890 390 890 390 L 890 430 C 890 430 890 440 880 440 C 870 440 830 440 830 440 Z" fill="#fdf6f7"/>
              <path d="M 830 440 C 830 440 825 440 825 435 C 825 430 830 430 830 430 L 880 430 L 880 390 L 860 390 C 860 390 850 388 850 380 C 850 370 850 350 850 350 C 850 350 850 340 860 340 L 905 340 C 905 340 910 340 910 345 C 910 345 910 350 905 350 L 860 350 L 860 380 L 880 380 C 890 380 890 390 890 390 L 890 430 C 890 430 890 440 880 440 C 870 440 830 440 830 440 Z" stroke="#1d1d1d" stroke-linecap="square" stroke-linejoin="miter" stroke-width="2"/>
            </g>
            <g id="Graphic_240">
              <path d="M 838.5 432.5 L 879 432.5 C 879.5523 432.5 880 432.9477 880 433.5 L 880 433.5 C 880 434.0523 879.5523 434.5 879 434.5 L 838.5 434.5 C 837.9477 434.5 837.5 434.0523 837.5 433.5 L 837.5 433.5 C 837.5 432.9477 837.9477 432.5 838.5 432.5 Z" fill="white"/>
              <path d="M 838.5 432.5 L 879 432.5 C 879.5523 432.5 880 432.9477 880 433.5 L 880 433.5 C 880 434.0523 879.5523 434.5 879 434.5 L 838.5 434.5 C 837.9477 434.5 837.5 434.0523 837.5 433.5 L 837.5 433.5 C 837.5 432.9477 837.9477 432.5 838.5 432.5 Z" stroke="black" stroke-opacity=".5" stroke-linecap="round" stroke-linejoin="round" stroke-width=".5"/>
            </g>
            <g id="Graphic_239">
              <path d="M 861 343 L 901.5 343 C 902.0523 343 902.5 343.4477 902.5 344 L 902.5 344 C 902.5 344.5523 902.0523 345 901.5 345 L 861 345 C 860.4477 345 860 344.5523 860 344 L 860 344 C 860 343.4477 860.4477 343 861 343 Z" fill="white"/>
              <path d="M 861 343 L 901.5 343 C 902.0523 343 902.5 343.4477 902.5 344 L 902.5 344 C 902.5 344.5523 902.0523 345 901.5 345 L 861 345 C 860.4477 345 860 344.5523 860 344 L 860 344 C 860 343.4477 860.4477 343 861 343 Z" stroke="black" stroke-opacity=".5" stroke-linecap="round" stroke-linejoin="round" stroke-width=".5"/>
            </g>
            <g id="Graphic_238">
              <path d="M 861 383 L 879 383 C 879.5523 383 880 383.4477 880 384 L 880 384 C 880 384.5523 879.5523 385 879 385 L 861 385 C 860.4477 385 860 384.5523 860 384 L 860 384 C 860 383.4477 860.4477 383 861 383 Z" fill="white"/>
              <path d="M 861 383 L 879 383 C 879.5523 383 880 383.4477 880 384 L 880 384 C 880 384.5523 879.5523 385 879 385 L 861 385 C 860.4477 385 860 384.5523 860 384 L 860 384 C 860 383.4477 860.4477 383 861 383 Z" stroke="black" stroke-opacity=".5" stroke-linecap="round" stroke-linejoin="round" stroke-width=".5"/>
            </g>
          </g>
          <g id="Group_234">
            <title>I</title>
            <g id="Graphic_236">
              <path d="M 820 440 C 820 440 815 440 815 435 L 815 350 C 815 350 815 340 825 340 C 825 340 835 340 835 350 L 835 435 C 835 435 835 440 830 440 C 830 440 825 440 825 435 L 825 350 L 825 435 C 825 435 825 440 820 440 Z" fill="#fdf6f7"/>
              <path d="M 820 440 C 820 440 815 440 815 435 L 815 350 C 815 350 815 340 825 340 C 825 340 835 340 835 350 L 835 435 C 835 435 835 440 830 440 C 830 440 825 440 825 435 L 825 350 L 825 435 C 825 435 825 440 820 440 Z" stroke="#1d1d1d" stroke-linecap="round" stroke-linejoin="round" stroke-width="2"/>
            </g>
            <g id="Graphic_235">
              <path d="M 823.5 343 L 826.5 343 C 827.0523 343 827.5 343.4477 827.5 344 L 827.5 344 C 827.5 344.5523 827.0523 345 826.5 345 L 823.5 345 C 822.9477 345 822.5 344.5523 822.5 344 L 822.5 344 C 822.5 343.4477 822.9477 343 823.5 343 Z" fill="white"/>
              <path d="M 823.5 343 L 826.5 343 C 827.0523 343 827.5 343.4477 827.5 344 L 827.5 344 C 827.5 344.5523 827.0523 345 826.5 345 L 823.5 345 C 822.9477 345 822.5 344.5523 822.5 344 L 822.5 344 C 822.5 343.4477 822.9477 343 823.5 343 Z" stroke="black" stroke-opacity=".5" stroke-linecap="round" stroke-linejoin="round" stroke-width=".5"/>
            </g>
          </g>
        </g>
      </g>
    </g>
  </g>
</svg>
